<?xml version="1.0" encoding="utf-8"?>
<!-- Generator: Adobe Illustrator 18.0.0, SVG Export Plug-In . SVG Version: 6.00 Build 0)  -->
<!DOCTYPE svg PUBLIC "-//W3C//DTD SVG 1.1//EN" "http://www.w3.org/Graphics/SVG/1.1/DTD/svg11.dtd">
<svg version="1.1" id="Calque_1" xmlns="http://www.w3.org/2000/svg" xmlns:xlink="http://www.w3.org/1999/xlink" x="0px" y="0px"
	 viewBox="0 0 30 30" enable-background="new 0 0 30 30" xml:space="preserve">
<g>
	<path fill="#91A7D6" d="M25.1,9.8H4.9c-0.6,0-1.2-0.5-1.2-1.2V8.5c0-0.6,0.5-1.2,1.2-1.2h20.1c0.6,0,1.2,0.5,1.2,1.2v0.2
		C26.2,9.3,25.7,9.8,25.1,9.8z"/>
	<path fill="#91A7D6" d="M25.1,16.3H4.9c-0.6,0-1.2-0.5-1.2-1.2v-0.2c0-0.6,0.5-1.2,1.2-1.2h20.1c0.6,0,1.2,0.5,1.2,1.2v0.2
		C26.2,15.8,25.7,16.3,25.1,16.3z"/>
	<path fill="#91A7D6" d="M17.4,22.7H4.9c-0.6,0-1.2-0.5-1.2-1.2v-0.2c0-0.6,0.5-1.2,1.2-1.2h12.5c0.6,0,1.2,0.5,1.2,1.2v0.2
		C18.6,22.2,18.1,22.7,17.4,22.7z"/>
</g>
</svg>
