<?xml version="1.0" encoding="UTF-8" standalone="no"?>
<svg
   xmlns:dc="http://purl.org/dc/elements/1.1/"
   xmlns:cc="http://creativecommons.org/ns#"
   xmlns:rdf="http://www.w3.org/1999/02/22-rdf-syntax-ns#"
   xmlns:svg="http://www.w3.org/2000/svg"
   xmlns="http://www.w3.org/2000/svg"
   xmlns:sodipodi="http://sodipodi.sourceforge.net/DTD/sodipodi-0.dtd"
   xmlns:inkscape="http://www.inkscape.org/namespaces/inkscape"
   id="Capa_1"
   enable-background="new 0 0 512 512"
   height="512"
   viewBox="0 0 512 512"
   width="512"
   version="1.1"
   sodipodi:docname="cancel.svg"
   inkscape:version="0.92.4 (5da689c313, 2019-01-14)">
  <metadata
     id="metadata11">
    <rdf:RDF>
      <cc:Work
         rdf:about="">
        <dc:format>image/svg+xml</dc:format>
        <dc:type
           rdf:resource="http://purl.org/dc/dcmitype/StillImage" />
      </cc:Work>
    </rdf:RDF>
  </metadata>
  <defs
     id="defs9" />
  <sodipodi:namedview
     pagecolor="#ffffff"
     bordercolor="#666666"
     borderopacity="1"
     objecttolerance="10"
     gridtolerance="10"
     guidetolerance="10"
     inkscape:pageopacity="0"
     inkscape:pageshadow="2"
     inkscape:window-width="1920"
     inkscape:window-height="1043"
     id="namedview7"
     showgrid="false"
     inkscape:zoom="0.4609375"
     inkscape:cx="-247.32203"
     inkscape:cy="256"
     inkscape:window-x="0"
     inkscape:window-y="0"
     inkscape:window-maximized="1"
     inkscape:current-layer="Capa_1" />
  <g
     id="g4"
     transform="matrix(0.69067797,0,0,0.69067797,79.18644,79.18644)">
    <path
       d="M 256,0 C 115.3,0 0,115.3 0,256 0,396.7 115.3,512 256,512 396.7,512 512,396.7 512,256 512,115.3 396.7,0 256,0 Z M 88.001,354.399 C 70.901,325.6 61,292 61,256 61,148.9 147.4,61.3 255.399,61 291.7,61 325.3,70.899 354.4,87.999 363.099,93.1 364.899,104.5 358,111.7 312.1,157.599 157.599,312.1 111.7,357.999 104.5,364.9 93.1,363.1 88.001,354.399 Z M 256.601,451 C 220.3,451 186.7,441.099 157.6,423.999 148.901,418.9 147.101,407.199 154.3,400.3 l 246,-246 c 6.899,-7.2 18.6,-5.4 23.699,3.3 C 441.099,186.4 451,220 451,256 451,363.699 363.999,450.7 256.601,451 Z"
       id="path2"
       inkscape:connector-curvature="0" />
  </g>
</svg>
