<?xml version="1.0" encoding="utf-8"?>
<!-- Generator: Adobe Illustrator 18.0.0, SVG Export Plug-In . SVG Version: 6.00 Build 0)  -->
<!DOCTYPE svg PUBLIC "-//W3C//DTD SVG 1.1//EN" "http://www.w3.org/Graphics/SVG/1.1/DTD/svg11.dtd">
<svg version="1.1" id="Calque_1" xmlns="http://www.w3.org/2000/svg" xmlns:xlink="http://www.w3.org/1999/xlink" x="0px" y="0px"
	 viewBox="0 0 30 30" enable-background="new 0 0 30 30" xml:space="preserve">
<g>
	<g>
		<path fill="#1FBAA8" d="M24.9,17.9c-0.3,0-0.6,0.3-0.6,0.6v5c0,0.9-0.8,1.7-1.7,1.7H6.8c-0.9,0-1.7-0.8-1.7-1.7V8.7
			c0-0.9,0.8-1.7,1.7-1.7h5c0.3,0,0.6-0.3,0.6-0.6c0-0.3-0.3-0.6-0.6-0.6h-5C5.3,5.9,4,7.2,4,8.7v14.7c0,1.6,1.3,2.8,2.8,2.8h15.8
			c1.6,0,2.8-1.3,2.8-2.8v-5C25.5,18.1,25.2,17.9,24.9,17.9z"/>
		<path fill="#1FBAA8" d="M25.2,4.5c-1-1-2.6-1-3.6,0L11.6,14.5c-0.1,0.1-0.1,0.2-0.1,0.2l-1.3,4.8c-0.1,0.2,0,0.4,0.1,0.5
			c0.1,0.1,0.4,0.2,0.5,0.1l4.8-1.3c0.1,0,0.2-0.1,0.2-0.1L25.9,8.7c1-1,1-2.6,0-3.6L25.2,4.5z M12.8,14.9L21,6.7l2.7,2.7l-8.2,8.2
			L12.8,14.9z M12.3,16l2.1,2.1l-2.9,0.8L12.3,16z M25.1,7.9l-0.6,0.6l-2.7-2.7l0.6-0.6c0.6-0.6,1.4-0.6,2,0l0.7,0.7
			C25.6,6.5,25.6,7.4,25.1,7.9z"/>
	</g>
</g>
</svg>
