<?xml version="1.0" encoding="utf-8"?>
<!-- Generator: Adobe Illustrator 18.0.0, SVG Export Plug-In . SVG Version: 6.00 Build 0)  -->
<!DOCTYPE svg PUBLIC "-//W3C//DTD SVG 1.1//EN" "http://www.w3.org/Graphics/SVG/1.1/DTD/svg11.dtd">
<svg version="1.1" id="Calque_1" xmlns="http://www.w3.org/2000/svg" xmlns:xlink="http://www.w3.org/1999/xlink" x="0px" y="0px"
	 viewBox="0 0 30 30" enable-background="new 0 0 30 30" xml:space="preserve">
<g>
	<g>
		<g>
			<g>
				<path fill="#91A7D6" d="M4.8,11.2c-0.4-0.2-1,0-1.1,0.4c-0.2,0.4-0.4,0.9-0.5,1.4c-0.1,0.4,0.2,0.9,0.6,1.1c0.1,0,0.2,0,0.3,0
					c0.4,0,0.7-0.3,0.8-0.5c0.1-0.4,0.3-0.9,0.4-1.2C5.4,11.9,5.3,11.4,4.8,11.2z"/>
			</g>
		</g>
		<g>
			<g>
				<path fill="#91A7D6" d="M4.8,18.9c-0.2-0.7-0.4-1.4-0.4-2.1c-0.1-0.4-0.5-0.8-1-0.8c-0.4,0.1-0.8,0.4-0.8,1
					c0,0.9,0.2,1.8,0.4,2.5c0.2,0.4,0.5,0.6,0.9,0.6c0.1,0,0.2,0,0.3-0.2C4.7,19.9,4.9,19.4,4.8,18.9z"/>
			</g>
		</g>
		<g>
			<g>
				<path fill="#91A7D6" d="M8.6,24.7c-1-0.7-1.8-1.6-2.5-2.6c-0.3-0.4-0.8-0.5-1.2-0.3s-0.5,0.8-0.3,1.2c0.8,1.1,1.8,2.2,2.9,3.1
					c0.2,0.1,0.4,0.2,0.5,0.2c0.3,0,0.5-0.1,0.7-0.4C9,25.6,8.9,25,8.6,24.7z"/>
			</g>
		</g>
		<g>
			<g>
				<path fill="#91A7D6" d="M19.3,27c-0.2-0.5-0.7-0.8-1.1-0.6c-2,0.6-4.2,0.6-6.2,0c-0.5-0.1-1,0.2-1.1,0.6c-0.1,0.5,0.2,1,0.6,1.1
					c1.1,0.4,2.4,0.5,3.6,0.5s2.5-0.2,3.7-0.5C19.2,28,19.5,27.6,19.3,27z"/>
			</g>
		</g>
		<path fill="#91A7D6" d="M26.4,11.7c-1.2-3.1-3.6-5.4-6.6-6.8c-1.4-0.6-2.9-0.9-4.4-1l1.5-1.2c0.4-0.3,0.4-0.9,0.2-1.2
			c-0.3-0.4-0.9-0.4-1.2-0.2l-3.2,2.5c-0.4,0.3-0.4,0.9-0.2,1.2L15,8.5c0.2,0.3,0.4,0.4,0.7,0.4c0.2,0,0.4,0,0.4-0.1
			c0.4-0.3,0.4-0.9,0.2-1.2L15,5.8c1.4,0,2.8,0.3,4.1,0.9c2.5,1.1,4.6,3.2,5.6,5.8c1.1,2.6,1.1,5.5-0.1,8.1
			c-0.7,1.6-1.8,3.1-3.2,4.1c-0.4,0.3-0.4,0.9-0.2,1.2c0.2,0.3,0.4,0.4,0.7,0.4c0.2,0,0.4,0,0.6-0.3c1.6-1.2,2.9-2.9,3.7-4.8
			C27.5,18.2,27.6,14.8,26.4,11.7z"/>
	</g>
</g>
</svg>
