<?xml version="1.0" encoding="utf-8"?>
<!-- Generator: Adobe Illustrator 18.0.0, SVG Export Plug-In . SVG Version: 6.00 Build 0)  -->
<!DOCTYPE svg PUBLIC "-//W3C//DTD SVG 1.1//EN" "http://www.w3.org/Graphics/SVG/1.1/DTD/svg11.dtd">
<svg version="1.1" id="Calque_1" xmlns="http://www.w3.org/2000/svg" xmlns:xlink="http://www.w3.org/1999/xlink" x="0px" y="0px"
	 viewBox="0 0 30 30" enable-background="new 0 0 30 30" xml:space="preserve">
<g>
	<g>
		<path fill="#1FBAA8" d="M13.5,8.1c0-0.4,0.1-0.8,0.4-1s0.6-0.4,1-0.4s0.8,0.1,1,0.4s0.4,0.6,0.4,1V14h5.9c0.4,0,0.8,0.1,1,0.4
			c0.3,0.3,0.4,0.6,0.4,1s-0.1,0.8-0.4,1c-0.3,0.3-0.6,0.4-1,0.4h-5.9v5.9c0,0.4-0.1,0.8-0.4,1s-0.6,0.4-1,0.4s-0.8-0.1-1-0.4
			s-0.4-0.6-0.4-1V17H7.6c-0.4,0-0.8-0.1-1-0.4c-0.3-0.3-0.4-0.6-0.4-1s0.1-0.8,0.4-1s0.6-0.4,1-0.4h5.9V8.1z"/>
	</g>
</g>
</svg>
