<?xml version="1.0" encoding="utf-8"?>
<!-- Generator: Adobe Illustrator 18.0.0, SVG Export Plug-In . SVG Version: 6.00 Build 0)  -->
<!DOCTYPE svg PUBLIC "-//W3C//DTD SVG 1.1//EN" "http://www.w3.org/Graphics/SVG/1.1/DTD/svg11.dtd">
<svg version="1.1" id="Calque_1" xmlns="http://www.w3.org/2000/svg" xmlns:xlink="http://www.w3.org/1999/xlink" x="0px" y="0px"
	 viewBox="0 0 30 30" enable-background="new 0 0 30 30" xml:space="preserve">
<g>
	<path fill="#FFFFFF" d="M22.9,26.4c-0.3,0-0.7-0.1-0.9-0.4L12,16c-0.5-0.5-0.5-1.4,0-1.9l9.4-9.4c0.5-0.5,1.4-0.5,1.9,0
		c0.5,0.5,0.5,1.4,0,1.9l-8.5,8.5l9,9c0.5,0.5,0.5,1.4,0,1.9C23.6,26.2,23.2,26.4,22.9,26.4z"/>
	<path fill="#FFFFFF" d="M7.1,27.1c-0.7,0-1.3-0.6-1.3-1.3V4.2c0-0.7,0.6-1.3,1.3-1.3s1.3,0.6,1.3,1.3v21.6
		C8.4,26.5,7.8,27.1,7.1,27.1z"/>
</g>
</svg>
