<?xml version="1.0" encoding="utf-8"?>
<!-- Generator: Adobe Illustrator 18.0.0, SVG Export Plug-In . SVG Version: 6.00 Build 0)  -->
<!DOCTYPE svg PUBLIC "-//W3C//DTD SVG 1.1//EN" "http://www.w3.org/Graphics/SVG/1.1/DTD/svg11.dtd">
<svg version="1.1" id="Calque_1" xmlns="http://www.w3.org/2000/svg" xmlns:xlink="http://www.w3.org/1999/xlink" x="0px" y="0px"
	 viewBox="0 0 30 30" enable-background="new 0 0 30 30" xml:space="preserve">
<g>
	<g>
		<g>
			<g>
				<path fill="#91A7D6" d="M20.4,3c-3.3,0-6.1,1.7-7.3,4.2c-0.2,0-0.5,0-0.6,0c-0.5,0-1.9,0.1-3.3,1C8.4,8.6,8,9.3,8,10.3
					c0,0,0,0,0,0l0,0l0,1.8l0,0c0,0,0,0,0,0c-0.2,0.1-0.3,0-0.3,0.4c0,0.4,0,1.6,0.5,1.9c0.1,0.1,0.1,0.3,0.1,0.5
					c0.1,0.4,0.1,0.9,0.3,1.2C9.2,16.8,9,17.9,9,17.9c0,0,0,0,0,0c-0.3,0.1-0.4,0.4-0.5,0.6l0,0.1c-0.1,0.3-0.2,0.5-0.3,0.8
					c0,0-0.1,0.1-0.2,0.1l-0.2,0.1c-1.5,0.6-3.1,1.2-4.5,2c-1.4,0.8-1.7,4.9-1.7,5c0,0.1,0,0.2,0.1,0.2C1.7,26.9,1.8,27,1.9,27H12
					H22c0.1,0,0.2,0,0.2-0.1c0.1-0.1,0.1-0.1,0.1-0.2c0-0.1-0.3-4.3-1.7-5c-1.5-0.8-3-1.4-4.5-2l-0.2-0.1c-0.1,0-0.1-0.1-0.2-0.1
					c-0.1-0.2-0.2-0.5-0.3-0.8l0-0.1c-0.1-0.2-0.1-0.5-0.5-0.6c0,0,0,0,0,0c0-0.1-0.2-1.2,0.4-1.9c0.1-0.1,0.2-0.3,0.2-0.5
					c1.1,0.7,2.4,1.3,3.8,1.4v2.6c0,0.3,0.2,0.5,0.4,0.6c0.1,0,0.2,0,0.2,0c0.2,0,0.4-0.1,0.5-0.2l3.5-3.7c1.3-0.6,2.4-1.4,3.1-2.5
					c0.8-1.1,1.3-2.5,1.3-3.8C28.4,6.2,24.8,3,20.4,3z M23.3,15.2c-0.1,0-0.2,0.1-0.2,0.2l-2.4,2.6v-1.5c0-0.4-0.3-0.6-0.6-0.7
					c-1.6-0.1-3-0.6-4.1-1.5c0.3-0.4,0.4-1.3,0.3-1.7c0-0.4-0.1-0.3-0.3-0.4c0,0,0,0,0,0l0,0l0-1.8c0-0.9-0.2-1.5-0.7-1.8
					c-0.2-0.2-0.4-0.3-0.6-0.4c-0.1-0.1-0.2-0.2-0.4-0.2c1-2,3.4-3.5,6.1-3.5c3.7,0,6.7,2.5,6.7,5.7C27.1,12.2,25.6,14.2,23.3,15.2z
					"/>
			</g>
		</g>
		<circle fill="#91A7D6" cx="17.7" cy="10" r="0.8"/>
		<circle fill="#91A7D6" cx="20.4" cy="10" r="0.8"/>
		<circle fill="#91A7D6" cx="23.1" cy="10" r="0.8"/>
	</g>
</g>
</svg>
