<?xml version="1.0" encoding="UTF-8" standalone="no"?>
<svg
   xmlns:dc="http://purl.org/dc/elements/1.1/"
   xmlns:cc="http://creativecommons.org/ns#"
   xmlns:rdf="http://www.w3.org/1999/02/22-rdf-syntax-ns#"
   xmlns:svg="http://www.w3.org/2000/svg"
   xmlns="http://www.w3.org/2000/svg"
   xmlns:sodipodi="http://sodipodi.sourceforge.net/DTD/sodipodi-0.dtd"
   xmlns:inkscape="http://www.inkscape.org/namespaces/inkscape"
   id="Capa_1"
   enable-background="new 0 0 512 512"
   height="512"
   viewBox="0 0 512 512"
   width="512"
   version="1.1"
   sodipodi:docname="speed.svg"
   inkscape:version="0.92.4 (5da689c313, 2019-01-14)">
  <metadata
     id="metadata9">
    <rdf:RDF>
      <cc:Work
         rdf:about="">
        <dc:format>image/svg+xml</dc:format>
        <dc:type
           rdf:resource="http://purl.org/dc/dcmitype/StillImage" />
      </cc:Work>
    </rdf:RDF>
  </metadata>
  <defs
     id="defs7" />
  <sodipodi:namedview
     pagecolor="#ffffff"
     bordercolor="#666666"
     borderopacity="1"
     objecttolerance="10"
     gridtolerance="10"
     guidetolerance="10"
     inkscape:pageopacity="0"
     inkscape:pageshadow="2"
     inkscape:window-width="1920"
     inkscape:window-height="1043"
     id="namedview5"
     showgrid="false"
     inkscape:zoom="0.4609375"
     inkscape:cx="-247.32203"
     inkscape:cy="256"
     inkscape:window-x="0"
     inkscape:window-y="0"
     inkscape:window-maximized="1"
     inkscape:current-layer="Capa_1" />
  <path
     d="m 494.75224,325.81154 c 0,-63.77296 -24.8349,-123.72869 -69.92829,-168.82395 C 379.7287,111.89325 319.77296,87.059296 256.00001,87.059296 c -63.77297,0 -123.72869,24.834894 -168.823953,69.928294 -45.093399,45.09526 -69.928295,105.05099 -69.928295,168.82395 v 13.98938 H 208.451 c 3.80978,11.49275 11.53751,21.11652 22.06313,27.33061 7.98142,4.71162 16.74343,6.95086 25.401,6.95086 17.16592,0 33.91028,-8.81145 43.25146,-24.63345 1.82421,-3.08979 3.28471,-6.32414 4.3992,-9.64802 h 191.18645 z m -219.67816,9.41299 c -6.20756,10.51629 -19.81552,14.0239 -30.33461,7.81354 -5.09493,-3.00772 -8.7135,-7.81914 -10.18894,-13.54919 -1.47635,-5.73005 -0.63325,-11.69046 2.3754,-16.7854 3.00865,-5.09494 7.82007,-8.71353 13.5492,-10.18894 1.84286,-0.4747 3.70904,-0.70879 5.56219,-0.70879 3.91142,0 7.7669,1.04453 11.22322,3.08512 5.09493,3.00772 8.7135,7.81914 10.18894,13.54919 1.47635,5.72912 0.63325,11.69046 -2.3754,16.78447 z m 29.55396,-23.40238 c -0.0298,-0.12032 -0.0531,-0.24155 -0.084,-0.36186 -2.14131,-8.3153 -6.2859,-15.76884 -12.01875,-21.84676 l 40.20177,-68.09569 -24.09346,-14.22441 -40.20177,68.09568 c -8.09053,-2.08255 -16.61846,-2.11145 -24.93562,0.0299 -12.9663,3.33973 -23.85657,11.52912 -30.6638,23.0601 -2.49384,4.22481 -4.32366,8.71446 -5.48571,13.34309 H 45.685392 c 1.857791,-28.20914 9.303877,-54.91302 21.217245,-79.03259 l 31.0667,17.93621 13.989383,-24.22962 -31.032193,-17.91575 c 15.33611,-22.82787 35.011713,-42.50721 57.839593,-57.84331 l 17.91762,31.03406 24.22961,-13.9894 -17.93999,-31.07323 C 187.092,124.7952 213.80148,117.3687 242.00967,115.51092 v 35.89957 h 27.97879 v -35.89957 c 28.20821,1.85778 54.91769,9.28428 79.03632,21.19765 l -17.94,31.07323 24.22964,13.9894 17.91761,-31.03406 c 22.82788,15.3361 42.50256,35.01544 57.83959,57.84331 l -31.0322,17.91575 13.98938,24.22962 31.0667,-17.93626 c 11.91337,24.11957 19.35945,50.82345 21.21725,79.03259 z"
     id="path2"
     inkscape:connector-curvature="0"
     style="stroke-width:0.93262595" />
</svg>
