<?xml version="1.0" encoding="UTF-8" standalone="no"?>
<svg
   xmlns:dc="http://purl.org/dc/elements/1.1/"
   xmlns:cc="http://creativecommons.org/ns#"
   xmlns:rdf="http://www.w3.org/1999/02/22-rdf-syntax-ns#"
   xmlns:svg="http://www.w3.org/2000/svg"
   xmlns="http://www.w3.org/2000/svg"
   xmlns:sodipodi="http://sodipodi.sourceforge.net/DTD/sodipodi-0.dtd"
   xmlns:inkscape="http://www.inkscape.org/namespaces/inkscape"
   height="512"
   viewBox="0 0 58 58"
   width="512"
   version="1.1"
   id="svg7"
   sodipodi:docname="split.svg"
   inkscape:version="0.92.4 (5da689c313, 2019-01-14)">
  <metadata
     id="metadata13">
    <rdf:RDF>
      <cc:Work
         rdf:about="">
        <dc:format>image/svg+xml</dc:format>
        <dc:type
           rdf:resource="http://purl.org/dc/dcmitype/StillImage" />
        <dc:title></dc:title>
      </cc:Work>
    </rdf:RDF>
  </metadata>
  <defs
     id="defs11" />
  <sodipodi:namedview
     pagecolor="#ffffff"
     bordercolor="#666666"
     borderopacity="1"
     objecttolerance="10"
     gridtolerance="10"
     guidetolerance="10"
     inkscape:pageopacity="0"
     inkscape:pageshadow="2"
     inkscape:window-width="1920"
     inkscape:window-height="1043"
     id="namedview9"
     showgrid="false"
     inkscape:zoom="0.4609375"
     inkscape:cx="260.33898"
     inkscape:cy="256"
     inkscape:window-x="0"
     inkscape:window-y="0"
     inkscape:window-maximized="1"
     inkscape:current-layer="svg7" />
  <g
     id="Page-1"
     transform="matrix(0.63137148,0,0,0.63137148,10.690227,10.690999)"
     style="fill:none;fill-rule:evenodd">
    <g
       id="029---Lane-Split"
       transform="translate(0,-1)"
       style="fill:#000000;fill-rule:nonzero">
      <path
         id="Shape"
         d="M 12.16,1.41 0.19,18.44 C -0.025543,18.741779 -0.0536504,19.138939 0.1172427,19.468066 0.28813583,19.797194 0.62916024,20.002689 1,20 h 6 v 3 c -0.00166,7.448859 3.213595,14.535541 8.82,19.44 l 2.46,2.15 C 21.279791,47.217813 23.000114,51.012 23,55 v 3 c 0,0.552285 0.447715,1 1,1 h 10 c 0.552285,0 1,-0.447715 1,-1 V 55 C 34.981439,47.555526 31.76979,40.476787 26.18,35.56 L 23.72,33.41 C 20.720209,30.782187 18.999886,26.988 19,23 v -3 h 6 c 0.37084,0.0027 0.711864,-0.202806 0.882757,-0.531934 C 26.05365,19.138939 26.025543,18.741779 25.81,18.44 L 13.78,1.41 C 13.591519,1.1508659 13.290431,0.99755411 12.97,0.99755411 c -0.32043,0 -0.621519,0.15331179 -0.81,0.41244589 z"
         inkscape:connector-curvature="0" />
      <path
         id="path3"
         d="m 32,19.01 c 0.0011,0.263974 0.107074,0.516686 0.294669,0.702405 C 32.482264,19.898124 32.736029,20.001595 33,20 h 6 v 3 c 1.14e-4,3.988 -1.720209,7.782187 -4.72,10.41 l -2.46,2.15 c -0.51,0.45 -1,0.92 -1.47,1.4 0.06,0.08 0.13,0.15 0.19,0.23 2.864255,3.427275 4.857535,7.496173 5.81,11.86 0.804226,-1.702868 1.951529,-3.221259 3.37,-4.46 l 2.46,-2.15 C 47.786405,37.535541 51.001659,30.448859 51,23 v -3 h 6 c 0.37084,0.0027 0.711864,-0.202806 0.882757,-0.531934 C 58.05365,19.138939 58.025543,18.741779 57.81,18.44 L 45.78,1.41 C 45.591519,1.1508659 45.29043,0.99755411 44.97,0.99755411 44.649569,0.99755411 44.348481,1.1508659 44.16,1.41 L 32.19,18.44 c -0.121763,0.165259 -0.188255,0.364735 -0.19,0.57 z"
         inkscape:connector-curvature="0" />
    </g>
  </g>
</svg>
