<?xml version="1.0" encoding="utf-8"?>
<!-- Generator: Adobe Illustrator 18.0.0, SVG Export Plug-In . SVG Version: 6.00 Build 0)  -->
<!DOCTYPE svg PUBLIC "-//W3C//DTD SVG 1.1//EN" "http://www.w3.org/Graphics/SVG/1.1/DTD/svg11.dtd">
<svg version="1.1" id="Calque_1" xmlns="http://www.w3.org/2000/svg" xmlns:xlink="http://www.w3.org/1999/xlink" x="0px" y="0px"
	 viewBox="0 0 30 30" enable-background="new 0 0 30 30" xml:space="preserve">
<path fill="#010101" d="M18.4,23.1h-6.7c-0.9,0-1.6-0.8-1.6-1.7L9.4,12c0-0.2,0.1-0.3,0.3-0.3h10.6c0.2,0,0.3,0.2,0.3,0.3l-0.7,9.5
	C19.9,22.4,19.2,23.1,18.4,23.1z M10,12.3l0.7,9.1c0,0.6,0.4,1,0.9,1h6.7c0.5,0,0.9-0.5,0.9-1l0.7-9.1H10z"/>
<path fill="#010101" d="M21.5,12.3H8.5c-0.2,0-0.3-0.2-0.3-0.3v-1.4c0-0.9,0.7-1.7,1.6-1.7h10.6c0.9,0,1.6,0.8,1.6,1.7V12
	C21.9,12.1,21.7,12.3,21.5,12.3z M8.8,11.6h12.5v-1c0-0.6-0.4-1-0.9-1H9.7c-0.5,0-0.9,0.5-0.9,1V11.6z"/>
<path fill="#010101" d="M17.2,9.6h-4.4c-0.2,0-0.3-0.2-0.3-0.3V7.9c0-0.6,0.4-1,0.9-1h3.1c0.5,0,0.9,0.5,0.9,1v1.4
	C17.5,9.4,17.4,9.6,17.2,9.6z M13.1,8.9h3.7v-1c0-0.2-0.1-0.3-0.3-0.3h-3.1c-0.2,0-0.3,0.2-0.3,0.3V8.9z"/>
<path fill="#010101" d="M12.2,20.4c-0.2,0-0.3-0.2-0.3-0.3v-5.4c0-0.2,0.1-0.3,0.3-0.3c0.2,0,0.3,0.2,0.3,0.3v5.4
	C12.5,20.3,12.4,20.4,12.2,20.4z"/>
<path fill="#010101" d="M15,20.4c-0.2,0-0.3-0.2-0.3-0.3v-5.4c0-0.2,0.1-0.3,0.3-0.3s0.3,0.2,0.3,0.3v5.4
	C15.3,20.3,15.2,20.4,15,20.4z"/>
<path fill="#010101" d="M17.8,20.4c-0.2,0-0.3-0.2-0.3-0.3v-5.4c0-0.2,0.1-0.3,0.3-0.3c0.2,0,0.3,0.2,0.3,0.3v5.4
	C18.1,20.3,18,20.4,17.8,20.4z"/>
</svg>
