<?xml version="1.0" encoding="utf-8"?>
<!-- Generator: Adobe Illustrator 24.0.0, SVG Export Plug-In . SVG Version: 6.00 Build 0)  -->
<svg version="1.1" id="Calque_1" xmlns="http://www.w3.org/2000/svg" xmlns:xlink="http://www.w3.org/1999/xlink" x="0px" y="0px"
	 viewBox="0 0 60 60" style="enable-background:new 0 0 60 60;" xml:space="preserve">
<style type="text/css">
	.st0{fill:#8CA5D6;}
</style>
<g>
	<g>
		<g>
			<g>
				<path class="st0" d="M56.1,29.4C55.6,28.8,45.7,14.7,30,14.7c-13.5,0-25.5,14-26,14.6c-0.3,0.4-0.3,1,0,1.4
					c0.5,0.6,12.5,14.6,26,14.6s25.5-14,26-14.6C56.3,30.3,56.3,29.8,56.1,29.4z M30,43.1C19.2,43.1,8.9,32.8,6.3,30
					C8.9,27.2,19.2,16.9,30,16.9c12.6,0,21.6,10.3,23.7,13.1C51.2,32.7,40.9,43.1,30,43.1z"/>
			</g>
		</g>
	</g>
	<g>
		<g>
			<g>
				<path class="st0" d="M30,21.2c-4.8,0-8.7,3.9-8.7,8.7s3.9,8.7,8.7,8.7s8.7-3.9,8.7-8.7S34.8,21.2,30,21.2z"/>
			</g>
		</g>
	</g>
</g>
</svg>
