<?xml version="1.0" encoding="UTF-8" standalone="no"?>
<!-- Generator: Adobe Illustrator 19.0.0, SVG Export Plug-In . SVG Version: 6.00 Build 0)  -->

<svg
   xmlns:dc="http://purl.org/dc/elements/1.1/"
   xmlns:cc="http://creativecommons.org/ns#"
   xmlns:rdf="http://www.w3.org/1999/02/22-rdf-syntax-ns#"
   xmlns:svg="http://www.w3.org/2000/svg"
   xmlns="http://www.w3.org/2000/svg"
   xmlns:sodipodi="http://sodipodi.sourceforge.net/DTD/sodipodi-0.dtd"
   xmlns:inkscape="http://www.inkscape.org/namespaces/inkscape"
   version="1.1"
   id="Capa_1"
   x="0px"
   y="0px"
   viewBox="0 0 59.999999 59.999999"
   xml:space="preserve"
   sodipodi:docname="warning.svg"
   width="60"
   height="60"
   inkscape:version="0.92.4 (5da689c313, 2019-01-14)"><metadata
   id="metadata41"><rdf:RDF><cc:Work
       rdf:about=""><dc:format>image/svg+xml</dc:format><dc:type
         rdf:resource="http://purl.org/dc/dcmitype/StillImage" /><dc:title></dc:title></cc:Work></rdf:RDF></metadata><defs
   id="defs39" /><sodipodi:namedview
   pagecolor="#ffffff"
   bordercolor="#666666"
   borderopacity="1"
   objecttolerance="10"
   gridtolerance="10"
   guidetolerance="10"
   inkscape:pageopacity="0"
   inkscape:pageshadow="2"
   inkscape:window-width="1920"
   inkscape:window-height="1043"
   id="namedview37"
   showgrid="false"
   inkscape:zoom="10.992074"
   inkscape:cx="14.069074"
   inkscape:cy="32.318217"
   inkscape:window-x="0"
   inkscape:window-y="0"
   inkscape:window-maximized="1"
   inkscape:current-layer="g4" />
<g
   id="g4"
   transform="matrix(1.4692399,0,0,1.4692399,-7.0337147,-638.59234)"
   style="stroke-width:1.36124808;stroke-miterlimit:4;stroke-dasharray:none">
	<path
   d="M 39.975802,462.08697 29.19513,443.41399 c -1.760885,-3.08472 -6.213771,-3.08472 -7.968322,0 l -10.787005,18.67298 c -1.7608855,3.08472 0.43072,6.91686 3.984161,6.91686 h 21.529672 c 3.553441,0 5.783051,-3.87015 4.022166,-6.91686 z m -14.771167,1.74543 c -0.937449,0 -1.758812,-0.56249 -1.716546,-1.71655 0.04227,-1.15406 0.779097,-1.71655 1.716546,-1.71655 0.93745,0 1.760029,0.55626 1.678542,1.76089 0.0013,1.11355 -0.779097,1.67221 -1.678542,1.67221 z m 1.564528,-12.79096 c -0.07601,1.33016 -0.158353,2.65399 -0.234363,3.98416 -0.038,0.43072 -0.038,0.82343 -0.038,1.24782 -0.038,0.70309 -0.589074,1.24782 -1.292161,1.24782 -0.703087,0 -1.247821,-0.50673 -1.29216,-1.20981 -0.114014,-2.07126 -0.234363,-4.10451 -0.348377,-6.17577 -0.038,-0.54474 -0.07601,-1.0958 -0.120348,-1.64054 0,-0.89944 0.50673,-1.64053 1.330165,-1.8749 0.823436,-0.19635 1.640537,0.19636 1.995248,0.97546 0.120348,0.27236 0.158353,0.54473 0.158353,0.86144 -0.038,0.86777 -0.120349,1.72921 -0.158353,2.58432 z"
   id="path2"
   inkscape:connector-curvature="0"
   style="opacity:1;fill:none;stroke:#000000;stroke-width:1.36124814;stroke-miterlimit:4;stroke-dasharray:none;stroke-opacity:1"
   sodipodi:nodetypes="ccccsscssscscccscccccccc" />
</g>
<g
   id="g6"
   transform="translate(0,-425.811)"
   style="stroke-width:1;stroke-miterlimit:4;stroke-dasharray:none">
</g>
<g
   id="g8"
   transform="translate(0,-425.811)"
   style="stroke-width:1;stroke-miterlimit:4;stroke-dasharray:none">
</g>
<g
   id="g10"
   transform="translate(0,-425.811)"
   style="stroke-width:1;stroke-miterlimit:4;stroke-dasharray:none">
</g>
<g
   id="g12"
   transform="translate(0,-425.811)"
   style="stroke-width:1;stroke-miterlimit:4;stroke-dasharray:none">
</g>
<g
   id="g14"
   transform="translate(0,-425.811)"
   style="stroke-width:1;stroke-miterlimit:4;stroke-dasharray:none">
</g>
<g
   id="g16"
   transform="translate(0,-425.811)"
   style="stroke-width:1;stroke-miterlimit:4;stroke-dasharray:none">
</g>
<g
   id="g18"
   transform="translate(0,-425.811)"
   style="stroke-width:1;stroke-miterlimit:4;stroke-dasharray:none">
</g>
<g
   id="g20"
   transform="translate(0,-425.811)"
   style="stroke-width:1;stroke-miterlimit:4;stroke-dasharray:none">
</g>
<g
   id="g22"
   transform="translate(0,-425.811)"
   style="stroke-width:1;stroke-miterlimit:4;stroke-dasharray:none">
</g>
<g
   id="g24"
   transform="translate(0,-425.811)"
   style="stroke-width:1;stroke-miterlimit:4;stroke-dasharray:none">
</g>
<g
   id="g26"
   transform="translate(0,-425.811)"
   style="stroke-width:1;stroke-miterlimit:4;stroke-dasharray:none">
</g>
<g
   id="g28"
   transform="translate(0,-425.811)"
   style="stroke-width:1;stroke-miterlimit:4;stroke-dasharray:none">
</g>
<g
   id="g30"
   transform="translate(0,-425.811)"
   style="stroke-width:1;stroke-miterlimit:4;stroke-dasharray:none">
</g>
<g
   id="g32"
   transform="translate(0,-425.811)"
   style="stroke-width:1;stroke-miterlimit:4;stroke-dasharray:none">
</g>
<g
   id="g34"
   transform="translate(0,-425.811)"
   style="stroke-width:1;stroke-miterlimit:4;stroke-dasharray:none">
</g>
</svg>