<?xml version="1.0" encoding="utf-8"?>
<!-- Generator: Adobe Illustrator 24.0.1, SVG Export Plug-In . SVG Version: 6.00 Build 0)  -->
<svg version="1.1" id="Calque_1" xmlns="http://www.w3.org/2000/svg" xmlns:xlink="http://www.w3.org/1999/xlink" x="0px" y="0px"
	 viewBox="0 0 800 800" style="enable-background:new 0 0 800 800;" xml:space="preserve">
<style type="text/css">
	.st0{fill:#1DAF92;}
	.st1{opacity:0.5;fill:#07634B;}
	.st2{fill:#151515;}
</style>
<g>
	<path class="st0" d="M414.8,42.3C229.4,33.8,76.1,187.9,85.7,373.3c5.7,109.5,67.3,204.3,156.9,256.1c0,0,0.1,0,0.1,0L322,491.8
		c-46.4-26.9-77.6-77.2-77.6-134.7c0-85.9,69.7-155.6,155.6-155.6s155.6,69.7,155.6,155.6c0,57.5-31.2,107.7-77.6,134.7l79.4,137.5
		c0,0,0.1,0,0.1,0c94-54.4,157.3-156.1,157.3-272.6C714.8,187.9,581.8,50.1,414.8,42.3z"/>
	<g>
		<path class="st0" d="M415.8,343.8c0,1.7,1.5,3.1,3.4,3.1c16.1,0,33-1.8,43.9-5.7v21.5c0,0.8,0,1.5,0,2.3c-1.9,0.8-4.3,1.6-7.6,2.5
			c-9.6,2.4-22.5,3.8-36.2,3.8c-1.9,0-3.4,1.4-3.4,3.1c0,1.7,1.5,3.1,3.4,3.1c15.8,0,32.3-1.8,43.2-5.5
			c-4.5,30.7-30.9,54.5-62.5,54.5s-58-23.8-62.5-54.5c10.9,3.7,27.4,5.5,43.2,5.5c1.9,0,3.4-1.4,3.4-3.1c0-1.7-1.5-3.1-3.4-3.1
			c-13.7,0-26.6-1.3-36.2-3.8c-3.3-0.8-5.7-1.7-7.6-2.5c0-0.8,0-1.5,0-2.3v-21.5c10.9,3.9,27.8,5.7,43.9,5.7c1.9,0,3.4-1.4,3.4-3.1
			c0-1.7-1.5-3.1-3.4-3.1c-13.7,0-26.6-1.3-36.2-3.8c-3.3-0.8-5.8-1.7-7.6-2.5v-23.8c10.9,3.9,27.8,5.7,43.9,5.7
			c1.9,0,3.4-1.4,3.4-3.1c0-1.7-1.5-3.1-3.4-3.1c-13.7,0-26.6-1.3-36.2-3.8c-3.2-0.8-5.7-1.6-7.5-2.4c2-33.3,29.6-59.9,63-59.9
			c17.4,0,33.2,7.2,44.6,18.8c10.6,10.7,17.5,25.2,18.4,41.1c-1.9,0.8-4.3,1.6-7.5,2.4c-9.6,2.4-22.5,3.8-36.2,3.8
			c-1.9,0-3.4,1.4-3.4,3.1c0,1.7,1.5,3.1,3.4,3.1c16.1,0,33-1.8,43.9-5.7v23.8c-1.9,0.8-4.4,1.7-7.6,2.5c-9.6,2.4-22.5,3.8-36.2,3.8
			C417.4,340.6,415.8,342,415.8,343.8z"/>
	</g>
	<path class="st0" d="M506.2,367.2c0-0.2,0-0.3,0-0.5c0-6.2-4.9-11.2-11-11.2c-6.1,0-11,5-11,11.2c0,0.1,0,0.2,0,0.3h0
		c-1.1,46.4-38.3,83.6-84.2,83.6s-83.1-37.2-84.2-83.6h0c0-0.1,0-0.2,0-0.3c0-6.2-4.9-11.2-11-11.2c-6.1,0-11,5-11,11.2
		c0,0.2,0,0.3,0,0.5c1.1,55.9,44,101.4,98.2,105.5v44.5h-25.1l-0.8,1.5l-62.8,110.6h193.5l-62.4-109.9l-1.3-2.3H408v-44.5
		C462.2,468.7,505.1,423.2,506.2,367.2z"/>
	<polygon class="st1" points="392,517.3 392,593.4 366.9,517.3 	"/>
	<polygon class="st1" points="408,517.2 408,593.4 433,517.2 	"/>
	<g>
		<path class="st2" d="M74.7,756.8v-66.4h13.9v55.1h34.5v11.3H74.7z"/>
		<path class="st2" d="M132.9,701.7v-11.9h13.2v11.9H132.9z M132.9,756.8v-48.5h13.2v48.5H132.9z"/>
		<path class="st2" d="M204.9,756.8h-13.2v-24.8c0-5.2-0.3-8.6-0.8-10.2c-0.6-1.5-1.5-2.7-2.7-3.6c-1.3-0.9-2.8-1.3-4.6-1.3
			c-2.3,0-4.3,0.6-6.1,1.8c-1.8,1.2-3.1,2.8-3.7,4.8c-0.7,2-1,5.7-1,11.1v22h-13.2v-48.5h12.2v7.1c4.3-5.5,9.8-8.2,16.4-8.2
			c2.9,0,5.6,0.5,8,1.5c2.4,1,4.2,2.3,5.5,3.9c1.2,1.6,2.1,3.4,2.6,5.4c0.5,2,0.7,4.9,0.7,8.6V756.8z"/>
		<path class="st2" d="M233.9,756.8v-55.6h-20.4v-11.3h54.6v11.3h-20.4v55.6H233.9z"/>
		<path class="st2" d="M272.5,723.7c0-6.8,1-12.5,3.1-17.2c1.6-3.4,3.7-6.5,6.4-9.2c2.7-2.7,5.7-4.7,8.9-6c4.3-1.8,9.2-2.6,14.8-2.6
			c10.1,0,18.2,3.1,24.3,9.2c6.1,6.1,9.1,14.6,9.1,25.5c0,10.8-3,19.3-9.1,25.4c-6,6.1-14.1,9.2-24.2,9.2c-10.2,0-18.4-3-24.4-9.1
			C275.6,742.8,272.5,734.4,272.5,723.7z M286.8,723.3c0,7.6,1.8,13.3,5.4,17.2c3.6,3.9,8.2,5.9,13.7,5.9s10.1-1.9,13.6-5.8
			c3.5-3.9,5.3-9.7,5.3-17.5c0-7.7-1.7-13.4-5.2-17.2c-3.5-3.8-8-5.7-13.8-5.7s-10.3,1.9-13.8,5.7
			C288.6,709.8,286.8,715.6,286.8,723.3z"/>
		<path class="st2" d="M377,735l13.5-1.3c0.8,4.4,2.5,7.7,4.9,9.7c2.5,2.1,5.8,3.1,10.1,3.1c4.5,0,7.8-0.9,10.1-2.8
			c2.3-1.8,3.4-4,3.4-6.5c0-1.6-0.5-2.9-1.4-4c-1-1.1-2.6-2.1-5-2.9c-1.6-0.5-5.3-1.5-11.1-2.9c-7.4-1.8-12.7-4-15.7-6.6
			c-4.2-3.7-6.3-8.2-6.3-13.5c0-3.4,1-6.6,3-9.6c2-3,4.8-5.2,8.6-6.8c3.7-1.6,8.2-2.3,13.5-2.3c8.6,0,15.1,1.8,19.5,5.5
			c4.4,3.7,6.7,8.6,6.9,14.8l-13.9,0.6c-0.6-3.4-1.9-5.9-3.8-7.4c-2-1.5-4.9-2.3-8.8-2.3c-4,0-7.2,0.8-9.5,2.4
			c-1.5,1-2.2,2.4-2.2,4.2c0,1.6,0.7,2.9,2.1,4.1c1.8,1.4,6,2.9,12.8,4.5c6.8,1.6,11.8,3.2,15,4.8c3.2,1.7,5.8,3.9,7.6,6.8
			c1.8,2.9,2.7,6.4,2.7,10.7c0,3.8-1.1,7.4-3.3,10.8c-2.2,3.4-5.3,5.8-9.3,7.5c-4,1.6-9,2.4-15,2.4c-8.7,0-15.4-2-20-5.9
			C380.7,748.2,377.9,742.5,377,735z"/>
		<path class="st2" d="M458.2,756.8v-55.6h-20.4v-11.3h54.6v11.3h-20.4v55.6H458.2z"/>
		<path class="st2" d="M500,689.8h13.9v36.3c0,5.8,0.2,9.5,0.5,11.2c0.6,2.7,2,4.9,4.2,6.6c2.2,1.7,5.3,2.5,9.2,2.5
			c3.9,0,6.9-0.8,8.9-2.4c2-1.6,3.2-3.5,3.6-5.8c0.4-2.3,0.6-6.1,0.6-11.4v-37h13.9V725c0,8-0.4,13.7-1.1,17
			c-0.8,3.3-2.1,6.1-4.2,8.4c-2,2.3-4.7,4.1-8.1,5.5c-3.4,1.4-7.8,2-13.2,2c-6.6,0-11.5-0.7-14.9-2.2c-3.4-1.5-6.1-3.4-8-5.8
			c-2-2.4-3.3-4.8-3.9-7.4c-0.9-3.8-1.4-9.5-1.4-17V689.8z"/>
		<path class="st2" d="M568,689.8h25.4c5.7,0,10.1,0.4,13.1,1.3c4,1.2,7.5,3.2,10.4,6.2c2.9,3,5.1,6.6,6.6,10.8
			c1.5,4.3,2.3,9.6,2.3,15.8c0,5.5-0.7,10.3-2.1,14.3c-1.7,4.9-4.2,8.8-7.4,11.8c-2.4,2.3-5.7,4.1-9.8,5.3
			c-3.1,0.9-7.2,1.4-12.3,1.4H568V689.8z M581.9,701.2v44.4h10.4c3.9,0,6.7-0.2,8.4-0.6c2.3-0.5,4.1-1.5,5.6-2.8
			c1.5-1.3,2.7-3.5,3.6-6.5c0.9-3,1.4-7.1,1.4-12.3c0-5.2-0.5-9.2-1.4-11.9c-0.9-2.8-2.3-4.9-3.9-6.5c-1.7-1.6-3.8-2.6-6.4-3.2
			c-1.9-0.4-5.7-0.6-11.4-0.6H581.9z"/>
		<path class="st2" d="M634.7,756.8v-67h13.9v67H634.7z"/>
		<path class="st2" d="M658.6,723.7c0-6.8,1-12.5,3.1-17.2c1.6-3.4,3.7-6.5,6.4-9.2c2.7-2.7,5.7-4.7,8.9-6c4.3-1.8,9.2-2.6,14.8-2.6
			c10.1,0,18.2,3.1,24.3,9.2c6.1,6.1,9.1,14.6,9.1,25.5c0,10.8-3,19.3-9.1,25.4c-6,6.1-14.1,9.2-24.2,9.2c-10.2,0-18.4-3-24.4-9.1
			C661.6,742.8,658.6,734.4,658.6,723.7z M672.9,723.3c0,7.6,1.8,13.3,5.4,17.2c3.6,3.9,8.2,5.9,13.7,5.9c5.5,0,10.1-1.9,13.6-5.8
			c3.5-3.9,5.3-9.7,5.3-17.5c0-7.7-1.7-13.4-5.2-17.2c-3.5-3.8-8-5.7-13.8-5.7c-5.7,0-10.3,1.9-13.8,5.7
			C674.6,709.8,672.9,715.6,672.9,723.3z"/>
	</g>
</g>
</svg>
