<?xml version="1.0" encoding="UTF-8" standalone="no"?>
<svg
   xmlns:dc="http://purl.org/dc/elements/1.1/"
   xmlns:cc="http://creativecommons.org/ns#"
   xmlns:rdf="http://www.w3.org/1999/02/22-rdf-syntax-ns#"
   xmlns:svg="http://www.w3.org/2000/svg"
   xmlns="http://www.w3.org/2000/svg"
   xmlns:sodipodi="http://sodipodi.sourceforge.net/DTD/sodipodi-0.dtd"
   xmlns:inkscape="http://www.inkscape.org/namespaces/inkscape"
   width="60"
   height="60"
   viewBox="0 0 60 60"
   fill="none"
   version="1.1"
   id="svg4"
   sodipodi:docname="bug-report.svg"
   inkscape:version="1.0.2 (e86c870879, 2021-01-15)">
  <metadata
     id="metadata10">
    <rdf:RDF>
      <cc:Work
         rdf:about="">
        <dc:format>image/svg+xml</dc:format>
        <dc:type
           rdf:resource="http://purl.org/dc/dcmitype/StillImage" />
        <dc:title></dc:title>
      </cc:Work>
    </rdf:RDF>
  </metadata>
  <defs
     id="defs8" />
  <sodipodi:namedview
     pagecolor="#ffffff"
     bordercolor="#666666"
     borderopacity="1"
     objecttolerance="10"
     gridtolerance="10"
     guidetolerance="10"
     inkscape:pageopacity="0"
     inkscape:pageshadow="2"
     inkscape:window-width="1920"
     inkscape:window-height="1016"
     id="namedview6"
     showgrid="false"
     inkscape:zoom="4.4506133"
     inkscape:cx="-29.765062"
     inkscape:cy="7.1919006"
     inkscape:window-x="0"
     inkscape:window-y="27"
     inkscape:window-maximized="1"
     inkscape:current-layer="svg4" />
  <g
     id="g840"
     transform="matrix(0.51746654,0,0,0.51746654,10.595003,12.406137)">
    <g
       id="g836">
      <path
         fill-rule="evenodd"
         clip-rule="evenodd"
         d="M 29.6233,11.4099 8.27432,50.2654 c -0.02836,0.0517 -0.05802,0.1026 -0.08894,0.1527 -1.03839,1.6843 -1.26343,2.9692 -1.01211,3.8331 1.12485,3.8664 4.70303,6.6869 8.93193,6.6869 h 42.7896 c 4.2289,0 7.8071,-2.8205 8.9319,-6.6869 0.2514,-0.8639 0.0263,-2.1488 -1.0121,-3.8331 -0.0309,-0.0501 -0.0605,-0.101 -0.0889,-0.1527 L 45.3768,11.4099 c -3.6412,-5.79738 -12.1124,-5.79739 -15.7535,0 z M 23.5546,7.7781 c 6.3939,-10.37081 21.4969,-10.37079 27.8908,2e-5 0.0309,0.05014 0.0606,0.10105 0.089,0.15268 l 21.3544,38.8656 c 1.4341,2.3525 2.794,5.775 1.7323,9.424 C 72.6422,63.0226 66.3555,68 58.8948,68 H 16.1052 C 8.64454,68 2.35775,63.0226 0.378851,56.2205 -0.682747,52.5714 0.677129,49.1489 2.11119,46.7964 L 23.4656,7.93079 C 23.494,7.87916 23.5237,7.82825 23.5546,7.7781 Z M 37.5,16.8131 c 1.9537,0 3.5375,1.5809 3.5375,3.5309 v 17.0839 c 0,1.9501 -1.5838,3.5309 -3.5375,3.5309 -1.9537,0 -3.5375,-1.5808 -3.5375,-3.5309 V 20.344 c 0,-1.95 1.5838,-3.5309 3.5375,-3.5309 z m 0,29.7466 c 1.9537,0 3.5375,1.5808 3.5375,3.5309 v 0.1502 c 0,1.95 -1.5838,3.5309 -3.5375,3.5309 -1.9537,0 -3.5375,-1.5809 -3.5375,-3.5309 v -0.1502 c 0,-1.9501 1.5838,-3.5309 3.5375,-3.5309 z"
         fill="#000000"
         id="path2" />
    </g>
  </g>
</svg>
