<?xml version="1.0" encoding="UTF-8" standalone="no"?>
<svg
   xmlns:dc="http://purl.org/dc/elements/1.1/"
   xmlns:cc="http://creativecommons.org/ns#"
   xmlns:rdf="http://www.w3.org/1999/02/22-rdf-syntax-ns#"
   xmlns:svg="http://www.w3.org/2000/svg"
   xmlns="http://www.w3.org/2000/svg"
   xmlns:xlink="http://www.w3.org/1999/xlink"
   xmlns:sodipodi="http://sodipodi.sourceforge.net/DTD/sodipodi-0.dtd"
   xmlns:inkscape="http://www.inkscape.org/namespaces/inkscape"
   version="1.1"
   id="Calque_1"
   x="0px"
   y="0px"
   viewBox="0 0 100 100"
   style="enable-background:new 0 0 100 100;"
   xml:space="preserve"
   sodipodi:docname="bug.svg"
   inkscape:version="1.0.2 (e86c870879, 2021-01-15)"><metadata
   id="metadata61"><rdf:RDF><cc:Work
       rdf:about=""><dc:format>image/svg+xml</dc:format><dc:type
         rdf:resource="http://purl.org/dc/dcmitype/StillImage" /></cc:Work></rdf:RDF></metadata><defs
   id="defs59" /><sodipodi:namedview
   pagecolor="#ffffff"
   bordercolor="#666666"
   borderopacity="1"
   objecttolerance="10"
   gridtolerance="10"
   guidetolerance="10"
   inkscape:pageopacity="0"
   inkscape:pageshadow="2"
   inkscape:window-width="1920"
   inkscape:window-height="1016"
   id="namedview57"
   showgrid="false"
   inkscape:zoom="6.052834"
   inkscape:cx="36.015453"
   inkscape:cy="58.226204"
   inkscape:window-x="0"
   inkscape:window-y="27"
   inkscape:window-maximized="1"
   inkscape:current-layer="Calque_1" />
<style
   type="text/css"
   id="style2">
	.st0{clip-path:url(#SVGID_2_);stroke:#000000;stroke-width:2;stroke-miterlimit:10;}
	.st1{clip-path:url(#SVGID_4_);stroke:#000000;stroke-width:2;stroke-miterlimit:10;}
	.st2{clip-path:url(#SVGID_6_);stroke:#000000;stroke-width:2;stroke-miterlimit:10;}
	.st3{clip-path:url(#SVGID_8_);stroke:#000000;stroke-width:2;stroke-miterlimit:10;}
</style>
<g
   id="g54"
   transform="matrix(1.1009209,0,0,1.1009209,-5.046045,-5.046045)">
	<path
   d="M 68.3,30.3 H 67.5 V 21.5 C 67.5,15.4 62.9,10.4 57.3,10.4 H 41.7 c -5.6,0 -10.2,5 -10.2,11.1 v 8.8 h -0.8 c -4.2,0 -7.6,3.7 -7.6,8.3 v 22.1 c 0,15.9 11.9,28.9 26.4,28.9 14.6,0 26.4,-13 26.4,-28.9 V 38.6 c 0,-4.6 -3.4,-8.3 -7.6,-8.3 z m -31.9,0 v -8.8 c 0,-3.3 2.4,-6 5.3,-6 h 15.6 c 2.9,0 5.3,2.7 5.3,6 v 8.8 z M 71,38.6 V 60.7 C 71,73.8 61.3,84.5 49.5,84.5 37.7,84.5 28,73.8 28,60.7 V 38.6 c 0,-1.7 1.2,-3.1 2.7,-3.1 h 37.6 c 1.5,0 2.7,1.4 2.7,3.1 z"
   id="path4" />
	<path
   d="m 49.5,59.4 c -1.3,0 -2.3,-1 -2.3,-2.3 V 32.9 c 0,-1.3 1,-2.3 2.3,-2.3 1.3,0 2.3,1 2.3,2.3 v 24.2 c 0,1.3 -1,2.3 -2.3,2.3 z"
   id="path6" />
	<g
   id="g12">
		<path
   d="M 85.6,53.4 H 74 c -1.3,0 -2.3,1 -2.3,2.3 0,1.3 1,2.3 2.3,2.3 H 85.7 C 87,58 88,57 88,55.7 88,54.4 86.9,53.4 85.6,53.4 Z"
   id="path8" />
		<path
   d="M 24.7,53.4 H 13.1 c -1.3,0 -2.3,1 -2.3,2.3 0,1.3 1,2.3 2.3,2.3 h 11.7 c 1.3,0 2.3,-1 2.3,-2.3 C 27,54.4 26,53.4 24.7,53.4 Z"
   id="path10" />
	</g>
	<g
   id="g22">
		<defs
   id="defs15">
			<rect
   id="SVGID_1_"
   x="6.5999999"
   y="57.099998"
   width="19.4"
   height="21.4" />
		</defs>
		<clipPath
   id="SVGID_2_">
			<use
   xlink:href="#SVGID_1_"
   style="overflow:visible"
   id="use17"
   x="0"
   y="0"
   width="100%"
   height="100%" />
		</clipPath>
		<path
   class="st0"
   d="m 26,94.5 c -8.1,0 -14.6,-7.2 -14.6,-16 0,-8.8 6.5,-16 14.6,-16 8.1,0 14.6,7.2 14.6,16 0,8.8 -6.5,16 -14.6,16 z m 0,-29.2 c -6.6,0 -12,5.9 -12,13.2 0,7.3 5.4,13.2 12,13.2 6.6,0 12,-5.9 12,-13.2 0,-7.3 -5.4,-13.2 -12,-13.2 z"
   clip-path="url(#SVGID_2_)"
   id="path20" />
	</g>
	<g
   id="g32">
		<defs
   id="defs25">
			
				<rect
   id="SVGID_3_"
   x="5.5999999"
   y="35.299999"
   transform="rotate(-90,16.29805,45.01725)"
   width="21.4"
   height="19.4" />
		</defs>
		<clipPath
   id="SVGID_4_">
			<use
   xlink:href="#SVGID_3_"
   style="overflow:visible"
   id="use27"
   x="0"
   y="0"
   width="100%"
   height="100%" />
		</clipPath>
		<path
   class="st1"
   d="m 26,18.3 c -8.1,0 -14.6,7.2 -14.6,16 0,8.8 6.5,16 14.6,16 8.1,0 14.6,-7.2 14.6,-16 0,-8.8 -6.5,-16 -14.6,-16 z m 0,29.2 c -6.6,0 -12,-5.9 -12,-13.2 0,-7.3 5.4,-13.2 12,-13.2 6.6,0 12,5.9 12,13.2 0,7.3 -5.4,13.2 -12,13.2 z"
   clip-path="url(#SVGID_4_)"
   id="path30" />
	</g>
	<g
   id="g42">
		<defs
   id="defs35">
			
				<rect
   id="SVGID_5_"
   x="74"
   y="34.299999"
   transform="rotate(180,83.70195,45.01725)"
   width="19.4"
   height="21.4" />
		</defs>
		<clipPath
   id="SVGID_6_">
			<use
   xlink:href="#SVGID_5_"
   style="overflow:visible"
   id="use37"
   x="0"
   y="0"
   width="100%"
   height="100%" />
		</clipPath>
		<path
   class="st2"
   d="m 74,50.4 c -8,0 -14.6,-7.2 -14.6,-16 0,-8.8 6.5,-16 14.6,-16 8.1,0 14.6,7.2 14.6,16 0,8.8 -6.6,16 -14.6,16 z m 0,-29.2 c -6.6,0 -12,5.9 -12,13.2 0,7.3 5.4,13.2 12,13.2 6.6,0 12,-5.9 12,-13.2 0,-7.3 -5.4,-13.2 -12,-13.2 z"
   clip-path="url(#SVGID_6_)"
   id="path40" />
	</g>
	<g
   id="g52">
		<defs
   id="defs45">
			
				<rect
   id="SVGID_7_"
   x="73"
   y="58.099998"
   transform="rotate(90,83.70195,67.79685)"
   width="21.4"
   height="19.4" />
		</defs>
		<clipPath
   id="SVGID_8_">
			<use
   xlink:href="#SVGID_7_"
   style="overflow:visible"
   id="use47"
   x="0"
   y="0"
   width="100%"
   height="100%" />
		</clipPath>
		<path
   class="st3"
   d="m 74,94.5 c -8,0 -14.6,-7.2 -14.6,-16 0,-8.8 6.5,-16 14.6,-16 8.1,0 14.6,7.2 14.6,16 0,8.8 -6.6,16 -14.6,16 z m 0,-29.2 c -6.6,0 -12,5.9 -12,13.2 0,7.3 5.4,13.2 12,13.2 6.6,0 12,-5.9 12,-13.2 0,-7.3 -5.4,-13.2 -12,-13.2 z"
   clip-path="url(#SVGID_8_)"
   id="path50" />
	</g>
</g>
</svg>
