<?xml version="1.0" encoding="UTF-8" standalone="no"?>
<svg
   width="16"
   height="17"
   viewBox="0 0 16 17"
   fill="none"
   version="1.1"
   id="svg4"
   sodipodi:docname="clear-history.svg"
   inkscape:version="1.2.2 (b0a8486541, 2022-12-01)"
   xmlns:inkscape="http://www.inkscape.org/namespaces/inkscape"
   xmlns:sodipodi="http://sodipodi.sourceforge.net/DTD/sodipodi-0.dtd"
   xmlns="http://www.w3.org/2000/svg"
   xmlns:svg="http://www.w3.org/2000/svg">
  <defs
     id="defs8" />
  <sodipodi:namedview
     id="namedview6"
     pagecolor="#ffffff"
     bordercolor="#000000"
     borderopacity="0.25"
     inkscape:showpageshadow="2"
     inkscape:pageopacity="0.0"
     inkscape:pagecheckerboard="0"
     inkscape:deskcolor="#d1d1d1"
     showgrid="false"
     inkscape:zoom="43.705882"
     inkscape:cx="8.0080754"
     inkscape:cy="8.4885599"
     inkscape:window-width="1920"
     inkscape:window-height="1007"
     inkscape:window-x="0"
     inkscape:window-y="0"
     inkscape:window-maximized="1"
     inkscape:current-layer="svg4" />
  <path
     d="M 14.332079,0.91602049 11.310168,6.3000315 9.0745361,4.9716476 8.1293112,6.5620901 13.357872,9.6706872 14.303115,8.0784307 12.105413,6.771737 15.138057,1.3678506 Z M 4.5562357,3.9179811 c -0.2454209,0 -0.4807832,0.097495 -0.654323,0.2710253 -0.1735306,0.1735399 -0.2710253,0.4089022 -0.2710253,0.6543231 0,0.2454209 0.097495,0.4807833 0.2710253,0.6543231 0.1735398,0.1735306 0.4089021,0.2710253 0.654323,0.2710253 0.2454209,0 0.4807833,-0.097495 0.6543231,-0.2710253 0.1735306,-0.1735398 0.2710253,-0.4089022 0.2710253,-0.6543231 0,-0.2454209 -0.097495,-0.4807832 -0.2710253,-0.6543231 C 5.037019,4.0154758 4.8016566,3.9179811 4.5562357,3.9179811 Z M 1.3175165,4.8433295 c -0.1227086,0 -0.2403917,0.048747 -0.32715974,0.1355173 -0.086769,0.086761 -0.1355145,0.2044465 -0.1355145,0.3271569 0,0.1227105 0.048746,0.2403963 0.1355145,0.3271569 0.086768,0.08677 0.20445114,0.1355173 0.32715974,0.1355173 0.1227086,0 0.2403915,-0.048747 0.3271596,-0.1355173 0.086768,-0.086761 0.1355145,-0.2044464 0.1355145,-0.3271569 0,-0.1227104 -0.048746,-0.2403962 -0.1355145,-0.3271569 C 1.5579081,4.8920768 1.4402251,4.8433295 1.3175165,4.8433295 Z M 2.705539,6.6940263 c -0.2454209,0 -0.4807833,0.097495 -0.6543231,0.2710253 -0.1735306,0.1735398 -0.2710253,0.4089022 -0.2710253,0.6543231 0,0.2454209 0.097495,0.4807832 0.2710253,0.6543231 0.1735398,0.1735305 0.4089022,0.2710253 0.6543231,0.2710253 0.2454209,0 0.4807832,-0.097495 0.6543231,-0.2710253 0.1735306,-0.1735399 0.2710253,-0.4089022 0.2710253,-0.6543231 0,-0.2454209 -0.097495,-0.4807833 -0.2710253,-0.6543231 C 3.1863222,6.791521 2.9509599,6.6940263 2.705539,6.6940263 Z M 7.3322809,7.6193747 C 6.297288,9.0668694 4.4040252,10.220436 0.85484226,10.39542 v 0.925348 c 1.95591804,3.119997 4.53697804,4.580615 8.23661454,4.46658 l 0.7423066,-0.02288 c 0.4353896,0.178663 2.2959096,-2.622984 2.8904456,-4.4437 L 12.884371,10.39542 8.2576293,7.6193747 Z M 7.8220678,8.6387014 11.827068,11.042423 C 11.297028,12.47366 10.464955,13.729265 9.4360048,14.993291 6.4069325,15.022162 3.679718,13.671616 2.0820115,11.163551 4.9674513,10.876138 6.726844,9.9746642 7.8220678,8.6387014 Z"
     fill="#000000"
     id="path2"
     style="stroke:#000000;stroke-width:0.5;stroke-dasharray:none;stroke-opacity:1"
     sodipodi:nodetypes="cccccccccscscscscsscscscscsscscscscscccscccccccccc" />
</svg>
