<?xml version="1.0" encoding="UTF-8"?>
<svg width="126.85mm" height="104.58mm" version="1.1" viewBox="0 0 449.46464 370.57356" xmlns="http://www.w3.org/2000/svg">
 <g transform="translate(-1607.4 401.75)">
  <path transform="translate(1370.3 -602.88)" d="m470.71 201.13c-1.484-0.0297-2.6445 0.28011-2.6445 0.94727 0 0.53952-1.1083 1.2596-2.4629 1.5996-3.7041 0.92967-10.91 19.363-11.109 28.42-0.079 3.575-0.85953 8.975-1.7363 12-5.9884 20.659-9.1048 62.69-6.8438 92.314l0.67383 8.8145-3.2617 2.4863c-1.793 1.3675-3.2598 3.1124-3.2598 3.877 0 2.2176-1.9468 2.8118-2.6953 0.82226-0.3752-0.99736-3.0098-5.6652-5.8555-10.373-5.1439-8.5097-5.1649-8.5737-3.3125-10.861 2.929-3.6171 2.379-9.8123-1.7598-19.811-3.4642-8.3687-3.5932-9.1058-2.957-16.762 0.63499-7.6426 0.84993-8.1962 4.707-12.131 3.4822-3.5522 4.0352-4.7285 4.0352-8.5 0-2.4075-0.46614-5.5768-1.0273-7.043-1.2998-3.3954-1.7892-19.277-0.73047-23.697 0.7638-3.1886 0.50802-3.6419-4.8926-8.668-3.134-2.9167-7.1195-5.8279-8.8555-6.4688-1.7359-0.6408-3.8312-1.571-4.6562-2.0664-12.527-7.523-16.279-10.188-20.584-14.621-6.2479-6.4339-8.4538-7.3125-18.373-7.3125-4.3054 0-11.357-0.73081-15.672-1.623-12.032-2.4883-23.326-1.492-44.645 3.9356-19.394 4.9376-25.311 7.6625-28.76 13.242-2.986 4.8314-2.1626 9.1808 3.0449 16.078 6.2325 8.2549 9.1773 14.845 9.7344 21.787 0.9844 12.262-3.578 24.575-13.02 35.143-11.016 12.33-15.991 20.697-15.625 26.273 0.1547 2.3561-0.53454 4.9134-1.9277 7.1641-1.1915 1.925-2.1699 4.5144-2.1699 5.7539s-0.90391 3.932-2.0039 5.9844c-2.3754 4.4319-2.5157 7.361-0.54101 11.18 1.7667 3.4164 0.99514 4.6603-5.2852 8.5352-4.8917 3.0181-7.1738 7.3279-7.1738 13.549 0 2.3577-1.0531 6.1449-2.5078 9.0156-4.316 8.5172-5.6334 15.39-5.6484 29.482-0.016 14.496 2.6438 37.564 4.4609 38.688 0.8514 0.5262-0.17125 4.7788-3.6856 15.316-4.5996 13.792-4.8405 15.042-4.4258 22.943 0.4321 8.2317 0.53718 8.519 7.0137 19.205 3.6162 5.9665 7.6977 13.098 9.0703 15.848 2.8643 5.7384 6.7185 17.691 6.7285 20.855 0.01 3.8624 2.0607 9.6445 3.4199 9.6445 0.7318 0 1.8895-0.675 2.5742-1.5 3.113-3.7511 7.9922-0.85273 15.068 8.9531 2.363 3.2746 4.4718 5.4299 4.6856 4.7891 0.2506-0.75189-1.0258-4.9352-2.7754-9.8164l15.014 0.83008c-1.1762 4.3916-1.9353 7.7954-1.8867 8.8945 0.065 1.457 0.65494 0.44848 1.5527-2.6504 0.443-1.5293 1.2424-3.8095 2.127-6.1465 11.38-0.20326 21.675-4.7485 34.773 1.9238-0.6058 1.3748-1.1685 2.5744-1.5527 3.2227-0.9779 1.65-2.0842 4.0125-2.459 5.25-0.4955 1.6362-0.27244 2.25 0.81836 2.25 0.825 0 1.7857-0.9 2.1348-2s1.4896-2 2.5332-2c1.8728 0 2.8468-1.0651 4.4141-6.3965l9.6992 0.53711c-1.4902 3.3673-2.1938 5.973-1.6074 6.9219 0.4539 0.73448 2.9694-1.7044 6.9668-6.627 7.8493 2.7398 15.251 4.1375 21.199 1.1738-0.043 0.12958-0.10821 0.30658-0.12891 0.39063-0.47079 1.9123-0.37187 2.1474 0.41993 1 0.2114-0.30604 0.53638-0.81659 0.86328-1.3281l17.393 0.9629c-0.3148 1.6132 0.0119 1.7599 1.002 0.0547l5.9746 0.33008c-0.4543 1.5313-0.81813 2.8448-0.92383 3.4961-0.9253 5.7018 1.2844 4.0125 3.0684-2.3457 0.09-0.31943 0.20226-0.66557 0.31836-1.0137 11.763-3.0887 19.99-0.87237 28.414 1.0469l3.1719 2.5156c-0.056 0.19063-0.096 0.33852-0.15235 0.53125-5.605 19.329 7.438-11.191 7.375-15.584 0.8047-3.4698 1.7542-10.328 2.1113-15.238 0.7651-10.52 1.1028-11.017 12.607-18.57 6.4875-4.2592 8.9094-5.2854 13.334-5.6523 6.5862-0.54617 8.3549-2.1714 6.1035-5.6074-1.9971-3.0478-0.81643-4.2152 5.9766-5.9062 3.8122-0.94898 4.9052-1.6999 5.375-3.6914 0.5026-2.1307 1.1752-2.5086 4.543-2.5606 3.0886-0.0476 4.739-0.8119 7.5625-3.5 6.4067-6.0993 12.33-10.628 14.891-11.387 1.374-0.40701 4.973-3.294 7.998-6.416s6.7375-6.4656 8.25-7.4297 2.75-2.352 2.75-3.084 1.0125-2.4827 2.25-3.8906c5.2943-6.0235 8.5104-10.404 9.1738-12.494 0.3905-1.2304 1.1372-2.2383 1.6582-2.2383 2.0626 0 4.9141-6.573 4.9141-11.342v-4.8418l-4.3477 4.4726c-2.3912 2.4603-4.6272 5.2016-4.9688 6.0918s-1.3134 1.6191-2.1602 1.6191c-0.8634 0-2.2458 1.7629-3.1465 4.0137-0.8831 2.2071-2.9048 4.938-4.4922 6.0684s-2.8848 2.8917-2.8848 3.916c0 1.1575-0.83698 1.983-2.209 2.1816-1.2229 0.17704-3.3813 2.0557-4.8418 4.2109-1.4499 2.1396-3.9445 4.5692-5.543 5.4004l-2.9062 1.5117 3.25-3.0527c1.7875-1.679 3.25-3.5121 3.25-4.0742 0-1.7572 5.1607-7.2514 9.2148-9.8106 2.1343-1.3474 4.1381-3.2192 4.4531-4.1582 1.7054-5.0837 5.0494-11.021 7.5234-13.357 1.9022-1.7964 2.8086-3.6504 2.8086-5.75 0-2.0638 0.49271-3.0996 1.4746-3.0996 0.8108 0 2.1673-1.3419 3.0156-2.9824 1.8631-3.6014 3.1605-12.018 1.8535-12.018-1.6204 0-9.3438 8.503-9.3438 10.287 0 0.94168-0.58949 1.7129-1.3086 1.7129-0.7192 0-2.0788 1.6875-3.0215 3.75-1.5549 3.4022-10.67 14.334-10.67 12.797 0-0.35553 0.68629-1.973 1.5254-3.5957 0.839-1.6227 1.1979-2.9512 0.79883-2.9512s-0.18539-0.53922 0.47461-1.1992 1.2029-1.8975 1.2129-2.75 1.8069-3.4823 4-5.8438c2.1932-2.3614 3.9883-5.0266 3.9883-5.9219s0.60395-2.3387 1.3438-3.207c1.7645-2.0713 4.6562-9.583 4.6562-12.098 0-3.396-3.5256-2.2967-6.3574 1.9824-1.442 2.1791-3.9616 4.9511-5.5996 6.1621s-4.5688 4.6002-6.5137 7.5293c-1.9448 2.9291-5.335 6.46-7.5332 7.8476s-3.9961 3.1473-3.9961 3.9102c0 1.7176-7.0834 11.256-9.7402 13.117-1.9104 1.3381-1.92 1.2698-0.46289-3.1562 0.98919-3.0047 3.624-6.7435 7.8457-11.135 3.4962-3.6366 6.3574-7.1092 6.3574-7.7168 0-0.60754 2.025-3.0924 4.5-5.5215s4.5-4.9218 4.5-5.5391 1.1215-3.3353 2.4941-6.041c1.3727-2.7057 2.5-5.9324 2.5-7.1699 0.01-3.5588-3.4623-2.8193-5.8633 1.25-1.3935 2.3619-2.8066 3.5053-4.3477 3.5156-3.0949 0.0207-4.0454 0.78343-7.1465 5.7344-1.4641 2.3375-3.2326 4.25-3.9297 4.25-0.697 0-2.7527 1.575-4.5684 3.5s-3.7154 3.5-4.2207 3.5-0.92383 0.5625-0.92383 1.25c-0.022 4.9426-2.3144 8.8153-7.0273 11.869-4.0286 2.6105-4.9668 3.7521-4.9668 6.0488 0 2.3537-0.4219 2.832-2.5 2.832-1.4568 0-2.5 0.57422-2.5 1.377 0 0.75765-0.62547 1.8959-1.3887 2.5293-0.7632 0.63339-2.7651 3.9516-4.4492 7.373-2.9698 6.0335-8.7978 13.419-9.7988 12.418-1.3996-1.3997 1.2494-8.3764 4.3613-11.488 2.6646-2.6646 3.2981-3.9769 2.8281-5.8496-0.7279-2.9003 3.5043-10.695 7.0781-13.037 1.3023-0.85325 2.3691-2.5381 2.3691-3.7422s1.3811-4.3675 3.0703-7.0312c2.1307-3.3597 2.8901-5.5633 2.4805-7.1953-0.9809-3.9083-3.9498-2.8414-7.3613 2.6465-1.9787 3.183-3.8058 5-5.0273 5-2.4374 0-3.7478 1.6373-4.6367 5.793-0.5018 2.3463-1.8291 4.0049-4.6152 5.7637-3.5363 2.2323-4.3862 3.4331-4.0293 5.6934 0.065 0.4125-0.78086 1.65-1.8809 2.75-1.4605 1.4605-2 3.3338-2 6.9434 0 3.1782-0.72952 6.1757-2.041 8.3984-1.4172 2.402-2.1434 5.6896-2.3809 10.77-0.19689 4.2116-0.81653 7.4688-1.4609 7.6836-0.6152 0.20507-1.1172 1.2019-1.1172 2.2168s-0.57971 2.4412-1.2871 3.168c-0.7073 0.72679-1.8342 3.1785-2.5039 5.4492-1.3443 4.5576-8.1728 14.508-9.6387 14.045-3.2637-1.0302-2.8125-3.7833 3.334-20.32 7.3102-19.668 13.474-41.289 15.779-55.354 0.6241-3.8078 1.7352-4.9584 4.8164-4.9902 2.2373-0.0232 11.5-9.0908 11.5-11.258 0-0.76524 1.1497-2.3897 2.5547-3.6113 1.6769-1.458 2.3554-2.8456 1.9766-4.0391-0.3264-1.0284 0.084-2.3673 0.94531-3.082 1.9289-1.6011 1.9538-5.0664 0.0547-7.5781-1.9723-2.6077-1.8921-4.0228 0.41406-7.2324 2.4376-3.3924 1.7435-7.7111-1.5918-9.8965-2.1614-1.4162-2.2328-1.6815-0.74219-2.7715 1.9309-1.4119 2.1351-9.2778 0.32812-12.654-0.9665-1.8059-1.6717-2.0099-4.7871-1.3867-4.6042 0.921-6.7131 0.91807-11.404-0.0156-3.2578-0.64852-3.7575-0.49928-3.8125 1.1348-0.056 1.6737-0.15723 1.6482-0.91993-0.24023-1.5563-3.8532-3.3147-41.48-2.6816-57.379 1.0497-26.36 6.3966-54.169 11.287-58.701 1.3079-1.2122 2.377-2.8503 2.377-3.6406 0-2.3335 3.3467-5.7456 4.75-4.8438 2.1211 1.3631 3.4766 12.124 3.1055 24.648l-0.35547 11.965 4 0.70508c5.3024 0.93666 35.279 12.235 43.5 16.395 3.5751 1.809 12.565 6.6966 19.977 10.861 12.709 7.1418 13.535 7.4606 14.525 5.6094 1.0022-1.8726 1.1636-1.8256 3.5137 1.0195 1.3549 1.6402 3.031 2.9824 3.7246 2.9824 0.6935 0 1.2598 1.125 1.2598 2.5 0 1.6295 0.56002 2.5 1.6074 2.5 0.9639 0 1.3934 0.55777 1.0723 1.3945-0.5554 1.4472 8.1978 7.6055 10.811 7.6055 0.7461 0 2.6288 1.2375 4.1836 2.75s4.8513 4.4081 7.3262 6.4336c2.4751 2.0254 8.5501 7.0827 13.5 11.238 4.9501 4.1556 9.7124 7.5604 10.582 7.5664 0.8695 6e-3 2.1563 1.0242 2.8594 2.2617 0.7033 1.2375 3.5927 4.2184 6.4199 6.623 7.4794 6.3615 23.603 23.92 30.682 33.412 3.3693 4.518 10.477 15.063 15.793 23.434 5.3162 8.3703 10.202 15.233 10.857 15.25 1.7075 0.0449 0.65846-11.982-2.1777-24.969-4.6808-21.433-14.27-42.695-27.943-61.957-23.473-33.068-40.432-47.665-99.262-85.438-11.654-7.4829-21.466-13.605-21.805-13.605-0.3383 0-3.1782-1.7248-6.3106-3.832s-11.095-6.6817-17.695-10.166c-16.066-8.482-20.972-11.727-27.574-18.242-3.0659-3.0255-6.5231-6.0098-7.6836-6.6309-1.2963-0.69376-3.1045-1.0647-4.5898-1.0957h-4e-3z" fill="#fff"/>
  <path d="m1806.5-37.533c7.0726-24.078 7.897-31.671 4.958-45.659-1.145-5.4501-2.0819-11.897-2.0819-14.327 0-3.5206-0.5771-4.9947-2.842-7.2596-3.7884-3.7884-9.915-5.416-15.116-4.0156-5.7464 1.5474-5.7008 2.6548 0.138 3.3463 4.9197 0.58267 9.8198 3.5835 9.8198 6.0137 0 0.55-1.029 0.0333-2.2868-1.1483-1.2577-1.1816-3.3952-2.2725-4.75-2.4243-2.1555-0.24152-2.4369 0.0875-2.253 2.6342 0.1156 1.6006 0.7441 3.4006 1.3967 4 0.872 0.80086 0.9994 0.75839 0.4808-0.1602-0.3881-0.6875-0.2006-1.25 0.4167-1.25 1.8111 0 0.7504 6.4354-1.119 6.7891-1.1849 0.22414-1.7805-0.73175-2.2378-3.5914-0.9894-6.1876-3.9622-9.1977-9.0837-9.1977-7.9573 0-14.812 1.9282-21.012 5.9105-3.3285 2.1379-8.7518 4.643-12.052 5.567-8.2651 2.314-13.347 5.4804-19.367 12.067-2.8232 3.089-5.1331 5.0822-5.1331 4.4293s3.1943-4.4815 7.0985-8.5079c6.0693-6.2592 8.2805-7.8025 15.25-10.643l8.1515-3.3227-6.4577-0.30311c-4.8212-0.2263-8.6223 0.36879-15 2.3484-14.915 4.6296-21.9 8.4167-28.292 15.341-6.1456 6.6564-7.5717 6.909-2.9024 0.51396 8.6556-11.855 20.08-18.675 34.145-20.385l5.5076-0.66946-3-1.2602c-2.9467-1.2378-11.654-1.102-31.5 0.49135-6.1043 0.4901-8.4304 0.23515-12.5-1.37-2.75-1.0847-5-2.3625-5-2.8396 0-1.2215 7.9719-1.6573 14.5-0.79264l5.5 0.72844-4.5 1.2502-4.5 1.2502 5.1849 0.0982c2.8517 0.054 6.4142-0.36918 7.9166-0.9404 1.5024-0.57121 5.1279-1.1337 8.0566-1.25 2.9288-0.11628 5.3288-0.52831 5.3335-0.91561 0.017-1.4401-9.3518-7.7786-18.276-12.365-11.794-6.0607-18.286-10.46-16.795-11.382 1.4001-0.86534-1.0262-4.2564-8.8-12.299-3.0567-3.1625-5.2042-5.75-4.7723-5.75 1.92 0 7.9757 5.7322 13.53 12.807 5.5455 7.064 6.7377 8.0131 14.581 11.609 4.6982 2.1539 8.8216 3.6367 9.1631 3.2952 1.3486-1.3486-5.4118-10.709-14.596-20.211-5.3163-5.5-11.151-11.933-12.966-14.296-3.5173-4.5785-5.3753-5.1421-2.5036-0.75945 0.9434 1.4399 1.4879 2.8454 1.21 3.1233-0.278 0.27795-3.7211-3.4462-7.6515-8.2759s-6.6832-8.9355-6.1174-9.1241c2.3985-0.79951 10.449 5.4228 15.915 12.301 3.2071 4.0358 9.6906 11.319 14.408 16.184s11.638 12.672 15.379 17.347c7.0228 8.7759 13.028 12.899 21.171 14.534l3.3689 0.67676-1.8689-3.1824c-2.3936-4.0759-4.6717-6.1194-3.8129-3.4201 0.927 2.9136-7.0933-6.1305-10.129-11.422-4.3404-7.5657-14.366-21.31-19.267-26.414-2.4967-2.5998-4.2507-5.0156-3.8979-5.3685 0.7168-0.71681 9.9185 6.8713 13.653 11.258 1.328 1.5603 6.8742 7.4908 12.325 13.179 9.8062 10.233 12.648 14.903 4.6979 7.7208-2.2634-2.0449-4.3894-3.4439-4.7244-3.1089-0.9099 0.90994 16.589 18.179 21.874 21.588 4.0194 2.592 8.9124 3.9349 8.9124 2.446 0-0.28183-3.15-10.658-7-23.058-6.8925-22.199-9.1761-32.071-4.5141-19.515 1.3099 3.5281 3.2621 7.6056 4.3381 9.061s3.3083 5.3187 4.9606 8.5852c3.0734 6.0757 7.3432 11.439 9.1069 11.439 0.5428 0 3.0666 1.8 5.6085 4 3.4502 2.9861 5.4886 4 8.0418 4 2.8274 0 3.5305-0.43966 4.0568-2.5368 0.9275-3.6955 0.057-6.9083-5.4487-20.116-5.7845-13.875-6.7803-16.855-5.3339-15.961 0.5666 0.35018 1.3065 1.869 1.6442 3.3752 0.3378 1.5062 2.1206 5.1688 3.9618 8.139 2.9039 4.6844 3.435 5.1256 4.0057 3.3276 0.3618-1.1401 0.1382-5.0574-0.497-8.705-0.6353-3.6476-0.9014-6.8856-0.5915-7.1956 0.6189-0.61884 0.6597-0.4511 3.5757 14.673 2.9946 15.531 4.7487 20.758 7.2306 21.546 1.3079 0.4151 2.4408 0.15428 2.9936-0.68918 0.4949-0.75503 0.6259-10.007 0.2953-20.857-0.4501-14.774-1.0405-20.954-2.436-25.5-2.2244-7.2462-5.1753-46.01-3.3646-44.2 0.3485 0.34855 1.0051 4.586 1.4591 9.4167 1.3023 13.859 2.4353 21.505 3.9683 26.783 2.1858 7.5249 3.9386 20.335 3.9368 28.77 0 10.239 2.6256 26.73 4.2596 26.73 0.7064 0 0.8856-4.4966 0.5478-13.75-0.2761-7.5625-0.1735-15.1 0.228-16.75 0.6287-2.5838 0.7479-2.3063 0.8593 2 0.071 2.75 0.4234 6.7805 0.7827 8.9567 1.0155 6.1493 2.1302 1.4486 1.6497-6.9567-0.6493-11.36-0.8666-48.46-0.3251-55.5l0.5-6.5 1.3469 10.126c0.7634 5.7392 1.1019 13.537 0.7813 18-0.4325 6.0199-0.3394 7.0497 0.3957 4.3738 2.0806-7.5741 1.3752-33.818-1.4247-53-1.2314-8.4368-1.2612-8.4978-4.0056-8.1987-1.5208 0.16571-3.398-0.22405-4.1717-0.86614-1.1886-0.98644-0.9975-1.8953 1.2325-5.8624 2.0541-3.6542 2.4938-5.4572 1.9837-8.1339-0.7626-4.0015-6.2224-13.939-7.6583-13.939-1.4189 0-1.2245 2.2142 1.0032 11.429 1.5202 6.2888 1.7536 9.0025 1 11.63-0.5407 1.885-0.983 5.8193-0.983 8.7429 0 3.2891-0.3812 5.08-1 4.6976-0.55-0.33992-1-1.9122-1-3.4939s-0.4827-4.1427-1.0728-5.691l-1.0728-2.8151-3.4272 3.7353c-3.355 3.6566-3.4272 3.9189-3.4272 12.45 0 5.22-0.3621 8.3337-0.9029 7.7647-0.4966-0.5225-1.0653-1.85-1.2637-2.95-0.6391-3.5429-4.1739-2.4603-5.5353 1.6954-1.4522 4.4325-2.1201 23.786-1.0028 29.055 1.1172 5.2674-0.905 4.8509-2.4272-0.5-1.3572-4.7707-1.4942-5.4235-1.7311-8.25-0.1163-1.3879-0.4092-1.6196-0.957-0.75697-1.2016 1.8921-1.3912 15.571-0.2572 18.554 0.5972 1.5708 0.6321 2.8602 0.087 3.1974-0.8382 0.51803-4.0094-8.2417-4.0094-11.075 0-1.1752-4.1871-2.043-14-2.9014-2.475-0.21652-6.2706-0.84295-8.4347-1.3921-6.8325-1.7337-10.014 2.2484-7.7329 9.6799 0.6065 1.976 0.9368 3.7586 0.734 3.9614-0.2027 0.20275-2.472-2.5789-5.0427-6.1815-3.6717-5.1454-5.4951-6.7962-8.5024-7.6972-4.2262-1.2662-9.6505-0.61102-12.561 1.5171-1.8016 1.3173-1.7188 1.5663 1.8262 5.4902 2.0424 2.2606 3.7134 4.5222 3.7134 5.0256 0 0.50344 0.2786 1.7396 0.6192 2.7471 0.3405 1.0075-2.2635-1.2057-5.7867-4.9182-7.4817-7.8836-10.057-8.5162-15.437-3.7921-3.8634 3.392-10.3 5.4416-14.318 4.5591-5.0144-1.1014-10.5-7.3905-15.28-17.517-2.4659-5.225-6.5587-12.512-9.095-16.193s-5.7322-8.9044-7.102-11.608c-2.915-5.7525-11.729-14.075-15.76-14.881-3.4296-0.68591-2.7465-2.3197 0.9676-2.3146 5.8798 8e-3 11.508 5.7313 17.698 17.996 1.5266 3.025 4.2387 7.3 6.0268 9.5 1.7882 2.2 5.8074 8.275 8.9316 13.5 8.4231 14.087 10.07 16 13.776 16 1.9013 0 5.796-1.6054 9.878-4.0717 9.2114-5.5656 14.97-6.9373 31.881-7.5943 11.232-0.43639 16.237-0.19947 22.208 1.0514 8.6943 1.8214 14.527 2.0462 18.076 0.69682l2.4142-0.91788-3.8103-7.8321c-2.5376-5.2161-4.7838-12.272-6.7249-21.125-1.6031-7.3109-3.1656-13.543-3.4723-13.85-1.2968-1.2968-2.6891 1.0254-2.669 4.4516 0.036 6.1796 3.6321 20.444 6.8046 26.994 1.6487 3.4036 2.5907 6.4397 2.0935 6.7471-0.4973 0.30733-6.336-0.44979-12.975-1.6825-10.513-1.952-12.812-2.0881-17.818-1.0542-3.161 0.65289-8.6452 1.1911-12.187 1.196-4.8375 7e-3 -8.9279 0.89836-16.44 3.5836-15.614 5.5815-17.308 5.9994-18.695 4.6127-0.9403-0.94027-0.3856-1.2052 2.5233-1.2052 2.1272 0 6.1967-1.2459 9.4753-2.9009 7.6282-3.8507 12.555-5.0886 25.159-6.3213 15.01-1.468 22.654-1.3577 29.667 0.42801 8.9504 2.2789 9.3694 1.5677 5.0287-8.5363-2.0122-4.684-3.6586-9.2258-3.6586-10.093s-0.4697-1.5766-1.0438-1.5766-0.9116 0.5758-0.75 1.2796c0.1616 0.70376-0.1187 1.4913-0.6229 1.75-0.5041 0.25875-1.7569-2.0046-2.7839-5.0296-1.7524-5.1619-6.0757-10.057-7.566-8.5668-0.569 0.569 0.3346 4.7312 2.1853 10.067 0.5488 1.5822 0.3164 1.4891-1.1125-0.44572-5.3407-7.2316-4.5819-7.1268-10.492-1.4498-2.9228 2.8075-6.4268 5.845-7.7867 6.75-3.1724 2.1113-11.19 2.1367-15.588 0.0495-4.0734-1.9329-12.963-11.831-20.485-22.81-5.9572-8.6946-7.8313-10.026-21.303-15.138-7.8672-2.9852-11.818-2.7735-20.439 1.095-5.4553 2.4479-19.626 13.484-21.278 16.572-1.0584 1.9775-1.2587 5.8766-0.302 5.8766 0.3475 0 2.26-0.99287 4.25-2.2064 3.3153-2.0218 3.4949-2.0427 2.1463-0.25-0.8094 1.076-3.2122 3.9026-5.3396 6.2812-7.5305 8.4201-10.965 20.456-10.039 35.175 0.4454 7.0754 3.2829 29.266 3.8095 29.793 0.1791 0.17909 0.6226-2.9635 0.9855-6.9836 0.9368-10.377 1.5244-12.809 3.0943-12.809 2.4841 0 3.9854 7.5216 2.6637 13.345-1.5147 6.6728-6.1349 21.52-10.629 34.155-5.1335 14.435-4.9445 18.375 1.5153 31.585 5.0427 10.312 6.4888 12.294 8.1991 11.237 1.7372-1.0737 7.9843 6.3037 11.427 13.495 2.3381 4.8832 4.2857 7.614 5.8564 8.2112 1.2944 0.49211 3.5669 2.817 5.05 5.1665 3.0702 4.8635 10.718 25.284 10.13 27.048-0.2137 0.64085-2.3218-1.514-4.6848-4.7886-7.0762-9.8059-11.955-12.705-15.068-8.9538-0.6847 0.825-1.8436 1.5-2.5754 1.5-1.3592 0-3.409-5.7822-3.419-9.6447-0.01-3.1644-3.8648-15.117-6.7291-20.855-1.3726-2.75-5.4543-9.8817-9.0705-15.848-6.4765-10.686-6.5814-10.973-7.0135-19.205-0.4147-7.9015-0.1736-9.1513 4.426-22.943 3.5143-10.538 4.5375-14.789 3.6861-15.315-1.8171-1.123-4.4773-24.192-4.4613-38.688 0.015-14.092 1.3324-20.966 5.6484-29.484 1.4547-2.8707 2.5083-6.6576 2.5083-9.0153 0-6.221 2.2819-10.531 7.1736-13.549 6.2803-3.8748 7.0503-5.1187 5.2836-8.5351-1.9747-3.8186-1.8326-6.7464 0.5428-11.178 1.1-2.0524 2.0017-4.7457 2.0037-5.9852 0-1.2395 0.9787-3.8286 2.1702-5.7536 1.3932-2.2507 2.0807-4.8078 1.926-7.1638-0.3659-5.5763 4.6111-13.944 15.627-26.274 9.4415-10.568 14.003-22.881 13.019-35.143-0.5573-6.9426-3.5014-13.532-9.7339-21.787-5.2075-6.8973-6.0312-11.246-3.0453-16.077 3.4485-5.5797 9.3664-8.3045 28.76-13.242 21.318-5.4275 32.611-6.4228 44.643-3.9345 4.3145 0.89224 11.367 1.6223 15.672 1.6223 9.9192 0 12.126 0.87823 18.374 7.3121 4.3054 4.4336 8.0576 7.0989 20.584 14.622 0.825 0.49546 2.9204 1.4251 4.6563 2.0659 1.736 0.64081 5.7206 3.5515 8.8546 6.4682 5.4006 5.0261 5.6562 5.4789 4.8923 8.6675-1.0587 4.4198-0.5689 20.303 0.7309 23.699 0.5612 1.4661 1.0232 4.6354 1.0265 7.0429 0 3.7715-0.5532 4.9478-4.0354 8.5-3.8571 3.9347-4.0719 4.4881-4.7069 12.131-0.6362 7.6559-0.5061 8.393 2.9581 16.762 4.1388 9.9982 4.6893 16.193 1.7603 19.81-1.8524 2.2876-1.8331 2.3511 3.3108 10.861 2.8457 4.7078 5.481 9.3757 5.8562 10.373 0.7485 1.9895 2.6963 1.396 2.6963-0.82151 0-0.76455 1.4669-2.509 3.2599-3.8765l3.2598-2.4864-0.6728-8.8145c-2.261-29.625 0.8546-71.655 6.843-92.315 0.8768-3.025 1.6588-8.425 1.7376-12 0.1997-9.0569 7.4055-27.49 11.11-28.42 1.3546-0.33999 2.4629-1.0596 2.4629-1.5991 0-1.3356 4.6467-1.2404 7.2415 0.14828 1.1605 0.62107 4.6184 3.6046 7.6843 6.6301 6.6024 6.5155 11.508 9.7608 27.574 18.243 6.6 3.4844 14.563 8.0593 17.695 10.166 3.1323 2.1072 5.972 3.8313 6.3103 3.8313 0.3384 0 10.151 6.1224 21.805 13.605 58.83 37.773 75.787 52.369 99.26 85.437 13.673 19.262 23.263 40.525 27.944 61.958 2.8362 12.987 3.8851 25.014 2.1776 24.969-0.6555-0.0172-5.5414-6.8797-10.858-15.25-5.3161-8.3703-12.422-18.915-15.792-23.433-7.0783-9.4917-23.204-27.052-30.683-33.413-2.8272-2.4047-5.7158-5.3846-6.419-6.6221s-1.99-2.2553-2.8595-2.2618c-0.8696-6e-3 -5.631-3.4118-10.581-7.5674s-11.025-9.2128-13.5-11.238-5.7721-4.9201-7.3269-6.4326-3.4374-2.75-4.1835-2.75c-2.6128 0-11.366-6.1577-10.811-7.6049 0.3211-0.83676-0.1078-1.3951-1.0717-1.3951-1.0474 0-1.607-0.87047-1.607-2.5 0-1.375-0.5674-2.5-1.2609-2.5-0.6936 0-2.3695-1.342-3.7244-2.9822-2.3501-2.8452-2.5116-2.892-3.5138-1.0194-0.9908 1.8513-1.8164 1.5324-14.526-5.6094-7.4113-4.1647-16.4-9.0523-19.975-10.861-8.2209-4.16-38.198-15.458-43.5-16.394l-4-0.70661 0.3545-11.963c0.3711-12.525-0.985-23.286-3.106-24.65-1.4033-0.90181-4.7485 2.5112-4.7485 4.8447 0 0.79033-1.0701 2.4287-2.378 3.6409-4.8905 4.5324-10.238 32.34-11.287 58.701-0.6331 15.899 1.1252 53.525 2.6815 57.378 0.7627 1.8884 0.864 1.915 0.9204 0.2413 0.055-1.634 0.5555-1.7829 3.8134-1.1344 4.6912 0.93379 6.799 0.9367 11.403 0.0157 3.1154-0.62318 3.8201-0.41901 4.7866 1.3869 1.807 3.3764 1.6035 11.242-0.3274 12.654-1.4906 1.09-1.4198 1.3546 0.7416 2.7708 3.3353 2.1854 4.0305 6.5047 1.5929 9.8972-2.3062 3.2096-2.3874 4.6239-0.4151 7.2316 1.8998 2.5117 1.8749 5.9765-0.054 7.5776-0.8612 0.71477-1.2719 2.0533-0.9455 3.0817 0.3788 1.1935-0.3005 2.5811-1.9774 4.0392-1.405 1.2216-2.5545 2.8472-2.5545 3.6124 0 2.167-9.2627 11.235-11.5 11.258-3.0812 0.0319-4.1912 1.1822-4.8153 4.9901-2.3053 14.065-8.4685 35.686-15.779 55.354-6.1465 16.537-6.5983 19.29-3.3346 20.32 1.4659 0.46273 8.2945-9.4879 9.6388-14.046 0.6697-2.2707 1.7964-4.7232 2.5037-5.45 0.7074-0.72678 1.2861-2.1518 1.2861-3.1667s0.5034-2.013 1.1186-2.2181c0.6444-0.2148 1.2635-3.472 1.4604-7.6836 0.2375-5.0799 0.9642-8.3656 2.3814-10.768 1.3115-2.2228 2.0396-5.2215 2.0396-8.3997 0-3.6095 0.5395-5.4823 2-6.9428 1.1-1.1 1.9467-2.3375 1.8816-2.75-0.3569-2.2603 0.4931-3.4615 4.0294-5.6938 2.7861-1.7588 4.1136-3.4162 4.6154-5.7626 0.8889-4.1556 2.2-5.7937 4.6374-5.7937 1.2215 0 3.0483-1.817 5.027-5 3.4115-5.4879 6.3807-6.5557 7.3616-2.6474 0.4096 1.632-0.3503 3.8361-2.481 7.1958-1.6892 2.6637-3.0714 5.8283-3.0714 7.0323 0 1.2041-1.0654 2.8873-2.3677 3.7406-3.5738 2.3417-7.8062 10.137-7.0783 13.038 0.47 1.8727-0.1647 3.1849-2.8293 5.8496-3.1119 3.1119-5.76 10.089-4.3604 11.489 1.001 1.001 6.8287-6.385 9.7985-12.418 1.6841-3.4214 3.6864-6.739 4.4496-7.3724 0.7632-0.63338 1.3876-1.7715 1.3876-2.5292 0-0.80273 1.0432-1.3776 2.5-1.3776 2.0781 0 2.5-0.47789 2.5-2.8316 0-2.2967 0.9382-3.4395 4.9668-6.05 4.7129-3.0538 7.0056-6.9258 7.0277-11.868 0-0.6875 0.419-1.25 0.9243-1.25s2.4043-1.575 4.22-3.5 3.8717-3.5 4.5687-3.5c0.6971 0 2.4654-1.9125 3.9295-4.25 3.1011-4.951 4.0519-5.7139 7.1468-5.7347 1.5411-0.0103 2.9552-1.1534 4.3487-3.5153 2.401-4.0693 5.87-4.8088 5.8633-1.25 0 1.2375-1.1273 4.4638-2.5 7.1695-1.3726 2.7057-2.4958 5.4245-2.4958 6.0418s-2.025 3.1097-4.5 5.5387-4.5 4.9135-4.5 5.521c0 0.60755-2.8605 4.08-6.3567 7.7166-4.2217 4.3913-6.8569 8.1314-7.8461 11.136-1.4571 4.4261-1.447 4.4945 0.4634 3.1564 2.6568-1.8609 9.7394-11.4 9.7394-13.118 0-0.76287 1.7986-2.5224 3.9968-3.9101s5.588-4.9196 7.5328-7.8488c1.9449-2.9292 4.8763-6.3166 6.5143-7.5276s4.158-3.9847 5.6-6.1638c2.8318-4.2791 6.3561-5.3782 6.3561-1.9822 0 2.5147-2.8906 10.028-4.6551 12.099-0.7397 0.86831-1.3449 2.3112-1.3449 3.2066 0 0.89529-1.7943 3.5598-3.9875 5.9212-2.1931 2.3614-3.9931 4.991-4 5.8435-0.01 0.8525-0.5525 2.09-1.2125 2.75s-0.8734 1.2-0.4743 1.2 0.039 1.3277-0.8 2.9504c-0.8391 1.6227-1.5257 3.2412-1.5257 3.5968 0 1.5374 9.1161-9.3949 10.671-12.797 0.9427-2.0625 2.3023-3.75 3.0215-3.75 0.7191 0 1.3075-0.77047 1.3075-1.7122 0-1.7841 7.7238-10.288 9.3442-10.288 1.307 0 0.01 8.4159-1.8531 12.017-0.8483 1.6405-2.2059 2.9828-3.0167 2.9828-0.9819 0-1.4744 1.035-1.4744 3.0988 0 2.0996-0.9052 3.9536-2.8074 5.75-2.474 2.3364-5.8189 8.2748-7.5243 13.359-0.315 0.93901-2.319 2.8097-4.4534 4.1571-4.054 2.5592-9.2149 8.054-9.2149 9.8112 0 0.56213-1.4625 2.3958-3.25 4.0748l-3.25 3.0527 2.9064-1.5114c1.5985-0.83127 4.0927-3.262 5.5426-5.4015 1.4605-2.1552 3.6207-4.0326 4.8436-4.2097 1.372-0.19861 2.2074-1.0244 2.2074-2.1819 0-1.0243 1.2989-2.7872 2.8863-3.9176s3.6088-3.861 4.4919-6.0681c0.9006-2.2508 2.2817-4.0129 3.1451-4.0129 0.8467 0 1.819-0.72832 2.1606-1.6185s2.5774-3.6315 4.9686-6.0918l4.3475-4.4733v4.8418c0 4.7688-2.8513 11.342-4.9139 11.342-0.521 0-1.2668 1.0067-1.6573 2.2372-0.6634 2.09-3.8805 6.4714-9.1748 12.495-1.2375 1.408-2.25 3.1589-2.25 3.8909s-1.2375 2.1197-2.75 3.0837-5.225 4.3072-8.25 7.4292-6.6242 6.0094-7.9982 6.4164c-2.5606 0.75851-8.4827 5.2875-14.889 11.387-2.8235 2.6881-4.4752 3.4524-7.5638 3.5-3.3678 0.0519-4.0386 0.43018-4.5412 2.5609-0.4698 1.9915-1.5632 2.7423-5.3754 3.6913-6.793 1.691-7.9737 2.8576-5.9766 5.9054 2.2514 3.4361 0.4823 5.0613-6.1039 5.6075-4.4246 0.36692-6.8456 1.3933-13.333 5.6524-11.505 7.553-11.843 8.0516-12.608 18.572-0.3571 4.9107-1.3077 11.767-2.1124 15.237 0.063 4.3935-12.979 34.913-7.3739 15.584zm20.758-55.399c5.0374-3.8293 7.1817-4.8513 10.179-4.8513 2.0882 0 4.4717 0.675 5.2967 1.5 1.5837 1.5838 3.6618 2.0149 3.6153 0.75-0.015-0.4125-2.7496-2.55-6.0765-4.75s-6.7011-5.2375-7.4981-6.75c-2.5615-4.8606-5.434-3.2785-11.647 6.4147-1.8808 2.9344-4.1692 5.9529-5.0852 6.7077-0.9161 0.75485-1.6656 1.7674-1.6656 2.25 0 1.6604 1.9378 0.87108 5.4652-2.226 4.3015-3.7767 4.6202-2.5907 0.5755 2.1414-5.6638 6.6262-2.7779 6.1257 6.8412-1.1865zm-6.7759-11.549c1.8884-2.0914 4.0996-4.7321 4.9137-5.8683 0.8142-1.1362 2.2678-2.3596 3.2303-2.7186 2.0602-0.76845 2.2383-3.2654 0.5-7.0084-1.3111-2.8231-2.7494-3.5851-2.7508-1.4572 0 2.6051-5.9615 13.702-9.4072 17.517-1.9756 2.1867-3.592 4.2747-3.592 4.6399 0 1.3111 3.7373-1.3732 7.106-5.1039zm28.89-1.4958c0-0.38131-0.9056-1.3307-2.018-2.1098-1.271-0.89026-1.7885-2.0259-1.393-3.0567 0.4249-1.1072 0.099-1.6402-1.0023-1.6402-1.8444 0-3.8114 4.2392-2.9766 6.4148 0.5536 1.4427 7.3807 1.8048 7.3899 0.39188zm7.0044-2.3067c0-0.14677-1.125-0.4819-2.5-0.74475-1.5641-0.299-2.5-0.0202-2.5 0.74475s0.9359 1.0438 2.5 0.74476c1.375-0.26286 2.5-0.59799 2.5-0.74476zm-15.909-2.2396c0.5729-1.5068 0.772-4.3193 0.4424-6.25l-0.5992-3.5104 1.8369 2.316c1.8181 2.2922 1.8697 2.2973 5.0266 0.5 1.7543-0.99877 3.1924-2.1534 3.1959-2.566 0-0.4125 0.7778-0.75 1.7206-0.75 1.5006 0 1.5317-0.17535 0.25-1.4064-1.1772-1.1307-2.7032-1.213-7.7849-0.42011-8.458 1.3198-9.5906 0.79949-8.8152-4.0494 0.5994-3.7487 0.5475-3.831-2.1248-3.3675-4.3142 0.74836-5.5573 3.0238-3.2526 5.9537 1.0515 1.3368 2.2084 4.5363 2.5709 7.1101 1.1895 8.4449 5.402 12.046 7.5334 6.44zm29.343-4.5104c6.4927-6.3951 13.296-11.644 15.959-12.312 3.3057-0.82969 3.1617-3.7846-0.2078-4.2644-2.7661-0.39387-5.1848 1.4092-5.1848 3.8652 0 2.1358-7.0002 7.9443-9.6439 8.0022-1.0208 0.0224-3.3597 1.327-5.1975 2.8992-3.0872 2.6411-3.2013 2.9399-1.5 3.929 2.4381 1.4173 2.0354 1.565 5.7753-2.1187zm-12.999-0.85478c-0.8726-1.4119-2.4353-1.044-2.4353 0.5734 0 0.89208 0.5866 1.2435 1.4943 0.89521 0.8218-0.31537 1.2453-0.97625 0.941-1.4686zm5.779-3.485c-0.1925-1.4079 1.1625-3.4246 4.1526-6.1808 2.441-2.2501 4.2152-4.3141 3.9427-4.5866-1.0941-1.0941 8.2358-6.7718 10.436-6.3511 1.2397 0.23698 2.2539-0.0402 2.2539-0.616 0-1.6999-4.2155-5.6824-5.9243-5.5968-1.0321 0.0517-1.1445 0.25294-0.3257 0.58333 2.3233 0.93744 1.2697 2.9584-2.7076 5.1938-4.2709 2.4003-14.777 10.62-16.761 13.113-2.5635 3.2217-0.6144 7.3669 3.2066 6.8193 1.3981-0.20038 1.9245-0.92567 1.7259-2.378zm13.503-8.1799c4.575-4.1823 3.6799-5.1377-1.6571-1.7686-4.8145 3.0392-8.0605 6.0977-8.0605 7.5947 0 1.4031 5.2581-1.7493 9.7176-5.8261zm-33.14 1.0837c-0.2488-2.3336-2.1345-3.9915-4.8272-4.2438-0.928-0.087-1.0003 5.3461-0.083 6.263 0.3667 0.36667 1.686 0.66667 2.9318 0.66667 1.8624 0 2.2142-0.4776 1.9788-2.6859zm11.88 0.755c0.3165-0.512 0.118-1.2136-0.441-1.559-1.6161-0.99885-1.1794-2.5078 0.7337-2.5351 2.6739-0.0382 9.9537-7.4568 12.769-13.012 2.2654-4.4706 2.7044-4.8404 4.4517-3.7492 2.2404 1.3991 3.787 0.43794 2.3164-1.4395-1.4133-1.8042-2.2661-5.7742-1.2404-5.7742 0.4726 0 2.0177 0.52779 3.4335 1.1729 1.9691 0.89717 2.8499 0.89717 3.7471 0 0.8971-0.89716 0.8907-1.1729-0.027-1.1729-2.9051 0-0.6779-3.9035 5.85-10.253 5.4102-5.2621 6.9064-7.3094 6.4326-8.8022-0.711-2.2404-0.204-2.3863 2.8332-0.81557 1.7729 0.91689 1.6311 0.54026-0.7529-2-1.6154-1.7213-3.4154-3.1279-4-3.1259-1.1532 4e-3 -5.1494 8.7136-4.9258 10.736 0.075 0.68158-0.2077 1.0261-0.6292 0.76561s-1.8332 0.59166-3.1371 1.8937c-1.3039 1.302-3.9458 3.2435-5.8708 4.3144-1.9565 1.0884-3.6373 2.8769-3.8115 4.0556-0.1891 1.2804-1.171 2.2308-2.5 2.42-1.6363 0.2329-3.2464 2.4559-6.3819 8.8115-3.8716 7.8478-7.4412 12.297-11.841 14.759-1.2871 0.72028-1.5738 1.6719-1.0875 3.6094 0.6477 2.5809 2.9438 3.5379 4.0795 1.7003zm12.97-24.591c2.0551-1.5548 3.2035-1.3076 2.1142 0.45494-0.3626 0.58659-1.4201 1.0522-2.3502 1.0347-1.4846-0.0279-1.4558-0.2097 0.236-1.4897zm7.573-7.8619c0-0.76085 0.9-1.6187 2-1.9064 2.2524-0.58901 2.5919 0.29787 0.8 2.0898-1.5974 1.5974-2.8 1.5187-2.8-0.18337zm-28.224 26.31c-0.5813-3.9602 5.7278-16.897 9.0378-18.532 5.8134-2.8717 10.518-9.6701 7.4939-10.83-4.3506-1.6695-6.1071-0.61546-9.7096 5.8264-3.4659 6.1976-8.0515 12.377-13.13 17.692-1.3574 1.4208-2.4681 3.0602-2.4681 3.643 0 1.6172 3.2391 2.5048 4.0939 1.1218 0.9297-1.5044 3.9061 0.60957 3.9061 2.7743 0 0.75766 0.2761 1.3776 0.6135 1.3776 0.3375 0 0.4105-1.383 0.1625-3.0734zm13.224-24.721c0-0.52849 0.7269-1.5642 1.6154-2.3015 1.3975-1.1599 1.5661-1.0864 1.25 0.54469-0.3767 1.9436-2.8654 3.4695-2.8654 1.7568zm-25.398 22.206c0.2198-4.1231 0.4428-4.6085 1.866-4.0623 2.1631 0.83007 3.109-1.4543 1.1848-2.8613-3.2125-2.349-2.0514-7.1475 3.0486-12.6 5.2994-5.6655 5.1425-8.1349-0.5529-8.7016-2.6199-0.26068-3.3179 0.12874-4.1491 2.3151-0.5497 1.4457-0.9994 4.5241-0.9994 6.8409s-0.7027 5.2157-1.5616 6.442-1.4327 3.0139-1.275 3.9725-0.084 2.3346-0.5375 3.0578c-1.1705 1.8675 0.219 8.4046 1.6815 7.911 0.6559-0.2214 1.2385-1.2628 1.2946-2.3142zm7.4439-24.497c0.6139-1.1471 1.3603-1.8415 1.6587-1.5431 0.8243 0.82426-0.4961 3.6288-1.7084 3.6288-0.7395 0-0.7243-0.63946 0.05-2.0856zm50.62 25.836c0.4312-0.6875 0.6689-1.9524 0.5282-2.8109-0.2225-1.3573 6.7851-8.9391 8.2622-8.9391 0.2989 0 0.5435 0.765 0.5435 1.7 0 1.2876 0.2808 1.4192 1.1577 0.54238 0.8768-0.87682 0.8471-1.5317-0.1225-2.7-2.1891-2.6377-4.8817-1.7372-8.0966 2.7076-1.6907 2.3375-4.1685 4.8269-5.5063 5.5319-2.7259 1.4367-2.9812 2.2691-1.2323 4.0181 1.5517 1.5517 3.4749 1.5302 4.4661-0.05zm-23.164-4c3.2399-2.0986 4.485-3.7854 2.7483-3.7231-1.0331 0.0371-7.9363 5.9127-6.9859 5.9462 0.4202 0.0148 2.3271-0.9856 4.2376-2.2231zm-8.4858-9.25c5.6876-9.59 2.5666-8.1031-3.9338 1.8741-2.2451 3.446-4.0798 6.909-4.0771 7.6956 0.01 1.864 4.2029-3.149 8.0109-9.5697zm26.784 4.3c1.3992-1.3992 1.5992-3.8 0.3167-3.8-0.4859 0-1.1381 0.974-1.4494 2.1644-0.4942 1.8896-0.7763 1.9899-2.2222 0.78999-1.5125-1.2553-1.4086-1.5766 1.1994-3.7068 1.5706-1.2828 4.9894-3.7367 7.5974-5.4532 6.0918-4.0092 8.0872-7.0198 7.2323-10.912-0.7928-3.61-2.5822-3.3102-3.6301 0.6081-0.8269 3.0918-9.4851 12.509-11.501 12.509-0.6775 0-2.4445 1.0431-3.9267 2.318l-2.6948 2.318 2.7739 2.182c3.1503 2.478 4.5848 2.7014 6.3042 0.98199zm-8.3-6.8c0.34-0.55 0.1415-1-0.4409-1-0.5825 0-1.0591 0.45-1.0591 1s0.1985 1 0.441 1c0.2426 0 0.7191-0.45 1.059-1zm27.5 0.0833c0-0.50416-0.49-1.08-1.0889-1.2796s1.1138-2.6364 3.8061-5.415c4.6649-4.8145 5.6477-7.3887 2.8208-7.3887-0.7124 0-1.8686 1.3841-2.5693 3.0758-0.7008 1.6917-2.5998 4.4015-4.22 6.0217-1.7108 1.7108-2.7081 3.5657-2.3787 4.4242 0.6136 1.5991 3.63 2.0658 3.63 0.5616zm-16.003-8.4205c1.9232-2.2315 3.9866-5.4819 4.5852-7.2233 0.9837-2.8614 0.9096-3.1193-0.7697-2.6802-2.3818 0.62287-9.4421 8.6156-11.96 13.54l-1.9428 3.7992 3.2954-1.6892c1.8125-0.92903 4.869-3.5149 6.7921-5.7463zm-73.913-3.1456c0.6912-0.69038 0.8459 0.42877 0.4813 3.4827l-0.5373 4.5 1.53-4.5c1.9708-5.7969 3.646-17.362 3.9833-27.5 0.3042-9.1426-0.1133-11.5-2.0366-11.5-1.3357 0-1.6637 1.7332-2.9969 15.837-0.2775 2.9355-1.1802 8.251-2.0061 11.812s-1.4564 8.8093-1.4011 11.663l0.1004 5.188 0.9323-3.9827c0.5128-2.1905 1.3906-4.4405 1.9507-5zm53.038 0.68123c0.4473-1.2091 0.6349-2.1985 0.4169-2.1985-0.825 0-3.5392 3.1862-3.5392 4.1548 0 1.7604 2.2746 0.33528 3.1223-1.9563zm34.313-0.0937c0.3043-0.49236-0.096-1.1444-0.8901-1.4491-0.9628-0.36945-1.2582-0.0714-0.8872 0.89522 0.6446 1.6798 1.0108 1.794 1.7773 0.55385zm-37.06-2.9025c1.3954-2.2578-2.901-4.4348-5.7995-2.9385-1.7842 0.92101-1.7113 1.0876 1 2.2836 3.5957 1.5863 4.175 1.6653 4.7995 0.65488zm51.198-3.597c0.9866-3.152 0.9326-3.3136-0.7553-2.2594-0.9998 0.62439-1.8179 2.152-1.8179 3.3947 0 3.3419 1.3596 2.7421 2.5732-1.1353zm-107.19 0.84277c0.3415-0.88992 0.1738-1.2913-0.393-0.94098-0.5437 0.33602-0.9886 1.0344-0.9886 1.5519 0 1.4384 0.7168 1.1215 1.3816-0.61096zm33.082-0.56239c-0.5311-1.6734 0.3281-3.0316 4.1198-6.5128 3.508-3.2206 4.4939-4.6955 3.6819-5.5075-0.61-0.60997-0.8475-1.7906-0.5279-2.6236 0.3824-0.99637 0.099-1.3649-0.8281-1.077-0.7752 0.24066-2.5344 2.7497-3.9094 5.5757s-3.6132 6.3142-4.9738 7.7516c-2.0809 2.1984-2.2397 2.7614-1 3.5454 2.6224 1.6584 4.1654 1.1414 3.4375-1.1517zm28.536 0.12864c0-0.47722-0.6935-1.0132-1.5412-1.191-1.2589-0.26408-1.0299-1.1478 1.25-4.8233 1.5352-2.475 2.7912-4.961 2.7912-5.5245 0-0.56344 1.0254-2.328 2.2787-3.9213 1.7413-2.2137 2.5549-2.6206 3.45-1.7256 0.6442 0.64423 1.8405 1.1713 2.6584 1.1713 1.0079 0 0.5609-0.96674-1.3871-3-3.4735-3.6256-6.4847-3.9712-6.5354-0.75-0.019 1.2375-0.582 3.2236-1.25 4.4134-1.63 2.9035-8.2842 10.019-9.9114 10.599-0.758 0.26998-0.9321 0.83519-0.4163 1.3511 0.5159 0.51587 1.0737 0.36397 1.3334-0.3631 0.7701-2.1564 2.2797-1.3616 2.2797 1.2003 0 1.3477 0.7779 2.8856 1.7287 3.4177 1.8058 1.0106 3.2713 0.62811 3.2713-0.85371zm33.5 0.98569c0.34-0.55 0.1415-1-0.4409-1-2.0031 0-1.0505-2.2326 3.0341-7.1112 2.2512-2.6888 3.7402-4.8888 3.3088-4.8888-0.4313 0 0.017-0.58618 0.9972-1.3026 1.6036-1.1726 1.6257-1.4319 0.2215-2.5972-1.3538-1.1235-1.8922-0.54315-4.0749 4.3922-1.5833 3.5802-3.2656 5.8831-4.5413 6.2167-2.108 0.55126-3.6748 4.3973-2.5396 6.2341 0.8264 1.3372 3.223 1.3709 4.0351 0.0568zm-10.467-13.939c-0.8858-1.6553-0.3065-2.5549 3.9648-6.1565 4.7317-3.9898 6.2012-7.0459 4.0326-8.3862-0.5334-0.32963-1.6312 0.98369-2.4396 2.9185s-3.0874 4.938-5.0644 6.6739c-3.4138 2.9974-3.5096 3.2499-1.9054 5.0225 2.1752 2.4036 2.722 2.3756 1.412-0.0721zm-38.173-7.1391c2.3017-2.6776 3.1442-4.4616 2.6753-5.6654-0.5727-1.4701-0.8949-1.2672-1.9731 1.243-0.7087 1.65-2.2501 3.8572-3.4252 4.905-2.1212 1.8912-2.8249 3.6727-1.3867 3.5104 0.4125-0.0465 2.2619-1.8434 4.1097-3.993zm58.59 1.9964c-0.3675-0.59469 0.5555-2.3585 2.0511-3.9196 1.4957-1.5611 2.5407-3.3745 2.3222-4.0298-0.2184-0.65528-1.6179 0.57025-3.1101 2.7234-2.8512 4.1142-3.4262 6.3073-1.6539 6.3073 0.5824 0 0.7583-0.48657 0.3907-1.0813zm135.56-12.894c-2.2524-11.052-8.2607-28.524-13.42-39.025-4.3447-8.8425-13.833-22.021-26.655-37.024-17.755-20.774-26.898-28.786-51.5-45.125-12.061-8.0109-24.746-16.239-28.188-18.285-3.4418-2.0459-8.4226-5.431-11.068-7.5224-2.6458-2.0914-7.9298-5.6002-11.742-7.7972-3.8124-2.197-10.571-6.1886-15.019-8.8703-12.918-7.7884-44.378-23.242-50.766-24.938-3.3033-0.8768-6.9438-2.644-8.3561-4.0563-1.3764-1.3764-2.6286-2.3628-2.7827-2.192-0.8487 0.94127-6.5078 18.874-6.5078 20.623 0 2.9441 3.7392 5.188 8.645 5.188 3.9125 0 4.2789-0.2393 5.354-3.4969 2.0728-6.2806 4.0291-6.7907 13.372-3.4867 18.655 6.597 55.551 26.119 83.129 43.984 8.25 5.3445 19.725 12.769 25.5 16.499 12.049 7.7821 21.446 15.261 33.455 26.63 8.6646 8.2018 23.007 24.274 27.994 31.371 1.9856 2.8254 1.4045 2.385-1.979-1.5-15.706-18.034-38.025-37.934-58.641-52.286-28.446-19.803-85.689-51.391-101.61-56.073-7.5501-2.2196-8.217-1.7067-8.217 6.319 0 3.7105-0.2718 9.3998-0.604 12.643l-0.604 5.8967 9.7587 3.2989c20.051 6.7782 35.422 13.548 51.449 22.66 13.013 7.398 16.669 9.0802 17.3 7.9608 1.6625-2.9506 6.4223-1.2698 7.9684 2.8138 0.3967 1.0477 1.2644 1.4998 2.1941 1.143 0.9829-0.3772 1.5378-0.0214 1.5378 0.98607 0 5.6438 8.4603 14.115 12.93 12.946 1.4633-0.38265 2.0703-0.0674 2.0703 1.0752 0 0.88915 0.675 1.6166 1.5 1.6166s1.5 0.40292 1.5 0.89537 5.4911 5.555 12.202 11.25c17.604 14.939 16.618 14.248 18.328 12.829 1.1895-0.98723 1.4692-0.9105 1.4692 0.40316 0 0.89234 0.45 1.6224 1 1.6224s1 0.62159 1 1.3813 1.4625 2.4972 3.25 3.8609c14.303 10.913 36.074 37.205 51.014 61.609 6.2148 10.151 6.8086 9.2266 3.7411-5.8263zm-218.63-173.5c-0.3112-0.81104 0.4104-3.0542 1.6036-4.9848 1.2569-2.0338 1.9193-4.2985 1.5747-5.3842-0.3514-1.1069 0.054-2.4121 0.9891-3.1885 1.985-1.6474 9.644 0.0698 16.461 3.6907l4.5 2.3901-4.25-0.61221c-2.7707-0.39913-4.25-0.23356-4.25 0.47569 0 1.4445-3.7277 1.4048-4.2109-0.0448-0.8285-2.4857-4.9642 0.37534-6.8281 4.7238-1.8934 4.4171-4.4963 5.7835-5.5896 2.9343zm54.006 178.47c2.6624-2.2 5.3541-3.9857 5.9817-3.9682s0.274 0.68785-0.7859 1.4897c-1.0598 0.80183-1.6991 1.6857-1.4206 1.9642 0.2785 0.27852 1.5672-0.62279 2.8638-2.0029 1.8189-1.9361 2.0863-2.7804 1.1706-3.696-0.6527-0.65272-1.1868-1.9968-1.1868-2.9868 0-3.1093-2.8767-1.9609-4.8845 1.95-1.0588 2.0625-3.3179 4.5629-5.0203 5.5565-1.7788 1.0382-3.0952 2.6331-3.0952 3.75 0 2.7572 0.9053 2.4652 6.3772-2.0565zm-51.335 0.92186c1.2714-2.3756 0.5106-5.3813-1.1088-4.3805-0.5946 0.36748-2.2449-0.3915-3.6672-1.6866-1.9976-1.8188-2.443-1.9565-1.9574-0.60477 0.9448 2.6297-0.2226 2.1194-3.3526-1.4656-2.8196-3.2294-2.9835-5.3928-0.3316-4.3751 1.1386 0.43693 1.2086 0.1469 0.351-1.4554-0.9593-1.7926-1.2297-1.8423-2.5945-0.4775-0.838 0.83799-2.3915 1.5236-3.4522 1.5236-2.661 0-2.4293 1.8327 0.3214 2.5423 1.2375 0.31921 4.1614 3.2528 6.4976 6.5191 4.5392 6.3465 7.341 7.5102 9.2943 3.8605zm-3.348 0.43866c-0.9257-0.92563 0.1891-2.3605 1.8338-2.3605 0.8421 0 1.1778 0.60386 0.834 1.5-0.6104 1.5906-1.614 1.9143-2.6678 0.86052zm8.3251-2.8834c1.0568-1.2734 0.995-1.4197-0.3775-0.89301-0.9028 0.34643-1.6415 1.0317-1.6415 1.5229 0 1.286 0.5789 1.1054 2.019-0.62988zm67.175-0.33619c-0.9806-0.62191-0.4196-1.7151 2.25-4.3847 1.9559-1.9559 3.5562-4.1571 3.5562-4.8915 0-0.73442-1.8641 0.52886-4.1425 2.8073-4.0122 4.0122-4.7602 7.35-1.6388 7.3127 1.0224-0.0122 1.0174-0.18272-0.025-0.84377zm-69.844-6.1409c-0.3964-1.982-0.1982-3 0.5841-3 0.6512 0 0.8869-0.48068 0.5238-1.0682-0.3631-0.5875-1.2775-0.8313-2.0319-0.54178-0.7545 0.28952-2.6215-0.51295-4.1489-1.7833-3.5089-2.9183-6.7018-4.6068-8.7113-4.6068-2.4606 0-1.8291 1.7171 0.8817 2.3974 1.346 0.33784 4.5819 3.0866 7.1907 6.1084s5.0962 5.4941 5.5276 5.4941c0.4313 0 0.5142-1.35 0.1842-3zm9.7776-2.6637c1.2445-1.5086 1.1627-1.5519-0.8776-0.46482-2.3269 1.2399-2.8999 2.1285-1.3724 2.1285 0.4826 0 1.4951-0.74867 2.25-1.6637zm49.567 1.0249c-0.3513-0.35133 0.4737-1.9609 1.8333-3.5767 1.3597-1.6159 2.4721-3.6785 2.4721-4.5837 0-1.2035-0.4568-0.98126-1.6997 0.82672-0.9349 1.3599-2.491 3.0473-3.4581 3.7499-1.7912 1.3012-1.4926 4.2226 0.4315 4.2226 0.5828 0 0.7722-0.28745 0.4209-0.63878zm-122.2-5.6112c1.8209-14.036 3.4068-18.359 9.7085-26.46 7.7191-9.9231 9.7525-14.358 9.7609-21.29 0.01-7.9676-0.9285-8.9106-5.3525-5.3806-1.9856 1.5843-3.6102 3.1949-3.6102 3.5791-1e-4 0.38416-1.1251 1.9124-2.5001 3.396s-2.5 3.741-2.5 5.0163c0 1.2953-0.8827 2.7912-2 3.3892-1.1 0.5887-2 1.8795-2 2.8685 0 2.5694-0.983 3.2109-3.1463 2.0532-2.7181-1.4547-3.337 0.98588-1.4159 5.5837 2.2405 5.3622 2.0553 5.395-2.9168 0.51519-4.9604-4.8683-6.5754-4.8406-4.1253 0.0707 2.0017 4.0125 2.0309 5.2864 0.1043 4.5471-2.1964-0.84283-1.9385 3.5818 0.4857 8.3336 2.5925 5.0817 3.6533 5.6208 4.4685 2.2711 0.3672-1.5087 1.7379-4.3797 3.046-6.3799 1.3081-2.0003 3.0394-5.2187 3.8472-7.1521s2.9275-4.5718 4.7105-5.8632c2.0171-1.461 4.4937-4.9922 6.556-9.3479 3.6358-7.679 4.1989-7.6 1.8644 0.26131-1.0324 3.4762-2.9104 6.513-5.8395 9.442-4.1824 4.1824-13.639 20.459-13.639 23.476 0 2.3119-2.2658 1.0134-4.8101-2.7564-5.4885-8.1325-5.0644-1.9932 0.5052 7.3132 3.0634 5.1187 5.4983 7.6425 7.4611 7.7335 0.3609 0.0167 0.9626-2.3321 1.3372-5.2196zm45.8 0.62322c0.3447-0.34474-0.1299-2.0322-1.0547-3.75-1.6083-2.9871-1.6971-3.022-2.0392-0.80049-0.5978 3.8817 1.167 6.4774 3.0939 4.5505zm20.314-3.1232c1.249-1.6454 1.3303-1.6335 1.3602 0.2 0.025 1.5325 0.2926 1.6893 1.2496 0.73219 0.9571-0.95708 0.8164-1.9633-0.6574-4.7-1.6837-3.1265-2.3047-3.4822-6.0783-3.4822-2.8341 0-5.4028-0.81422-7.8869-2.5-4.0566-2.7529-5.5952-3.1143-5.5952-1.3144 0 0.65205-0.9471 2.1937-2.1047 3.426-2.7908 2.9707-1.6948 4.3849 3.4137 4.4049 2.6117 0.0103 5.6984 0.91681 8.191 2.4057 4.9029 2.9286 6.3975 3.0812 8.108 0.82781zm-2.7037-4.8653c-1.1598-1.3975-1.0864-1.5661 0.5447-1.25 1.0369 0.20094 2.0726 0.92784 2.3015 1.6153 0.594 1.7839-1.26 1.5459-2.8462-0.36534zm-15.198-1.8127c1.8581-3.294 2.4216-3.4288 5.8567-1.402 1.8902 1.1152 3.4363 2.0957 3.4359 2.1789-3e-4 0.0832-2.2274 0.1836-4.949 0.22318-3.2469 0.0472-4.7403-0.2966-4.3436-1zm24.293 5.869c0-0.79254 0.45-1.441 1-1.441s1.0137 0.7875 1.0304 1.75c0.028 1.6084 0.109 1.6153 1.0016 0.0859 1.0019-1.7166 0.3462-4.8359-1.0165-4.8359-0.4238 0-1.2107 0.5625-1.7486 1.25-1.3487 1.7238-2.2884 5.8814-1.1736 5.1924 0.4987-0.30818 0.9067-1.2088 0.9067-2.0013zm-26-10.015c0-1.9376-6.608-8.8693-7.3345-7.6938-0.3734 0.60414 0.4265 2.4121 1.7775 4.0176 1.6912 2.0099 2.272 3.624 1.8646 5.1819-0.5481 2.0961-0.434 2.1642 1.5504 0.92493 1.1781-0.73576 2.142-1.8295 2.142-2.4306zm24.122 0.89894c-0.8715-1.4988-1.0667-1.542-1.0917-0.24167-0.032 1.6841 1.0192 3.2004 1.728 2.4917 0.2337-0.23375-0.053-1.2462-0.6363-2.25zm-5.1221-3.825c0-3.4308 1.3406-4.7211 2.3378-2.25 0.3258 0.80755 0.5323 0.84677 0.5833 0.11078 0.043-0.62656-0.7891-2.2016-1.8501-3.5-1.5476-1.894-2.1803-2.1136-3.2-1.1108-1.8487 1.8182-5.8728 1.5329-10.064-0.71344-2.382-1.2766-4.8779-1.8079-7.1355-1.5189-2.3594 0.30208-3.6422 1e-3 -4.0029-0.9388-0.8514-2.2188 0.5132-2.7242 2.5002-0.92606 1.0071 0.91144 1.8311 1.1892 1.8311 0.61719 0-0.95894-4.2375-4.27-5.4648-4.27-0.9135 0-0.5908 3.2042 0.6752 6.7053 0.6973 1.9282 1.7307 3.1476 2.4377 2.8763 0.6965-0.26726 1.3624 0.47832 1.5396 1.7237 0.2728 1.9168 0.9814 2.2166 5.5953 2.3674 3.3845 0.11061 6.4389 0.91308 8.5 2.2332 4.591 2.9405 5.717 2.6636 5.717-1.4058zm-17.577-4.6367c-0.2207-0.35018 0.1562-1.0588 0.8376-1.5747 0.8119-0.61466 2.4456-0.3264 4.739 0.83615l3.5 1.7742-4.3376-0.19945c-2.3857-0.1097-4.5182-0.48596-4.739-0.83614zm27.59 3.1956c0.01-0.85738 0.285-2.5714 0.6166-3.8089 0.4677-1.7451 0.1841-2.25-1.2636-2.25-1.5967 0-1.8667 0.79809-1.8667 5.5184 0 4.6597 0.1945 5.2524 1.25 3.8089 0.6875-0.94021 1.2562-2.411 1.2637-3.2684zm-128.15-0.85214c1.9978-2.0863 4.9099-5.4875 6.4715-7.5583 3.6664-4.8621 10.299-9.6484 13.37-9.6484 1.3513 0 2.1376-0.43904 1.7909-1-1.1577-1.8732-9.8086-1.0751-14 1.2915-3.0887 1.7441-4.0615 2.9364-4.2698 5.2336l-0.2698 2.9749 2.4755-2.9609c1.3616-1.6285 2.7239-2.7126 3.0274-2.4091 1.0606 1.0605-9.2048 13.416-12.719 15.308-3.2471 1.7486-3.8684 1.7863-7.3947 0.44818-4.483-1.7011-6.6273-6.119-5.8423-12.037 0.2663-2.0076 3.8757-10.558 8.0207-19 4.1451-8.4424 9.1424-20.525 11.105-26.85s5.0502-13.975 6.8612-17 5.4366-10.623 8.0569-16.884c5.7336-13.7 9.2546-19.059 20.603-31.357 11.018-11.94 18.294-16.218 26.436-15.543 3.2901 0.27284 6.1636 1.1565 7.4003 2.2756 2.0503 1.8556 3.478 1.8048 2.205-0.0784-1.7503-2.589-5.9608-4.4124-10.168-4.4033-5.8008 0.0125-12.747 3.2871-20.905 9.8556-3.5076 2.8241-6.6576 5.1182-7 5.0982s1.9288-2.4419 5.047-5.3818c7.2298-6.8162 16.554-11.574 22.74-11.604l4.5903-0.0222-2.5-1.9872c-1.375-1.093-5.1696-3.3679-8.4326-5.0554-7.549-3.9041-13.952-8.239-19.218-13.01-2.2828-2.0684-6.1053-4.758-8.4943-5.9768-4.1545-2.1195-4.8271-2.1687-15.435-1.1294-12.408 1.2157-19.867 3.6204-25.654 8.2716-2.1439 1.7229-4.1179 2.9127-4.3866 2.644-1.59-1.59 14.628-11.637 18.871-11.69 0.9625-0.0121 1.75-0.43958 1.75-0.95 0-1.4692-10.56-2.4009-19.458-1.7169-8.0178 0.6163-32.609 6.7706-42.848 10.724-5.8947 2.2756-8.6932 5.0351-8.6932 8.5719 0 2.5606 3.4866 10.143 5.4473 11.846 2.0285 1.7622 8.176 9.939 8.8536 11.776 1.1842 3.2111 3.5125 3.0141 8.0188-0.67846 2.4125-1.9768 4.6705-3.5942 5.0179-3.5942 0.3475 0-1.0667 2.2439-3.1424 4.9865-2.305 3.0454-4.8793 8.3799-6.6132 13.704-4.524 13.892-11.618 26.686-20.132 36.309-7.8714 8.897-13.457 18.394-11.795 20.055 2.7964 2.7964 28.513-24.07 34-35.521 1.8393-3.838 3.3442-7.6434 3.3442-8.4564 0-0.97585 0.3366-1.1416 0.9903-0.48788 1.0612 1.0611 0.6581 2.7933-2.9941 12.868-4.2356 11.684-8.1831 16.756-18.945 24.344-13.583 9.5767-21.146 16.436-19.708 17.875 0.301 0.30095 2.4844-1.0107 4.852-2.9148s7.2298-5.4111 10.805-7.7932 9.425-7.0877 13-10.457 10.131-9.1084 14.569-12.754c4.4382-3.6458 9.3426-8.4659 10.899-10.711 1.556-2.2454 3.0654-3.8462 3.3542-3.5574 0.2888 0.28881-0.9115 2.4345-2.6673 4.7681s-4.926 6.718-7.045 9.743c-5.9547 8.501-22.583 22.891-34.451 29.814-11.009 6.4217-18.659 13.702-18.659 17.755 0 2.5077 2.3925 5.4306 4.4451 5.4306 0.7163 0 5.0716-2.5466 9.6786-5.6592 23.851-16.114 38.092-27.307 58.098-45.664 14.174-13.005 13.791-9.9207-0.5167 4.165-4.837 4.7619-9.6356 10.251-10.664 12.199-1.028 1.9474-5.3955 6.8732-9.7055 10.946-9.3206 8.8078-10.35 10.14-11.387 14.739-1.0211 4.5274 0.1975 7.0833 5.0181 10.525 4.5816 3.2706 5.4702 3.4359 4.0327 0.75-0.5934-1.1088-0.6604-2-0.1502-2 1.1475 0 4.1468 4.4808 4.16 6.2148 0.02 2.6784 4.9444 11.729 8.5568 15.727 6.373 7.0541 6.9155 6.9512 7.0504-1.3378 0.075-4.6195 0.727-8.3688 1.8237-10.49 2.0396-3.9441 3.0863-3.5935 1.4828 0.4967-0.6228 1.5888-1.1979 6.188-1.278 10.221-0.1308 6.5895 0.093 7.5261 2.2153 9.25 1.6896 1.3728 3.9264 1.9181 7.8676 1.9181 5.0696 0 5.7953-0.3012 9.1393-3.7933zm-5.4637-49.207c5.1182-15.164 8.2854-22.644 9.2002-21.729 0.2512 0.25121-0.6434 3.1055-1.9881 6.3429s-3.8856 10.513-5.6463 16.168c-1.7607 5.6552-4.0105 11.28-4.9995 12.5-1.1658 1.4379 0.042-3.2331 3.4337-13.282zm128.6 44.7c0-0.715-0.5309-1.8309-1.1798-2.4798-0.9064-0.9064-0.8697-1.759 0.158-3.6794 1.0327-1.9296 1.8718-2.3656 3.6798-1.9118 2.0077 0.5039 2.342 0.21545 2.342-2.0206 0-2.4207-0.3204-2.6084-4.453-2.6084-4.2841 0-4.4917 0.14029-5.4744 3.6995-0.8806 3.1892-0.7491 3.9532 0.953 5.539 1.0859 1.0117 1.9744 2.497 1.9744 3.3005 0 0.80357 0.45 1.461 1 1.461s1-0.585 1-1.3zm-32.643-8.1883c0.3435-0.89516-0.1671-1.1153-1.682-0.72513-1.9105 0.49206-2.0126 0.36193-0.8391-1.0694 0.7349-0.89629 1.0629-2.0717 0.729-2.612-0.3339-0.54029 0.1898-1.4463 1.1639-2.0134s1.321-1.0378 0.771-1.0462c-1.7013-0.0257-2.9217 1.3001-5.0437 5.4794l-2.0438 4.0251 3.2257-0.37658c1.7742-0.20712 3.4477-0.95499 3.719-1.6619zm23.643-0.12835c0-0.21086-0.9-0.38338-2-0.38338s-2 0.40788-2 0.90639 0.9 0.67103 2 0.38337 2-0.69553 2-0.90638zm-20-4.9314c0-0.7337-0.5195-1.6551-1.1545-2.0475-0.7303-0.45139-0.8824-0.27329-0.4139 0.48479 0.4073 0.65907 0.1882 1.8639-0.4869 2.6774-1.012 1.2194-0.9393 1.3685 0.4139 0.8492 0.9028-0.34643 1.6414-1.2302 1.6414-1.9639zm26.5-1.7517c1.3865-0.32469 1.0798-0.50813-1-0.59801-1.65-0.0713-4.125-0.41518-5.5-0.76416l-2.5-0.6345 2.4049 2.6275c1.9891 2.1731 2.5943 2.3863 3.5 1.2325 0.6023-0.76723 1.9951-1.6057 3.0951-1.8633zm-19.506 0.54964c0-0.9625-0.6638-9.85-1.4672-19.75-1.4816-18.256-1.5584-49.021-0.1282-51.335 0.4303-0.69619 0.7521-4.496 0.7151-8.4441s0.3619-8.772 0.8865-10.72c1.1521-4.2788 2.0872-10.1 2.4899-15.501 0.1641-2.2 1.021-5.9691 1.9043-8.3757 1.9543-5.3249 1.9816-4.7928-0.2761-5.3832-1.5898-0.41575-2.201 0.61425-3.9363 6.6334-4.6733 16.21-7.3431 40.983-7.3957 68.626-0.036 18.676 1.8968 40.632 3.8503 43.75 1.6823 2.6848 3.3662 2.9356 3.3574 0.5zm-51.258-2.8681c1.8373-2.0213 2.2063-3.5118 2.0724-8.3698-0.1055-3.828-0.5318-5.6826-1.2099-5.2635-2.1606 1.3353-9.48 1.0007-10.04-0.459-0.3633-0.94657-1.2655-1.1997-2.678-0.7514-1.1716 0.37185-1.8872 0.283-1.5903-0.19743 0.297-0.48044-0.5464-1.3862-1.8741-2.0127-1.3907-0.6563-2.6512-0.75533-2.9736-0.23361-0.9348 1.5125-2.6961 1.011-2.0808-0.59241 0.3566-0.9294-0.4279-2.155-2.0668-3.2288-1.9399-1.2711-2.7503-1.4044-3.0511-0.50199-0.5829 1.7487-2.243 1.5242-2.243-0.30338 0-2.4292-4.2361-3.6225-5.7895-1.6308-1.6238 2.082-2.7255 0.5975-3.5958-4.845-0.6277-3.9253-2.9617-6.8576-4.053-5.0918-0.339 0.54849-0.079 3.1327 0.5786 5.7427 0.9085 3.6081 0.9151 4.8387 0.027 5.1346-2.1126 0.70421-1.3722 6.9658 1.0221 8.6428 2.6173 1.8332 1.8212 3.1911-0.989 1.6871-2.0805-1.1134-2.6282-2.6356-3.7538-10.433-0.7829-5.4236-2.6223-5.0736-3.0678 0.58368-0.1428 1.8135-0.7239 4.5183-1.2913 6.0107-1.2727 3.3472-0.5484 5.4499 2.175 6.3142 1.143 0.36276 4.0767 2.6299 6.5195 5.0381 3.2984 3.2518 5.2488 4.3898 7.5795 4.4223 1.726 0.0241 5.3882 0.87994 8.1382 1.9019 3.9421 1.465 6.7984 1.7563 13.5 1.3768 7.4249-0.42044 8.7827-0.79239 10.735-2.9406zm-20.431-1.8324c-5.196-2.4073-8.5577-5.3824-4.1114-3.6386 6.485 2.5435 10.898 4.9147 10.084 5.4181-0.5023 0.31044-3.1899-0.49033-5.9724-1.7795zm-0.1681-11.247c-6.1316-3.1892-10.703-5.9471-10.158-6.1286 0.5447-0.18154 2.9099 0.56873 5.2561 1.6673 2.3462 1.0985 4.9408 2.2625 5.7658 2.5866 0.825 0.32412 3.0076 1.5015 4.8501 2.6163 1.9281 1.1666 4.1566 1.771 5.25 1.424 1.0519-0.33384 1.8999-0.12929 1.8999 0.45826 0 0.63558 1.4324 0.87786 3.5711 0.60404 2.5082-0.32113 3.4524-0.0961 3.1723 0.75613-0.2193 0.66734-2.2123 1.3486-4.4289 1.5139-3.2943 0.24568-6.0653-0.75804-15.178-5.498zm63.572 11c-1.2439-0.32308-1.6055-1.0519-1.1827-2.384 0.7287-2.2957-1.0474-2.6076-1.9188-0.33688-1.072 2.7935-0.665 3.4207 2.143 3.3022 1.7689-0.0746 2.1109-0.28201 0.9585-0.58133zm-28.99-15.069c10.57-5.9359 12.953-15.144 7.1769-27.733-2.9439-6.4161-3.5673-3.7676-0.9226 3.9195 2.5391 7.38 2.541 9.8887 0.011 15.114-1.5237 3.1477-3.7223 5.2356-9 8.5473-3.841 2.4101-6.9836 4.7796-6.9836 5.2656 0 0.4859 1.2375 0.0672 2.75-0.93054 1.5125-0.9977 4.6481-2.8799 6.968-4.1826zm-16.188 0.71803c0.4483-0.72523 1.0557-0.71025 1.97 0.0486 0.9609 0.79747 1.5105 0.79211 2.0121-0.0196 0.3796-0.6142 1.3074-0.8799 2.0617-0.59044 1.5839 0.60774 4.4262-2.9963 4.4262-5.6125 0-0.97762-0.45-1.7775-1-1.7775s-1-0.7301-1-1.6224c0-1.3288 0.2715-1.3971 1.5-0.37756 1.2942 1.074 1.5021 0.64486 1.5153-3.1276 0.012-3.2978 0.8402-5.5862 3.3717-9.3109l3.3563-4.9385-2.3716-4.4605c-4.2788-8.0474-2.3302-16.497 5.2337-22.695 4.9538-4.0593 7.3946-8.0442 7.3946-12.073 0-2.6413-0.047-2.6623-2-0.89467-2.0507 1.8559-2.8749 0.77489-0.9085-1.1915 2.0021-2.002 1.7898-13.375-0.3456-18.516-1.6586-3.9928-2.6296-4.9648-6.397-6.4036-3.4093-1.302-5.1911-1.4662-7.6666-0.70645-3.3355 1.0237-13.692 8.5353-19.097 13.852-4.9927 4.9104-14.585 17.819-14.585 19.628 0 0.91725-1.7242 4.9685-3.8316 9.0028-3.4589 6.6215-3.8127 7.9978-3.6368 14.148 0.1071 3.7473 0.7064 7.3248 1.3316 7.95 0.6253 0.62525 1.1368 1.5739 1.1368 2.1081s0.7875 1.854 1.75 2.9329c1.6965 1.9016 1.6735 1.938-0.75 1.1888-1.375-0.42508-4.0091-1.5781-5.8536-2.5624-4.1397-2.209-7.6464-1.258-7.6464 2.0736 0 1.7821 0.8667 2.5422 4 3.5078 2.2 0.67803 6.475 2.4108 9.5 3.8506 7.215 3.4341 9.7903 3.3152 15.661-0.72331 6.3157-4.3444 9.3388-5.3544 9.3388-3.1198 0 0.91975 1.332 2.157 3 2.7866 4.1184 1.5545 3.7604 2.6939-0.8463 2.6939-5.4087 0-10.154 2.5545-10.154 5.4662 0 2.6434 2.2068 3.927 3.8782 2.2556 0.8291-0.82915 1.1218-0.82621 1.1218 0.0113 0 1.8537 5.9951 1.2221 6.0304-0.6353 0.026-1.3692 0.1763-1.3474 1.0497 0.15218 1.4173 2.4334 2.9046 2.1854 2.9989-0.5 0.053-1.5034 0.2684-1.7523 0.6499-0.75 0.3141 0.825 1.0112 1.7872 1.5492 2.1382 3.1952 2.0847-4.2557 4.1036-10.208 2.7661-1.9636-0.44119-5.1451-0.99068-7.0699-1.2211-3.4601-0.41417-9.0316-2.5297-9.9998-3.797-0.991-1.2971-8.2477-4.9719-8.7756-4.4439-0.2972 0.29718-1.1443 0.0391-1.8824-0.57344-1.0537-0.87449-1.342-0.63989-1.342 1.092 0 1.3117 0.5031 2.0381 1.2411 1.7921 0.6826-0.22753 1.8656 0.21085 2.6289 0.97417 0.7634 0.76333 2.0049 1.1511 2.759 0.86175 0.754-0.28937 1.371-0.0988 1.371 0.42343 0 0.52226 1.2375 1.2559 2.75 1.6302s3.3592 1.5382 4.1038 2.5862c0.7445 1.048 1.982 1.6644 2.75 1.3698 0.7679-0.29469 1.3962-0.0474 1.3962 0.5494 0 0.6124 1.0674 0.88115 2.4499 0.61687 1.5968-0.30526 2.6529 0.0606 3.0328 1.0506 0.4443 1.1577 0.8605 1.2414 1.7501 0.35175 1.6029-1.6029 2.7672-1.4629 2.7672 0.33274 0 1.723 1.5709 2.0033 2.53 0.45144zm6.9712-18.95c-0.7077-1.145 4.3403-5.9227 6.3078-5.9702 1.4968-0.0361 0.8404 1.4165-2.1321 4.7184-2.2207 2.4668-3.2366 2.7714-4.1757 1.2518zm-24.84-3.4834c-0.9137-0.91369-1.6613-2.164-1.6613-2.7784s0.9175-0.13228 2.039 1.0714c2.2488 2.4139 3.9095 3.0364 2.0171 0.75611-0.6539-0.78784-1.2715-2.9924-1.3725-4.899s-0.5211-3.2604-0.9336-3.0085c-1.3494 0.82402-0.7433-1.1139 1.0223-3.2684 2.1761-2.6554 17.529-7.4515 22.82-7.1286 3.7537 0.22904 3.9262 0.40062 5.1631 5.136 0.7039 2.6945 1.0793 5.0995 0.8343 5.3445s-1.5848-1.3592-2.9772-3.565c-3.1631-5.0107-4.2429-5.7005-4.9129-3.1386-0.2901 1.1096-0.9038 1.9512-1.3637 1.8703-2.0767-0.36542-3.0937 0.26229-4.1379 2.554-1.5417 3.3838 0 3.9575 3.4098 1.2721 1.5637-1.23 3.0616-2.0906 3.3285-1.9124 0.267 0.1782 0.8283-0.4968 1.2473-1.5 0.5192-1.2433 0.6908-0.71678 0.539 1.6536-0.2004 3.1289-0.6642 3.6401-4.6248 5.0976-2.421 0.89098-4.896 2.251-5.5 3.0224-1.1982 1.5304-6.5883 3.8538-10.687 4.6066-1.6088 0.29549-3.2176-0.1534-4.25-1.1858zm8.3387-1.5184c1.213-0.78387 1.0695-0.9723-0.75-0.98469-1.2375-8e-3 -2.25 0.43469-2.25 0.98469 0 1.2529 1.0613 1.2529 3 0zm22.768-3.1684c0.5811-0.5811 1.6468-0.85979 2.3682-0.61931 0.749 0.24965 0.2957 0.70294-1.0565 1.0566-1.6634 0.43497-2.0538 0.30483-1.3117-0.43724zm-24.392-16.541c0.3903-0.39038 3.0528-1.8529 5.9166-3.25 3.74-1.8246 5.8362-3.6671 7.4405-6.5402 2.0617-3.6924 2.2348-3.7989 2.25-1.3849 0.023 3.5728-3.5025 7.762-8.405 9.9885-4.0115 1.822-8.5922 2.5766-7.2021 1.1866zm258.62 37.365c0-0.18976-1.0125-1.2023-2.25-2.25l-2.25-1.905 1.9049 2.25c1.7903 2.1144 2.5951 2.7052 2.5951 1.905zm-259.5-2.655c0.3399-0.55 0.1415-1-0.441-1-0.5824 0-1.059 0.45-1.059 1s0.1985 1 0.441 1 0.7191-0.45 1.059-1zm255.5-2.3038c0-0.16711-1.6875-1.8546-3.75-3.75l-3.75-3.4462 3.4461 3.75c3.2076 3.4904 4.0539 4.2098 4.0539 3.4462zm-11.057-12.764c-2.3337-2.7874-7.0749-7.5696-10.536-10.627-8.3443-7.3714-35.804-27.494-48.374-35.449-5.5234-3.4955-18.253-11.66-28.288-18.144-10.035-6.4836-23.832-14.71-30.66-18.28-16.273-8.5089-27.396-15.159-32.14-19.215-3.8157-3.2621-3.8471-3.2693-4.9894-1.1349-0.9508 1.7766-1.7593 2.049-4.6768 1.5755-4.1508-0.67359-7.2792-3.1971-7.2792-5.8719 0-1.0472-0.433-1.6364-0.9623-1.3093-1.7158 1.0604 1.0057 5.1807 4.8153 7.2904 2.0059 1.1108 5.672 2.3435 8.147 2.7393 2.475 0.39583 4.95 1.0657 5.5 1.4886 0.55 0.42294 8.875 4.8142 18.5 9.7583 19.115 9.8189 39.914 21.964 52.637 30.737 4.4755 3.0859 12.286 8.0622 17.356 11.058 5.0705 2.9962 11.984 7.6082 15.363 10.249s11.323 8.2156 17.654 12.389c7.9187 5.2202 14.627 10.74 21.5 17.691 5.4947 5.557 10.145 10.108 10.334 10.113 0.1887 5e-3 -1.5663-2.2713-3.9-5.0586zm-212.56-20.756c0.3718-2.4329 0.2742-4.0847-0.2232-3.7773-0.4862 0.30046-1.1506 2.4914-1.4764 4.8688-0.3259 2.3774-0.8674 5.2022-1.2033 6.2773-0.3751 1.2004-0.06 0.99003 0.8156-0.54521 0.7846-1.375 1.7239-4.4456 2.0873-6.8236zm50.044-85.063c0.6487-1.0496-1.8464-3.3636-2.7031-2.5069-0.7722 0.77218 0.2483 3.3936 1.3211 3.3936 0.4587 0 1.0806-0.39901 1.382-0.88669zm6.3217-3.3633c-0.5063-1.5248-5.442-3.393-6.4092-2.4258-0.9412 0.94126 2.7062 3.6044 4.9909 3.644 1.0301 0.0179 1.6515-0.51581 1.4183-1.2182zm-146.21 360c0.3748-1.2375 1.4815-3.6 2.4594-5.25s2.9786-6.375 4.446-10.5c4.6612-13.103 9.1399-21.306 14.631-26.797 6.0578-6.0578 8.3878-6.8719 4.1584-1.4528-6.7181 8.6076-11.197 17.774-13.774 28.188-3.008 12.157-3.8796 14.062-6.4351 14.062-1.0436 0-2.1831 0.9-2.5322 2s-1.3098 2-2.1348 2c-1.0908 0-1.3141-0.61382-0.8186-2.25zm70.757-1.2343c0.311-1.9164 2.4084-8.5133 4.6609-14.66 2.2525-6.1465 3.9474-11.62 3.7665-12.162-0.406-1.2181-7.9556 11.37-11.802 19.678-4.0184 8.6798-3.609 4.131 0.6072-6.7474 7.3622-18.995 12.132-26.963 15.818-26.423 1.8278 0.26775 2.0164 0.92776 1.7993 6.2991-0.3373 8.3474-2.4906 15.15-6.6225 20.921-1.9377 2.7063-4.2592 7.5438-5.1588 10.75-1.784 6.3582-3.9936 8.047-3.0683 2.3451zm-105.2-0.36645c-0.1196-2.7018 4.4993-19.013 8.7588-30.931 1.6989-4.7534 2.4844-8.2694 1.8914-8.467-2.068-0.68934 3.934-5.5736 9.5316-7.7565 6.0913-2.3754 8.9612-1.8835 4.7141 0.80805-1.375 0.87139-4.7662 3.8632-7.536 6.6485-4.2686 4.2924-5.3143 6.1298-6.8621 12.056-1.0043 3.8457-3.1019 9.9172-4.6613 13.492s-3.4871 8.75-4.2838 11.5c-0.8978 3.0989-1.4881 4.1062-1.5527 2.6492zm52.434 0.91291c-1.684-2.7248 7.1115-18.959 15.378-28.383 2.8079-3.2013 5.8481-7.2513 6.7558-9 0.9826-1.893 1.8298-2.648 2.0937-1.866 0.4213 1.2482-4.8176 9.69-11.752 18.937-3.9392 5.253-2.8936 5.5947 1.53 0.5 5.5089-6.3445 5.0224-2.7593-0.6688 4.9283-7.7079 10.412-12.675 15.955-13.337 14.884zm28.037-5.0621c0.3386-1.375 3.6865-9.025 7.4399-17s7.1352-15.574 7.5151-16.886c0.3799-1.3125 2.2634-4.4466 4.1856-6.9648s3.0279-4.7342 2.4571-4.9244c-1.4222-0.47409-5.9974 1.9949-11.549 6.2324-2.553 1.9488-4.8892 3.5432-5.1916 3.5432-1.1191 0 8.7034-11.967 12.164-14.819 3.9179-3.2295 14.282-6.7031 15.717-5.2679 1.4226 1.4226-0.017 4.448-7.5434 15.85-3.8979 5.9053-8.5314 13.437-10.296 16.737-3.0476 5.6975-12.26 21.288-14.478 24.5-0.792 1.1474-0.8907 0.91228-0.4199-1zm48.032-9c0.3666-3.575 1.965-10.751 3.552-15.946 2.9377-9.6169 3.6249-15.892 2.4194-22.093-0.6294-3.2368-0.5735-3.3366 0.8614-1.5377 2.4369 3.0552 2.9166 8.143 1.7411 18.467-0.6017 5.2851-1.1088 12.678-1.1269 16.429-0.018 3.7507-0.4739 7.5757-1.0131 8.5-0.712 1.2203-0.9888-0.15182-1.0109-5.0104-0.017-3.68-0.4303-6.9381-0.919-7.2402-0.4887-0.30206-1.4243 2.2899-2.0791 5.7599-1.7013 9.0169-3.2505 10.724-2.4249 2.6713zm-23.393-106.65c-0.6167-2.0094-0.7241-3.2469-0.2386-2.75 0.9786 1.0016 2.4975 6.4035 1.8005 6.4035-0.2423 0-0.9452-1.6441-1.5619-3.6535zm-98.693-46.579c-1.0504-1.7781-3.5452-5.0406-5.544-7.25s-6.3847-8.067-9.7465-13.017c-7.3505-10.823-11.886-15.411-15.533-15.713-3.5325-0.29235-2.9121-2.0075 1.1472-3.1717 3.2464-0.93105 5.561-0.10266 3.4164 1.2228-0.7756 0.47935 0.5268 2.1998 3.799 5.0184 2.7385 2.3589 6.0831 6.4676 7.4325 9.1305s4.8543 7.4676 7.7887 10.677c6.167 6.7454 9.1673 10.907 10.154 14.086 1.0317 3.3228-0.7203 2.7319-2.9147-0.98299z"/>
 </g>
</svg>
