<?xml version="1.0" encoding="UTF-8" standalone="no"?>
<!-- Created with Inkscape (http://www.inkscape.org/) -->

<svg
   width="48"
   height="48"
   viewBox="0 0 48 48"
   version="1.1"
   id="svg1"
   inkscape:version="1.4 (e7c3feb100, 2024-10-09)"
   sodipodi:docname="eu-flag.svg"
   xmlns:inkscape="http://www.inkscape.org/namespaces/inkscape"
   xmlns:sodipodi="http://sodipodi.sourceforge.net/DTD/sodipodi-0.dtd"
   xmlns="http://www.w3.org/2000/svg"
   xmlns:svg="http://www.w3.org/2000/svg">
  <sodipodi:namedview
     id="namedview1"
     pagecolor="#ffffff"
     bordercolor="#000000"
     borderopacity="0.25"
     inkscape:showpageshadow="2"
     inkscape:pageopacity="0.0"
     inkscape:pagecheckerboard="0"
     inkscape:deskcolor="#d1d1d1"
     inkscape:document-units="px"
     inkscape:zoom="14.395833"
     inkscape:cx="19.345876"
     inkscape:cy="24"
     inkscape:window-width="1920"
     inkscape:window-height="1008"
     inkscape:window-x="0"
     inkscape:window-y="0"
     inkscape:window-maximized="1"
     inkscape:current-layer="layer1" />
  <defs
     id="defs1" />
  <g
     inkscape:label="Calque 1"
     inkscape:groupmode="layer"
     id="layer1">
    <g
       id="EU/EU-emblem/flag/flag-positive"
       style="fill:none;fill-rule:evenodd;stroke:none;stroke-width:1"
       transform="translate(-12)">
      <g
         id="EU_flag">
        <rect
           id="🌈-flag"
           fill="#003399"
           fill-rule="nonzero"
           x="0"
           y="0"
           width="72"
           height="48" />
        <path
           d="M 35.06,8.91 33.54,7.8 h 1.88 L 36,6 36.58,7.8 h 1.88 L 36.94,8.91 37.52,10.72 36,9.6 34.48,10.72 Z M 36.94,40.2 37.52,42 36,40.89 34.48,42 35.06,40.2 33.54,39.09 h 1.88 l 0.58,-1.81 0.58,1.81 h 1.88 z m -16.48,-15 -1.52,1.12 0.58,-1.8 L 18,23.44 h 1.88 l 0.58,-1.8 0.58,1.8 h 1.89 l -1.53,1.12 0.58,1.8 -1.52,-1.12 z m 8.71,-14.2 0.58,1.8 -1.52,-1.1 -1.52,1.11 0.58,-1.8 -1.52,-1.11 h 1.88 l 0.58,-1.8 0.58,1.8 h 1.88 z m -7.17,4.62 0.58,-1.8 0.59,1.8 H 25 l -1.52,1.12 0.58,1.8 -1.53,-1.12 -1.53,1.12 0.58,-1.8 -1.52,-1.12 z M 20.08,31.26 H 22 l 0.58,-1.8 0.59,1.8 H 25 l -1.52,1.12 0.58,1.8 -1.53,-1.11 -1.53,1.11 0.58,-1.8 -1.52,-1.12 z M 27.29,38.1 25.77,37 h 1.88 l 0.58,-1.8 0.58,1.8 h 1.88 l -1.52,1.1 0.58,1.8 -1.52,-1.11 -1.52,1.11 z m 25.19,-13.54 0.58,1.8 -1.52,-1.12 -1.54,1.12 0.58,-1.8 -1.53,-1.12 H 51 l 0.58,-1.8 0.58,1.8 H 54 Z M 42.83,11 41.31,9.9 h 1.88 l 0.58,-1.8 0.58,1.8 h 1.88 l -1.52,1.1 0.58,1.8 -1.52,-1.1 -1.52,1.11 0.58,-1.8 z m 6,4.61 0.59,-1.8 0.58,1.8 h 1.88 l -1.48,1.13 0.58,1.8 -1.52,-1.12 -1.53,1.12 0.58,-1.8 L 47,15.62 Z M 50,31.26 h 1.88 l -1.48,1.12 0.58,1.8 -1.52,-1.11 -1.53,1.11 0.58,-1.8 L 47,31.26 h 1.88 l 0.59,-1.8 0.58,1.8 z m -3.77,5.74 -1.52,1.1 0.58,1.8 -1.52,-1.11 -1.52,1.11 0.58,-1.8 -1.52,-1.1 h 1.88 l 0.58,-1.8 0.58,1.8 z"
           id="🌈-stars"
           fill="#ffcc00"
           fill-rule="nonzero" />
      </g>
    </g>
  </g>
</svg>
