<svg xmlns="http://www.w3.org/2000/svg" viewBox="0 0 455.2 158.07"><defs><style>.cls-1{fill:#fe5815;fill-rule:evenodd;}.cls-2{fill:#09357a;}</style></defs><title>2Fichier 1</title><g id="Calque_2" data-name="Calque 2"><g id="Calque_1-2" data-name="Calque 1"><path class="cls-1" d="M63,96.83c-1.13,1.21-4.25,1.66-5.12,3-1.34,2.09-4.41,6.86-6.81,9.13-7.73,7.34-24.27,11-32.44,4-.53,0-.22.35.42,2.35.59,3.8,3.65,12.71,2.53,15,.73,2.53,1.5,1.6,2.88,3,.95,1,1.34,3.43,2.43,4.1l3.73-.26c.22.69.45,1.39.68,2.1l4.79-.35c.9.2,3.61,1.61,4.41,1.82l5.32-.37c4.06,1.08,7.6-.61,11-2.93,1.91-1.28,4-1.08,5.7-2.53a39.5,39.5,0,0,0,7.37-9.07c3.85-7,2.55-23.72-.94-27.86C67.6,96.52,66,96.49,63,96.83Zm32.16-4.58c-2.89,2.2-4.1,1.66-5.79,5.06-.17,0,.26.52.08.52,1.73,3.42,5.66,4.81,8.56,7.22.9.76,3.34,5,4.5,5.3,1.3,1.55,2.16,5.86,3,5.86.89,1.21-.07,4.05.8,5.16.06,5.1-.65,5.46-1.54,6.44,0,.35.49,1.28.49,1.62.24.25,2.29,1.71,3.18,1.53,2.77.09,14.15,9,15,10.68,8.17.61,7.57-1.88,13.2-4.27,1.53-.65,2.73,0,3.73-1.07s1.14-3.18,2.14-4.27C142.69,112,115.37,93,95.15,92.25Zm22.16-42.42c-10.11,1.53-16.3,4.75-20.12,7.4a14.05,14.05,0,0,0-4,3.89,6.41,6.41,0,0,0-.69,4.34,7,7,0,0,0,2.61,4.82c12.42-.92,34-1.71,38.18,8.73.22,1.45.55,2.32.58,2.67,4.11-1,1.1-.65,7.16.3,1.39.22,4.81-.55,7.07-1.11a2.92,2.92,0,0,0,1.62-1.18,6.76,6.76,0,0,1-.14-1.53s2.13.16,3-.51c5.74-.94,2.72-3.63,5.43-6.67C156.37,51.47,136.36,46.94,117.31,49.83Zm-77,35.56c2.22-.57,6-.87,8-1.86,3.16-1.58,14-9.18,10.58-15.37-1.07-13-16.8-2-23.5-6.59C28.61,60.7,21,47.88,19,42.38a9.1,9.1,0,0,0-1.55-3.15c0-.17-.69.61-.69.42-2,2.31-1.64,4.33-2,10l-2.66-.17c-.17,2-.38,3.16-1.33,4.2-.2.35-.4.68-.59,1-1.69-.57-.85.24-1.53-1.17C2.41,53.8,2.87,60.07,0,63.64.13,75.35,23.31,89.8,40.32,85.39ZM85.47,21.72c.53-4.43-.13-10.89,3.37-13.94,1-4.72,8.45-3.62,7.29-6.62-.71-1.88-4.21-1-5.62-.64C89.44.77,79.25,4,75.33,4.44l-5-1.39C64,3.91,60.27,9,56.71,13c-3,3.39-7,11.68-3.8,16.65L52.37,33l7.26,10.62c2.51,1.79,2.84,3.13,5.54,4.9L66.84,51c2.21,1.45,8.72,1.47,9.81.52,10.47,1,9.34-20.23,12.66-24.68A8.86,8.86,0,0,0,85.47,21.72Z"/><path class="cls-2" d="M270.19,60.17H256L246,77,235.91,60.17H220.07L236,84.72l-17.74,27.07H233l11.63-19.25,11.53,19.25h16L254.75,84.72Zm-87.49,30h35.68c0-18-5.41-31.18-24.56-31.18-16,0-23.95,12.33-23.95,27.27,0,16.94,9.92,26.76,27,26.76,7.22,0,12.83-1.4,17.74-4.11V98c-5,2.8-10.62,5.21-17.14,5.21C189.11,103.17,183.3,98.46,182.7,90.14Zm11.93-21.35c7.51,0,10.52,5.61,10.92,12.12H182.7C183.3,74,187.11,68.79,194.63,68.79Zm243-9.83c-7,0-12.73,2.31-17,8.22h-.19v-7H407.79v51.62h13.43V86.53c0-6.62,2.1-17.14,11.82-17.14,8.63,0,8.73,8.52,8.73,14.83v27.57H455.2V79.21C455.2,67.58,449.89,59,437.66,59ZM326.94,50.74h13.43V37.91H326.94ZM374.08,59c-15.24,0-27,10.33-27,27.37,0,14.83,9.92,26.66,27,26.66s27.07-11.83,27.07-26.66C401.15,69.29,389.42,59,374.08,59Zm0,43.61c-10.22,0-12.93-9.32-12.93-17.85,0-7.71,4.21-15.33,12.93-15.33s13,7.42,13,15.33C387.11,93.34,384.4,102.57,374.08,102.57Zm-47.14,9.22h13.43V60.17H326.94Zm-9.38-24.46V80.71C317.56,65.48,311,59,295.31,59a46.31,46.31,0,0,0-17.95,3.91l.4,11.53a27,27,0,0,1,15.94-5.61c7.92,0,11.63,2.8,11.63,11.12h-7.42c-5.61,0-12.23.5-17.34,3s-8.82,7-8.82,14.74c0,9.82,8.92,15.33,18,15.33,6.12,0,12.83-3.2,15.94-8.92h.2a63.18,63.18,0,0,0,.6,7.72h11.83c-.3-4-.5-7.62-.6-11.53S317.56,92.54,317.56,87.33Zm-15,11.23a11.41,11.41,0,0,1-9.42,4.61c-4.81,0-8.52-1.91-8.52-6.32,0-7.92,8.92-8.92,14.94-8.92h5.81C305.33,91.94,304.73,95.65,302.52,98.56Z"/><path class="cls-2" d="M315.11,132.54c-5.88,0-9.34,4.35-9.34,12.94,0,7.7,3.53,12.44,9.05,12.44,5.89,0,9.35-4.35,9.35-12.94C324.17,137.28,320.64,132.54,315.11,132.54Zm-.29,22.82c-4.2,0-5.77-4.85-5.77-9.88,0-7.66,2.78-10.37,6.06-10.37,4.21,0,5.77,4.84,5.77,9.87C320.88,152.65,318.1,155.36,314.82,155.36Zm-17.24-10.09v-.07a5.69,5.69,0,0,0,4.92-6,6.34,6.34,0,0,0-1.86-4.74c-1.14-1.07-2.6-1.71-5.24-1.71H289v24.88h3.14V146.41h1.42c2.36,0,3.25.78,4,2.85l2.85,8.41h3.39l-3.49-10A3.2,3.2,0,0,0,297.58,145.27Zm-3-1.43h-2.42v-8.48h2.49c2.75,0,4.57,1.32,4.57,4.1C299.22,141.63,297.93,143.84,294.58,143.84Zm155.89-6.33c1.2,0,4.73.09,4.73.09v-4.81H439.42s0,2,0,3.81v17.26c0,1.82,0,3.81,0,3.81h6.67s-.08-2-.08-3.81v-6.79l4.46,0c1.16,0,3.72.07,3.72.07v-4.58l-3.72,0-4.46,0v-5Zm-51.05-5.25c-3.41,0-11.35,1.28-11.35,13.15,0,7.93,4,12.66,11,12.66,5.49,0,8.86-1.4,11.3-3.18-.27-.41-2.32-4.09-2.58-4.49a11.62,11.62,0,0,1-7,2.24,5.25,5.25,0,0,1-5.56-5.41V147s5.83-.14,7.81-.14c3.36,0,4.75,0,7.4-.07v-1.87C410.43,136.38,406.83,132.26,399.42,132.26Zm4,10.29s-2.49.06-4,.06-4.22-.06-4.22-.06l0-.36c.1-1.44.61-4.78,4.25-4.78s3.93,3.14,3.93,4.8Zm-126.32,4.14h4.17v7.85a7.4,7.4,0,0,1-3.1.67c-5.42,0-8-4.24-8-10.65,0-6.07,3.7-9.31,7.77-9.31a13.4,13.4,0,0,1,5.81,1.53v-3.13a13.49,13.49,0,0,0-5.85-1.11c-6.49,0-11,4.88-11,12.66,0,6.73,3.32,12.72,11.2,12.72a19.73,19.73,0,0,0,6.17-1.28V144h-7.17Zm63.3,2.28c0,3.89-1.71,6.39-4.67,6.39S331,152.86,331,149V132.79H327.9v15.72a11.16,11.16,0,0,0,1,5.56,7.95,7.95,0,0,0,13.62,0,11,11,0,0,0,1-5.56V132.79h-3.14Zm27.48-2.85h8.06v-2.71h-8.06V135.5h8.46v-2.71H364.73v24.88h12V155h-8.92Zm-13.58-13.33h-6v24.88h3.14V147.26h2.1c5.28,0,8.1-2.56,8.1-7.41a7,7,0,0,0-2-5.14A7.23,7.23,0,0,0,354.28,132.79Zm-1.14,11.91h-1.71v-9.34h1.78c3.21,0,5.13,1.35,5.13,4.77C358.34,142.91,357,144.7,353.14,144.7Zm71.51-11.91H414.09c0,.83,0,2,0,3.81v17.26c0,1.82,0,3.27,0,3.82h9c6.72,0,13.13-2.91,13.13-12.72C436.22,137.15,431.55,132.79,424.65,132.79Zm-2,20.16h-2V137.33h2c3.82,0,6.91,1.9,6.91,7.63C429.54,151.69,426.45,153,422.63,153Z"/></g></g><script xmlns=""/></svg>