<?xml version="1.0" encoding="UTF-8" standalone="no"?>
<svg
   data-name="Layer 1"
   width="800.12205"
   height="541.4453"
   viewBox="0 0 800.12205 541.4453"
   version="1.1"
   id="svg48"
   sodipodi:docname="favorite_illustration.svg"
   inkscape:version="1.2.2 (b0a8486541, 2022-12-01)"
   xmlns:inkscape="http://www.inkscape.org/namespaces/inkscape"
   xmlns:sodipodi="http://sodipodi.sourceforge.net/DTD/sodipodi-0.dtd"
   xmlns="http://www.w3.org/2000/svg"
   xmlns:svg="http://www.w3.org/2000/svg">
  <defs
     id="defs52" />
  <sodipodi:namedview
     id="namedview50"
     pagecolor="#ffffff"
     bordercolor="#000000"
     borderopacity="0.25"
     inkscape:showpageshadow="2"
     inkscape:pageopacity="0.0"
     inkscape:pagecheckerboard="0"
     inkscape:deskcolor="#d1d1d1"
     showgrid="false"
     inkscape:zoom="0.77300705"
     inkscape:cx="391.3289"
     inkscape:cy="344.1107"
     inkscape:window-width="1920"
     inkscape:window-height="1007"
     inkscape:window-x="0"
     inkscape:window-y="0"
     inkscape:window-maximized="1"
     inkscape:current-layer="svg48" />
  <path
     d="M725.63085,370.72265h-3c-.03955-.67-.08985-1.33-.1499-2a224.18,224.18,0,0,0-6.56006-38.74,238.8167,238.8167,0,0,0-38.31006-80.46,228.5998,228.5998,0,0,0-65.5-60.46,1.42,1.42,0,0,1-.69971-1.03,1.49571,1.49571,0,0,1,2.21-1.56,2.25584,2.25584,0,0,1,.19971.13,226.457,226.457,0,0,1,40.12012,31.12,240.89806,240.89806,0,0,1,51.71,74.13,233.59238,233.59238,0,0,1,19.82031,76.87C725.53124,369.39263,725.581,370.06268,725.63085,370.72265Z"
     transform="translate(-199.93898 -179.27735)"
     fill="#fff"
     id="path4" />
  <path
     d="M942.85106,219.28265a.18442.18442,0,0,1-.06982.02c-2.18994.4-4.39014.82-6.57031,1.27a296.83934,296.83934,0,0,0-52.33008,15.89,308.80792,308.80792,0,0,0-48.5,25,313.78428,313.78428,0,0,0-43.44971,33.08,307.5251,307.5251,0,0,0-36.99023,40.12,297.483,297.483,0,0,0-22.60987,34.06c-.37988.66-.75,1.33-1.12011,2h-3.42969c.35986-.67.73-1.34,1.10986-2a299.923,299.923,0,0,1,27.98-41.33,310.83961,310.83961,0,0,1,38.31006-39.75,317.8396,317.8396,0,0,1,44.37988-32.28,311.85339,311.85339,0,0,1,49.52-24.16,297.10379,297.10379,0,0,1,51.4502-14.52c.48974-.09.96973-.18,1.46-.27C943.86083,216.07263,944.66112,218.89263,942.85106,219.28265Z"
     transform="translate(-199.93898 -179.27735)"
     fill="#fff"
     id="path6" />
  <path
     d="M397.61864,376.66758c5.33472-10.07067,6.21531-23.18724-.41809-32.45416-3.94861-5.51625-10.114-9.13731-16.5831-11.17974s-13.29352-2.64274-20.05919-3.13909c-6.69738-.49134-13.51391-.88463-20.05622.63013s-12.87936,5.21528-16.06641,11.12621c-5.384,9.98545-.47945,22.78941-4.43391,33.42231-3.629,9.75779-13.95725,15.46248-24.11029,17.76466s-20.7502,2.05718-30.90827,4.337-20.50358,7.93161-24.19689,17.66525c-2.67075,7.03869-1.3438,15.14634,2.17543,21.8015s9.03083,12.04315,14.88123,16.78118c8.72778,7.06833,18.9387,13.122,30.153,13.73469,11.81633.64564,23.37009-4.97924,31.87484-13.20795s14.29474-18.86236,18.92069-29.75469c2.93464-6.91,5.70733-14.34655,11.58833-19.01277,4.32141-3.42878,9.81777-4.93092,15.14811-6.35168l6.03579-1.60878a41.44067,41.44067,0,0,0,25.89412-20.25286Q397.53861,376.81864,397.61864,376.66758Z"
     transform="translate(-199.93898 -179.27735)"
     fill="#2f2e41"
     id="path8" />
  <polygon
     points="150.079 528.665 137.82 528.665 131.987 481.377 150.082 481.377 150.079 528.665"
     fill="#ffb8b8"
     id="polygon10" />
  <path
     d="M129.06244,525.16164h23.64387a0,0,0,0,1,0,0v14.88687a0,0,0,0,1,0,0H114.17558a0,0,0,0,1,0,0v0A14.88686,14.88686,0,0,1,129.06244,525.16164Z"
     fill="#2f2e41"
     id="path12" />
  <polygon
     points="252.079 528.665 239.82 528.665 233.987 481.377 252.082 481.377 252.079 528.665"
     fill="#ffb8b8"
     id="polygon14" />
  <path
     d="M231.06244,525.16164h23.64387a0,0,0,0,1,0,0v14.88687a0,0,0,0,1,0,0H216.17558a0,0,0,0,1,0,0v0A14.88686,14.88686,0,0,1,231.06244,525.16164Z"
     fill="#2f2e41"
     id="path16" />
  <path
     d="M373.58482,670.35742a4.83433,4.83433,0,0,1-.512-.02749l-49.87738-5.34411a4.69083,4.69083,0,0,1-4.06331-5.75129l44.16249-167.97008A4.71833,4.71833,0,0,1,366.84,487.772l40.968-11.42012a4.722,4.722,0,0,1,4.54861,1.4821c26.34037,29.71022,46.19019,95.57108,61.227,178.585a4.69166,4.69166,0,0,1-4.02183,5.48968l-40.86771,5.21789a4.67848,4.67848,0,0,1-5.17081-3.62687l-19.88367-88.64816a3.64829,3.64829,0,0,0-7.13744.08245l-18.33031,91.651A4.66624,4.66624,0,0,1,373.58482,670.35742Z"
     transform="translate(-199.93898 -179.27735)"
     fill="#2f2e41"
     id="path18" />
  <circle
     cx="166.05906"
     cy="195.89412"
     r="24.56103"
     fill="#ffb8b8"
     id="circle20" />
  <path
     d="M365.31214,491.73677a4.68072,4.68072,0,0,1-4.52138-3.48538L346.015,432.74183a16.77836,16.77836,0,0,1,10.11005-19.96459c11.894-4.64277,23.22577-6.3651,33.68038-5.12119h0c9.29189,1.1075,20.75451,56.11828,19.99615,57.29195l3.66683,10.99972a4.69093,4.69093,0,0,1-3.44212,6.0648l-43.695,9.61228A4.732,4.732,0,0,1,365.31214,491.73677Z"
     transform="translate(-199.93898 -179.27735)"
     fill="#ccc"
     id="path22" />
  <path
     d="M378.55437,548.5036a7.61039,7.61039,0,0,0-7.36811-9.04937l-8.51288-25.67-8.70071,11.03671,9.41789,22.68464a7.65163,7.65163,0,0,0,15.16381.998Z"
     transform="translate(-199.93898 -179.27735)"
     fill="#ffb8b8"
     id="path24" />
  <path
     d="M488.00168,486.81137a7.61039,7.61039,0,0,0-11.385-2.56171L454.061,469.32786l-.02058,14.05386,21.42241,12.01539a7.65163,7.65163,0,0,0,12.53883-8.58574Z"
     transform="translate(-199.93898 -179.27735)"
     fill="#ffb8b8"
     id="path26" />
  <path
     d="M360.7065,536.64362a4.6899,4.6899,0,0,1-4.45394-3.21767l-19.95679-42.21646a24.39872,24.39872,0,0,1-1.23475-7.66906l6-54.87133a12.059,12.059,0,0,1,24.02994-1.45563l-9.17975,62.631,14.64881,38.44a4.68142,4.68142,0,0,1-2.47839,5.225l-5.278,2.63948A4.68456,4.68456,0,0,1,360.7065,536.64362Z"
     transform="translate(-199.93898 -179.27735)"
     fill="#ccc"
     id="path28" />
  <path
     d="M467.29051,492.35386a4.681,4.681,0,0,1-2.115-.50387l-39.68768-20.04705a24.36835,24.36835,0,0,1-6.289-4.56031l-38.73694-38.86239a12.05881,12.05881,0,0,1,15.99239-17.99389l41.96249,46.60271,33.263,21.11994a4.67994,4.67994,0,0,1,1.933,5.45l-1.875,5.59554a4.692,4.692,0,0,1-4.44732,3.19934Z"
     transform="translate(-199.93898 -179.27735)"
     fill="#ccc"
     id="path30" />
  <path
     d="M338.061,362.473a28.60013,28.60013,0,0,0,16.89515,10.63127,29.8702,29.8702,0,0,0,20.06006-2.87413c4.94657-2.67271,8.905-6.68407,12.782-10.63335,1.618-1.64821,3.3414-3.549,3.26-5.79747-.12611-3.48365-4.31416-5.38825-7.90863-6.148a56.43491,56.43491,0,0,0-35.03266,3.93979c-4.88,2.26681-9.96448,6.3679-9.23175,11.46579"
     transform="translate(-199.93898 -179.27735)"
     fill="#2f2e41"
     id="path32" />
  <path
     d="M983.061,368.72265h-482a17.02412,17.02412,0,0,0-17,17v186a17.02411,17.02411,0,0,0,17,17h482a17.0241,17.0241,0,0,0,17-17v-186A17.02411,17.02411,0,0,0,983.061,368.72265Zm15,203a15.01828,15.01828,0,0,1-15,15h-482a15.01828,15.01828,0,0,1-15-15v-186a15.01828,15.01828,0,0,1,15-15h482a15.01828,15.01828,0,0,1,15,15Z"
     transform="translate(-199.93898 -179.27735)"
     fill="#3f3d56"
     id="path34"
     style="fill:#cccccc;fill-opacity:1" />
  <path
     d="M940.04724,441.72265h-231a12.4967,12.4967,0,0,0-12.48,12.01,4.01078,4.01078,0,0,0-.02.49,12.51762,12.51762,0,0,0,12.5,12.5h231a12.5,12.5,0,0,0,0-25Z"
     transform="translate(-199.93898 -179.27735)"
     fill="#cccccc"
     id="path38" />
  <path
     d="M940.04724,490.72265h-231a12.4967,12.4967,0,0,0-12.48,12.01,4.01078,4.01078,0,0,0-.02.49,12.51762,12.51762,0,0,0,12.5,12.5h231a12.5,12.5,0,0,0,0-25Z"
     transform="translate(-199.93898 -179.27735)"
     fill="#cccccc"
     id="path40" />
  <path
     d="M581.939,720.72265h-381a1,1,0,0,1,0-2h381a1,1,0,0,1,0,2Z"
     transform="translate(-199.93898 -179.27735)"
     fill="#3f3d56"
     id="path44" />
  <path
     d="m 406.2299,336.04691 a 9.645,9.645 0 0 1 -5.68665,-1.8833 l -13.70576,-9.95753 a 6.65671,6.65671 0 0 0 -7.83459,0 l -13.70573,9.95753 A 9.67485,9.67485 0 0 1 350.40865,323.3475 l 5.23458,-16.11171 a 6.64911,6.64911 0 0 0 -2.42065,-7.45234 l -13.70576,-9.95753 a 9.67538,9.67538 0 0 1 5.68739,-17.50249 h 16.94089 a 6.64759,6.64759 0 0 0 6.338,-4.60461 l 5.23531,-16.1117 a 9.675,9.675 0 0 1 18.40371,0 l 5.23532,16.1117 a 6.64758,6.64758 0 0 0 6.33794,4.60461 h 16.94079 a 9.67538,9.67538 0 0 1 5.68739,17.50249 l -13.70575,9.95753 a 6.6491,6.6491 0 0 0 -2.42066,7.45234 l 5.23458,16.11171 a 9.53055,9.53055 0 0 1 -3.51447,10.81611 9.6472,9.6472 0 0 1 -5.68736,1.8833 z"
     fill="#6c63ff"
     id="path179" />
  <path
     d="m 783.12202,-50.5547 h -482 a 17.02412,17.02412 0 0 0 -17,17 v 186 a 17.02411,17.02411 0 0 0 17,17 h 482 a 17.0241,17.0241 0 0 0 17,-17 v -186 a 17.02411,17.02411 0 0 0 -17,-17 z m 15,203 a 15.01828,15.01828 0 0 1 -15,15 h -482 a 15.01828,15.01828 0 0 1 -15,-15 v -186 a 15.01828,15.01828 0 0 1 15,-15 h 482 a 15.01828,15.01828 0 0 1 15,15 z"
     fill="#3f3d56"
     id="path315"
     style="fill:#cccccc;fill-opacity:1" />
  <path
     d="m 740.10826,22.4453 h -231 a 12.4967,12.4967 0 0 0 -12.48,12.01 4.01078,4.01078 0 0 0 -0.02,0.49 12.51762,12.51762 0 0 0 12.5,12.5 h 231 a 12.5,12.5 0 0 0 0,-25 z"
     fill="#cccccc"
     id="path317" />
  <path
     d="m 740.10826,71.4453 h -231 a 12.4967,12.4967 0 0 0 -12.48,12.01 4.01078,4.01078 0 0 0 -0.02,0.49 12.51762,12.51762 0 0 0 12.5,12.5 h 231 a 12.5,12.5 0 0 0 0,-25 z"
     fill="#cccccc"
     id="path319" />
  <path
     d="m 358.31676,96.968739 a 10.60105,10.60105 0 0 1 -6.24592,-2.06657 10.47166,10.47166 0 0 1 -3.86191,-11.88337 l 5.236,-16.11133 a 5.69848,5.69848 0 0 0 -2.075,-6.38572 l -13.70633,-9.95842 a 10.62763,10.62763 0 0 1 6.24711,-19.22558 h 16.94119 a 5.6963,5.6963 0 0 0 5.43165,-3.94712 l 5.236,-16.11132 a 10.62775,10.62775 0 0 1 20.21506,0 l 5.23483,16.11132 a 5.6976,5.6976 0 0 0 5.43224,3.94712 h 16.94119 a 10.62788,10.62788 0 0 1 6.24712,19.22558 l -13.70573,9.95842 a 5.69606,5.69606 0 0 0 -2.07557,6.38572 l 5.23543,16.11133 a 10.62811,10.62811 0 0 1 -16.35494,11.88217 l -13.70513,-9.95722 a 5.69727,5.69727 0 0 0 -6.71515,0 l -13.70572,9.95722 a 10.59328,10.59328 0 0 1 -6.24642,2.06777 z m 23.31011,-18.03748 a 10.60642,10.60642 0 0 1 6.24591,2.03537 l 13.70573,9.95721 a 5.71156,5.71156 0 0 0 8.79012,-6.38572 l -5.23483,-16.1113 a 10.60029,10.60029 0 0 1 3.86131,-11.88218 l 13.70513,-9.95841 a 5.7119,5.7119 0 0 0 -3.35728,-10.33285 h -16.94119 a 10.60034,10.60034 0 0 1 -10.10723,-7.3434 l -5.23543,-16.11133 a 5.71205,5.71205 0 0 0 -10.86509,0 l -5.23543,16.11133 a 10.599,10.599 0 0 1 -10.10663,7.3434 h -16.94119 a 5.7119,5.7119 0 0 0 -3.35787,10.33285 l 13.70632,9.95841 a 10.60211,10.60211 0 0 1 3.86072,11.88218 l -5.236,16.11132 a 5.71187,5.71187 0 0 0 8.7901,6.38568 l 13.70633,-9.95721 a 10.60953,10.60953 0 0 1 6.2465,-2.03535 z"
     fill="#3f3d56"
     id="path327" />
</svg>
