<svg width="22" height="22" viewBox="0 0 22 22" fill="none" xmlns="http://www.w3.org/2000/svg">
<path fill-rule="evenodd" clip-rule="evenodd" d="M11.2974 10.3333C10.9303 10.3333 10.6326 10.6318 10.6326 11C10.6326 11.3682 10.9303 11.6667 11.2974 11.6667C11.6645 11.6667 11.9622 11.3682 11.9622 11C11.9622 10.6318 11.6645 10.3333 11.2974 10.3333ZM9.3031 11C9.3031 9.89543 10.196 9 11.2974 9C12.3988 9 13.2917 9.89543 13.2917 11C13.2917 12.1046 12.3988 13 11.2974 13C10.196 13 9.3031 12.1046 9.3031 11Z" fill="#333333"/>
<path fill-rule="evenodd" clip-rule="evenodd" d="M8.90944 4.37744C8.90944 3.99001 9.17659 3.65407 9.55323 3.56787C10.685 3.30887 11.8451 3.31757 12.947 3.56969C13.3236 3.65588 13.5908 3.99183 13.5908 4.37927L13.5908 5.53084C13.5908 6.17008 14.2808 6.5696 14.8328 6.24998L15.8286 5.67344C16.1635 5.47954 16.5876 5.54392 16.8503 5.82854C17.2307 6.24077 17.5711 6.70111 17.8621 7.20654C18.153 7.71195 18.3804 8.23773 18.5461 8.77423C18.6606 9.14467 18.5041 9.54523 18.1692 9.73913L17.1734 10.3157C16.6214 10.6353 16.6214 11.4343 17.1734 11.754L18.1679 12.3298C18.5025 12.5235 18.659 12.9235 18.5451 13.2937C18.2119 14.3767 17.6394 15.3887 16.8498 16.2421C16.5871 16.5261 16.1634 16.5901 15.8288 16.3964L14.8328 15.8197C14.2808 15.5001 13.5908 15.8996 13.5908 16.5389L13.5908 17.6923C13.5908 18.0797 13.3236 18.4156 12.947 18.5018C11.8153 18.7608 10.6551 18.7521 9.55326 18.5C9.1766 18.4138 8.90944 18.0779 8.90944 17.6904L8.90944 16.5388C8.90944 15.8996 8.21942 15.5001 7.66741 15.8197L6.67165 16.3962C6.33675 16.5901 5.91261 16.5257 5.64994 16.2411C5.26952 15.8289 4.92915 15.3686 4.63818 14.8632C4.3472 14.3577 4.11986 13.8319 3.9541 13.2954C3.83965 12.925 3.99612 12.5244 4.33101 12.3305L5.32675 11.754C5.87876 11.4344 5.87876 10.6353 5.32675 10.3157L4.33231 9.73994C3.99773 9.54622 3.8412 9.14621 3.9551 8.77599C4.28829 7.69299 4.86085 6.68103 5.65038 5.82762C5.91314 5.54361 6.33683 5.47956 6.6714 5.67327L7.66741 6.24996C8.21942 6.56958 8.90944 6.17006 8.90944 5.53083L8.90944 4.37744ZM10.5655 5.0767L10.5655 5.53083C10.5655 7.44852 8.49543 8.64708 6.83939 7.68823L6.44722 7.46117C6.17308 7.83216 5.94439 8.23182 5.76373 8.65103L6.15477 8.87745C7.81081 9.8363 7.81081 12.2334 6.15477 13.1923L5.76355 13.4188C5.85365 13.6265 5.95648 13.8315 6.07236 14.0328C6.18823 14.234 6.31382 14.4258 6.44815 14.6079L6.83939 14.3814C8.49543 13.4226 10.5655 14.6211 10.5655 16.5388L10.5655 16.9917C11.0178 17.0444 11.4773 17.0456 11.9347 16.993L11.9347 16.5389C11.9347 14.6212 14.0048 13.4226 15.6608 14.3815L16.053 14.6085C16.3272 14.2375 16.5558 13.8379 16.7365 13.4187L16.3454 13.1922C14.6894 12.2334 14.6894 9.83626 16.3454 8.87741L16.7367 8.65088C16.6466 8.44316 16.5438 8.23819 16.4279 8.03692C16.312 7.83564 16.1864 7.64385 16.0521 7.46173L15.6608 7.68825C14.0048 8.6471 11.9347 7.44854 11.9347 5.53084L11.9347 5.07801C11.4824 5.02531 11.0229 5.0241 10.5655 5.0767Z" fill="#333333"/>
</svg>
