<svg width="100" height="100" viewBox="0 0 100 100" fill="none" xmlns="http://www.w3.org/2000/svg">
<path d="M87 50C87 70.4345 70.4345 87 50 87C29.5655 87 13 70.4345 13 50C13 29.5655 29.5655 13 50 13C70.4345 13 87 29.5655 87 50Z" stroke="black" stroke-width="6"/>
<path d="M47.0578 58.3977V58.1625C47.0839 55.667 47.3447 53.681 47.8401 52.2046C48.3356 50.7282 49.0397 49.5327 49.9524 48.6181C50.8651 47.7035 51.9603 46.8607 53.2381 46.0899C54.0074 45.6195 54.6984 45.0642 55.3112 44.424C55.924 43.7707 56.4065 43.0194 56.7585 42.1702C57.1236 41.3209 57.3061 40.3802 57.3061 39.348C57.3061 38.0676 57.0062 36.957 56.4065 36.0163C55.8067 35.0755 55.0048 34.3504 54.0009 33.8408C52.9969 33.3313 51.8821 33.0765 50.6565 33.0765C49.5873 33.0765 48.5573 33.2986 47.5663 33.7428C46.5754 34.1871 45.7474 34.8861 45.0825 35.8399C44.4175 36.7937 44.0329 38.0414 43.9286 39.5832H39C39.1043 37.362 39.678 35.461 40.7211 33.88C41.7772 32.2991 43.1658 31.0905 44.8869 30.2543C46.621 29.4181 48.5442 29 50.6565 29C52.9512 29 54.9461 29.4573 56.6412 30.3719C58.3492 31.2865 59.6661 32.5408 60.5918 34.1348C61.5306 35.7288 62 37.5449 62 39.5832C62 41.0204 61.7783 42.3204 61.335 43.4833C60.9048 44.6461 60.2789 45.6848 59.4575 46.5994C58.6491 47.514 57.6712 48.3241 56.5238 49.0296C55.3764 49.7482 54.4572 50.5061 53.7662 51.3031C53.0751 52.087 52.5731 53.0212 52.2602 54.1056C51.9473 55.1901 51.7778 56.5424 51.7517 58.1625V58.3977H47.0578ZM49.5612 70C48.5964 70 47.7684 69.6538 47.0774 68.9613C46.3863 68.2688 46.0408 67.4391 46.0408 66.4723C46.0408 65.5054 46.3863 64.6757 47.0774 63.9833C47.7684 63.2908 48.5964 62.9445 49.5612 62.9445C50.5261 62.9445 51.354 63.2908 52.0451 63.9833C52.7361 64.6757 53.0816 65.5054 53.0816 66.4723C53.0816 67.1125 52.9187 67.7004 52.5927 68.2361C52.2798 68.7718 51.856 69.203 51.3214 69.5296C50.7999 69.8432 50.2132 70 49.5612 70Z" fill="black"/>
<path fill-rule="evenodd" clip-rule="evenodd" d="M46.0578 59.3977V58.1521C46.0844 55.6069 46.3494 53.5034 46.8921 51.8864C47.4266 50.2935 48.2028 48.9556 49.2445 47.9117C50.222 46.9322 51.383 46.0414 52.7187 45.2353C53.4132 44.8104 54.0346 44.3108 54.5853 43.7362C55.1118 43.174 55.5282 42.5266 55.8347 41.7872L55.8397 41.7752C56.1452 41.0645 56.3061 40.2602 56.3061 39.348C56.3061 38.2292 56.0461 37.3113 55.5632 36.5538C55.0606 35.7654 54.3942 35.1619 53.5482 34.7325C52.6967 34.3003 51.739 34.0765 50.6564 34.0765C49.7305 34.0765 48.8397 34.2678 47.9754 34.6553C47.1616 35.0201 46.4717 35.5958 45.9028 36.4118C45.3704 37.1753 45.0222 38.2322 44.9263 39.6507L44.8632 40.5832H37.9519L38.0011 39.5363C38.1123 37.167 38.7282 35.0847 39.8864 33.3293L39.8895 33.3245C41.0449 31.5949 42.5701 30.2681 44.4499 29.3548L44.4525 29.3535C46.3349 28.4459 48.4086 28 50.6564 28C53.0847 28 55.2484 28.4845 57.1145 29.491C58.9759 30.488 60.4317 31.8689 61.4551 33.6302C62.4924 35.3926 63 37.3863 63 39.5832C63 41.1217 62.7628 42.5433 62.2712 43.8348C61.798 45.1118 61.1082 46.2572 60.2041 47.2646C59.3253 48.2582 58.2713 49.1286 57.0511 49.8793C55.9669 50.5587 55.1317 51.2546 54.5217 51.9582L54.5163 51.9643C53.9306 52.6287 53.4963 53.4289 53.221 54.3829C52.9411 55.3527 52.7773 56.6077 52.7517 58.1707V59.3977H46.0578ZM51.7517 58.1625C51.7777 56.5424 51.9472 55.1901 52.2602 54.1056C52.5731 53.0212 53.0751 52.087 53.7661 51.3031C54.4572 50.5061 55.3764 49.7482 56.5238 49.0296C57.6712 48.3241 58.6491 47.514 59.4575 46.5994C60.2789 45.6848 60.9047 44.6461 61.335 43.4833C61.7783 42.3204 62 41.0204 62 39.5832C62 37.5449 61.5306 35.7288 60.5918 34.1348C59.6661 32.5408 58.3492 31.2865 56.6411 30.3719C54.9461 29.4573 52.9512 29 50.6564 29C48.5442 29 46.621 29.4181 44.8869 30.2543C43.1658 31.0905 41.7772 32.2991 40.7211 33.88C39.8381 35.2183 39.2914 36.7861 39.0812 38.5832C39.043 38.909 39.016 39.2423 39 39.5832H43.9285C44.0328 38.0414 44.4175 36.7937 45.0825 35.8399C45.7474 34.8861 46.5754 34.1871 47.5663 33.7428C48.5572 33.2986 49.5873 33.0765 50.6564 33.0765C51.8821 33.0765 52.9969 33.3313 54.0008 33.8408C55.0048 34.3504 55.8067 35.0755 56.4064 36.0163C57.0062 36.957 57.3061 38.0676 57.3061 39.348C57.3061 40.3802 57.1236 41.3209 56.7585 42.1702C56.4064 43.0194 55.924 43.7707 55.3112 44.424C54.6984 45.0642 54.0073 45.6195 53.2381 46.0899C51.9603 46.8607 50.865 47.7035 49.9523 48.6181C49.0397 49.5327 48.3356 50.7282 47.8401 52.2046C47.3964 53.5269 47.1409 55.2579 47.0736 57.3977C47.0658 57.6471 47.0605 57.902 47.0578 58.1625V58.3977H51.7517V58.1625ZM51.8428 70.383L51.8367 70.3867C51.1484 70.8005 50.3812 71 49.5612 71C48.3266 71 47.2452 70.5452 46.3695 69.6677C45.4939 68.7902 45.0408 67.7075 45.0408 66.4723C45.0408 65.2371 45.4939 64.1544 46.3695 63.2769C47.2452 62.3994 48.3266 61.9445 49.5612 61.9445C50.7957 61.9445 51.8772 62.3994 52.7529 63.2769C53.6285 64.1544 54.0816 65.2371 54.0816 66.4723C54.0816 67.2888 53.8718 68.0546 53.4516 68.7483C53.0548 69.4247 52.5145 69.9725 51.8428 70.383ZM52.5927 68.2361C52.9186 67.7004 53.0816 67.1125 53.0816 66.4723C53.0816 65.5054 52.7361 64.6757 52.045 63.9833C51.354 63.2908 50.526 62.9445 49.5612 62.9445C48.5963 62.9445 47.7684 63.2908 47.0773 63.9833C46.3863 64.6757 46.0408 65.5054 46.0408 66.4723C46.0408 67.4391 46.3863 68.2688 47.0773 68.9613C47.7684 69.6538 48.5963 70 49.5612 70C50.2131 70 50.7999 69.8432 51.3214 69.5296C51.856 69.203 52.2797 68.7718 52.5927 68.2361Z" fill="black"/>
</svg>
