<?xml version="1.0" encoding="UTF-8" standalone="no"?>
<svg
   xmlns:dc="http://purl.org/dc/elements/1.1/"
   xmlns:cc="http://creativecommons.org/ns#"
   xmlns:rdf="http://www.w3.org/1999/02/22-rdf-syntax-ns#"
   xmlns:svg="http://www.w3.org/2000/svg"
   xmlns="http://www.w3.org/2000/svg"
   xmlns:sodipodi="http://sodipodi.sourceforge.net/DTD/sodipodi-0.dtd"
   xmlns:inkscape="http://www.inkscape.org/namespaces/inkscape"
   width="100"
   height="100"
   viewBox="0 0 100 100"
   fill="none"
   version="1.1"
   id="svg8"
   sodipodi:docname="json.svg"
   inkscape:version="0.92.4 (5da689c313, 2019-01-14)">
  <metadata
     id="metadata14">
    <rdf:RDF>
      <cc:Work
         rdf:about="">
        <dc:format>image/svg+xml</dc:format>
        <dc:type
           rdf:resource="http://purl.org/dc/dcmitype/StillImage" />
      </cc:Work>
    </rdf:RDF>
  </metadata>
  <defs
     id="defs12" />
  <sodipodi:namedview
     pagecolor="#ffffff"
     bordercolor="#666666"
     borderopacity="1"
     objecttolerance="10"
     gridtolerance="10"
     guidetolerance="10"
     inkscape:pageopacity="0"
     inkscape:pageshadow="2"
     inkscape:window-width="1920"
     inkscape:window-height="1016"
     id="namedview10"
     showgrid="false"
     inkscape:zoom="2.36"
     inkscape:cx="50.847458"
     inkscape:cy="50"
     inkscape:window-x="0"
     inkscape:window-y="27"
     inkscape:window-maximized="1"
     inkscape:current-layer="svg8" />
  <path
     d="M33.6665 83C29.0686 83 25.8076 81.9297 23.8835 79.789C21.9593 77.6741 20.9973 74.1278 20.9973 69.1501V56.2286L17.0241 54.6811C15.6747 54.0621 15 53.0047 15 51.5088V49.3423C15 47.8464 15.6747 46.789 17.0241 46.17L20.9973 44.5451V31.6237C20.9973 28.0903 21.4096 25.2532 22.2342 23.1125C23.0588 20.9719 24.3957 19.4244 26.2449 18.4701C28.094 17.49 30.5679 17 33.6665 17C34.3912 17 35.0034 17.2708 35.5032 17.8124C36.0279 18.3283 36.2903 18.9601 36.2903 19.7081C36.2903 20.4302 36.0279 21.0621 35.5032 21.6037C35.0034 22.1454 34.3912 22.4162 33.6665 22.4162C32.1422 22.4162 30.8928 22.5451 29.9182 22.803C28.9687 23.0352 28.219 23.4865 27.6692 24.1571C27.1445 24.8019 26.7696 25.7304 26.5448 26.9426C26.3448 28.1547 26.2449 29.7151 26.2449 31.6237V45.9379C26.2449 47.5885 25.5702 48.646 24.2208 49.1102L17.8487 51.354V49.4971L24.2208 51.6635C25.5702 52.1278 26.2449 53.1852 26.2449 54.8359V69.1501C26.2449 71.4971 26.4323 73.2767 26.8071 74.4889C27.182 75.7011 27.8941 76.5135 28.9437 76.9261C30.0182 77.3646 31.5925 77.5838 33.6665 77.5838C34.3912 77.5838 35.0034 77.8417 35.5032 78.3576C36.0279 78.8992 36.2903 79.544 36.2903 80.2919C36.2903 81.0141 36.0279 81.646 35.5032 82.1876C35.0034 82.7292 34.3912 83 33.6665 83Z"
     fill="black"
     id="path4" />
  <path
     d="M66.5915 17C71.1895 17 74.4505 18.0703 76.3746 20.211C78.2987 22.3259 79.2608 25.8722 79.2608 30.8499L79.2608 43.7714L83.234 45.3189C84.5834 45.9379 85.2581 46.9953 85.2581 48.4912L85.2581 50.6577C85.2581 52.1536 84.5834 53.211 83.234 53.83L79.2608 55.4549L79.2608 68.3763C79.2608 71.9097 78.8485 74.7468 78.0238 76.8875C77.1992 79.0281 75.8623 80.5756 74.0132 81.5299C72.164 82.51 69.6901 83 66.5915 83C65.8669 83 65.2546 82.7292 64.7549 82.1876C64.2301 81.6717 63.9677 81.0399 63.9677 80.2919C63.9677 79.5698 64.2301 78.9379 64.7549 78.3962C65.2547 77.8546 65.8669 77.5838 66.5915 77.5838C68.1159 77.5838 69.3653 77.4549 70.3398 77.197C71.2894 76.9648 72.0391 76.5135 72.5888 75.8429C73.1136 75.1981 73.4884 74.2696 73.7133 73.0574C73.9132 71.8453 74.0132 70.2849 74.0132 68.3763L74.0132 54.0621C74.0132 52.4115 74.6879 51.354 76.0373 50.8898L82.4094 48.646L82.4094 50.5029L76.0373 48.3365C74.6879 47.8722 74.0132 46.8148 74.0132 45.1641L74.0132 30.8499C74.0132 28.5029 73.8258 26.7233 73.4509 25.5111C73.0761 24.2989 72.3639 23.4865 71.3144 23.0739C70.2399 22.6354 68.6656 22.4162 66.5915 22.4162C65.8669 22.4162 65.2547 22.1583 64.7549 21.6424C64.2301 21.1008 63.9677 20.456 63.9677 19.7081C63.9677 18.9859 64.2301 18.354 64.7549 17.8124C65.2547 17.2708 65.8669 17 66.5915 17Z"
     id="path6"
     fill="black" />
</svg>
