<svg width="100" height="100" viewBox="0 0 100 100" fill="none" xmlns="http://www.w3.org/2000/svg">
<path d="M12 20C12 15.5817 15.5817 12 20 12H80C84.4183 12 88 15.5817 88 20V80C88 84.4183 84.4183 88 80 88H20C15.5817 88 12 84.4183 12 80V20Z" fill="#111111"/>
<path d="M12 15C12 10.5817 15.5817 7 20 7H80C84.4183 7 88 10.5817 88 15V75C88 79.4183 84.4183 83 80 83H20C15.5817 83 12 79.4183 12 75V15Z" fill="white"/>
<path fill-rule="evenodd" clip-rule="evenodd" d="M80 10H20C17.2386 10 15 12.2386 15 15V75C15 77.7614 17.2386 80 20 80H80C82.7614 80 85 77.7614 85 75V15C85 12.2386 82.7614 10 80 10ZM20 7C15.5817 7 12 10.5817 12 15V75C12 79.4183 15.5817 83 20 83H80C84.4183 83 88 79.4183 88 75V15C88 10.5817 84.4183 7 80 7H20Z" fill="#111111"/>
<path d="M31.1756 36.0798C30.3775 36.0798 29.6896 36.3138 29.112 36.7819C28.5344 37.2394 28.0566 37.883 27.6785 38.7128C27.311 39.5319 27.0379 40.484 26.8594 41.5691C26.6809 42.6543 26.5916 43.8138 26.5916 45.0479C26.5916 46.9096 26.7806 48.5053 27.1587 49.8351C27.5368 51.1543 28.0828 52.1649 28.797 52.867C29.5111 53.5585 30.367 53.9043 31.3646 53.9043C32.0473 53.9043 32.6931 53.8032 33.3022 53.6011C33.9113 53.3883 34.4942 53.1383 35.0508 52.8511V55.9947C34.4627 56.3245 33.8221 56.5745 33.1289 56.7447C32.4463 56.9149 31.7007 57 30.8921 57C29.2433 57 27.8308 56.5266 26.6546 55.5798C25.4784 54.633 24.5753 53.266 23.9452 51.4787C23.3151 49.6915 23 47.5372 23 45.016C23 43.3138 23.168 41.7394 23.5041 40.2926C23.8401 38.8351 24.339 37.5585 25.0006 36.4628C25.6727 35.367 26.5076 34.516 27.5053 33.9096C28.5029 33.3032 29.6581 33 30.9708 33C31.811 33 32.6196 33.1064 33.3967 33.3191C34.1739 33.5319 34.9247 33.8564 35.6494 34.2926L34.5624 37.2128C34.0373 36.8617 33.4965 36.5851 32.9399 36.383C32.3833 36.1809 31.7952 36.0798 31.1756 36.0798Z" fill="black"/>
<path d="M44.6284 56.6809H41.1943V36.4309H36.7993V33.3511H49.0076V36.4309H44.6284V56.6809Z" fill="black"/>
<path d="M56.301 33.3511C57.9288 33.3511 59.273 33.5957 60.3337 34.0851C61.4049 34.5638 62.203 35.2979 62.7281 36.2872C63.2532 37.266 63.5158 38.5 63.5158 39.9894C63.5158 40.9894 63.395 41.8883 63.1534 42.6862C62.9119 43.484 62.5338 44.1862 62.0193 44.7926C61.5152 45.3883 60.8641 45.8936 60.0659 46.3085L64.776 56.6809H60.9481L56.9942 47.1862H55.1196V56.6809H51.654V33.3511H56.301ZM56.301 36.383H55.1196V44.3457H56.5216C57.6348 44.3457 58.4854 44 59.0735 43.3085C59.6721 42.6064 59.9714 41.5585 59.9714 40.1649C59.9714 38.8457 59.6721 37.8883 59.0735 37.2926C58.4854 36.6862 57.5613 36.383 56.301 36.383Z" fill="black"/>
<path d="M67.2491 56.6809V33.3511H70.7147V53.5692H77V56.6809H67.2491Z" fill="black"/>
</svg>
