<svg width="100" height="100" viewBox="0 0 100 100" fill="none" xmlns="http://www.w3.org/2000/svg">
<path d="M12 20C12 15.5817 15.5817 12 20 12H80C84.4183 12 88 15.5817 88 20V80C88 84.4183 84.4183 88 80 88H20C15.5817 88 12 84.4183 12 80V20Z" fill="#111111"/>
<path d="M12 15C12 10.5817 15.5817 7 20 7H80C84.4183 7 88 10.5817 88 15V75C88 79.4183 84.4183 83 80 83H20C15.5817 83 12 79.4183 12 75V15Z" fill="white"/>
<path fill-rule="evenodd" clip-rule="evenodd" d="M80 10H20C17.2386 10 15 12.2386 15 15V75C15 77.7614 17.2386 80 20 80H80C82.7614 80 85 77.7614 85 75V15C85 12.2386 82.7614 10 80 10ZM20 7C15.5817 7 12 10.5817 12 15V75C12 79.4183 15.5817 83 20 83H80C84.4183 83 88 79.4183 88 75V15C88 10.5817 84.4183 7 80 7H20Z" fill="#111111"/>
<path d="M29.423 50.07C29.423 51.4325 29.1607 52.6355 28.6362 53.6787C28.1118 54.7219 27.3723 55.5363 26.4177 56.1218C25.4632 56.7073 24.3356 57 23.0349 57C22.416 57 21.8181 56.9627 21.2412 56.8882C20.6643 56.8137 20.1084 56.6913 19.5734 56.521C19.0385 56.3506 18.514 56.1324 18 55.8663V52.2575C18.7762 52.7366 19.5944 53.1038 20.4545 53.3593C21.3251 53.6042 22.1328 53.7266 22.8776 53.7266C23.5384 53.7266 24.0943 53.5829 24.5454 53.2955C24.9964 52.9974 25.3373 52.5982 25.5681 52.0979C25.7989 51.5975 25.9142 51.0387 25.9142 50.4212C25.9142 49.7719 25.8146 49.2183 25.6153 48.7606C25.4265 48.2922 25.0856 47.8557 24.5926 47.4512C24.1101 47.0361 23.4335 46.5836 22.5629 46.094C21.8916 45.7001 21.2832 45.3009 20.7377 44.8964C20.1923 44.4812 19.7255 44.0235 19.3374 43.5231C18.9598 43.0122 18.6661 42.4213 18.4563 41.7507C18.257 41.0694 18.1573 40.2657 18.1573 39.3396C18.1364 38.0728 18.3776 36.9603 18.8811 36.0023C19.3951 35.0442 20.1189 34.3044 21.0524 33.7827C21.986 33.2505 23.0821 32.9897 24.3408 33.0003C25.2429 33.0003 26.1135 33.1174 26.9527 33.3516C27.8023 33.5858 28.5786 33.8998 29.2813 34.2937L28.2744 37.4394C27.5821 37.0349 26.9107 36.7368 26.2604 36.5452C25.6205 36.3429 25.0174 36.2418 24.451 36.2418C23.8426 36.2418 23.3286 36.3695 22.909 36.625C22.4895 36.8699 22.1695 37.2158 21.9493 37.6629C21.729 38.0994 21.6188 38.605 21.6188 39.1799C21.6188 39.8612 21.7185 40.4307 21.9178 40.8884C22.1276 41.3462 22.479 41.772 22.972 42.1659C23.4755 42.5597 24.1625 43.0015 25.0331 43.4912C26.0087 44.0447 26.8216 44.6356 27.4719 45.2636C28.1223 45.881 28.61 46.5783 28.9352 47.3554C29.2604 48.1325 29.423 49.0374 29.423 50.07Z" fill="black"/>
<path d="M46.2805 56.6806H42.819V46.0461H36.3208V56.6806H32.8593V33.3356H36.3208V42.9483H42.819V33.3356H46.2805V56.6806Z" fill="black"/>
<path d="M50.8024 56.6806V33.3356H54.2639V56.6806H50.8024Z" fill="black"/>
<path d="M62.2631 56.6806H58.8016V33.3356H68.4624V36.3695H62.2631V43.9064H68.0848V46.9722H62.2631V56.6806Z" fill="black"/>
<path d="M77.6259 56.6806H74.1959V36.4174H69.8061V33.3356H82V36.4174H77.6259V56.6806Z" fill="black"/>
</svg>
