<svg width="100" height="100" viewBox="0 0 100 100" fill="none" xmlns="http://www.w3.org/2000/svg">
<path d="M12 20C12 15.5817 15.5817 12 20 12H80C84.4183 12 88 15.5817 88 20V80C88 84.4183 84.4183 88 80 88H20C15.5817 88 12 84.4183 12 80V20Z" fill="#111111"/>
<path d="M12 15C12 10.5817 15.5817 7 20 7H80C84.4183 7 88 10.5817 88 15V75C88 79.4183 84.4183 83 80 83H20C15.5817 83 12 79.4183 12 75V15Z" fill="white"/>
<path fill-rule="evenodd" clip-rule="evenodd" d="M80 10H20C17.2386 10 15 12.2386 15 15V75C15 77.7614 17.2386 80 20 80H80C82.7614 80 85 77.7614 85 75V15C85 12.2386 82.7614 10 80 10ZM20 7C15.5817 7 12 10.5817 12 15V75C12 79.4183 15.5817 83 20 83H80C84.4183 83 88 79.4183 88 75V15C88 10.5817 84.4183 7 80 7H20Z" fill="#111111"/>
<path fill-rule="evenodd" clip-rule="evenodd" d="M65.1667 46.3333L35.8333 46.3333C34.8208 46.3333 34 45.5125 34 44.5C34 43.4875 34.8208 42.6667 35.8333 42.6667L65.1667 42.6667C66.1792 42.6667 67 43.4875 67 44.5C67 45.5125 66.1792 46.3333 65.1667 46.3333Z" fill="#111111"/>
<path fill-rule="evenodd" clip-rule="evenodd" d="M45.6853 34.6481C46.4012 35.364 46.4012 36.5248 45.6853 37.2408L38.4261 44.5L45.6853 51.7592C46.4012 52.4752 46.4012 53.636 45.6853 54.3519C44.9693 55.0679 43.8085 55.0679 43.0925 54.3519L34.537 45.7964C33.821 45.0804 33.821 43.9196 34.537 43.2036L43.0925 34.6481C43.8085 33.9321 44.9693 33.9321 45.6853 34.6481Z" fill="#111111"/>
</svg>
