<svg width="100" height="100" viewBox="0 0 100 100" fill="none" xmlns="http://www.w3.org/2000/svg">
<path d="M5 32C5 27.5817 8.58172 24 13 24H87C91.4183 24 95 27.5817 95 32V68C95 72.4183 91.4183 76 87 76H13C8.58172 76 5 72.4183 5 68V32Z" fill="#111111"/>
<path d="M5 28C5 23.5817 8.58172 20 13 20H87C91.4183 20 95 23.5817 95 28V64C95 68.4183 91.4183 72 87 72H13C8.58172 72 5 68.4183 5 64V28Z" fill="white"/>
<path fill-rule="evenodd" clip-rule="evenodd" d="M87 23H13C10.2386 23 8 25.2386 8 28V64C8 66.7614 10.2386 69 13 69H87C89.7614 69 92 66.7614 92 64V28C92 25.2386 89.7614 23 87 23ZM13 20C8.58172 20 5 23.5817 5 28V64C5 68.4183 8.58172 72 13 72H87C91.4183 72 95 68.4183 95 64V28C95 23.5817 91.4183 20 87 20H13Z" fill="#111111"/>
<path fill-rule="evenodd" clip-rule="evenodd" d="M47.1667 46.3333L17.8333 46.3333C16.8208 46.3333 16 45.5125 16 44.5C16 43.4875 16.8208 42.6667 17.8333 42.6667L47.1667 42.6667C48.1792 42.6667 49 43.4875 49 44.5C49 45.5125 48.1792 46.3333 47.1667 46.3333Z" fill="#111111"/>
<path fill-rule="evenodd" clip-rule="evenodd" d="M27.6853 34.6481C28.4012 35.364 28.4012 36.5248 27.6853 37.2408L20.4261 44.5L27.6853 51.7592C28.4012 52.4752 28.4012 53.636 27.6853 54.3519C26.9693 55.0679 25.8085 55.0679 25.0925 54.3519L16.537 45.7964C15.821 45.0804 15.821 43.9196 16.537 43.2036L25.0925 34.6481C25.8085 33.9321 26.9693 33.9321 27.6853 34.6481Z" fill="#111111"/>
</svg>
