<svg width="100" height="100" viewBox="0 0 100 100" fill="none" xmlns="http://www.w3.org/2000/svg">
<path d="M12 22.75C12 18.3317 15.5817 14.75 20 14.75H80C84.4183 14.75 88 18.3317 88 22.75V82.75C88 87.1683 84.4183 90.75 80 90.75H20C15.5817 90.75 12 87.1683 12 82.75V22.75Z" fill="#111111"/>
<path d="M12 18C12 13.5817 15.5817 10 20 10H80C84.4183 10 88 13.5817 88 18V78C88 82.4183 84.4183 86 80 86H20C15.5817 86 12 82.4183 12 78V18Z" fill="white"/>
<path fill-rule="evenodd" clip-rule="evenodd" d="M80 13H20C17.2386 13 15 15.2386 15 18V78C15 80.7614 17.2386 83 20 83H80C82.7614 83 85 80.7614 85 78V18C85 15.2386 82.7614 13 80 13ZM20 10C15.5817 10 12 13.5817 12 18V78C12 82.4183 15.5817 86 20 86H80C84.4183 86 88 82.4183 88 78V18C88 13.5817 84.4183 10 80 10H20Z" fill="#111111"/>
<mask id="mask0_1109_2322" style="mask-type:alpha" maskUnits="userSpaceOnUse" x="31" y="38" width="38" height="20">
<path fill-rule="evenodd" clip-rule="evenodd" d="M65 41.5811H35C34.4477 41.5811 34 42.0409 34 42.6081V53.3919C34 53.9591 34.4477 54.4189 35 54.4189H65C65.5523 54.4189 66 53.9591 66 53.3919V42.6081C66 42.0409 65.5523 41.5811 65 41.5811ZM35 38.5C32.7909 38.5 31 40.3393 31 42.6081V53.3919C31 55.6607 32.7909 57.5 35 57.5H65C67.2091 57.5 69 55.6607 69 53.3919V42.6081C69 40.3393 67.2091 38.5 65 38.5H35Z" fill="#111111"/>
</mask>
<g mask="url(#mask0_1109_2322)">
<path d="M26.25 48H78.5V67H26.25V48Z" fill="#111111"/>
</g>
</svg>
