<svg width="100" height="100" viewBox="0 0 100 100" fill="none" xmlns="http://www.w3.org/2000/svg">
<path d="M12 45C12 40.5817 15.5817 37 20 37H80C84.4183 37 88 40.5817 88 45V81C88 85.4183 84.4183 89 80 89H20C15.5817 89 12 85.4183 12 81V45Z" fill="#111111"/>
<path fill-rule="evenodd" clip-rule="evenodd" d="M80 40H20C17.2386 40 15 42.2386 15 45V81C15 83.7614 17.2386 86 20 86H80C82.7614 86 85 83.7614 85 81V45C85 42.2386 82.7614 40 80 40ZM20 37C15.5817 37 12 40.5817 12 45V81C12 85.4183 15.5817 89 20 89H80C84.4183 89 88 85.4183 88 81V45C88 40.5817 84.4183 37 80 37H20Z" fill="#111111"/>
<path d="M12 41C12 36.5817 15.5817 33 20 33H80C84.4183 33 88 36.5817 88 41V77C88 81.4183 84.4183 85 80 85H20C15.5817 85 12 81.4183 12 77V41Z" fill="white"/>
<path fill-rule="evenodd" clip-rule="evenodd" d="M80 36H20C17.2386 36 15 38.2386 15 41V77C15 79.7614 17.2386 82 20 82H80C82.7614 82 85 79.7614 85 77V41C85 38.2386 82.7614 36 80 36ZM20 33C15.5817 33 12 36.5817 12 41V77C12 81.4183 15.5817 85 20 85H80C84.4183 85 88 81.4183 88 77V41C88 36.5817 84.4183 33 80 33H20Z" fill="#111111"/>
<path d="M80 9C84.4183 9 88 12.5817 88 17L88 77C88 81.4183 84.4183 85 80 85L44 85C39.5817 85 36 81.4183 36 77L36 17C36 12.5817 39.5817 9 44 9L80 9Z" fill="white"/>
<path fill-rule="evenodd" clip-rule="evenodd" d="M85 77L85 17C85 14.2386 82.7614 12 80 12L44 12C41.2386 12 39 14.2386 39 17L39 77C39 79.7614 41.2386 82 44 82L80 82C82.7614 82 85 79.7614 85 77ZM88 17C88 12.5817 84.4183 9 80 9L44 9C39.5817 9 36 12.5817 36 17L36 77C36 81.4183 39.5817 85 44 85L80 85C84.4183 85 88 81.4183 88 77L88 17Z" fill="#111111"/>
<path d="M85 74C85 78.4183 81.4183 82 77 82L25 82C20.5817 82 17 78.4183 17 74L17 44C17 39.5817 20.5817 36 25 36L77 36C81.4183 36 85 39.5817 85 44L85 74Z" fill="white"/>
<path fill-rule="evenodd" clip-rule="evenodd" d="M64.1667 58.2222L34.8333 58.2222C33.8208 58.2222 33 57.4014 33 56.3889C33 55.3764 33.8208 54.5556 34.8333 54.5556L64.1667 54.5556C65.1792 54.5556 66 55.3764 66 56.3889C66 57.4014 65.1792 58.2222 64.1667 58.2222Z" fill="#111111"/>
<path fill-rule="evenodd" clip-rule="evenodd" d="M44.6853 46.537C45.4012 47.2529 45.4012 48.4137 44.6853 49.1297L37.4261 56.3889L44.6853 63.6481C45.4012 64.364 45.4012 65.5248 44.6853 66.2408C43.9693 66.9568 42.8085 66.9568 42.0925 66.2408L33.537 57.6853C32.821 56.9693 32.821 55.8085 33.537 55.0925L42.0925 46.537C42.8085 45.821 43.9693 45.821 44.6853 46.537Z" fill="#111111"/>
<rect x="66" y="39" width="19" height="4" rx="2" transform="rotate(90 66 39)" fill="#111111"/>
</svg>
