<svg width="100" height="100" viewBox="0 0 100 100" fill="none" xmlns="http://www.w3.org/2000/svg">
<path d="M12 20C12 15.5817 15.5817 12 20 12H80C84.4183 12 88 15.5817 88 20V80C88 84.4183 84.4183 88 80 88H20C15.5817 88 12 84.4183 12 80V20Z" fill="#111111"/>
<path d="M12 15C12 10.5817 15.5817 7 20 7H80C84.4183 7 88 10.5817 88 15V75C88 79.4183 84.4183 83 80 83H20C15.5817 83 12 79.4183 12 75V15Z" fill="white"/>
<path fill-rule="evenodd" clip-rule="evenodd" d="M80 10H20C17.2386 10 15 12.2386 15 15V75C15 77.7614 17.2386 80 20 80H80C82.7614 80 85 77.7614 85 75V15C85 12.2386 82.7614 10 80 10ZM20 7C15.5817 7 12 10.5817 12 15V75C12 79.4183 15.5817 83 20 83H80C84.4183 83 88 79.4183 88 75V15C88 10.5817 84.4183 7 80 7H20Z" fill="#111111"/>
<path fill-rule="evenodd" clip-rule="evenodd" d="M35.8333 42.6667L65.1667 42.6667C66.1792 42.6667 67 43.4875 67 44.5C67 45.5125 66.1792 46.3333 65.1667 46.3333L35.8333 46.3333C34.8208 46.3333 34 45.5125 34 44.5C34 43.4875 34.8208 42.6667 35.8333 42.6667Z" fill="#111111"/>
<path fill-rule="evenodd" clip-rule="evenodd" d="M55.3147 54.3519C54.5988 53.636 54.5988 52.4752 55.3147 51.7592L62.5739 44.5L55.3148 37.2408C54.5988 36.5248 54.5988 35.364 55.3148 34.6481C56.0307 33.9321 57.1915 33.9321 57.9075 34.6481L66.463 43.2036C67.179 43.9196 67.179 45.0804 66.463 45.7964L57.9075 54.3519C57.1915 55.0679 56.0307 55.0679 55.3147 54.3519Z" fill="#111111"/>
</svg>
