<svg width="100" height="100" viewBox="0 0 100 100" fill="none" xmlns="http://www.w3.org/2000/svg">
<path d="M12 20C12 15.5817 15.5817 12 20 12H80C84.4183 12 88 15.5817 88 20V80C88 84.4183 84.4183 88 80 88H20C15.5817 88 12 84.4183 12 80V20Z" fill="#111111"/>
<path d="M12 15C12 10.5817 15.5817 7 20 7H80C84.4183 7 88 10.5817 88 15V75C88 79.4183 84.4183 83 80 83H20C15.5817 83 12 79.4183 12 75V15Z" fill="white"/>
<path fill-rule="evenodd" clip-rule="evenodd" d="M80 10H20C17.2386 10 15 12.2386 15 15V75C15 77.7614 17.2386 80 20 80H80C82.7614 80 85 77.7614 85 75V15C85 12.2386 82.7614 10 80 10ZM20 7C15.5817 7 12 10.5817 12 15V75C12 79.4183 15.5817 83 20 83H80C84.4183 83 88 79.4183 88 75V15C88 10.5817 84.4183 7 80 7H20Z" fill="#111111"/>
<path d="M41.5564 57L40.0159 50.2531H34.45L32.9094 57H29L34.8641 33H39.4692L45.4327 57H41.5564ZM39.403 47.0356L37.8293 39.7962C37.7409 39.3256 37.6581 38.8714 37.5808 38.4337C37.5035 37.985 37.4317 37.5527 37.3654 37.1368C37.2992 36.7209 37.2384 36.3215 37.1832 35.9384C37.1501 36.3105 37.1004 36.7045 37.0341 37.1204C36.9789 37.5363 36.9071 37.9631 36.8188 38.4008C36.7415 38.8386 36.6531 39.2873 36.5537 39.7469L35.0132 47.0356H39.403Z" fill="black"/>
<path d="M47.8744 57V33H51.5188V53.7989H58.1283V57H47.8744Z" fill="black"/>
<path d="M67.3949 57H63.7837V36.1683H59.162V33H72V36.1683H67.3949V57Z" fill="black"/>
</svg>
