<?xml version="1.0" encoding="UTF-8" standalone="no"?>
<svg
   xmlns:dc="http://purl.org/dc/elements/1.1/"
   xmlns:cc="http://creativecommons.org/ns#"
   xmlns:rdf="http://www.w3.org/1999/02/22-rdf-syntax-ns#"
   xmlns:svg="http://www.w3.org/2000/svg"
   xmlns="http://www.w3.org/2000/svg"
   xmlns:sodipodi="http://sodipodi.sourceforge.net/DTD/sodipodi-0.dtd"
   xmlns:inkscape="http://www.inkscape.org/namespaces/inkscape"
   id="Capa_1"
   enable-background="new 0 0 512 512"
   height="512"
   viewBox="0 0 512 512"
   width="512"
   version="1.1"
   sodipodi:docname="keyboard.svg"
   inkscape:version="0.92.4 (5da689c313, 2019-01-14)">
  <metadata
     id="metadata11">
    <rdf:RDF>
      <cc:Work
         rdf:about="">
        <dc:format>image/svg+xml</dc:format>
        <dc:type
           rdf:resource="http://purl.org/dc/dcmitype/StillImage" />
      </cc:Work>
    </rdf:RDF>
  </metadata>
  <defs
     id="defs9" />
  <sodipodi:namedview
     pagecolor="#ffffff"
     bordercolor="#666666"
     borderopacity="1"
     objecttolerance="10"
     gridtolerance="10"
     guidetolerance="10"
     inkscape:pageopacity="0"
     inkscape:pageshadow="2"
     inkscape:window-width="1920"
     inkscape:window-height="1043"
     id="namedview7"
     showgrid="false"
     inkscape:zoom="0.4609375"
     inkscape:cx="264.67797"
     inkscape:cy="251.66102"
     inkscape:window-x="0"
     inkscape:window-y="0"
     inkscape:window-maximized="1"
     inkscape:current-layer="Capa_1" />
  <g
     id="g4"
     transform="matrix(0.80427278,0,0,0.80427278,50.106168,50.106168)">
    <path
       d="M 0,128.531 V 383.469 H 512 V 128.531 Z m 304.734,48.735 h 30 v 30 h -30 z m 0,63.734 h 30 v 30 h -30 z M 241,177.266 h 30 v 30 H 241 Z M 241,241 h 30 v 30 h -30 z m -63.734,-63.734 h 30 v 30 h -30 z m 0,63.734 h 30 v 30 h -30 z m -63.735,-63.734 h 30 v 30 h -30 z m 0,63.734 h 30 v 30 h -30 z m -33.734,93.734 h -30 v -30 h 30 z m 0,-63.734 h -30 v -30 h 30 z m 0,-63.734 h -30 v -30 h 30 z m 255.871,127.468 h -223.07 v -30 h 223.07 z m 62.801,0 h -30 v -30 h 30 z m 0,-63.734 h -30 v -30 h 30 z m 63.734,63.734 h -30 v -30 h 30 z m 0,-63.734 h -30 v -30 h 30 z m 0.934,-63.734 h -95.602 v -30 h 95.602 z"
       id="path2"
       inkscape:connector-curvature="0" />
  </g>
</svg>
