<?xml version="1.0" encoding="UTF-8" standalone="no"?>
<svg
   width="40"
   height="40"
   viewBox="0 0 40 40"
   fill="none"
   version="1.1"
   id="svg10"
   sodipodi:docname="link.svg"
   inkscape:version="1.2.2 (b0a8486541, 2022-12-01)"
   xmlns:inkscape="http://www.inkscape.org/namespaces/inkscape"
   xmlns:sodipodi="http://sodipodi.sourceforge.net/DTD/sodipodi-0.dtd"
   xmlns="http://www.w3.org/2000/svg"
   xmlns:svg="http://www.w3.org/2000/svg"
   xmlns:rdf="http://www.w3.org/1999/02/22-rdf-syntax-ns#"
   xmlns:cc="http://creativecommons.org/ns#"
   xmlns:dc="http://purl.org/dc/elements/1.1/">
  <metadata
     id="metadata16">
    <rdf:RDF>
      <cc:Work
         rdf:about="">
        <dc:format>image/svg+xml</dc:format>
        <dc:type
           rdf:resource="http://purl.org/dc/dcmitype/StillImage" />
      </cc:Work>
    </rdf:RDF>
  </metadata>
  <defs
     id="defs14" />
  <sodipodi:namedview
     pagecolor="#ffffff"
     bordercolor="#666666"
     borderopacity="1"
     objecttolerance="10"
     gridtolerance="10"
     guidetolerance="10"
     inkscape:pageopacity="0"
     inkscape:pageshadow="2"
     inkscape:window-width="1920"
     inkscape:window-height="1007"
     id="namedview12"
     showgrid="false"
     inkscape:zoom="6.6875"
     inkscape:cx="24.598131"
     inkscape:cy="23.401869"
     inkscape:window-x="0"
     inkscape:window-y="0"
     inkscape:window-maximized="1"
     inkscape:current-layer="g856"
     inkscape:document-rotation="0"
     inkscape:showpageshadow="2"
     inkscape:pagecheckerboard="0"
     inkscape:deskcolor="#d1d1d1" />
  <g
     id="g852"
     transform="matrix(1.02771,0,0,1.02771,12.80603,3.2997351)">
    <g
       id="g845">
      <g
         id="g946"
         transform="matrix(1.1068674,0,0,1.1068674,-4.3700102,0.59730058)">
        <g
           id="g956"
           transform="translate(-0.1089101)">
          <g
             id="g856"
             transform="translate(-9.3002896,6.5397795)">
            <g
               id="g894"
               transform="matrix(1.3253129,0,0,1.3253129,-1.0447037,-2.7683684)">
              <path
                 d="m 20.528182,-1.3176008 c 0.757865,-0.7578467 1.98657,-0.7578467 2.744434,0 l 1.372173,1.37219068 c 0.757777,0.75783795 0.757777,1.98653462 0,2.74437252 l -6.17491,6.1748405 c -0.757777,0.7578643 -1.986482,0.7578643 -2.744347,0 l -0.68613,-0.6860426 -1.372173,1.3721731 0.68613,0.6860426 c 1.515641,1.515729 3.973052,1.515729 5.488781,0 l 6.174822,-6.1748229 c 1.515641,-1.5156759 1.515641,-3.97307799 0,-5.4887539 l -1.372173,-1.3721907 c -1.515728,-1.5156812 -3.973139,-1.5156812 -5.48878,0 l -3.430477,3.43046793 1.372174,1.37219067 z"
                 fill="#000000"
                 id="path2"
                 style="stroke-width:0.879091" />
              <path
                 d="m 10.922865,16.520887 c -0.757838,0.757776 -1.9865346,0.757776 -2.7443725,0 L 6.8063018,15.148714 c -0.7578467,-0.757865 -0.757838,-1.98657 0,-2.744434 L 12.981151,6.2294567 c 0.757812,-0.7578643 1.986517,-0.7578643 2.744381,0 l 0.686131,0.6860426 1.372173,-1.3721731 -0.68613,-0.6860777 c -1.515641,-1.5156759 -3.973052,-1.5156759 -5.488746,0 L 5.4341111,11.032107 c -1.5156812,1.51564 -1.5156812,3.973051 0,5.48878 l 1.3721907,1.372173 c 1.5156759,1.515641 3.9730782,1.515641 5.4887542,0 l 3.430476,-3.430477 -1.372173,-1.372173 z"
                 fill="#000000"
                 id="path4"
                 style="stroke-width:0.879091" />
            </g>
          </g>
        </g>
      </g>
    </g>
  </g>
</svg>
