<?xml version="1.0" encoding="UTF-8" standalone="no"?>
<svg
   xmlns:dc="http://purl.org/dc/elements/1.1/"
   xmlns:cc="http://creativecommons.org/ns#"
   xmlns:rdf="http://www.w3.org/1999/02/22-rdf-syntax-ns#"
   xmlns:svg="http://www.w3.org/2000/svg"
   xmlns="http://www.w3.org/2000/svg"
   xmlns:sodipodi="http://sodipodi.sourceforge.net/DTD/sodipodi-0.dtd"
   xmlns:inkscape="http://www.inkscape.org/namespaces/inkscape"
   version="1.1"
   id="Calque_1"
   x="0px"
   y="0px"
   viewBox="0 0 800 800"
   style="enable-background:new 0 0 800 800;"
   xml:space="preserve"
   sodipodi:docname="linto-studio-logo-no-text.svg"
   inkscape:version="1.0.2 (e86c870879, 2021-01-15)"><metadata
   id="metadata47"><rdf:RDF><cc:Work
       rdf:about=""><dc:format>image/svg+xml</dc:format><dc:type
         rdf:resource="http://purl.org/dc/dcmitype/StillImage" /><dc:title></dc:title></cc:Work></rdf:RDF></metadata><defs
   id="defs45" /><sodipodi:namedview
   pagecolor="#ffffff"
   bordercolor="#666666"
   borderopacity="1"
   objecttolerance="10"
   gridtolerance="10"
   guidetolerance="10"
   inkscape:pageopacity="0"
   inkscape:pageshadow="2"
   inkscape:window-width="1835"
   inkscape:window-height="983"
   id="namedview43"
   showgrid="false"
   inkscape:zoom="0.7274361"
   inkscape:cx="487.57371"
   inkscape:cy="325.66321"
   inkscape:window-x="1685"
   inkscape:window-y="27"
   inkscape:window-maximized="1"
   inkscape:current-layer="g40" />
<style
   type="text/css"
   id="style2">
	.st0{fill:#1DAF92;}
	.st1{opacity:0.5;fill:#07634B;}
	.st2{fill:#151515;}
</style>
<g
   id="g40">
	
	
	
	
	<g
   id="g63"
   transform="matrix(1.2546777,0,0,1.2546777,-102.47726,-27.653918)"><path
     class="st0"
     d="M 414.8,42.3 C 229.4,33.8 76.1,187.9 85.7,373.3 c 5.7,109.5 67.3,204.3 156.9,256.1 0,0 0.1,0 0.1,0 L 322,491.8 c -46.4,-26.9 -77.6,-77.2 -77.6,-134.7 0,-85.9 69.7,-155.6 155.6,-155.6 85.9,0 155.6,69.7 155.6,155.6 0,57.5 -31.2,107.7 -77.6,134.7 l 79.4,137.5 c 0,0 0.1,0 0.1,0 94,-54.4 157.3,-156.1 157.3,-272.6 0,-168.8 -133,-306.6 -300,-314.4 z"
     id="path4" /><g
     id="g8">
		<path
   class="st0"
   d="m 415.8,343.8 c 0,1.7 1.5,3.1 3.4,3.1 16.1,0 33,-1.8 43.9,-5.7 v 21.5 c 0,0.8 0,1.5 0,2.3 -1.9,0.8 -4.3,1.6 -7.6,2.5 -9.6,2.4 -22.5,3.8 -36.2,3.8 -1.9,0 -3.4,1.4 -3.4,3.1 0,1.7 1.5,3.1 3.4,3.1 15.8,0 32.3,-1.8 43.2,-5.5 -4.5,30.7 -30.9,54.5 -62.5,54.5 -31.6,0 -58,-23.8 -62.5,-54.5 10.9,3.7 27.4,5.5 43.2,5.5 1.9,0 3.4,-1.4 3.4,-3.1 0,-1.7 -1.5,-3.1 -3.4,-3.1 -13.7,0 -26.6,-1.3 -36.2,-3.8 -3.3,-0.8 -5.7,-1.7 -7.6,-2.5 0,-0.8 0,-1.5 0,-2.3 v -21.5 c 10.9,3.9 27.8,5.7 43.9,5.7 1.9,0 3.4,-1.4 3.4,-3.1 0,-1.7 -1.5,-3.1 -3.4,-3.1 -13.7,0 -26.6,-1.3 -36.2,-3.8 -3.3,-0.8 -5.8,-1.7 -7.6,-2.5 v -23.8 c 10.9,3.9 27.8,5.7 43.9,5.7 1.9,0 3.4,-1.4 3.4,-3.1 0,-1.7 -1.5,-3.1 -3.4,-3.1 -13.7,0 -26.6,-1.3 -36.2,-3.8 -3.2,-0.8 -5.7,-1.6 -7.5,-2.4 2,-33.3 29.6,-59.9 63,-59.9 17.4,0 33.2,7.2 44.6,18.8 10.6,10.7 17.5,25.2 18.4,41.1 -1.9,0.8 -4.3,1.6 -7.5,2.4 -9.6,2.4 -22.5,3.8 -36.2,3.8 -1.9,0 -3.4,1.4 -3.4,3.1 0,1.7 1.5,3.1 3.4,3.1 16.1,0 33,-1.8 43.9,-5.7 v 23.8 c -1.9,0.8 -4.4,1.7 -7.6,2.5 -9.6,2.4 -22.5,3.8 -36.2,3.8 -2.2,-0.1 -3.8,1.3 -3.8,3.1 z"
   id="path6" />
	</g><path
     class="st0"
     d="m 506.2,367.2 c 0,-0.2 0,-0.3 0,-0.5 0,-6.2 -4.9,-11.2 -11,-11.2 -6.1,0 -11,5 -11,11.2 0,0.1 0,0.2 0,0.3 v 0 c -1.1,46.4 -38.3,83.6 -84.2,83.6 -45.9,0 -83.1,-37.2 -84.2,-83.6 v 0 c 0,-0.1 0,-0.2 0,-0.3 0,-6.2 -4.9,-11.2 -11,-11.2 -6.1,0 -11,5 -11,11.2 0,0.2 0,0.3 0,0.5 1.1,55.9 44,101.4 98.2,105.5 v 44.5 h -25.1 l -0.8,1.5 -62.8,110.6 h 193.5 l -62.4,-109.9 -1.3,-2.3 H 408 v -44.5 c 54.2,-3.9 97.1,-49.4 98.2,-105.4 z"
     id="path10" /><polygon
     class="st1"
     points="366.9,517.3 392,517.3 392,593.4 "
     id="polygon12" /><polygon
     class="st1"
     points="433,517.2 408,517.2 408,593.4 "
     id="polygon14" /></g>
	
</g>
</svg>
