<?xml version="1.0" encoding="UTF-8" standalone="no"?>
<!-- Generator: Adobe Illustrator 23.1.0, SVG Export Plug-In . SVG Version: 6.00 Build 0)  -->

<svg
   version="1.1"
   id="Calque_1"
   x="0px"
   y="0px"
   viewBox="0 0 300 300"
   style="enable-background:new 0 0 300 300;"
   xml:space="preserve"
   sodipodi:docname="linto.svg"
   inkscape:version="1.2.2 (b0a8486541, 2022-12-01)"
   xmlns:inkscape="http://www.inkscape.org/namespaces/inkscape"
   xmlns:sodipodi="http://sodipodi.sourceforge.net/DTD/sodipodi-0.dtd"
   xmlns="http://www.w3.org/2000/svg"
   xmlns:svg="http://www.w3.org/2000/svg"><defs
   id="defs55" /><sodipodi:namedview
   id="namedview53"
   pagecolor="#ffffff"
   bordercolor="#000000"
   borderopacity="0.25"
   inkscape:showpageshadow="2"
   inkscape:pageopacity="0.0"
   inkscape:pagecheckerboard="0"
   inkscape:deskcolor="#d1d1d1"
   showgrid="false"
   inkscape:zoom="2.0529667"
   inkscape:cx="127.37664"
   inkscape:cy="161.23009"
   inkscape:window-width="1920"
   inkscape:window-height="1007"
   inkscape:window-x="0"
   inkscape:window-y="0"
   inkscape:window-maximized="1"
   inkscape:current-layer="g50" />
<style
   type="text/css"
   id="style2">
	.st0{fill:#4BB9EA;}
	.st1{fill:#020202;}
	.st2{display:none;}
	.st3{display:inline;fill:#333333;}
	.st4{display:inline;}
	.st5{fill:#333333;}
	.st6{fill:#374A54;}
</style>
<g
   id="g50">
	<g
   id="g36"
   transform="matrix(1.4358874,0,0,1.4358874,-65.37151,-15.728904)">
		<g
   id="g34">
			<g
   id="g16">
				<path
   class="st0"
   d="m 222.4,190 c 0,-0.1 0,-0.1 0,0 19.6,-18.8 31.5,-45.4 31.5,-74.6 C 253.9,58 207.4,11.5 150,11.5 92.6,11.5 46.1,58 46.1,115.4 c 0,57.4 46.5,103.9 103.9,103.9 1.1,0 2.3,0 3.4,-0.1 l 81.7,0.2 c -8.8,-5.9 -16.8,-16.7 -12.7,-29.4 z"
   id="path4" />
				<g
   id="g14">
					<g
   id="g10">
						<path
   class="st1"
   d="m 129.9,111 c 0,5.9 -4.8,10.6 -10.6,10.6 -5.9,0 -10.6,-4.8 -10.6,-10.6 0,-5.9 4.8,-10.6 10.6,-10.6 5.8,-0.1 10.6,4.7 10.6,10.6 z"
   id="path6" />
						<path
   class="st1"
   d="m 191.4,111 c 0,5.9 -4.8,10.6 -10.6,10.6 -5.9,0 -10.6,-4.8 -10.6,-10.6 0,-5.9 4.8,-10.6 10.6,-10.6 5.8,-0.1 10.6,4.7 10.6,10.6 z"
   id="path8" />
					</g>
					<path
   class="st1"
   d="m 149.4,161.8 c -6.4,0 -12.6,-0.9 -16.6,-3 -3,-1.6 -4.2,-5.2 -2.7,-8.1 1.6,-3 5.2,-4.2 8.1,-2.7 4.3,2.2 18.5,2.1 23.5,-0.1 3,-1.4 6.6,0 8,3 1.4,3 0,6.6 -3,8 -3.9,1.9 -10.5,2.9 -17.3,2.9 z"
   id="path12" />
				</g>
			</g>
			<g
   class="st2"
   id="g32">
				<path
   class="st3"
   d="m 183.6,238.5 v 7.6 h -12.2 v 32.5 h -9.1 v -32.5 h -12.2 v -7.6 z"
   id="path18" />
				<g
   class="st4"
   id="g26">
					<path
   class="st5"
   d="m 73.2,238.5 h 9.1 V 271 h 18.5 v 7.6 H 73.2 Z"
   id="path20" />
					<path
   class="st5"
   d="m 105.8,249.6 h 9.1 v 29.2 h -9.1 z"
   id="path22" />
					<path
   class="st5"
   d="m 120.5,249.6 h 9.1 v 4.2 l 0.1,0.1 c 1,-1.6 2.2,-3 3.8,-3.8 1.6,-0.9 3.3,-1.4 5.3,-1.4 10.2,0 12.9,6.6 12.9,10 v 20.1 h -9.1 V 261 c 0,-2.2 -0.6,-3.9 -1.5,-5 -0.9,-1 -2.3,-1.6 -4.2,-1.6 -2.1,0 -3.8,0.7 -5.2,2.2 -1.4,1.5 -1.8,4.1 -1.8,6.2 v 15.9 h -9.5 v -29.1 z"
   id="path24" />
				</g>
				<path
   class="st3"
   d="m 220.5,273.7 c -4.2,4.1 -9.2,6 -15.3,6 -6,0 -11.2,-2 -15.3,-6 -4.2,-4.1 -6.3,-9 -6.3,-15 0,-6 2.1,-11.1 6.3,-15 4.2,-3.9 9.2,-6 15.3,-6 6,0 11.2,2 15.3,6 4.2,4.1 6.3,9 6.3,15 0,5.9 -2.1,11 -6.3,15 z m -3,-15 c 0,-3.7 -1.2,-6.8 -3.6,-9.4 -2.3,-2.6 -5.3,-3.9 -8.7,-3.9 -3.4,0 -6.4,1.4 -8.7,3.9 -2.3,2.6 -3.6,5.7 -3.6,9.4 0,3.7 1.2,6.8 3.6,9.4 2.3,2.6 5.3,3.8 8.7,3.8 3.4,0 6.4,-1.2 8.7,-3.8 2.5,-2.7 3.6,-5.8 3.6,-9.4 z"
   id="path28" />
				<path
   class="st3"
   d="m 115.3,241.2 c 0,2.7 -2.2,4.9 -4.9,4.9 -2.7,0 -4.9,-2.2 -4.9,-4.9 0,-2.7 2.2,-4.9 4.9,-4.9 2.8,0 4.9,2.2 4.9,4.9 z"
   id="path30" />
			</g>
		</g>
	</g>
	
</g>
</svg>
