<?xml version="1.0" encoding="UTF-8" standalone="no"?>
<svg
   width="655.86"
   height="506.44"
   viewBox="0 0 655.86 506.44"
   version="1.1"
   id="svg658"
   sodipodi:docname="lsf-hello.svg"
   inkscape:version="1.2.2 (b0a8486541, 2022-12-01)"
   xmlns:inkscape="http://www.inkscape.org/namespaces/inkscape"
   xmlns:sodipodi="http://sodipodi.sourceforge.net/DTD/sodipodi-0.dtd"
   xmlns="http://www.w3.org/2000/svg"
   xmlns:svg="http://www.w3.org/2000/svg">
  <defs
     id="defs662" />
  <sodipodi:namedview
     id="namedview660"
     pagecolor="#ffffff"
     bordercolor="#000000"
     borderopacity="0.25"
     inkscape:showpageshadow="2"
     inkscape:pageopacity="0.0"
     inkscape:pagecheckerboard="0"
     inkscape:deskcolor="#d1d1d1"
     showgrid="false"
     inkscape:zoom="1.2161164"
     inkscape:cx="352.76228"
     inkscape:cy="214.61761"
     inkscape:window-width="1920"
     inkscape:window-height="1007"
     inkscape:window-x="0"
     inkscape:window-y="0"
     inkscape:window-maximized="1"
     inkscape:current-layer="svg658" />
  <polygon
     points="398.94,198.22 382,203.79 382,179.4 397.37,179.4 "
     fill="#f2a7aa"
     stroke-width="0"
     id="polygon632"
     transform="matrix(1.3010702,0,0,1.3010702,4.4489573,-166.44067)" />
  <circle
     cx="504.19009"
     cy="53.7915"
     r="21.962065"
     fill="#f2a7aa"
     stroke-width="0"
     id="circle634" />
  <path
     d="m 510.214,51.618697 c -3.68203,-0.117096 -6.08901,-3.825146 -7.52019,-7.22094 -1.43118,-3.395793 -2.90139,-7.285993 -6.31019,-8.691149 -2.78429,-1.144942 -7.70234,6.596426 -9.91416,4.527725 -2.28988,-2.146766 -0.052,-13.179842 2.38096,-15.170479 2.433,-1.990638 5.76374,-2.367948 8.89932,-2.511066 7.6503,-0.351289 15.35263,0.260214 22.85981,1.834509 4.64482,0.962792 9.41974,2.419991 12.7635,5.776752 4.24148,4.2545 5.32137,10.681787 5.63363,16.67972 0.31226,6.141052 -0.039,12.568339 -3.03149,17.941759 -2.99247,5.37342 -9.2376,9.341684 -15.22253,7.96255 -0.59849,-3.252676 0,-6.596426 0.24721,-9.901145 0.23419,-3.304718 0,-6.86965 -2.02967,-9.510823 -2.02967,-2.641173 -6.3232,-3.669018 -8.67814,-1.340102"
     fill="#36344e"
     stroke-width="0"
     id="path636" />
  <path
     d="m 537.23722,59.229958 c 2.19881,-1.613327 4.82697,-2.953429 7.5332,-2.628162 2.92741,0.351289 5.38643,2.758269 6.14105,5.607613 0.75462,2.849344 -0.0911,5.984923 -1.89956,8.313839 -1.80849,2.328915 -4.48869,3.864178 -7.33804,4.63181 -1.63935,0.442364 -3.44783,0.624514 -5.00912,-0.03903 -2.3159,-0.988814 -3.55192,-3.942243 -2.65418,-6.29718"
     fill="#36344e"
     stroke-width="0"
     id="path638" />
  <rect
     x="495.577"
     y="444.5159"
     width="20.647984"
     height="29.287092"
     fill="#f2a7aa"
     stroke-width="0"
     id="rect640" />
  <path
     d="m 475.46241,491.53656 c -2.17279,0 -4.09837,-0.052 -5.55557,-0.18215 -5.49052,-0.50741 -10.72082,-4.55374 -13.34898,-6.92169 -1.18398,-1.06688 -1.56129,-2.75827 -0.94978,-4.21547 v 0 c 0.44236,-1.05386 1.32709,-1.83451 2.41999,-2.14676 l 14.49392,-4.13741 23.47131,-15.83402 0.26021,0.46838 c 0.10409,0.16914 2.40698,4.31956 3.17461,7.12987 0.29925,1.06688 0.22118,1.9516 -0.23419,2.64117 -0.31226,0.4814 -0.74161,0.75462 -1.0929,0.91075 0.42935,0.44236 1.75645,1.3401 5.85482,2.00365 5.98492,0.94978 7.24696,-5.25633 7.299,-5.51654 l 0.039,-0.20817 0.18215,-0.1171 c 2.84935,-1.83451 4.60579,-2.66719 5.20428,-2.48504 0.37731,0.1171 1.01484,0.29925 2.70623,17.20015 0.16914,0.53344 1.36612,4.42364 0.54645,8.13169 -0.88473,4.04632 -18.55326,2.65418 -22.07916,2.32891 -0.10409,0 -13.33597,0.94978 -22.39142,0.94978 z"
     fill="#36344e"
     stroke-width="0"
     id="path642" />
  <rect
     x="244.20618"
     y="661.92529"
     width="20.647984"
     height="29.287092"
     transform="rotate(-31.95)"
     fill="#f2a7aa"
     stroke-width="0"
     id="rect644" />
  <path
     d="m 551.74416,487.51626 c -2.41999,0 -4.64482,-0.28624 -6.23213,-0.57247 -1.56128,-0.27323 -2.78429,-1.50925 -3.03149,-3.08354 v 0 c -0.18215,-1.11892 0.15613,-2.25085 0.91075,-3.09655 l 10.10931,-11.17619 11.52748,-25.85227 0.46839,0.26022 c 0.18215,0.0911 4.33256,2.39397 6.46632,4.37159 0.81967,0.75462 1.223,1.54828 1.20999,2.36795 0,0.57247 -0.22118,1.02785 -0.44236,1.35311 0.59849,0.15613 2.19881,0.20818 6.02396,-1.40515 5.58159,-2.35494 3.36977,-8.28782 3.26568,-8.53502 l -0.0781,-0.19516 0.0911,-0.19516 c 1.44419,-3.07053 2.48505,-4.69687 3.09655,-4.86601 0.37731,-0.10408 1.01483,-0.27322 11.39737,13.15382 0.42936,0.35129 3.49988,3.0315 4.77493,6.60944 1.39215,3.90321 -14.33779,12.06092 -17.49939,13.66124 -0.0911,0.0781 -16.56263,12.04791 -23.31518,15.4437 -2.68021,1.35311 -5.85482,1.76946 -8.74319,1.76946 v 0 z"
     fill="#36344e"
     stroke-width="0"
     id="path646" />
  <path
     d="m 531.42144,199.56339 h -57.80655 l -5.24331,53.77323 22.95088,198.68644 h 29.50827 l -11.80071,-114.75439 47.86638,103.60422 26.22957,-18.3581 -37.37975,-96.72156 c 0,0 13.34898,-84.25731 2.86236,-105.24358 -10.48663,-20.98626 -17.18714,-20.98626 -17.18714,-20.98626 z"
     fill="#36344e"
     stroke-width="0"
     id="path648" />
  <polygon
     points="427.13,283.83 356.57,283.83 377.74,192.6 408.48,192.6 "
     fill="#6c63ff"
     stroke-width="0"
     id="polygon650"
     transform="matrix(1.3010702,0,0,1.3010702,4.4489573,-166.44067)" />
  <path
     id="uuid-7f4403b9-21a6-4777-8daf-6db0c322735b-89-44-52-44-91-153-48-48-105-61-458"
     d="m 408.9552,85.838653 c -5.3408,-5.077323 -6.91097,-12.02721 -3.529,-15.501055 3.39263,-3.4813 10.45932,-2.180945 15.80009,2.896378 2.15874,1.999419 3.79049,4.493974 4.75043,7.299173 l 22.32007,21.815211 -10.94114,10.53275 -20.83991,-22.627145 c -2.85898,-0.843575 -5.45091,-2.349863 -7.56054,-4.415312 z"
     fill="#f2a7aa"
     stroke-width="0" />
  <path
     d="M 514.83279,84.145453 H 495.91523 L 484.74555,132.23279 440.59276,89.551751 423.63317,103.2871 c 0,0 52.59293,65.3367 70.02244,50.95523 17.42953,-14.38146 35.65812,-58.199813 21.17718,-70.096877 z"
     fill="#6c63ff"
     stroke-width="0"
     id="path653"
     sodipodi:nodetypes="cccccsc" />
  <path
     id="uuid-4f4c8d73-174a-4aab-b932-a11e56a3b943-90-45-53-45-92-154-49-49-106-62-459"
     d="m 574.33074,265.02024 c 1.47021,7.22094 -1.22301,13.81736 -5.98493,14.72811 -4.77492,0.91075 -9.82308,-4.20246 -11.29329,-11.4234 -0.62451,-2.87536 -0.53344,-5.85481 0.28624,-8.70416 l -5.80277,-30.66622 15.00134,-2.36795 4.12439,30.48408 c 1.86053,2.32891 3.12257,5.04815 3.66902,7.94954 z"
     fill="#f2a7aa"
     stroke-width="0" />
  <path
     d="m 514.83279,84.145453 c 0,0 20.0495,-0.845696 21.09035,0 5.4645,4.475682 37.5619,165.678277 37.5619,165.678277 H 553.16232 L 514.84581,84.145453 v 0 z"
     fill="#6c63ff"
     stroke-width="0"
     id="path656" />
  <path
     sodipodi:type="star"
     style="fill:#292929;stroke:none;stroke-width:1.75;stroke-linecap:round;stroke-linejoin:round;stroke-miterlimit:50;stroke-dasharray:1.75, 5.25;stroke-dashoffset:0;stroke-opacity:1;paint-order:fill markers stroke"
     id="path5130"
     inkscape:flatsided="false"
     sodipodi:sides="3"
     sodipodi:cx="305.69556"
     sodipodi:cy="174.57935"
     sodipodi:r1="4.1169133"
     sodipodi:r2="2.0584567"
     sodipodi:arg1="1.5354806"
     sodipodi:arg2="2.5826781"
     inkscape:rounded="0"
     inkscape:randomized="0"
     d="m 305.84092,178.69369 -1.89059,-3.02281 -1.89058,-3.02282 3.56313,-0.12589 3.56312,-0.12588 -1.67254,3.1487 z"
     inkscape:transform-center-x="4.9683084"
     inkscape:transform-center-y="-3.3900389"
     transform="matrix(0.41016306,1.5809749,-1.783502,0.36358674,614.35866,-471.2635)" />
  <path
     style="fill:none;fill-opacity:1;stroke:#6d6d6d;stroke-width:6.50535;stroke-linecap:round;stroke-linejoin:round;stroke-miterlimit:50;stroke-dasharray:3.25268, 13.0107;stroke-dashoffset:2.60214;stroke-opacity:1;paint-order:fill markers stroke"
     id="path12761"
     sodipodi:type="arc"
     sodipodi:cx="-393.16592"
     sodipodi:cy="291.04797"
     sodipodi:rx="77.029678"
     sodipodi:ry="70.820869"
     sodipodi:start="0.24061441"
     sodipodi:end="0.89274215"
     sodipodi:arc-type="arc"
     d="m -318.35534,307.92454 a 77.029678,70.820869 0 0 1 -26.4915,38.27836"
     sodipodi:open="true"
     transform="rotate(-126.55262)" />
  <path
     d="m 119.45866,17.693471 c 0.0134,0.04476 0.0272,0.08406 0.0406,0.128848 a 2.1050123,2.0454096 0 0 1 0.0751,0.262666 7.2610451,7.0554512 0 0 1 0.26828,1.754125 7.121149,6.9195162 0 0 1 -0.0199,0.758963 7.3472147,7.1391809 0 0 1 -0.14284,0.963308 7.0697972,6.8696184 0 0 1 -0.3064,1.038754 5.1869582,5.0400913 0 0 1 -0.20021,0.472146 7.6580305,7.441196 0 0 1 -5.26751,4.217785 l -0.005,-4.17e-4 a 3.3136092,3.2197856 0 0 1 -0.3431,0.06766 7.6005186,7.3853126 0 0 1 -1.95006,0.0968 l -0.0113,-8.24e-4 a 7.6005632,7.385356 0 0 1 -4.31964,-1.713892 c -0.74684,-0.602208 -0.82839,-1.238275 -1.76078,-0.956073 -2.97429,0.900233 -4.96142,-3.862584 -3.47484,-6.471442 a 2.7329467,2.6555643 0 0 1 0.0118,-0.29459 c 0.14244,-1.82224 2.96577,-2.286787 4.61227,-3.25399 l 0.008,0.03227 a 1.4430457,1.4021864 0 0 0 2.72332,0.189849 q 0.45132,-1.057022 0.81956,-2.142967 c 3.15567,-2.2088 11.58701,1.24237 9.2431,4.85104 z"
     fill="#2f2e41"
     id="path56149"
     style="stroke-width:0.880038" />
  <path
     d="m 139.24617,34.22995 c 0.42965,0.972903 13.67747,0.868648 14.28421,1.734971 4.67809,6.688314 -12.18548,35.145506 -7.50741,41.842516 l 0.65172,0.75471 a 30.795988,29.924011 0 0 1 -4.38347,-2.40293 c -0.12498,-2.74126 -0.24997,-5.49118 -0.38388,-8.23244 a 23.286139,22.6268 0 0 0 -3.3568,5.73408 c -1.08917,-0.74604 -1.98267,-2.129 -6.65109,-4.84924 a 29.278361,28.449355 0 0 0 -6.46948,-5.17474 z"
     fill="#2f2e41"
     id="path56151"
     style="stroke-width:0.880038" />
  <path
     d="m 129.62617,89.044517 a 10.972113,10.661441 0 0 1 16.62281,6.30649 l 20.13196,50.970393 34.60457,-19.08962 a 10.713381,10.410035 0 1 1 6.68408,10.35407 c -7.28744,7.55753 -38.88104,38.54348 -51.96057,26.43653 -10.99399,-10.17647 -26.85963,-49.61679 -30.67877,-63.23634 a 10.973256,10.662552 0 0 1 4.59592,-11.741523 z"
     fill="#a0616a"
     id="path56153"
     style="stroke-width:0.880038" />
  <polygon
     points="612.656,487.69 629.596,487.69 629.594,531.961 618.117,531.96 "
     fill="#a0616a"
     id="polygon56215"
     transform="matrix(-0.89276387,0,0,0.8674856,681.52863,12.147818)" />
  <path
     d="m 150.37727,488.30661 a 4.3584019,4.2349953 0 0 1 -4.3308,4.21656 h -19.28925 l -0.59765,-1.20353 -2.7284,-5.47057 -1.05668,5.47057 -0.23391,1.20353 h -7.27565 l 0.10393,-1.21196 1.94018,-22.60618 2.53782,-0.15148 10.96548,-0.63121 2.69377,-0.15992 v 6.7499 c 2.04416,2.11249 18.08534,10.09951 17.27116,13.79429 z"
     fill="#2f2e41"
     id="path56217"
     style="stroke-width:0.880038" />
  <polygon
     points="554.141,486.885 570.127,481.28 584.775,523.056 573.944,526.854 "
     fill="#a0616a"
     id="polygon56219"
     transform="matrix(-0.89276387,0,0,0.8674856,681.52863,12.147818)" />
  <path
     d="m 183.64409,489.6996 a 4.3584108,4.235004 0 0 1 -5.5228,2.58639 l -18.20241,-6.20263 -0.15409,-1.32788 -0.71153,-6.0397 -2.86028,4.82256 -0.63058,1.06051 -6.86572,-2.33955 0.51083,-1.11024 9.5299,-20.70857 2.44642,0.67311 10.56261,2.93036 2.59646,0.71531 -2.29882,6.36956 c 1.20947,2.6508 13.62665,15.346 11.60001,18.57077 z"
     fill="#2f2e41"
     id="path56221"
     style="stroke-width:0.880038" />
  <polygon
     points="635.004,214.407 639.786,186.401 575.852,177.536 582.968,209.7 "
     fill="#a0616a"
     id="polygon56223"
     transform="matrix(-0.89276387,0,0,0.8674856,681.52863,12.147818)" />
  <path
     d="m 111.51845,185.76198 52.27655,-0.84828 1.12423,14.8288 40.36901,117.91298 7.17309,28.99051 -20.56057,107.64182 -34.81766,-0.0214 c 0,0 0.72243,-28.27996 2.11212,-29.45194 1.3897,-1.17197 4.2904,0.0176 2.13969,-6.02143 -2.15071,-6.03904 -3.73794,-7.98954 -1.19343,-10.41695 2.54452,-2.42741 5.62122,-0.39117 3.73269,-6.17303 -1.88853,-5.78185 -17.29648,-84.72346 -17.29648,-84.72346 v 141.53105 h -35.82324 c 0,0 -7.49994,-6.65725 -4.04779,-10.12421 3.45215,-3.46696 6.25363,-4.14749 3.45218,-8.91121 -2.80145,-4.76372 -8.88059,-3.56341 -3.73993,-9.60782 4.0841,-4.80211 -5.68594,-137.22928 -9.874456,-191.46101 a 57.905969,56.266382 0 0 1 13.415836,-40.41259 v 0 z"
     fill="#2f2e41"
     id="path56225"
     style="stroke-width:0.880038" />
  <path
     d="M 138.4341,75.724321 115.31099,74.365037 104.5709,93.730811 c 0,0 -17.917966,3.649732 -16.517216,30.822809 1.40074,27.17305 22.297026,51.22309 22.297026,51.22309 l -0.99114,-3.87757 1.72135,5.61266 -0.22074,3.15153 -2.34823,3.3376 -0.24178,3.45167 2.08054,5.46116 -2.8293,5.22904 59.48449,-6.5765 2.17519,-9.04225 -3.17313,-4.8556 1.77241,-6.33331 -2.66459,-6.09159 -1.38941,-1.32157 c 0,0 15.20076,-26.06011 -2.24925,-45.68821 l -7.00361,-13.58653 -7.83645,-10.910204 z"
     fill="#6c63ff"
     id="path56227"
     style="fill:#cccccc;fill-opacity:1;stroke-width:0.95369"
     sodipodi:nodetypes="cccscccccccccccccccccc" />
  <ellipse
     cx="-132.67914"
     cy="44.482094"
     fill="#a0616a"
     id="circle56229"
     rx="21.927111"
     ry="21.306253"
     transform="scale(-1,1)"
     style="stroke-width:0.880038" />
  <path
     d="m 116.02536,75.175277 a 10.560201,10.261192 0 0 0 3.53536,-5.63865 22.689166,22.04673 0 0 1 -0.31247,8.05026 c 1.18737,0.86749 2.33903,1.6916 3.4282,2.43764 a 23.286291,22.626948 0 0 1 3.3568,-5.73408 c 0.13391,2.74125 0.2589,5.49118 0.38389,8.23244 a 30.795819,29.923846 0 0 0 4.38347,2.40293 l -0.65172,-0.75471 c -4.67808,-6.69699 7.4278,-19.02396 2.74971,-25.71228 -1.31236,-1.873764 4.6156,-16.681743 9.13298,-17.349707 4.01744,-0.58989 3.84782,0.537841 7.74026,1.361952 a 19.478117,18.926601 0 0 1 1.86588,-4.693097 15.958574,15.506713 0 0 0 0.15177,4.944668 c 1.38379,0.05205 2.47249,-0.804706 3.94602,-1.023633 9.4008,-1.396652 8.44554,-11.277261 5.82974,-14.408936 -2.62472,-3.122948 -11.33809,-4.059832 -15.35553,-5.074791 -0.36604,-0.346994 -1.19631,-0.130122 -1.56234,-0.459767 -7.6992,-6.846647 -17.99634,-7.980512 -27.26286,-4.945926 a 16.85398,16.376766 0 0 0 -2.41911,1.023069 c -7.86526,4.004817 -14.59669,9.517098 -14.10808,18.13228 0.22886,4.035109 1.1715,4.663203 0,6.939885 -0.28747,0.55866 2.2312,5.818833 -2.009076,6.379359 -4.24028,0.560525 -2.32817,3.741508 -3.34751,4.897953 -3.94912,4.480191 10.203126,17.547321 20.524616,20.993141 z"
     fill="#2f2e41"
     id="path56231"
     style="stroke-width:0.880038" />
  <path
     d="m 87.97564,183.14344 0.8659,-62.15213 c 0.09393,-5.47847 5.924191,0.10029 5.924191,0.10029 l 4.342101,-3.12927 c 0,0 11.820398,-2.02235 11.489558,3.71953 l -3.04707,64.53544 -0.0579,39.28606 c 8.1723,3.19396 7.54857,14.05182 -0.94142,16.43477 -8.489999,2.38295 -15.574972,-6.31124 -10.721802,-13.16117 z"
     fill="#a0616a"
     id="path56241"
     style="stroke-width:0.859709"
     sodipodi:nodetypes="ccsscccscc" />
  <rect
     style="fill:#cccccc;fill-opacity:1;stroke:none;stroke-width:4.95932;stroke-linecap:round;stroke-linejoin:round;stroke-miterlimit:50;stroke-dasharray:none;stroke-dashoffset:2;stroke-opacity:1;paint-order:fill markers stroke"
     id="rect60514"
     width="25.307699"
     height="96.004677"
     x="87.975639"
     y="106.93479"
     ry="12.61482" />
  <rect
     style="fill:#cccccc;fill-opacity:1;stroke:none;stroke-width:5;stroke-linecap:round;stroke-linejoin:round;stroke-miterlimit:50;stroke-dasharray:none;stroke-dashoffset:2;stroke-opacity:1;paint-order:fill markers stroke"
     id="rect62020"
     width="19.545731"
     height="22.71689"
     x="87.975639"
     y="183.14343"
     ry="0" />
</svg>
