<?xml version="1.0" encoding="UTF-8" standalone="no"?>
<svg
   xmlns:dc="http://purl.org/dc/elements/1.1/"
   xmlns:cc="http://creativecommons.org/ns#"
   xmlns:rdf="http://www.w3.org/1999/02/22-rdf-syntax-ns#"
   xmlns:svg="http://www.w3.org/2000/svg"
   xmlns="http://www.w3.org/2000/svg"
   xmlns:sodipodi="http://sodipodi.sourceforge.net/DTD/sodipodi-0.dtd"
   xmlns:inkscape="http://www.inkscape.org/namespaces/inkscape"
   width="40"
   height="40"
   viewBox="0 0 40 40"
   fill="none"
   version="1.1"
   id="svg10"
   sodipodi:docname="merge-turn.svg"
   inkscape:version="1.0.2 (e86c870879, 2021-01-15)">
  <metadata
     id="metadata16">
    <rdf:RDF>
      <cc:Work
         rdf:about="">
        <dc:format>image/svg+xml</dc:format>
        <dc:type
           rdf:resource="http://purl.org/dc/dcmitype/StillImage" />
        <dc:title />
      </cc:Work>
    </rdf:RDF>
  </metadata>
  <defs
     id="defs14" />
  <sodipodi:namedview
     pagecolor="#ffffff"
     bordercolor="#666666"
     borderopacity="1"
     objecttolerance="10"
     gridtolerance="10"
     guidetolerance="10"
     inkscape:pageopacity="0"
     inkscape:pageshadow="2"
     inkscape:window-width="1920"
     inkscape:window-height="1043"
     id="namedview12"
     showgrid="false"
     inkscape:zoom="6.6875"
     inkscape:cx="24.401508"
     inkscape:cy="23.368983"
     inkscape:window-x="1920"
     inkscape:window-y="0"
     inkscape:window-maximized="1"
     inkscape:current-layer="g856"
     inkscape:document-rotation="0" />
  <g
     id="g852"
     transform="matrix(1.02771,0,0,1.02771,12.80603,3.2997351)">
    <g
       id="g845">
      <g
         id="g946"
         transform="matrix(1.1068674,0,0,1.1068674,-4.3700102,0.59730058)">
        <g
           id="g956"
           transform="translate(-0.1089101)">
          <g
             id="g856"
             transform="translate(-9.3002896,6.5397795)">
            <g
               id="g894"
               transform="matrix(0.8939681,0,0,0.8939681,1.3347472,0.18191811)">
              <path
                 d="m 20.528182,-1.3176008 c 0.757865,-0.7578467 1.98657,-0.7578467 2.744434,0 l 1.372173,1.37219068 c 0.757777,0.75783795 0.757777,1.98653462 0,2.74437252 l -6.17491,6.1748405 c -0.757777,0.7578643 -1.986482,0.7578643 -2.744347,0 l -0.68613,-0.6860426 -1.372173,1.3721731 0.68613,0.6860426 c 1.515641,1.515729 3.973052,1.515729 5.488781,0 l 6.174822,-6.1748229 c 1.515641,-1.5156759 1.515641,-3.97307799 0,-5.4887539 l -1.372173,-1.3721907 c -1.515728,-1.5156812 -3.973139,-1.5156812 -5.48878,0 l -3.430477,3.43046793 1.372174,1.37219067 z"
                 fill="#000000"
                 id="path2"
                 style="stroke-width:0.879091" />
              <path
                 d="m 10.922865,16.520887 c -0.757838,0.757776 -1.9865346,0.757776 -2.7443725,0 L 6.8063018,15.148714 c -0.7578467,-0.757865 -0.757838,-1.98657 0,-2.744434 L 12.981151,6.2294567 c 0.757812,-0.7578643 1.986517,-0.7578643 2.744381,0 l 0.686131,0.6860426 1.372173,-1.3721731 -0.68613,-0.6860777 c -1.515641,-1.5156759 -3.973052,-1.5156759 -5.488746,0 L 5.4341111,11.032107 c -1.5156812,1.51564 -1.5156812,3.973051 0,5.48878 l 1.3721907,1.372173 c 1.5156759,1.515641 3.9730782,1.515641 5.4887542,0 l 3.430476,-3.430477 -1.372173,-1.372173 z"
                 fill="#000000"
                 id="path4"
                 style="stroke-width:0.879091" />
            </g>
            <path
               fill-rule="evenodd"
               clip-rule="evenodd"
               d="m 34.022431,12.179221 c 0.258209,0.336595 0.205824,0.827774 -0.116865,1.097126 l -4.490135,3.746557 c -0.273257,0.228111 -0.661666,0.228111 -0.934923,0 l -4.490134,-3.746557 c -0.32269,-0.269352 -0.375075,-0.760531 -0.116866,-1.097126 0.258209,-0.336596 0.729101,-0.391171 1.051886,-0.121914 l 3.274236,2.732102 V 2.7353011 c 0,-0.4310787 0.335072,-0.7805325 0.748339,-0.7805325 0.413268,0 0.74834,0.3494538 0.74834,0.7805325 V 14.789409 l 3.274236,-2.732102 c 0.322785,-0.269257 0.793677,-0.214682 1.051886,0.121914 z"
               fill="#000000"
               id="path6"
               style="stroke-width:0.95245" />
          </g>
        </g>
      </g>
    </g>
  </g>
</svg>
