<?xml version="1.0" encoding="UTF-8" standalone="no"?>
<svg
   xmlns:dc="http://purl.org/dc/elements/1.1/"
   xmlns:cc="http://creativecommons.org/ns#"
   xmlns:rdf="http://www.w3.org/1999/02/22-rdf-syntax-ns#"
   xmlns:svg="http://www.w3.org/2000/svg"
   xmlns="http://www.w3.org/2000/svg"
   xmlns:sodipodi="http://sodipodi.sourceforge.net/DTD/sodipodi-0.dtd"
   xmlns:inkscape="http://www.inkscape.org/namespaces/inkscape"
   width="15"
   height="14"
   viewBox="0 0 15 14"
   fill="none"
   version="1.1"
   id="svg8"
   sodipodi:docname="plus-rounded.svg"
   inkscape:version="0.92.4 (5da689c313, 2019-01-14)">
  <metadata
     id="metadata14">
    <rdf:RDF>
      <cc:Work
         rdf:about="">
        <dc:format>image/svg+xml</dc:format>
        <dc:type
           rdf:resource="http://purl.org/dc/dcmitype/StillImage" />
        <dc:title></dc:title>
      </cc:Work>
    </rdf:RDF>
  </metadata>
  <defs
     id="defs12" />
  <sodipodi:namedview
     pagecolor="#ffffff"
     bordercolor="#666666"
     borderopacity="1"
     objecttolerance="10"
     gridtolerance="10"
     guidetolerance="10"
     inkscape:pageopacity="0"
     inkscape:pageshadow="2"
     inkscape:window-width="1920"
     inkscape:window-height="1016"
     id="namedview10"
     showgrid="false"
     inkscape:zoom="16.857143"
     inkscape:cx="7.6186441"
     inkscape:cy="7"
     inkscape:window-x="0"
     inkscape:window-y="27"
     inkscape:window-maximized="1"
     inkscape:current-layer="svg8" />
  <g
     id="g824"
     transform="matrix(0.75847458,0,0,0.75847458,1.9650761,1.6906779)">
    <path
       id="path2"
       d="M 7.29744,1.4 C 4.21346,1.4 1.71339,3.90721 1.71339,7 c 0,3.0928 2.50007,5.6 5.58405,5.6 3.08396,0 5.58406,-2.5072 5.58406,-5.6 0,-3.09279 -2.5001,-5.6 -5.58406,-5.6 z M 0.317383,7 c 0,-3.86599 3.125077,-7 6.980057,-7 3.85496,0 6.98006,3.13401 6.98006,7 0,3.866 -3.1251,7 -6.98006,7 C 3.44246,14 0.317383,10.866 0.317383,7 Z"
       inkscape:connector-curvature="0"
       style="clip-rule:evenodd;fill:#333333;fill-rule:evenodd" />
    <path
       id="path4"
       d="m 7.29741,3.88892 c 0.42833,0 0.77556,0.34822 0.77556,0.77777 v 4.66667 c 0,0.42956 -0.34723,0.77774 -0.77556,0.77774 -0.42833,0 -0.77556,-0.34818 -0.77556,-0.77774 V 4.66669 c 0,-0.42955 0.34723,-0.77777 0.77556,-0.77777 z"
       inkscape:connector-curvature="0"
       style="clip-rule:evenodd;fill:#333333;fill-rule:evenodd" />
    <path
       id="path6"
       d="m 4.19531,6.99995 c 0,-0.42956 0.34723,-0.77778 0.77556,-0.77778 h 4.65338 c 0.42835,0 0.77555,0.34822 0.77555,0.77778 0,0.42955 -0.3472,0.77777 -0.77555,0.77777 H 4.97087 c -0.42833,0 -0.77556,-0.34822 -0.77556,-0.77777 z"
       inkscape:connector-curvature="0"
       style="clip-rule:evenodd;fill:#333333;fill-rule:evenodd" />
  </g>
</svg>
