<svg width="20" height="20" viewBox="0 0 20 20" fill="none" xmlns="http://www.w3.org/2000/svg">
<path fill-rule="evenodd" clip-rule="evenodd" d="M17.629 5.12003C17.1997 5.46745 16.57 5.40104 16.2226 4.97171C14.7544 3.15726 12.5127 2 10 2C5.58172 2 2 5.58172 2 10C2 10.5523 1.55228 11 0.999998 11C0.447713 11 -2.3686e-06 10.5523 -2.34446e-06 10C-2.10305e-06 4.47715 4.47715 -5.91104e-07 10 -3.49693e-07C13.1418 -2.12359e-07 15.9457 1.45007 17.7774 3.71362C18.1248 4.14295 18.0584 4.77262 17.629 5.12003Z" fill="#FEB11D"/>
<path fill-rule="evenodd" clip-rule="evenodd" d="M17.5 -4.37114e-08C18.0523 -1.95703e-08 18.5 0.447715 18.5 1L18.5 5C18.5 5.55228 18.0523 6 17.5 6L13.5 6C12.9477 6 12.5 5.55228 12.5 5C12.5 4.44772 12.9477 4 13.5 4L16.5 4L16.5 1C16.5 0.447715 16.9477 -6.78525e-08 17.5 -4.37114e-08Z" fill="#FEB11D"/>
<path fill-rule="evenodd" clip-rule="evenodd" d="M2.37096 14.88C2.80029 14.5326 3.42996 14.599 3.77737 15.0283C5.24562 16.8427 7.4873 18 10 18C14.4183 18 18 14.4183 18 10C18 9.44772 18.4477 9 19 9C19.5523 9 20 9.44772 20 10C20 15.5229 15.5229 20 10 20C6.85818 20 4.05429 18.5499 2.22263 16.2864C1.87522 15.8571 1.94163 15.2274 2.37096 14.88Z" fill="#FEB11D"/>
<path fill-rule="evenodd" clip-rule="evenodd" d="M2.5 20C1.94772 20 1.5 19.5523 1.5 19L1.5 15C1.5 14.4477 1.94772 14 2.5 14L6.5 14C7.05229 14 7.5 14.4477 7.5 15C7.5 15.5523 7.05229 16 6.5 16L3.5 16L3.5 19C3.5 19.5523 3.05228 20 2.5 20Z" fill="#FEB11D"/>
</svg>
