<?xml version="1.0" encoding="UTF-8" standalone="no"?>
<svg
   width="20"
   height="20"
   viewBox="0 0 20 20"
   fill="none"
   version="1.1"
   id="svg10"
   sodipodi:docname="reload.svg"
   inkscape:version="1.2.2 (b0a8486541, 2022-12-01)"
   xmlns:inkscape="http://www.inkscape.org/namespaces/inkscape"
   xmlns:sodipodi="http://sodipodi.sourceforge.net/DTD/sodipodi-0.dtd"
   xmlns="http://www.w3.org/2000/svg"
   xmlns:svg="http://www.w3.org/2000/svg">
  <defs
     id="defs14" />
  <sodipodi:namedview
     id="namedview12"
     pagecolor="#ffffff"
     bordercolor="#000000"
     borderopacity="0.25"
     inkscape:showpageshadow="2"
     inkscape:pageopacity="0.0"
     inkscape:pagecheckerboard="0"
     inkscape:deskcolor="#d1d1d1"
     showgrid="false"
     inkscape:zoom="37.15"
     inkscape:cx="9.986541"
     inkscape:cy="11.117093"
     inkscape:window-width="1920"
     inkscape:window-height="1007"
     inkscape:window-x="0"
     inkscape:window-y="0"
     inkscape:window-maximized="1"
     inkscape:current-layer="svg10" />
  <path
     fill-rule="evenodd"
     clip-rule="evenodd"
     d="M 16.930787,5.6323283 C 16.540777,5.9432762 15.968708,5.8838379 15.653102,5.4995789 14.319273,3.8756095 12.282735,2.8398385 9.9999999,2.8398385 5.9860846,2.8398385 2.7321667,6.0455502 2.7321667,10 c 0,0.494319 -0.4067443,0.89502 -0.908481,0.89502 -0.5017394,0 -0.90847945,-0.400701 -0.90847943,-0.89502 2.2e-7,-4.9430623 4.06739953,-8.9502025 9.08479363,-8.9502022 2.8542601,1e-7 5.4015441,1.2978422 7.0656051,3.3237652 0.315607,0.3842589 0.255283,0.9478263 -0.134818,1.2587653 z"
     fill="#feb11d"
     id="path2"
     style="stroke-width:0.901725" />
  <path
     fill-rule="evenodd"
     clip-rule="evenodd"
     d="m 16.813593,1.049798 c 0.501754,1e-7 0.908479,0.400714 0.908479,0.8950202 V 5.524899 c 0,0.4943018 -0.406725,0.8950202 -0.908479,0.8950202 h -3.633916 c -0.501753,0 -0.908479,-0.4007184 -0.908479,-0.8950202 0,-0.4943017 0.406726,-0.8950202 0.908479,-0.8950202 h 2.725438 V 1.9448182 c 0,-0.4943062 0.406725,-0.8950202 0.908478,-0.8950202 z"
     fill="#feb11d"
     id="path4"
     style="stroke-width:0.901725" />
  <path
     fill-rule="evenodd"
     clip-rule="evenodd"
     d="m 3.0691761,14.367699 c 0.3900373,-0.310931 0.9620794,-0.251501 1.2776942,0.132731 1.3338744,1.623925 3.370394,2.659732 5.6531296,2.659732 4.0139331,0 7.2678331,-3.205695 7.2678331,-7.160162 0,-0.4943018 0.406726,-0.8950202 0.90848,-0.8950202 0.501752,0 0.908478,0.4007184 0.908478,0.8950202 0,4.943107 -4.067351,8.950202 -9.0847911,8.950202 -2.854278,0 -5.4015535,-1.297869 -7.0655785,-3.323747 -0.3156147,-0.384232 -0.2552827,-0.947827 0.1347547,-1.258756 z"
     fill="#feb11d"
     id="path6"
     style="stroke-width:0.901725" />
  <path
     fill-rule="evenodd"
     clip-rule="evenodd"
     d="m 3.1864063,18.950202 c -0.5017349,0 -0.9084792,-0.4007 -0.9084792,-0.89502 v -3.580081 c 0,-0.49432 0.4067443,-0.89502 0.9084792,-0.89502 h 3.6339166 c 0.501744,0 0.9084791,0.4007 0.9084791,0.89502 0,0.49432 -0.4067351,0.89502 -0.9084791,0.89502 H 4.0948854 v 2.685061 c 0,0.49432 -0.4067442,0.89502 -0.9084791,0.89502 z"
     fill="#feb11d"
     id="path8"
     style="stroke-width:0.901725" />
</svg>
