<?xml version="1.0" encoding="UTF-8" standalone="no"?>
<svg
   xmlns:dc="http://purl.org/dc/elements/1.1/"
   xmlns:cc="http://creativecommons.org/ns#"
   xmlns:rdf="http://www.w3.org/1999/02/22-rdf-syntax-ns#"
   xmlns:svg="http://www.w3.org/2000/svg"
   xmlns="http://www.w3.org/2000/svg"
   xmlns:sodipodi="http://sodipodi.sourceforge.net/DTD/sodipodi-0.dtd"
   xmlns:inkscape="http://www.inkscape.org/namespaces/inkscape"
   width="20"
   height="20"
   viewBox="0 0 20 20"
   fill="none"
   version="1.1"
   id="svg4"
   sodipodi:docname="search.svg"
   inkscape:version="0.92.4 (5da689c313, 2019-01-14)">
  <metadata
     id="metadata10">
    <rdf:RDF>
      <cc:Work
         rdf:about="">
        <dc:format>image/svg+xml</dc:format>
        <dc:type
           rdf:resource="http://purl.org/dc/dcmitype/StillImage" />
      </cc:Work>
    </rdf:RDF>
  </metadata>
  <defs
     id="defs8" />
  <sodipodi:namedview
     pagecolor="#ffffff"
     bordercolor="#666666"
     borderopacity="1"
     objecttolerance="10"
     gridtolerance="10"
     guidetolerance="10"
     inkscape:pageopacity="0"
     inkscape:pageshadow="2"
     inkscape:window-width="1920"
     inkscape:window-height="1016"
     id="namedview6"
     showgrid="false"
     inkscape:zoom="11.8"
     inkscape:cx="10.169492"
     inkscape:cy="10"
     inkscape:window-x="0"
     inkscape:window-y="27"
     inkscape:window-maximized="1"
     inkscape:current-layer="svg4" />
  <path
     d="m 9.309331,4.4745881 c -2.6701527,0 -4.8347431,2.1645905 -4.8347431,4.8347432 0,2.6701587 2.1645904,4.8347427 4.8347431,4.8347427 1.335287,0 2.543006,-0.540386 3.418647,-1.416096 0.87571,-0.875641 1.416096,-2.08336 1.416096,-3.4186467 0,-2.6701527 -2.164584,-4.8347432 -4.834743,-4.8347432 z M 3.0932327,9.3093313 c 0,-3.4330545 2.7830439,-6.2160983 6.2160983,-6.2160983 3.433082,0 6.216098,2.7830438 6.216098,6.2160983 0,1.4674127 -0.509167,2.8168587 -1.359322,3.8799497 l 2.538378,2.538448 c 0.26971,0.269709 0.26971,0.707046 0,0.976756 -0.269709,0.269709 -0.707047,0.269709 -0.976756,0 l -2.538447,-2.538378 c -1.063092,0.850155 -2.412537,1.359322 -3.879951,1.359322 -3.4330544,0 -6.2160983,-2.783016 -6.2160983,-6.2160977 z"
     id="path2"
     inkscape:connector-curvature="0"
     style="clip-rule:evenodd;fill:#292929;fill-rule:evenodd;stroke-width:0.69067758" />
</svg>
