<?xml version="1.0" encoding="UTF-8" standalone="no"?>
<svg
   xmlns:dc="http://purl.org/dc/elements/1.1/"
   xmlns:cc="http://creativecommons.org/ns#"
   xmlns:rdf="http://www.w3.org/1999/02/22-rdf-syntax-ns#"
   xmlns:svg="http://www.w3.org/2000/svg"
   xmlns="http://www.w3.org/2000/svg"
   xmlns:sodipodi="http://sodipodi.sourceforge.net/DTD/sodipodi-0.dtd"
   xmlns:inkscape="http://www.inkscape.org/namespaces/inkscape"
   width="30"
   height="30"
   viewBox="0 0 30 30"
   fill="none"
   version="1.1"
   id="svg4"
   sodipodi:docname="send-mail.svg"
   inkscape:version="1.0.2 (e86c870879, 2021-01-15)">
  <metadata
     id="metadata10">
    <rdf:RDF>
      <cc:Work
         rdf:about="">
        <dc:format>image/svg+xml</dc:format>
        <dc:type
           rdf:resource="http://purl.org/dc/dcmitype/StillImage" />
        <dc:title></dc:title>
      </cc:Work>
    </rdf:RDF>
  </metadata>
  <defs
     id="defs8" />
  <sodipodi:namedview
     pagecolor="#ffffff"
     bordercolor="#666666"
     borderopacity="1"
     objecttolerance="10"
     gridtolerance="10"
     guidetolerance="10"
     inkscape:pageopacity="0"
     inkscape:pageshadow="2"
     inkscape:window-width="1920"
     inkscape:window-height="1016"
     id="namedview6"
     showgrid="false"
     inkscape:zoom="12.105668"
     inkscape:cx="4.8301708"
     inkscape:cy="17.136717"
     inkscape:window-x="0"
     inkscape:window-y="27"
     inkscape:window-maximized="1"
     inkscape:current-layer="svg4" />
  <path
     fill-rule="evenodd"
     clip-rule="evenodd"
     d="M 3.4125589,11.672103 C 1.6213801,9.2372578 3.1963262,5.7816146 6.2089803,5.5364232 L 23.160977,4.1567712 c 3.24679,-0.2642387 5.34128,3.3636517 3.489075,6.0432938 L 16.97926,24.191146 c -1.71864,2.486383 -5.49877,2.122542 -6.711856,-0.646094 L 7.499556,17.227754 Z m 6.8492441,5.446838 2.363011,5.393258 c 0.404359,0.922848 1.664372,1.044128 2.237222,0.215334 L 24.532919,8.7365162 C 25.150321,7.8433052 24.452066,6.6340047 23.369894,6.722091 L 6.4178518,8.101743 C 5.4136369,8.1834674 4.8886484,9.3353545 5.4857083,10.146969 l 3.4891763,4.743001 6.8036744,-3.928085 c 0.615476,-0.355362 1.40256,-0.144455 1.757875,0.471067 0.355407,0.615523 0.144565,1.402588 -0.471003,1.757903 z"
     fill="#292929"
     id="path2"
     style="stroke-width:0.916706" />
</svg>
