<svg width="20" height="20" viewBox="0 0 20 20" fill="none" xmlns="http://www.w3.org/2000/svg">
<path fill-rule="evenodd" clip-rule="evenodd" d="M10 2C5.58172 2 2 5.58172 2 10C2 14.4183 5.58172 18 10 18C14.4183 18 18 14.4183 18 10C18 5.58172 14.4183 2 10 2ZM0 10C0 4.47715 4.47715 0 10 0C15.5228 0 20 4.47715 20 10C20 15.5228 15.5228 20 10 20C4.47715 20 0 15.5228 0 10Z" fill="#1DAF92"/>
<path fill-rule="evenodd" clip-rule="evenodd" d="M13.7071 7.29302C14.0976 7.68354 14.0976 8.3167 13.7071 8.70723L9.70711 12.7072C9.31658 13.0978 8.68342 13.0978 8.29289 12.7072L6.29289 10.7072C5.90237 10.3167 5.90237 9.68354 6.29289 9.29302C6.68342 8.90249 7.31658 8.90249 7.70711 9.29302L9 10.5859L12.2929 7.29302C12.6834 6.90249 13.3166 6.90249 13.7071 7.29302Z" fill="#1DAF92"/>
</svg>
