<svg width="20" height="20" viewBox="0 0 20 20" fill="none" xmlns="http://www.w3.org/2000/svg">
<path fill-rule="evenodd" clip-rule="evenodd" d="M10 2C5.58172 2 2 5.58172 2 10C2 14.4183 5.58172 18 10 18C14.4183 18 18 14.4183 18 10C18 5.58172 14.4183 2 10 2ZM0 10C0 4.47715 4.47715 0 10 0C15.5228 0 20 4.47715 20 10C20 15.5228 15.5228 20 10 20C4.47715 20 0 15.5228 0 10Z" fill="#FF4F4F"/>
<path fill-rule="evenodd" clip-rule="evenodd" d="M12.7071 7.29304C13.0976 7.68357 13.0976 8.31673 12.7071 8.70726L8.70711 12.7073C8.31659 13.0978 7.68342 13.0978 7.2929 12.7073C6.90237 12.3167 6.90237 11.6836 7.2929 11.293L11.2929 7.29304C11.6834 6.90252 12.3166 6.90252 12.7071 7.29304Z" fill="#FF4F4F"/>
<path fill-rule="evenodd" clip-rule="evenodd" d="M7.29289 7.29304C7.68342 6.90252 8.31658 6.90252 8.70711 7.29304L12.7071 11.293C13.0976 11.6836 13.0976 12.3167 12.7071 12.7073C12.3166 13.0978 11.6834 13.0978 11.2929 12.7073L7.29289 8.70726C6.90237 8.31673 6.90237 7.68357 7.29289 7.29304Z" fill="#FF4F4F"/>
</svg>
