<?xml version="1.0" encoding="UTF-8" standalone="no"?>
<svg
   data-name="Layer 1"
   width="634.30979"
   height="664.89511"
   viewBox="0 0 634.30979 664.89511"
   version="1.1"
   id="svg61"
   sodipodi:docname="subtitle_default.svg"
   inkscape:version="1.2.2 (b0a8486541, 2022-12-01)"
   xmlns:inkscape="http://www.inkscape.org/namespaces/inkscape"
   xmlns:sodipodi="http://sodipodi.sourceforge.net/DTD/sodipodi-0.dtd"
   xmlns="http://www.w3.org/2000/svg"
   xmlns:svg="http://www.w3.org/2000/svg">
  <defs
     id="defs65" />
  <sodipodi:namedview
     id="namedview63"
     pagecolor="#ffffff"
     bordercolor="#000000"
     borderopacity="0.25"
     inkscape:showpageshadow="2"
     inkscape:pageopacity="0.0"
     inkscape:pagecheckerboard="0"
     inkscape:deskcolor="#d1d1d1"
     showgrid="false"
     showguides="true"
     inkscape:zoom="0.70710678"
     inkscape:cx="175.36248"
     inkscape:cy="277.18586"
     inkscape:window-width="1904"
     inkscape:window-height="995"
     inkscape:window-x="26"
     inkscape:window-y="23"
     inkscape:window-maximized="0"
     inkscape:current-layer="svg61">
    <sodipodi:guide
       position="-1411.0723,334.7276"
       orientation="0,-1"
       id="guide902"
       inkscape:locked="false" />
    <sodipodi:guide
       position="327.86,206.71199"
       orientation="1,0"
       id="guide904"
       inkscape:locked="false" />
  </sodipodi:namedview>
  <circle
     cx="433.50052"
     cy="372.29169"
     r="13.08937"
     fill="#6c63ff"
     id="circle2"
     style="fill:#11977c;fill-opacity:1" />
  <path
     d="m 543.82317,401.27607 h -119.5141 a 3.89775,3.89775 0 1 1 0,-7.7955 h 119.5141 a 3.89775,3.89775 0 1 1 0,7.7955 z"
     fill="#e6e6e6"
     id="path4" />
  <path
     d="m 453.99274,416.67802 h -29.68367 a 3.89794,3.89794 0 1 1 0,-7.79588 h 29.68367 a 3.89794,3.89794 0 1 1 0,7.79588 z"
     fill="#e6e6e6"
     id="path6" />
  <path
     d="M 450.91215,280.84907 H 182.90201 a 8.07557,8.07557 0 0 1 -8.06636,-8.06636 V 67.915127 a 8.07531,8.07531 0 0 1 8.06636,-8.066 h 268.01014 a 8.07531,8.07531 0 0 1 8.06635,8.066 V 272.78271 a 8.07557,8.07557 0 0 1 -8.06635,8.06636 z"
     fill="#ffffff"
     id="path8" />
  <path
     d="M 450.91196,281.84907 H 182.90224 a 9.077,9.077 0 0 1 -9.0664,-9.06641 V 67.914987 a 9.07652,9.07652 0 0 1 9.0664,-9.06591 h 268.00972 a 9.07653,9.07653 0 0 1 9.06641,9.06591 V 272.78266 a 9.077,9.077 0 0 1 -9.06641,9.06641 z M 182.90219,60.849077 a 7.07423,7.07423 0 0 0 -7.0664,7.06591 V 272.78266 a 7.07434,7.07434 0 0 0 7.0664,7.06641 h 268.00977 a 7.07435,7.07435 0 0 0 7.06641,-7.06641 V 67.914987 a 7.07424,7.07424 0 0 0 -7.06641,-7.06591 z"
     fill="#f0f0f0"
     id="path10" />
  <path
     d="m 175.4547,241.84907 v 30.93379 a 7.45828,7.45828 0 0 0 7.44716,7.44716 H 450.9123 a 7.45828,7.45828 0 0 0 7.44716,-7.44716 v -30.93379 z"
     fill="#f0f0f0"
     id="path12" />
  <rect
     x="42.462891"
     y="182.86571"
     width="1.99962"
     height="333.5596"
     transform="rotate(-57.37135)"
     fill="#f0f0f0"
     id="rect14" />
  <polygon
     points="347.518,650.023 360.408,650.022 366.54,600.305 347.516,600.306 "
     fill="#ffb6b6"
     id="polygon30"
     transform="translate(4.5343517,-61.245083)" />
  <path
     d="m 348.76476,584.56947 3.628,-1.5e-4 14.16443,-5.76035 7.59171,5.75947 h 10e-4 a 16.17765,16.17765 0 0 1 16.17679,16.17653 v 0.52568 l -41.56122,0.002 z"
     fill="#2f2e41"
     id="path32" />
  <polygon
     points="231.053,633.265 242.589,639.014 270.256,597.254 253.229,588.768 "
     fill="#ffb6b6"
     id="polygon34"
     transform="translate(4.5343517,-61.245083)" />
  <path
     d="m 234.52186,566.78658 3.24711,1.61832 15.24662,1.16328 4.22518,8.54127 9.2e-4,4.6e-4 a 16.17765,16.17765 0 0 1 7.26169,21.69415 l -0.23451,0.47048 -37.19735,-18.53893 z"
     fill="#2f2e41"
     id="path36" />
  <path
     d="m 357.76348,362.98116 -81.95531,2.138 1.42531,39.90868 c 0,0 -1.42531,10.68982 1.42531,13.54044 2.85062,2.85062 4.27593,2.85062 2.85062,7.8392 -1.42531,4.98858 -5.11017,52.65285 -5.11017,52.65285 0,0 -33.63678,59.47561 -32.21147,60.90092 1.42531,1.42531 2.85062,0 1.42531,3.56328 -1.42531,3.56328 -2.85062,2.138 -1.42531,3.56327 a 52.48759,52.48759 0 0 1 3.56328,4.27593 h 23.23 c 0,0 1.29906,-7.12655 1.29906,-7.8392 0,-0.71265 1.4253,-4.98859 1.4253,-5.70124 0,-0.71265 40.58611,-43.71363 40.58611,-43.71363 l 8.55186,-71.26549 20.667,69.84018 c 0,0 0,61.28832 1.42531,62.71363 1.42531,1.42531 1.42531,0.71265 0.71266,3.56327 -0.71265,2.85062 -3.56328,2.138 -1.42531,4.27593 2.13797,2.13793 2.85062,-1.42531 2.138,2.138 l -0.71265,3.56327 27.37964,0.30583 c 0,0 2.85062,-6.00707 1.42531,-8.145 -1.42531,-2.13793 -1.33979,-1.55437 0.39909,-5.05312 1.73888,-3.49875 2.45153,-4.21139 1.73888,-4.924 -0.71265,-0.71261 -0.71266,-4.50319 -0.71266,-4.50319 0,0 -10.27593,-140.16575 -10.27593,-142.30372 a 7.10838,7.10838 0 0 1 0.592,-3.20606 v -2.902 l -2.73,-10.283 z"
     fill="#2f2e41"
     id="path38" />
  <circle
     cx="326.21994"
     cy="156.68237"
     r="53.641769"
     fill="#6c63ff"
     id="circle40"
     style="fill:#11977c;fill-opacity:1" />
  <path
     d="m 313.90324,181.77754 a 4.50007,4.50007 0 0 1 -2.1709,-0.56543 4.44151,4.44151 0 0 1 -2.333,-3.94385 v -37.17379 a 4.49981,4.49981 0 0 1 6.9126,-3.79834 l 35.26318,18.58691 a 4.50008,4.50008 0 0 1 0,7.59668 l -35.26318,18.58691 a 4.47852,4.47852 0 0 1 -2.4087,0.71091 z"
     fill="#ffffff"
     id="path42" />
  <path
     d="m 332.34563,228.06358 c 0,0 -27.39828,-2.73982 -29.22484,0 a 15.693,15.693 0 0 0 -1.82656,7.30618 c 0,0 -10.9593,4.56637 -12.78586,2.73981 -1.82656,-1.82656 -3.65312,-7.30618 -9.1328,-5.47967 -5.47968,1.82651 -15.97633,33.43043 -15.97633,33.43043 0,0 1,0 6.8435,29.58562 3.942,19.95818 3.28993,36.34929 3.72237,47.51069 0.0712,1.839 -2.61732,8.33964 -2.56587,9.90369 0.22921,6.968 3.05683,6.36909 3.40987,7.42823 0.91325,2.73981 -4.56637,19.17879 28.31153,19.17879 32.8779,0 56.62318,-1.8265 56.62318,-8.21943 0,-3.22372 3.33428,-5.11157 2.65542,-15.38759 -0.18634,-2.82066 -5.0465,-12.44739 -5.08158,-15.45081 a 110.5326,110.5326 0 0 1 0.43335,-11.61657 67.92559,67.92559 0 0 1 1.99281,-11.4284 c 5.47962,-20.0922 7.65542,-56.50422 7.65542,-56.50422 l -9,-18 -19.66083,-3.1242 c 0,0 -0.9131,-10.9593 -6.39278,-11.87255 z"
     fill="#3f3d56"
     id="path44" />
  <circle
     id="f9362fdd-3f27-4fec-a8e4-b8d11fe473ca"
     data-name="ab6171fa-7d69-4734-b81c-8dff60f9761b"
     cx="254.99297"
     cy="275.24481"
     r="23.721809"
     transform="rotate(-15.19079)"
     fill="#ffb6b6" />
  <path
     d="m 431.64215,561.99389 0.70716,-15.90017 a 51.3527,51.3527 0 0 1 23.9526,-6.06333 c -11.504,9.40539 -10.06637,27.53575 -17.86583,40.18378 a 30.8888,30.8888 0 0 1 -22.65105,14.27412 l -9.627,5.89429 a 51.75975,51.75975 0 0 1 10.90965,-41.9429 49.99669,49.99669 0 0 1 9.1885,-8.53763 c 2.30571,6.07961 5.38597,12.09184 5.38597,12.09184 z"
     fill="#f2f2f2"
     id="path47" />
  <path
     d="m 559.28471,602.09681 a 1.54861,1.54861 0 0 1 -1.5533,1.55322 H 139.68124 a 1.55322,1.55322 0 0 1 0,-3.10644 h 418.05017 a 1.54866,1.54866 0 0 1 1.5533,1.55322 z"
     fill="#cccccc"
     id="path49" />
  <path
     d="m 427.08733,367.29561 a 7.483,7.483 0 0 1 -7.52827,-8.65934 l -41.5299,-22.73929 12.15482,-6.57378 38.48558,23.11419 a 7.52355,7.52355 0 0 1 -1.58223,14.85822 z"
     fill="#ffb8b8"
     id="path51" />
  <path
     d="m 411.93834,355.48682 -31.72691,-11.6159 -14.27309,-13.3841 -3.54647,-1.80632 -12.22271,-8.57903 -0.0364,-0.10815 -19.42136,-57.4096 a 18.80383,18.80383 0 0 1 13.91456,-21.73705 v 0 a 18.78362,18.78362 0 0 1 23.1684,15.86033 l 6.25027,49.20255 18.36065,16.69953 4.53314,0.87774 1.04347,4.88131 20.95653,15.11869 z"
     fill="#3f3d56"
     id="path53" />
  <path
     d="m 287.53279,127.00782 a 7.483,7.483 0 0 1 -8.62167,7.57137 l -22.53182,41.64283 -6.63434,-12.12187 22.9219,-38.60042 a 7.52355,7.52355 0 0 1 14.86593,1.50809 z"
     fill="#ffb8b8"
     id="path55" />
  <path
     d="m 290.71343,243.08764 -14.12809,-20.55763 c 0,0 2.22128,0.13068 0.81394,-4.46968 -0.38308,-1.25224 -4.07807,-5.57294 -4.49726,-7.07092 -0.36946,-1.32028 -0.74728,-2.7281 -1.12348,-4.20952 -1.34891,-5.31193 -8.63657,-10.22344 -7.37926,-16.71956 6,-31 9,-37 9.92068,-41.96571 0,0 -5.21634,-19.33855 -13.68264,-7.39373 -8.4663,11.94482 -21.88513,42.30511 -18.33332,57.39144 3.55181,15.08633 17.129,64.30159 21.308,67.96187 4.179,3.66028 27.10143,-22.96656 27.10143,-22.96656 z"
     fill="#3f3d56"
     id="path57" />
  <path
     d="m 335.41624,170.75082 c -1.75666,-0.0522 -1.15363,-3.36334 -2.56891,-4.41962 q -0.0103,0.0481 -0.0214,0.0959 a 3.44963,3.44963 0 0 1 -6.59229,0.28125 5.24288,5.24288 0 0 0 -3.3288,-3.49219 c -0.0881,3.069 -2.4096,5.73267 -5.17907,7.05823 -2.76947,1.32556 -5.92725,1.54614 -8.99726,1.59155 a 39.70992,39.70992 0 0 0 -9.16125,0.69385 c -2.977,0.75122 -5.87268,2.51752 -7.14459,5.312 -1.272,2.7945 -0.36444,6.64191 2.41681,7.94251 -2.15461,0.0115 -3.98285,1.78943 -4.72785,3.81116 a 15.13305,15.13305 0 0 0 -0.46716,6.39465 c 0.60553,7.92572 2.08185,16.45868 7.85309,21.92462 4.39849,4.16583 10.69427,5.844 16.75232,5.81976 6.058,-0.0243 4.99285,-0.58111 10.85034,-2.12732 0,0 5.56885,-15.96453 4.16656,-17.535 -1.40228,-1.57043 -2.567,-3.58008 -2.31323,-5.67017 0.25377,-2.09009 2.49994,-3.9624 4.44922,-3.16674 -0.32776,-0.8379 -0.57471,-0.9975 -0.72937,-0.955 a 7.40881,7.40881 0 0 0 0.25757,-0.72833 8.28842,8.28842 0 0 1 5.17633,-5.48908 6.42778,6.42778 0 0 1 7.02551,2.12616 c 6.41389,-6.0153 2.4347,-19.16679 -7.71655,-19.46824 z"
     fill="#2f2e41"
     id="path59" />
</svg>
