<?xml version="1.0" encoding="UTF-8" standalone="no"?>
<svg
   width="48"
   height="49"
   viewBox="0 0 48 49"
   fill="none"
   version="1.1"
   id="svg4"
   sodipodi:docname="logo-text-linto.svg"
   inkscape:version="1.2.2 (b0a8486541, 2022-12-01)"
   xmlns:inkscape="http://www.inkscape.org/namespaces/inkscape"
   xmlns:sodipodi="http://sodipodi.sourceforge.net/DTD/sodipodi-0.dtd"
   xmlns="http://www.w3.org/2000/svg"
   xmlns:svg="http://www.w3.org/2000/svg">
  <defs
     id="defs8" />
  <sodipodi:namedview
     id="namedview6"
     pagecolor="#ffffff"
     bordercolor="#000000"
     borderopacity="0.25"
     inkscape:showpageshadow="2"
     inkscape:pageopacity="0.0"
     inkscape:pagecheckerboard="0"
     inkscape:deskcolor="#d1d1d1"
     showgrid="false"
     inkscape:zoom="17.77551"
     inkscape:cx="17.552239"
     inkscape:cy="24.528129"
     inkscape:window-width="1920"
     inkscape:window-height="1007"
     inkscape:window-x="0"
     inkscape:window-y="0"
     inkscape:window-maximized="1"
     inkscape:current-layer="svg4" />
  <path
     d="M31.3856 7.35693C35.9706 7.35693 37.6332 7.83432 39.3094 8.73076C40.9856 9.6272 42.3011 10.9427 43.1975 12.6189C44.0939 14.2951 44.5713 15.9577 44.5713 20.5426V28.457C44.5713 33.0419 44.0939 34.7045 43.1975 36.3807C42.3011 38.0569 40.9856 39.3724 39.3094 40.2688C37.6332 41.1653 35.9706 41.6426 31.3856 41.6426H16.6142C12.0292 41.6426 10.3666 41.1653 8.6904 40.2688C7.01421 39.3724 5.69873 38.0569 4.80229 36.3807C3.90586 34.7045 3.42847 33.0419 3.42847 28.457V20.5426C3.42847 15.9577 3.90586 14.2951 4.80229 12.6189C5.69873 10.9427 7.01421 9.6272 8.6904 8.73076C10.3666 7.83432 12.0292 7.35693 16.6142 7.35693H31.3856ZM31.8707 10.7871L16.6142 10.7855C12.9516 10.7855 11.6476 11.0373 10.3073 11.7541C9.22861 12.331 8.40255 13.1571 7.82565 14.2358C7.14142 15.5152 6.88089 16.7614 6.85862 20.0576L6.85704 28.457C6.85704 32.1196 7.10883 33.4235 7.82565 34.7638C8.40255 35.8425 9.22861 36.6686 10.3073 37.2455C11.6476 37.9623 12.9516 38.2141 16.6142 38.2141H31.3856C35.0482 38.2141 36.3521 37.9623 37.6925 37.2455C38.7712 36.6686 39.5972 35.8425 40.1741 34.7638C40.891 33.4235 41.1428 32.1196 41.1428 28.457V20.5426C41.1428 16.88 40.891 15.5761 40.1741 14.2358C39.5972 13.1571 38.7712 12.331 37.6925 11.7541C36.4131 11.0699 35.1668 10.8094 31.8707 10.7871ZM23.9999 27.9284C24.9467 27.9284 25.7142 28.6959 25.7142 29.6426C25.7142 30.5894 24.9467 31.3569 23.9999 31.3569H13.7142C12.7674 31.3569 11.9999 30.5894 11.9999 29.6426C11.9999 28.6959 12.7674 27.9284 13.7142 27.9284H23.9999ZM34.2856 27.9284C35.2324 27.9284 35.9999 28.6959 35.9999 29.6426C35.9999 30.5894 35.2324 31.3569 34.2856 31.3569H30.857C29.9103 31.3569 29.1428 30.5894 29.1428 29.6426C29.1428 28.6959 29.9103 27.9284 30.857 27.9284H34.2856ZM34.2856 21.0712C35.2324 21.0712 35.9999 21.8387 35.9999 22.7855C35.9999 23.7323 35.2324 24.4998 34.2856 24.4998H23.9999C23.0531 24.4998 22.2856 23.7323 22.2856 22.7855C22.2856 21.8387 23.0531 21.0712 23.9999 21.0712H34.2856ZM17.1428 21.0712C18.0895 21.0712 18.857 21.8387 18.857 22.7855C18.857 23.7323 18.0895 24.4998 17.1428 24.4998H13.7142C12.7674 24.4998 11.9999 23.7323 11.9999 22.7855C11.9999 21.8387 12.7674 21.0712 13.7142 21.0712H17.1428Z"
     fill="#00ACC9"
     id="path2"
     style="fill:#000000" />
</svg>
