<svg width="100" height="100" viewBox="0 0 100 100" fill="none" xmlns="http://www.w3.org/2000/svg">
<path fill-rule="evenodd" clip-rule="evenodd" d="M18 28.6429C18 26.631 19.6167 25 21.6111 25H79.3889C81.3832 25 83 26.631 83 28.6429C83 30.6548 81.3832 32.2857 79.3889 32.2857H21.6111C19.6167 32.2857 18 30.6548 18 28.6429ZM18 50.5C18 48.4881 19.6167 46.8571 21.6111 46.8571H77.7222C79.7166 46.8571 81.3333 48.4881 81.3333 50.5C81.3333 52.5119 79.7166 54.1429 77.7222 54.1429H21.6111C19.6167 54.1429 18 52.5119 18 50.5ZM18 72.3571C18 70.3452 19.6167 68.7143 21.6111 68.7143H36.0556C38.0499 68.7143 39.6667 70.3452 39.6667 72.3571C39.6667 74.369 38.0499 76 36.0556 76H21.6111C19.6167 76 18 74.369 18 72.3571Z" fill="#292929"/>
</svg>
