<?xml version="1.0" encoding="utf-8"?>
<!-- Generator: Adobe Illustrator 18.0.0, SVG Export Plug-In . SVG Version: 6.00 Build 0)  -->
<!DOCTYPE svg PUBLIC "-//W3C//DTD SVG 1.1//EN" "http://www.w3.org/Graphics/SVG/1.1/DTD/svg11.dtd">
<svg version="1.1" id="Calque_1" xmlns="http://www.w3.org/2000/svg" xmlns:xlink="http://www.w3.org/1999/xlink" x="0px" y="0px"
	 viewBox="0 0 30 30" enable-background="new 0 0 30 30" xml:space="preserve">
<path fill="#ED1C24" d="M22,20.6L16.4,15L22,9.4c0.2-0.2,0.2-0.5,0-0.7L21.3,8c-0.2-0.2-0.5-0.2-0.7,0L15,13.6L9.4,8
	C9.2,7.8,8.9,7.8,8.7,8L8,8.7C7.8,8.9,7.8,9.2,8,9.4l5.6,5.6L8,20.6c-0.2,0.2-0.2,0.5,0,0.7L8.7,22c0.2,0.2,0.5,0.2,0.7,0l5.6-5.6
	l5.6,5.6c0.2,0.2,0.5,0.2,0.7,0l0.7-0.7C22.2,21.1,22.2,20.8,22,20.6z"/>
</svg>
