<?xml version="1.0" encoding="UTF-8" standalone="no"?>
<svg
   xmlns:dc="http://purl.org/dc/elements/1.1/"
   xmlns:cc="http://creativecommons.org/ns#"
   xmlns:rdf="http://www.w3.org/1999/02/22-rdf-syntax-ns#"
   xmlns:svg="http://www.w3.org/2000/svg"
   xmlns="http://www.w3.org/2000/svg"
   xmlns:sodipodi="http://sodipodi.sourceforge.net/DTD/sodipodi-0.dtd"
   xmlns:inkscape="http://www.inkscape.org/namespaces/inkscape"
   viewBox="0 0 512.00095 512"
   version="1.1"
   id="svg4"
   sodipodi:docname="comment.svg"
   inkscape:version="0.92.4 (5da689c313, 2019-01-14)">
  <metadata
     id="metadata10">
    <rdf:RDF>
      <cc:Work
         rdf:about="">
        <dc:format>image/svg+xml</dc:format>
        <dc:type
           rdf:resource="http://purl.org/dc/dcmitype/StillImage" />
        <dc:title></dc:title>
      </cc:Work>
    </rdf:RDF>
  </metadata>
  <defs
     id="defs8" />
  <sodipodi:namedview
     pagecolor="#ffffff"
     bordercolor="#666666"
     borderopacity="1"
     objecttolerance="10"
     gridtolerance="10"
     guidetolerance="10"
     inkscape:pageopacity="0"
     inkscape:pageshadow="2"
     inkscape:window-width="1920"
     inkscape:window-height="1043"
     id="namedview6"
     showgrid="false"
     inkscape:zoom="0.4609375"
     inkscape:cx="260.33947"
     inkscape:cy="256"
     inkscape:window-x="0"
     inkscape:window-y="0"
     inkscape:window-maximized="1"
     inkscape:current-layer="svg4" />
  <path
     d="m 255.34373,220.54386 c 7.25516,0 13.13523,5.88006 13.13523,13.13523 0,7.25516 -5.88007,13.13522 -13.13523,13.13522 -7.25516,0 -13.13522,-5.88006 -13.13522,-13.13522 0,-7.25517 5.88006,-13.13523 13.13522,-13.13523 z m 45.97329,13.13523 c 0,7.25516 5.88007,13.13522 13.13523,13.13522 7.25516,0 13.13522,-5.88006 13.13522,-13.13522 0,-7.25517 -5.88006,-13.13523 -13.13522,-13.13523 -7.25516,0 -13.13523,5.88006 -13.13523,13.13523 z m -118.21703,0 c 0,7.25516 5.88006,13.13522 13.13522,13.13522 7.25516,0 13.13523,-5.88006 13.13523,-13.13522 0,-7.25517 -5.88007,-13.13523 -13.13523,-13.13523 -7.25516,0 -13.13522,5.88006 -13.13522,13.13523 z m 229.48164,123.18379 c 15.37232,15.37232 15.37232,40.37032 0.007,55.73494 -7.68103,7.68103 -17.77361,11.52411 -27.86362,11.52411 -10.09001,0 -20.18258,-3.84308 -27.86361,-11.52411 l -72.10521,-71.9436 c -1.53158,-1.52902 -2.6604,-3.40952 -3.28893,-5.48241 L 265.76142,283.4698 c -1.39305,-4.5845 -0.17958,-9.56151 3.1658,-12.99155 3.34537,-3.42748 8.29161,-4.76152 12.90946,-3.48392 l 53.01552,14.68478 c 2.18322,0.60545 4.17146,1.76247 5.77489,3.36333 z M 305.64498,324.384 l 48.65934,48.55158 18.57917,-18.57916 -48.37201,-48.27965 -26.67067,-7.38856 z m 88.36775,51.06319 -2.53469,-2.53213 -18.57659,18.5766 2.52698,2.5193 c 5.13096,5.13351 13.46362,5.13351 18.5843,0.0103 5.12325,-5.12069 5.12325,-13.45335 0,-18.57404 z M 263.30696,360.07486 c -2.42694,0.10518 -4.88466,0.15906 -7.30647,0.15906 -21.12154,0 -41.45549,-3.93288 -60.43486,-11.6883 -3.2325,-1.31866 -6.86008,-1.29813 -10.07719,0.059 l -59.8089,25.24685 20.1518,-47.73578 c 1.97028,-4.6666 1.08007,-10.05409 -2.29097,-13.84073 -19.23335,-21.60642 -29.40033,-47.45871 -29.40033,-74.75535 0,-68.0261 63.63915,-123.37108 141.86045,-123.37108 78.22131,0 141.86045,55.34497 141.86045,123.37108 0,16.1317 -3.96109,32.32753 -11.77552,48.13342 -3.21454,6.50349 -0.54902,14.38205 5.95446,17.59659 6.50347,3.21453 14.38204,0.54901 17.59658,-5.95448 9.61797,-19.45911 14.49493,-39.56986 14.49493,-59.77554 0,-82.51333 -75.42236,-149.641525 -168.1309,-149.641525 -92.70597,3e-5 -168.130903,67.128215 -168.130903,149.641555 0,31.14486 10.559491,60.64011 30.629193,85.79458 l -29.595307,70.10415 c -2.078034,4.92315 -0.964618,10.61594 2.814325,14.39488 2.514165,2.51416 5.87237,3.84821 9.289582,3.84821 1.72143,0 3.45826,-0.33864 5.10529,-1.03389 l 84.67603,-35.74475 c 20.65208,7.71438 42.56379,11.6216 65.21179,11.6216 2.8015,0 5.64661,-0.0641 8.45581,-0.18471 7.24746,-0.31813 12.86585,-6.4496 12.54773,-13.69707 -0.31555,-7.24746 -6.45987,-12.88381 -13.69707,-12.54773 z m 0,0"
     id="path2"
     inkscape:connector-curvature="0"
     style="stroke-width:0.65676129" />
</svg>
