<?xml version="1.0" encoding="UTF-8" standalone="no"?>
<!-- Generator: Adobe Illustrator 19.0.0, SVG Export Plug-In . SVG Version: 6.00 Build 0)  -->

<svg
   xmlns:dc="http://purl.org/dc/elements/1.1/"
   xmlns:cc="http://creativecommons.org/ns#"
   xmlns:rdf="http://www.w3.org/1999/02/22-rdf-syntax-ns#"
   xmlns:svg="http://www.w3.org/2000/svg"
   xmlns="http://www.w3.org/2000/svg"
   xmlns:sodipodi="http://sodipodi.sourceforge.net/DTD/sodipodi-0.dtd"
   xmlns:inkscape="http://www.inkscape.org/namespaces/inkscape"
   version="1.1"
   id="Layer_1"
   x="0px"
   y="0px"
   viewBox="0 0 511.996 511.996"
   style="enable-background:new 0 0 511.996 511.996;"
   xml:space="preserve"
   sodipodi:docname="logout.svg"
   inkscape:version="0.92.4 (5da689c313, 2019-01-14)"><metadata
   id="metadata47"><rdf:RDF><cc:Work
       rdf:about=""><dc:format>image/svg+xml</dc:format><dc:type
         rdf:resource="http://purl.org/dc/dcmitype/StillImage" /></cc:Work></rdf:RDF></metadata><defs
   id="defs45" /><sodipodi:namedview
   pagecolor="#ffffff"
   bordercolor="#666666"
   borderopacity="1"
   objecttolerance="10"
   gridtolerance="10"
   guidetolerance="10"
   inkscape:pageopacity="0"
   inkscape:pageshadow="2"
   inkscape:window-width="1920"
   inkscape:window-height="1043"
   id="namedview43"
   showgrid="false"
   inkscape:zoom="0.4609411"
   inkscape:cx="-247.3201"
   inkscape:cy="255.998"
   inkscape:window-x="0"
   inkscape:window-y="0"
   inkscape:window-maximized="1"
   inkscape:current-layer="Layer_1" />
<g
   id="g10"
   transform="matrix(0.78813559,0,0,0.78813559,54.236866,54.236866)">
	<g
   id="g8">
		<g
   id="g6">
			<path
   d="m 349.85,62.196 c -10.797,-4.717 -23.373,0.212 -28.09,11.009 -4.717,10.797 0.212,23.373 11.009,28.09 69.412,30.324 115.228,98.977 115.228,176.035 0,106.034 -85.972,192 -192,192 -106.042,0 -192,-85.958 -192,-192 0,-77.041 45.8,-145.694 115.192,-176.038 10.795,-4.72 15.72,-17.298 10.999,-28.093 C 185.468,62.404 172.89,57.479 162.095,62.2 77.306,99.275 21.331,183.181 21.331,277.329 c 0,129.606 105.061,234.667 234.667,234.667 129.592,0 234.667,-105.068 234.667,-234.667 0,-94.17 -55.998,-178.08 -140.815,-215.133 z"
   id="path2"
   inkscape:connector-curvature="0" />
			<path
   d="m 255.989,234.667 c 11.782,0 21.333,-9.551 21.333,-21.333 v -192 C 277.323,9.551 267.771,0 255.989,0 244.207,0 234.656,9.551 234.656,21.333 v 192 c 0,11.782 9.551,21.334 21.333,21.334 z"
   id="path4"
   inkscape:connector-curvature="0" />
		</g>
	</g>
</g>
<g
   id="g12"
   transform="matrix(0.78813559,0,0,0.78813559,4.5192797,108.47373)">
</g>
<g
   id="g14"
   transform="matrix(0.78813559,0,0,0.78813559,4.5192797,108.47373)">
</g>
<g
   id="g16"
   transform="matrix(0.78813559,0,0,0.78813559,4.5192797,108.47373)">
</g>
<g
   id="g18"
   transform="matrix(0.78813559,0,0,0.78813559,4.5192797,108.47373)">
</g>
<g
   id="g20"
   transform="matrix(0.78813559,0,0,0.78813559,4.5192797,108.47373)">
</g>
<g
   id="g22"
   transform="matrix(0.78813559,0,0,0.78813559,4.5192797,108.47373)">
</g>
<g
   id="g24"
   transform="matrix(0.78813559,0,0,0.78813559,4.5192797,108.47373)">
</g>
<g
   id="g26"
   transform="matrix(0.78813559,0,0,0.78813559,4.5192797,108.47373)">
</g>
<g
   id="g28"
   transform="matrix(0.78813559,0,0,0.78813559,4.5192797,108.47373)">
</g>
<g
   id="g30"
   transform="matrix(0.78813559,0,0,0.78813559,4.5192797,108.47373)">
</g>
<g
   id="g32"
   transform="matrix(0.78813559,0,0,0.78813559,4.5192797,108.47373)">
</g>
<g
   id="g34"
   transform="matrix(0.78813559,0,0,0.78813559,4.5192797,108.47373)">
</g>
<g
   id="g36"
   transform="matrix(0.78813559,0,0,0.78813559,4.5192797,108.47373)">
</g>
<g
   id="g38"
   transform="matrix(0.78813559,0,0,0.78813559,4.5192797,108.47373)">
</g>
<g
   id="g40"
   transform="matrix(0.78813559,0,0,0.78813559,4.5192797,108.47373)">
</g>
</svg>