<?xml version="1.0" encoding="utf-8"?>
<!-- Generator: Adobe Illustrator 18.0.0, SVG Export Plug-In . SVG Version: 6.00 Build 0)  -->
<!DOCTYPE svg PUBLIC "-//W3C//DTD SVG 1.1//EN" "http://www.w3.org/Graphics/SVG/1.1/DTD/svg11.dtd">
<svg version="1.1" id="Calque_1" xmlns="http://www.w3.org/2000/svg" xmlns:xlink="http://www.w3.org/1999/xlink" x="0px" y="0px"
	 viewBox="0 0 30 30" enable-background="new 0 0 30 30" xml:space="preserve">
<g>
	<path fill="#FFFFFF" d="M7.1,3.6c0.3,0,0.7,0.1,0.9,0.4L18,14c0.5,0.5,0.5,1.4,0,1.9l-9.4,9.4c-0.5,0.5-1.4,0.5-1.9,0
		c-0.5-0.5-0.5-1.4,0-1.9l8.5-8.5l-9-9C5.7,5.4,5.7,4.5,6.2,4C6.4,3.8,6.8,3.6,7.1,3.6z"/>
	<path fill="#FFFFFF" d="M22.9,2.9c0.7,0,1.3,0.6,1.3,1.3v21.6c0,0.7-0.6,1.3-1.3,1.3s-1.3-0.6-1.3-1.3V4.2
		C21.6,3.5,22.2,2.9,22.9,2.9z"/>
</g>
</svg>
