<?xml version="1.0" encoding="UTF-8" standalone="no"?>
<svg
   xmlns:dc="http://purl.org/dc/elements/1.1/"
   xmlns:cc="http://creativecommons.org/ns#"
   xmlns:rdf="http://www.w3.org/1999/02/22-rdf-syntax-ns#"
   xmlns:svg="http://www.w3.org/2000/svg"
   xmlns="http://www.w3.org/2000/svg"
   xmlns:sodipodi="http://sodipodi.sourceforge.net/DTD/sodipodi-0.dtd"
   xmlns:inkscape="http://www.inkscape.org/namespaces/inkscape"
   id="Capa_1"
   enable-background="new 0 0 512.354 512.354"
   height="60"
   viewBox="0 0 60.041484 60.041484"
   width="60"
   version="1.1"
   sodipodi:docname="unhighlight.svg"
   inkscape:version="0.92.4 (5da689c313, 2019-01-14)">
  <metadata
     id="metadata13">
    <rdf:RDF>
      <cc:Work
         rdf:about="">
        <dc:format>image/svg+xml</dc:format>
        <dc:type
           rdf:resource="http://purl.org/dc/dcmitype/StillImage" />
        <dc:title></dc:title>
      </cc:Work>
    </rdf:RDF>
  </metadata>
  <defs
     id="defs11" />
  <sodipodi:namedview
     pagecolor="#ffffff"
     bordercolor="#666666"
     borderopacity="1"
     objecttolerance="10"
     gridtolerance="10"
     guidetolerance="10"
     inkscape:pageopacity="0"
     inkscape:pageshadow="2"
     inkscape:window-width="1920"
     inkscape:window-height="1043"
     id="namedview9"
     showgrid="false"
     inkscape:zoom="10.429825"
     inkscape:cx="-0.26054744"
     inkscape:cy="27.181857"
     inkscape:window-x="0"
     inkscape:window-y="0"
     inkscape:window-maximized="1"
     inkscape:current-layer="Capa_1" />
  <g
     id="g823"
     transform="matrix(0.08898288,0,0,0.08898288,7.2253704,47.473479)">
    <g
       transform="translate(0,-452.31251)"
       id="g6">
      <path
         inkscape:connector-curvature="0"
         id="path2"
         d="M 497.513,90.178 454.3,43.364 C 433.57,20.906 398.772,19.258 376.004,39.496 78.655,303.806 121.497,265.304 108.054,278.747 c -17.673,17.674 -24.887,43.716 -18.825,67.964 3.806,15.226 -0.722,31.577 -11.816,42.676 L 4.48,461.322 c -9.52,9.39 -2.863,25.679 10.533,25.679 h 97 c 3.978,0 7.793,-1.58 10.606,-4.393 l 24,-24 c 11.101,-11.1 27.457,-15.63 42.683,-11.823 24.484,6.121 50.468,-1.328 67.964,-18.825 13.355,-13.355 -24.686,27.9 240.426,-262.067 19.604,-21.439 19.554,-54.337 -0.179,-75.715 z M 105.8,457.001 H 51.583 l 36.358,-35.86 26.859,26.86 z m 90.779,-39.32 c -20.462,-5.116 -42.145,-1.203 -59.479,10.194 l -28.96,-28.96 c 11.397,-17.333 15.309,-39.016 10.194,-59.479 -3.377,-13.508 0.339,-27.976 9.707,-38.194 l 106.732,106.732 c -10.217,9.367 -24.685,13.084 -38.194,9.707 z M 475.553,145.65 255.528,386.303 149.869,280.644 395.935,61.918 c 10.5,-9.332 26.794,-8.528 36.322,1.795 0,-0.1 -0.223,-0.242 43.212,46.814 9.221,9.99 9.258,25.09 0.084,35.123 z" />
      <path
         inkscape:connector-curvature="0"
         id="path4"
         d="m 416.013,457.001 h -144 c -8.284,0 -15,6.716 -15,15 0,8.284 6.716,15 15,15 h 144 c 8.284,0 15,-6.716 15,-15 0,-8.284 -6.716,-15 -15,-15 z" />
    </g>
  </g>
  <rect
     style="opacity:1;vector-effect:none;fill:#000000;fill-opacity:1;fill-rule:evenodd;stroke:none;stroke-width:2.33521962;stroke-linecap:butt;stroke-linejoin:miter;stroke-miterlimit:4;stroke-dasharray:none;stroke-dashoffset:0;stroke-opacity:1"
     id="rect836"
     width="67.257568"
     height="2.5905199"
     x="8.8269567"
     y="-1.29526"
     transform="matrix(0.70710678,0.70710678,0.70710678,-0.70710678,0,0)" />
</svg>
