<?xml version="1.0" encoding="utf-8"?>
<!-- Generator: Adobe Illustrator 18.0.0, SVG Export Plug-In . SVG Version: 6.00 Build 0)  -->
<!DOCTYPE svg PUBLIC "-//W3C//DTD SVG 1.1//EN" "http://www.w3.org/Graphics/SVG/1.1/DTD/svg11.dtd">
<svg version="1.1" id="Calque_1" xmlns="http://www.w3.org/2000/svg" xmlns:xlink="http://www.w3.org/1999/xlink" x="0px" y="0px"
	 viewBox="0 0 30 30" enable-background="new 0 0 30 30" xml:space="preserve">
<g>
	<path fill="#91A7D6" d="M20.2,10.9H9.7c-0.6,0-1-0.5-1-1V9.7c0-0.6,0.5-1,1-1h10.5c0.6,0,1,0.5,1,1v0.2
		C21.2,10.5,20.7,10.9,20.2,10.9z"/>
	<path fill="#91A7D6" d="M20.2,16.4H9.7c-0.6,0-1-0.5-1-1v-0.2c0-0.6,0.5-1,1-1h10.5c0.6,0,1,0.5,1,1v0.2
		C21.2,16,20.7,16.4,20.2,16.4z"/>
	<path fill="#91A7D6" d="M15.9,21.9H9.7c-0.6,0-1-0.5-1-1v-0.2c0-0.6,0.5-1,1-1h6.3c0.6,0,1,0.5,1,1v0.2
		C16.9,21.5,16.5,21.9,15.9,21.9z"/>
	<path fill="#91A7D6" d="M22.3,27.7H7.7c-2,0-3.6-1.6-3.6-3.6V5.8c0-2,1.6-3.6,3.6-3.6h14.6c2,0,3.6,1.6,3.6,3.6v18.3
		C25.9,26.1,24.3,27.7,22.3,27.7z M7.7,4c-1,0-1.8,0.8-1.8,1.8v18.3c0,1,0.8,1.8,1.8,1.8h14.6c1,0,1.8-0.8,1.8-1.8V5.8
		c0-1-0.8-1.8-1.8-1.8H7.7z"/>
</g>
</svg>
