<?xml version="1.0" encoding="UTF-8" standalone="no"?>
<svg
   xmlns:dc="http://purl.org/dc/elements/1.1/"
   xmlns:cc="http://creativecommons.org/ns#"
   xmlns:rdf="http://www.w3.org/1999/02/22-rdf-syntax-ns#"
   xmlns:svg="http://www.w3.org/2000/svg"
   xmlns="http://www.w3.org/2000/svg"
   xmlns:sodipodi="http://sodipodi.sourceforge.net/DTD/sodipodi-0.dtd"
   xmlns:inkscape="http://www.inkscape.org/namespaces/inkscape"
   id="light"
   enable-background="new 0 0 24 24"
   height="60"
   viewBox="0 0 2.8125 2.8125"
   width="60"
   version="1.1"
   sodipodi:docname="backto.svg"
   inkscape:version="0.92.4 (5da689c313, 2019-01-14)">
  <metadata
     id="metadata27">
    <rdf:RDF>
      <cc:Work
         rdf:about="">
        <dc:format>image/svg+xml</dc:format>
        <dc:type
           rdf:resource="http://purl.org/dc/dcmitype/StillImage" />
        <dc:title></dc:title>
      </cc:Work>
    </rdf:RDF>
  </metadata>
  <defs
     id="defs25" />
  <sodipodi:namedview
     pagecolor="#ffffff"
     bordercolor="#666666"
     borderopacity="1"
     objecttolerance="10"
     gridtolerance="10"
     guidetolerance="10"
     inkscape:pageopacity="0"
     inkscape:pageshadow="2"
     inkscape:window-width="1920"
     inkscape:window-height="1043"
     id="namedview23"
     showgrid="false"
     inkscape:zoom="3.6875"
     inkscape:cx="26.138742"
     inkscape:cy="77.005354"
     inkscape:window-x="0"
     inkscape:window-y="0"
     inkscape:window-maximized="1"
     inkscape:current-layer="light" />
  <g
     id="g835"
     transform="matrix(1.1420455,0,0,1.1420455,-0.19975151,-0.19975151)">
    <g
       transform="matrix(-0.09322034,0,0,-0.09322034,2.5248941,2.5248941)"
       id="g860">
      <g
         id="g847">
        <g
           id="g4">
          <path
             inkscape:connector-curvature="0"
             id="path2"
             d="m 14.5,21 h -4 C 9.122,21 8,19.878 8,18.5 v -2 C 8,16.224 8.224,16 8.5,16 8.776,16 9,16.224 9,16.5 v 2 c 0,0.827 0.673,1.5 1.5,1.5 h 4 c 0.276,0 0.5,0.224 0.5,0.5 0,0.276 -0.224,0.5 -0.5,0.5 z" />
        </g>
        <g
           id="g8">
          <path
             inkscape:connector-curvature="0"
             id="path6"
             d="M 10.5,11 H 0.5 C 0.224,11 0,10.776 0,10.5 0,10.224 0.224,10 0.5,10 h 10 c 0.276,0 0.5,0.224 0.5,0.5 0,0.276 -0.224,0.5 -0.5,0.5 z" />
        </g>
        <g
           id="g12">
          <path
             inkscape:connector-curvature="0"
             id="path10"
             d="m 16,24 c -1.103,0 -2,-0.897 -2,-2 V 4 c 0,-0.86 0.552,-1.621 1.373,-1.895 l 6,-2 C 21.563,0.037 21.778,0 22,0 c 1.103,0 2,0.897 2,2 v 18 c 0,0.859 -0.551,1.621 -1.372,1.894 l -6,2 C 16.435,23.963 16.22,24 16,24 Z M 22,1 C 21.896,1 21.792,1.018 21.7,1.05 L 15.689,3.054 C 15.276,3.191 15,3.571 15,4 v 18 c 0,0.551 0.449,1 1,1 0.104,0 0.208,-0.018 0.302,-0.051 l 6.01,-2.003 C 22.723,20.808 23,20.428 23,20 V 2 C 23,1.449 22.551,1 22,1 Z" />
        </g>
        <g
           id="g16">
          <path
             inkscape:connector-curvature="0"
             id="path14"
             d="M 8.5,5 C 8.224,5 8,4.776 8,4.5 v -2 C 8,1.122 9.122,0 10.5,0 H 22 c 0.276,0 0.5,0.224 0.5,0.5 C 22.5,0.776 22.276,1 22,1 H 10.5 C 9.673,1 9,1.673 9,2.5 v 2 C 9,4.776 8.776,5 8.5,5 Z" />
        </g>
        <g
           id="g20">
          <path
             inkscape:connector-curvature="0"
             id="path18"
             d="M 6.5,15 C 6.372,15 6.244,14.951 6.146,14.854 5.951,14.659 5.951,14.342 6.146,14.147 L 9.793,10.5 6.146,6.854 c -0.195,-0.195 -0.195,-0.512 0,-0.707 0.195,-0.195 0.512,-0.195 0.707,0 l 4,4 c 0.195,0.195 0.195,0.512 0,0.707 l -4,4 C 6.756,14.951 6.628,15 6.5,15 Z" />
        </g>
      </g>
    </g>
  </g>
</svg>
