<?xml version="1.0" encoding="utf-8"?>
<!-- Generator: Adobe Illustrator 24.0.1, SVG Export Plug-In . SVG Version: 6.00 Build 0)  -->
<svg version="1.1" id="Calque_1" xmlns="http://www.w3.org/2000/svg" xmlns:xlink="http://www.w3.org/1999/xlink" x="0px" y="0px"
	 viewBox="0 0 100 100" style="enable-background:new 0 0 100 100;" xml:space="preserve">
<g>
	<g>
		<path d="M62.7,67.2L32.8,37.3c-0.8-0.8-0.8-2,0-2.8l1.7-1.7c0.8-0.8,2-0.8,2.8,0l29.8,29.8c0.8,0.8,0.8,2,0,2.8l-1.7,1.7
			C64.7,68,63.4,68,62.7,67.2z"/>
	</g>
	<g>
		<path d="M32.8,62.7l29.8-29.8c0.8-0.8,2-0.8,2.8,0l1.7,1.7c0.8,0.8,0.8,2,0,2.8L37.3,67.2c-0.8,0.8-2,0.8-2.8,0l-1.7-1.7
			C32,64.7,32,63.4,32.8,62.7z"/>
	</g>
</g>
</svg>
