<?xml version="1.0" encoding="utf-8"?>
<!-- Generator: Adobe Illustrator 24.0.0, SVG Export Plug-In . SVG Version: 6.00 Build 0)  -->
<svg version="1.1" id="Calque_1" xmlns="http://www.w3.org/2000/svg" xmlns:xlink="http://www.w3.org/1999/xlink" x="0px" y="0px"
	 viewBox="0 0 60 60" style="enable-background:new 0 0 60 60;" xml:space="preserve">
<style type="text/css">
	.st0{fill:#8CA5D6;}
</style>
<g>
	<g>
		<g>
			<path class="st0" d="M30,52.8c-6.1,0-11.8-2.4-16.1-6.7c-4.3-4.3-6.7-10-6.7-16.1s2.4-11.8,6.7-16.1c4.3-4.3,10-6.7,16.1-6.7
				c6.1,0,11.8,2.1,16.1,5.9c4.3,3.8,6.7,9,6.7,14.4c0,7.2-5.8,13-13,13h-4.3c-1.7,0-3,1.4-3,3c0,0.8,0.3,1.4,0.8,2
				c0.7,0.8,1.1,1.8,1.1,2.9C34.4,50.9,32.4,52.8,30,52.8z M30,8.5C18.1,8.5,8.5,18.1,8.5,30S18.1,51.5,30,51.5c1.7,0,3-1.4,3-3
				c0-0.8-0.3-1.5-0.8-2l0,0c-0.7-0.8-1.1-1.8-1.1-2.9c0-2.4,2-4.4,4.4-4.4h4.3c6.4,0,11.6-5.2,11.6-11.6C51.5,17,41.9,8.5,30,8.5z
				 M43.5,30.7c-2.4,0-4.4-2-4.4-4.4c0-2.4,2-4.4,4.4-4.4s4.4,2,4.4,4.4C47.9,28.7,45.9,30.7,43.5,30.7z M16.5,30.7
				c-2.4,0-4.4-2-4.4-4.4c0-2.4,2-4.4,4.4-4.4s4.4,2,4.4,4.4C20.8,28.7,18.9,30.7,16.5,30.7z M16.5,23.3c-1.7,0-3,1.4-3,3
				c0,1.7,1.4,3,3,3s3-1.4,3-3C19.5,24.6,18.1,23.3,16.5,23.3z M36.2,20.8c-2.4,0-4.4-2-4.4-4.4s2-4.4,4.4-4.4s4.4,2,4.4,4.4
				S38.6,20.8,36.2,20.8z M36.2,13.4c-1.7,0-3,1.4-3,3s1.4,3,3,3c1.7,0,3-1.4,3-3S37.8,13.4,36.2,13.4z M23.8,20.8
				c-2.4,0-4.4-2-4.4-4.4s2-4.4,4.4-4.4c2.4,0,4.4,2,4.4,4.4S26.2,20.8,23.8,20.8z M23.8,13.4c-1.7,0-3,1.4-3,3s1.4,3,3,3
				c1.7,0,3-1.4,3-3S25.5,13.4,23.8,13.4z"/>
		</g>
	</g>
</g>
</svg>
