<?xml version="1.0" encoding="utf-8"?>
<!-- Generator: Adobe Illustrator 18.0.0, SVG Export Plug-In . SVG Version: 6.00 Build 0)  -->
<!DOCTYPE svg PUBLIC "-//W3C//DTD SVG 1.1//EN" "http://www.w3.org/Graphics/SVG/1.1/DTD/svg11.dtd">
<svg version="1.1" id="Calque_1" xmlns="http://www.w3.org/2000/svg" xmlns:xlink="http://www.w3.org/1999/xlink" x="0px" y="0px"
	 viewBox="0 0 30 30" enable-background="new 0 0 30 30" xml:space="preserve">
<g>
	<g>
		<path fill="#91A7D6" d="M5.9,15.3H4.4c-0.5,0-0.9-0.4-0.9-0.9V13c0-0.5,0.4-0.9,0.9-0.9h1.4c0.5,0,0.9,0.4,0.9,0.9v1.4
			C6.8,14.9,6.4,15.3,5.9,15.3z M4.4,12.6c-0.2,0-0.4,0.2-0.4,0.4v1.4c0,0.2,0.2,0.4,0.4,0.4h1.4c0.2,0,0.4-0.2,0.4-0.4V13
			c0-0.2-0.2-0.4-0.4-0.4H4.4z"/>
		<path fill="#91A7D6" d="M10.8,15.3H9.4c-0.5,0-0.9-0.4-0.9-0.9V13c0-0.5,0.4-0.9,0.9-0.9h1.4c0.5,0,0.9,0.4,0.9,0.9v1.4
			C11.7,14.9,11.3,15.3,10.8,15.3z M9.4,12.6C9.2,12.6,9,12.8,9,13v1.4c0,0.2,0.2,0.4,0.4,0.4h1.4c0.2,0,0.4-0.2,0.4-0.4V13
			c0-0.2-0.2-0.4-0.4-0.4H9.4z"/>
		<path fill="#91A7D6" d="M15.7,15.3h-1.4c-0.5,0-0.9-0.4-0.9-0.9V13c0-0.5,0.4-0.9,0.9-0.9h1.4c0.5,0,0.9,0.4,0.9,0.9v1.4
			C16.6,14.9,16.2,15.3,15.7,15.3z M14.3,12.6c-0.2,0-0.4,0.2-0.4,0.4v1.4c0,0.2,0.2,0.4,0.4,0.4h1.4c0.2,0,0.4-0.2,0.4-0.4V13
			c0-0.2-0.2-0.4-0.4-0.4H14.3z"/>
		<path fill="#91A7D6" d="M20.6,15.3h-1.4c-0.5,0-0.9-0.4-0.9-0.9V13c0-0.5,0.4-0.9,0.9-0.9h1.4c0.5,0,0.9,0.4,0.9,0.9v1.4
			C21.6,14.9,21.1,15.3,20.6,15.3z M19.2,12.6c-0.2,0-0.4,0.2-0.4,0.4v1.4c0,0.2,0.2,0.4,0.4,0.4h1.4c0.2,0,0.4-0.2,0.4-0.4V13
			c0-0.2-0.2-0.4-0.4-0.4H19.2z"/>
		<path fill="#91A7D6" d="M25.5,15.3h-1.4c-0.5,0-0.9-0.4-0.9-0.9V13c0-0.5,0.4-0.9,0.9-0.9h1.4c0.5,0,0.9,0.4,0.9,0.9v1.4
			C26.5,14.9,26.1,15.3,25.5,15.3z M24.1,12.6c-0.2,0-0.4,0.2-0.4,0.4v1.4c0,0.2,0.2,0.4,0.4,0.4h1.4c0.2,0,0.4-0.2,0.4-0.4V13
			c0-0.2-0.2-0.4-0.4-0.4H24.1z"/>
		<path fill="#91A7D6" d="M5.9,19.8H4.4c-0.5,0-0.9-0.4-0.9-0.9v-1.4c0-0.5,0.4-0.9,0.9-0.9h1.4c0.5,0,0.9,0.4,0.9,0.9v1.4
			C6.8,19.4,6.4,19.8,5.9,19.8z M4.4,17.1c-0.2,0-0.4,0.2-0.4,0.4v1.4c0,0.2,0.2,0.4,0.4,0.4h1.4c0.2,0,0.4-0.2,0.4-0.4v-1.4
			c0-0.2-0.2-0.4-0.4-0.4H4.4z"/>
		<path fill="#91A7D6" d="M10.8,19.8H9.4c-0.5,0-0.9-0.4-0.9-0.9v-1.4c0-0.5,0.4-0.9,0.9-0.9h1.4c0.5,0,0.9,0.4,0.9,0.9v1.4
			C11.7,19.4,11.3,19.8,10.8,19.8z M9.4,17.1c-0.2,0-0.4,0.2-0.4,0.4v1.4c0,0.2,0.2,0.4,0.4,0.4h1.4c0.2,0,0.4-0.2,0.4-0.4v-1.4
			c0-0.2-0.2-0.4-0.4-0.4H9.4z"/>
		<path fill="#91A7D6" d="M15.7,19.8h-1.4c-0.5,0-0.9-0.4-0.9-0.9v-1.4c0-0.5,0.4-0.9,0.9-0.9h1.4c0.5,0,0.9,0.4,0.9,0.9v1.4
			C16.6,19.4,16.2,19.8,15.7,19.8z M14.3,17.1c-0.2,0-0.4,0.2-0.4,0.4v1.4c0,0.2,0.2,0.4,0.4,0.4h1.4c0.2,0,0.4-0.2,0.4-0.4v-1.4
			c0-0.2-0.2-0.4-0.4-0.4H14.3z"/>
		<path fill="#91A7D6" d="M20.6,19.8h-1.4c-0.5,0-0.9-0.4-0.9-0.9v-1.4c0-0.5,0.4-0.9,0.9-0.9h1.4c0.5,0,0.9,0.4,0.9,0.9v1.4
			C21.6,19.4,21.1,19.8,20.6,19.8z M19.2,17.1c-0.2,0-0.4,0.2-0.4,0.4v1.4c0,0.2,0.2,0.4,0.4,0.4h1.4c0.2,0,0.4-0.2,0.4-0.4v-1.4
			c0-0.2-0.2-0.4-0.4-0.4H19.2z"/>
		<path fill="#91A7D6" d="M25.5,19.8h-1.4c-0.5,0-0.9-0.4-0.9-0.9v-1.4c0-0.5,0.4-0.9,0.9-0.9h1.4c0.5,0,0.9,0.4,0.9,0.9v1.4
			C26.5,19.4,26.1,19.8,25.5,19.8z M24.1,17.1c-0.2,0-0.4,0.2-0.4,0.4v1.4c0,0.2,0.2,0.4,0.4,0.4h1.4c0.2,0,0.4-0.2,0.4-0.4v-1.4
			c0-0.2-0.2-0.4-0.4-0.4H24.1z"/>
		<path fill="#91A7D6" d="M5.9,24.2H4.4c-0.5,0-0.9-0.4-0.9-0.9v-1.4c0-0.5,0.4-0.9,0.9-0.9h1.4c0.5,0,0.9,0.4,0.9,0.9v1.4
			C6.8,23.8,6.4,24.2,5.9,24.2z M4.4,21.5c-0.2,0-0.4,0.2-0.4,0.4v1.4c0,0.2,0.2,0.4,0.4,0.4h1.4c0.2,0,0.4-0.2,0.4-0.4v-1.4
			c0-0.2-0.2-0.4-0.4-0.4H4.4z"/>
		<path fill="#91A7D6" d="M10.8,24.2H9.4c-0.5,0-0.9-0.4-0.9-0.9v-1.4c0-0.5,0.4-0.9,0.9-0.9h1.4c0.5,0,0.9,0.4,0.9,0.9v1.4
			C11.7,23.8,11.3,24.2,10.8,24.2z M9.4,21.5c-0.2,0-0.4,0.2-0.4,0.4v1.4c0,0.2,0.2,0.4,0.4,0.4h1.4c0.2,0,0.4-0.2,0.4-0.4v-1.4
			c0-0.2-0.2-0.4-0.4-0.4H9.4z"/>
		<path fill="#91A7D6" d="M15.7,20.9h-1.4c-0.5,0-0.9,0.4-0.9,0.9v1.4c0,0.5,0.4,0.9,0.9,0.9h1.4c0.5,0,0.9-0.4,0.9-0.9v-1.4
			C16.6,21.4,16.2,20.9,15.7,20.9z"/>
		<path fill="#91A7D6" d="M27.9,5.2H21V4C21,3.4,20.5,3,19.9,3c-0.6,0-1.1,0.5-1.1,1.1v1.1H11V4C11,3.4,10.5,3,9.9,3
			C9.3,3,8.9,3.4,8.9,4v1.1H2.1c-0.6,0-1,0.5-1,1.1V26c0,0.6,0.5,1.1,1,1.1h25.7c0.6,0,1-0.5,1-1.1V6.2C28.9,5.6,28.4,5.2,27.9,5.2z
			 M2.1,6h6.7v1.1c0,0.6,0.5,1.1,1.1,1.1c0.6,0,1.1-0.5,1.1-1.1V6h7.9v1.1c0,0.6,0.5,1.1,1.1,1.1c0.6,0,1.1-0.5,1.1-1.1V6h6.9
			c0.1,0,0.2,0.1,0.2,0.2V10H1.9V6.2C1.9,6.1,2,6,2.1,6z M27.9,26.2H2.1c-0.1,0-0.2-0.1-0.2-0.2V10.8h26.2V26
			C28.1,26.1,28,26.2,27.9,26.2z"/>
	</g>
</g>
</svg>
