<?xml version="1.0" encoding="utf-8"?>
<!-- Generator: Adobe Illustrator 18.0.0, SVG Export Plug-In . SVG Version: 6.00 Build 0)  -->
<!DOCTYPE svg PUBLIC "-//W3C//DTD SVG 1.1//EN" "http://www.w3.org/Graphics/SVG/1.1/DTD/svg11.dtd">
<svg version="1.1" id="Calque_1" xmlns="http://www.w3.org/2000/svg" xmlns:xlink="http://www.w3.org/1999/xlink" x="0px" y="0px"
	 viewBox="0 0 30 30" enable-background="new 0 0 30 30" xml:space="preserve">
<path fill="#91A7D6" d="M26.8,6.6H14.1l-1.7-2.2c-0.1-0.2-0.3-0.2-0.5-0.2H5.7C5.3,4.1,5,4.4,5,4.7V11H3.2c-0.3,0-0.6,0.3-0.6,0.6
	v11.8c0,1.2,0.9,2.2,2,2.4h20.9c1.1-0.2,2-1.2,2-2.4V7.2C27.5,6.9,27.2,6.6,26.8,6.6z M5.7,24.7H5c-0.7,0-1.2-0.6-1.2-1.2V12.2h1.9
	h16.8v11.2c0,0.4,0.1,0.9,0.3,1.2H5.7z M26.2,23.4c0,0.7-0.6,1.2-1.2,1.2c-0.7,0-1.2-0.6-1.2-1.2V11.6c0-0.3-0.3-0.6-0.6-0.6H6.3
	V5.4h5.3l1.7,2.2c0.1,0.2,0.3,0.2,0.5,0.2h12.5V23.4z"/>
</svg>
