<?xml version="1.0" encoding="utf-8"?>
<!-- Generator: Adobe Illustrator 18.0.0, SVG Export Plug-In . SVG Version: 6.00 Build 0)  -->
<!DOCTYPE svg PUBLIC "-//W3C//DTD SVG 1.1//EN" "http://www.w3.org/Graphics/SVG/1.1/DTD/svg11.dtd">
<svg version="1.1" id="Calque_1" xmlns="http://www.w3.org/2000/svg" xmlns:xlink="http://www.w3.org/1999/xlink" x="0px" y="0px"
	 viewBox="0 0 30 30" enable-background="new 0 0 30 30" xml:space="preserve">
<g>
	<g>
		<path fill="#91A7D6" d="M24.2,9.3L25.6,8c0.2-0.2,0.2-0.4,0.2-0.6c0-0.2-0.1-0.4-0.2-0.6l-0.6-0.6c-0.3-0.3-0.9-0.3-1.2,0
			l-1.3,1.3c-1.8-1.4-3.9-2.3-6.1-2.5V4h0.9C17.7,4,18,3.6,18,3.1V2.6c0-0.7-0.6-1.2-1.2-1.2h-3.6C12.5,1.4,12,2,12,2.6v0.5
			C12,3.6,12.3,4,12.8,4h0.9v1C11,5.3,8.6,6.5,6.6,8.4c-2.2,2.2-3.5,5.2-3.5,8.4c0,2.7,0.9,5.4,2.7,7.5l0,0c0,0,0.4,0.5,0.7,0.8
			c0.3,0.3,0.7,0.6,0.7,0.6c2.2,1.9,4.9,2.9,7.8,2.9c3.2,0,6.1-1.2,8.4-3.5s3.5-5.2,3.5-8.4C26.8,14,25.9,11.4,24.2,9.3z M24.3,6.8
			C24.3,6.7,24.4,6.7,24.3,6.8L25,7.4c0,0,0,0,0,0c0,0,0,0,0,0l-1.3,1.3c-0.1-0.1-0.2-0.2-0.3-0.3c-0.1-0.1-0.2-0.2-0.3-0.3
			L24.3,6.8z M12.8,3.2C12.8,3.2,12.8,3.1,12.8,3.2L12.8,3.2l0-0.5c0-0.2,0.2-0.5,0.5-0.5h3.6c0.2,0,0.5,0.2,0.5,0.5v0.5
			c0,0,0,0,0,0H12.8z M15.5,4v1c-0.2,0-0.3,0-0.5,0c-0.2,0-0.3,0-0.5,0V4H15.5z M15,27.8c-2.5,0-4.9-0.8-6.8-2.4
			c-0.5-0.4-0.6-0.6-0.9-0.8c-0.2-0.2-0.7-0.8-0.8-0.9c-1.6-2-2.5-4.4-2.5-7c0-6.1,5-11,11-11s11,5,11,11S21.1,27.8,15,27.8z"/>
		<path fill="#91A7D6" d="M23,10.6L23,10.6C23,10.6,23,10.6,23,10.6L23,10.6c-0.5-0.6-1.1-1.2-1.4-1.5c0,0,0,0,0,0h0
			C21.5,9,21.4,9,21.3,8.9c0,0,0,0,0,0l0,0c-1.8-1.4-4-2.2-6.3-2.2c-5.6,0-10.1,4.5-10.1,10.1S9.4,26.8,15,26.8s10.1-4.5,10.1-10.1
			C25.1,14.5,24.3,12.3,23,10.6z M15,26c-5.1,0-9.3-4.2-9.3-9.3S9.9,7.5,15,7.5c2.2,0,4.3,0.8,6,2.2c0,0,0.1,0,0.1,0.1
			c0.3,0.3,0.7,0.6,0.9,0.9c0,0,0,0,0,0.1c1.4,1.7,2.2,3.8,2.2,6C24.3,21.9,20.1,26,15,26z"/>
		<path fill="#91A7D6" d="M15,10.1c0.2,0,0.4-0.2,0.4-0.4V8.8c0-0.2-0.2-0.4-0.4-0.4s-0.4,0.2-0.4,0.4v0.9
			C14.6,9.9,14.8,10.1,15,10.1z"/>
		<path fill="#91A7D6" d="M15,23.4c-0.2,0-0.4,0.2-0.4,0.4v0.9c0,0.2,0.2,0.4,0.4,0.4s0.4-0.2,0.4-0.4v-0.9
			C15.4,23.6,15.2,23.4,15,23.4z"/>
		<path fill="#91A7D6" d="M22.9,16.4H22c-0.2,0-0.4,0.2-0.4,0.4c0,0.2,0.2,0.4,0.4,0.4h0h0.9c0.2,0,0.4-0.2,0.4-0.4
			C23.3,16.5,23.1,16.4,22.9,16.4z"/>
		<path fill="#91A7D6" d="M8,16.4H7.1c-0.2,0-0.4,0.2-0.4,0.4c0,0.2,0.2,0.4,0.4,0.4H8c0.2,0,0.4-0.2,0.4-0.4
			C8.4,16.5,8.2,16.4,8,16.4z"/>
		<path fill="#91A7D6" d="M9.7,10.9c-0.2-0.2-0.4-0.2-0.6,0C9,11,9,11.3,9.1,11.4l0.6,0.6c0.1,0.1,0.2,0.1,0.3,0.1
			c0.1,0,0.2,0,0.3-0.1c0.2-0.2,0.2-0.4,0-0.6L9.7,10.9z"/>
		<path fill="#91A7D6" d="M20.3,21.5c-0.2-0.2-0.4-0.2-0.6,0c-0.2,0.2-0.2,0.4,0,0.6l0.6,0.6c0.1,0.1,0.2,0.1,0.3,0.1
			c0.1,0,0.2,0,0.3-0.1c0.2-0.2,0.2-0.4,0-0.6L20.3,21.5z"/>
		<path fill="#91A7D6" d="M9.7,21.5l-0.6,0.6c-0.2,0.2-0.2,0.4,0,0.6c0.1,0.1,0.2,0.1,0.3,0.1c0.1,0,0.2,0,0.3-0.1l0.6-0.6
			c0.2-0.2,0.2-0.4,0-0.6C10.1,21.3,9.9,21.3,9.7,21.5z"/>
		<path fill="#91A7D6" d="M20,12.2c0.1,0,0.2,0,0.3-0.1l0.6-0.6c0.2-0.2,0.2-0.4,0-0.6c-0.2-0.2-0.4-0.2-0.6,0l-0.6,0.6
			c-0.2,0.2-0.2,0.4,0,0.6C19.8,12.1,19.9,12.2,20,12.2z"/>
		<path fill="#91A7D6" d="M16.1,17.3c0.2-0.5,0.2-1.1-0.2-1.5c-0.4-0.4-1-0.5-1.5-0.2l-2.9-2.9c-0.2-0.2-0.4-0.2-0.6,0
			c-0.2,0.2-0.2,0.4,0,0.6l2.9,2.9c-0.2,0.5-0.2,1.1,0.2,1.5c0.2,0.2,0.6,0.4,0.9,0.4c0.2,0,0.4,0,0.6-0.1l0.4,0.4
			c0.1,0.1,0.2,0.1,0.3,0.1c0.1,0,0.2,0,0.3-0.1c0.2-0.2,0.2-0.4,0-0.6L16.1,17.3z M15.3,17.1c-0.1,0.1-0.2,0.1-0.3,0.1
			s-0.2-0.1-0.3-0.1c-0.1-0.1-0.1-0.2-0.1-0.3s0.1-0.2,0.1-0.3c0.1-0.1,0.2-0.1,0.3-0.1s0.2,0.1,0.3,0.1c0.1,0.1,0.1,0.2,0.1,0.3
			S15.4,17,15.3,17.1z"/>
	</g>
</g>
</svg>
