<?xml version="1.0" encoding="UTF-8" standalone="no"?>
<!-- Generator: Adobe Illustrator 19.0.0, SVG Export Plug-In . SVG Version: 6.00 Build 0)  -->

<svg
   xmlns:dc="http://purl.org/dc/elements/1.1/"
   xmlns:cc="http://creativecommons.org/ns#"
   xmlns:rdf="http://www.w3.org/1999/02/22-rdf-syntax-ns#"
   xmlns:svg="http://www.w3.org/2000/svg"
   xmlns="http://www.w3.org/2000/svg"
   xmlns:sodipodi="http://sodipodi.sourceforge.net/DTD/sodipodi-0.dtd"
   xmlns:inkscape="http://www.inkscape.org/namespaces/inkscape"
   version="1.1"
   id="Layer_1"
   x="0px"
   y="0px"
   viewBox="0 0 512 512"
   style="enable-background:new 0 0 512 512;"
   xml:space="preserve"
   sodipodi:docname="hand-shake.svg"
   inkscape:version="0.92.4 (5da689c313, 2019-01-14)"><metadata
   id="metadata85"><rdf:RDF><cc:Work
       rdf:about=""><dc:format>image/svg+xml</dc:format><dc:type
         rdf:resource="http://purl.org/dc/dcmitype/StillImage" /></cc:Work></rdf:RDF></metadata><defs
   id="defs83" /><sodipodi:namedview
   pagecolor="#ffffff"
   bordercolor="#666666"
   borderopacity="1"
   objecttolerance="10"
   gridtolerance="10"
   guidetolerance="10"
   inkscape:pageopacity="0"
   inkscape:pageshadow="2"
   inkscape:window-width="1920"
   inkscape:window-height="1043"
   id="namedview81"
   showgrid="false"
   inkscape:zoom="0.4609375"
   inkscape:cx="260.33898"
   inkscape:cy="256"
   inkscape:window-x="0"
   inkscape:window-y="0"
   inkscape:window-maximized="1"
   inkscape:current-layer="Layer_1" />






















<g
   id="g981"
   transform="matrix(0.92033214,0,0,0.97288064,20.394972,6.9432862)"><g
     id="g6">
	<g
   id="g4">
		<path
   id="path2"
   d="m 404.267,315.41 c -10.048,-20.949 -45.995,-50.027 -80.725,-78.123 -19.371,-15.659 -37.675,-30.464 -49.344,-42.133 -2.923,-2.944 -7.296,-3.883 -11.157,-2.496 -7.189,2.603 -11.627,4.608 -15.125,6.165 -5.333,2.389 -7.125,3.2 -14.315,3.925 -3.179,0.32 -6.037,2.027 -7.808,4.672 -15.083,22.549 -30.699,20.629 -41.131,17.131 -3.328,-1.109 -3.925,-2.539 -4.245,-3.904 -2.24,-9.365 9.003,-31.168 23.573,-45.739 34.667,-34.688 52.544,-43.371 90.304,-26.496 42.837,19.157 85.76,34.155 86.187,34.304 5.611,1.941 11.648,-1.003 13.589,-6.571 1.92,-5.568 -1.003,-11.648 -6.571,-13.589 -0.427,-0.149 -42.496,-14.848 -84.48,-33.643 -48.917,-21.867 -75.755,-7.467 -114.091,30.891 -14.592,14.592 -34.411,44.117 -29.291,65.771 2.197,9.216 8.683,16.043 18.325,19.221 24.171,7.979 46.229,0.341 62.656,-21.461 6.784,-1.045 10.475,-2.581 16.021,-5.077 2.005,-0.896 4.352,-1.941 7.467,-3.2 12.203,11.456 28.672,24.789 46.016,38.805 31.36,25.365 66.923,54.123 74.923,70.763 3.947,8.213 -0.299,13.568 -3.179,16.021 -4.224,3.627 -10.005,4.779 -13.141,2.581 -3.456,-2.368 -7.957,-2.517 -11.52,-0.384 -3.584,2.133 -5.589,6.165 -5.141,10.304 0.725,6.784 -5.483,10.667 -8.171,12.011 -6.827,3.456 -13.952,2.859 -16.619,0.384 -2.987,-2.773 -7.275,-3.584 -11.072,-2.176 -3.797,1.429 -6.443,4.928 -6.827,8.981 -0.64,6.997 -5.824,13.717 -12.587,16.341 -3.264,1.237 -8,1.984 -12.245,-1.899 -2.645,-2.389 -6.315,-3.307 -9.749,-2.475 -3.477,0.853 -6.272,3.371 -7.488,6.72 -0.405,1.067 -1.323,3.627 -11.307,3.627 -7.104,0 -19.883,-4.8 -26.133,-8.939 -7.488,-4.928 -54.443,-39.957 -94.997,-73.92 -5.696,-4.8 -15.552,-15.083 -24.256,-24.171 -7.723,-8.064 -14.784,-15.381 -18.411,-18.453 -4.544,-3.84 -11.264,-3.264 -15.04,1.259 -3.797,4.501 -3.243,11.243 1.259,15.04 3.307,2.795 9.707,9.557 16.768,16.917 9.515,9.941 19.349,20.224 25.963,25.771 39.723,33.259 87.467,69.163 96.981,75.413 7.851,5.163 24.768,12.416 37.867,12.416 10.517,0 18.603,-2.411 24.213,-7.125 7.509,2.923 16.043,2.944 24.256,-0.256 9.707,-3.755 17.685,-11.328 22.208,-20.501 8.405,1.792 18.027,0.533 26.773,-3.861 8.555,-4.309 14.741,-10.901 17.813,-18.603 8.491,0.448 17.237,-2.56 24.469,-8.768 12.247,-10.474 15.617,-26.772 8.535,-41.471 z"
   inkscape:connector-curvature="0" />
	</g>
</g><g
     id="g12">
	<g
   id="g10">
		<path
   id="path8"
   d="m 213.333,138.663 h -96 c -5.888,0 -10.667,4.779 -10.667,10.667 0,5.888 4.779,10.667 10.667,10.667 h 96 c 5.888,0 10.667,-4.779 10.667,-10.667 0,-5.888 -4.779,-10.667 -10.667,-10.667 z"
   inkscape:connector-curvature="0" />
	</g>
</g><g
     id="g18">
	<g
   id="g16">
		<path
   id="path14"
   d="m 435.52,292.711 c -3.307,-4.885 -9.92,-6.229 -14.805,-2.901 l -31.189,20.949 c -4.885,3.285 -6.187,9.92 -2.901,14.805 2.069,3.051 5.44,4.715 8.875,4.715 2.027,0 4.096,-0.576 5.931,-1.813 l 31.189,-20.949 c 4.884,-3.286 6.185,-9.92 2.9,-14.806 z"
   inkscape:connector-curvature="0" />
	</g>
</g><g
     id="g24">
	<g
   id="g22">
		<path
   id="path20"
   d="m 369.301,343.613 c -7.637,-6.016 -41.792,-40.981 -62.912,-62.997 -4.075,-4.267 -10.837,-4.416 -15.083,-0.32 -4.267,4.075 -4.395,10.837 -0.32,15.083 5.483,5.717 53.845,56.128 65.088,65.003 1.941,1.536 4.288,2.283 6.592,2.283 3.136,0 6.272,-1.408 8.405,-4.075 3.649,-4.609 2.86,-11.329 -1.77,-14.977 z"
   inkscape:connector-curvature="0" />
	</g>
</g><g
     id="g30">
	<g
   id="g28">
		<path
   id="path26"
   d="m 326.677,365.01 c -12.779,-10.219 -44.885,-44.331 -52.139,-52.224 -4.011,-4.352 -10.731,-4.608 -15.083,-0.64 -4.331,3.989 -4.629,10.752 -0.64,15.083 0.384,0.405 38.699,41.771 54.528,54.443 1.963,1.557 4.331,2.325 6.656,2.325 3.115,0 6.229,-1.387 8.341,-3.989 3.671,-4.609 2.924,-11.329 -1.663,-14.998 z"
   inkscape:connector-curvature="0" />
	</g>
</g><g
     id="g36">
	<g
   id="g34">
		<path
   id="path32"
   d="m 284.224,386.493 c -15.211,-12.821 -46.336,-45.952 -52.416,-52.459 -4.032,-4.309 -10.795,-4.544 -15.083,-0.512 -4.309,4.032 -4.523,10.773 -0.512,15.083 8.747,9.365 38.528,40.939 54.251,54.208 2.005,1.685 4.437,2.517 6.869,2.517 3.029,0 6.059,-1.301 8.171,-3.797 3.797,-4.523 3.221,-11.243 -1.28,-15.04 z"
   inkscape:connector-curvature="0" />
	</g>
</g><g
     id="g42">
	<g
   id="g40">
		<path
   id="path38"
   d="M 124.672,120.253 C 106.389,102.93 33.28,97.319 11.307,96.018 8.278,95.869 5.483,96.871 3.35,98.898 1.216,100.903 0,103.719 0,106.663 v 192 c 0,5.888 4.779,10.667 10.667,10.667 h 64 c 4.608,0 8.704,-2.965 10.133,-7.36 1.557,-4.779 38.315,-117.589 43.157,-173.056 0.278,-3.243 -0.917,-6.443 -3.285,-8.661 z M 66.88,287.997 H 21.333 V 118.098 c 34.283,2.709 71.275,8.597 84.715,15.125 -5.653,46.72 -31.232,129.728 -39.168,154.774 z"
   inkscape:connector-curvature="0" />
	</g>
</g><g
     id="g48">
	<g
   id="g46">
		<path
   id="path44"
   d="m 501.333,117.33 c -83.755,0 -130.219,21.44 -132.16,22.336 -2.773,1.301 -4.843,3.712 -5.696,6.635 -0.853,2.923 -0.427,6.059 1.173,8.661 13.184,21.227 54.464,139.115 62.4,167.872 1.28,4.629 5.483,7.829 10.283,7.829 h 64 c 5.888,0 10.667,-4.779 10.667,-10.667 v -192 c 0,-5.909 -4.779,-10.666 -10.667,-10.666 z m -10.666,192 H 445.312 C 435.2,276.391 405.333,190.503 388.672,155.005 c 16.277,-5.525 51.243,-15.019 101.995,-16.213 z"
   inkscape:connector-curvature="0" />
	</g>
</g><g
     id="g50">
</g><g
     id="g52">
</g><g
     id="g54">
</g><g
     id="g56">
</g><g
     id="g58">
</g><g
     id="g60">
</g><g
     id="g62">
</g><g
     id="g64">
</g><g
     id="g66">
</g><g
     id="g68">
</g><g
     id="g70">
</g><g
     id="g72">
</g><g
     id="g74">
</g><g
     id="g76">
</g><g
     id="g78">
</g></g>
</svg>