<?xml version="1.0" encoding="utf-8"?>
<!-- Generator: Adobe Illustrator 18.0.0, SVG Export Plug-In . SVG Version: 6.00 Build 0)  -->
<!DOCTYPE svg PUBLIC "-//W3C//DTD SVG 1.1//EN" "http://www.w3.org/Graphics/SVG/1.1/DTD/svg11.dtd">
<svg version="1.1" id="Calque_1" xmlns="http://www.w3.org/2000/svg" xmlns:xlink="http://www.w3.org/1999/xlink" x="0px" y="0px"
	 viewBox="0 0 30 30" enable-background="new 0 0 30 30" xml:space="preserve">
<g>
	<path fill="#91A7D6" d="M26.7,13.2l-6.3-6.3c-0.1-0.1-0.3-0.2-0.5-0.2l-15.3,0c-1.4,0-2.5,1.1-2.5,2.5l0,11.5
		c0,0.7,0.3,1.3,0.7,1.8l0,0C3.4,23,4,23.3,4.7,23.3l15.3,0c0.2,0,0.4-0.1,0.5-0.2l6.3-6.3C27.7,15.8,27.7,14.2,26.7,13.2z
		 M19.6,21.9h-15c-0.3,0-0.6-0.1-0.8-0.3c-0.2-0.2-0.3-0.5-0.3-0.8l0-11.5c0-0.6,0.5-1.1,1.1-1.1l15,0l6.1,6.1
		c0.4,0.4,0.4,1.2,0,1.6L19.6,21.9z"/>
	<path fill="#91A7D6" d="M21.4,13.5c-0.4-0.4-0.9-0.6-1.5-0.6c-0.6,0-1.1,0.2-1.5,0.6s-0.6,0.9-0.6,1.5s0.2,1.1,0.6,1.5
		c0.4,0.4,0.9,0.6,1.5,0.6s1.1-0.2,1.5-0.6c0.4-0.4,0.6-0.9,0.6-1.5C22.1,14.4,21.8,13.9,21.4,13.5z M19.9,15.8
		c-0.2,0-0.4-0.1-0.6-0.2c-0.1-0.1-0.2-0.3-0.2-0.6c0-0.2,0.1-0.4,0.2-0.6c0.1-0.1,0.3-0.2,0.6-0.2c0.2,0,0.4,0.1,0.6,0.2
		c0.1,0.1,0.2,0.3,0.2,0.6c0,0.2-0.1,0.4-0.2,0.6C20.3,15.7,20.1,15.8,19.9,15.8z"/>
</g>
</svg>
