<?xml version="1.0" encoding="utf-8"?>
<!-- Generator: Adobe Illustrator 18.0.0, SVG Export Plug-In . SVG Version: 6.00 Build 0)  -->
<!DOCTYPE svg PUBLIC "-//W3C//DTD SVG 1.1//EN" "http://www.w3.org/Graphics/SVG/1.1/DTD/svg11.dtd">
<svg version="1.1" id="Calque_1" xmlns="http://www.w3.org/2000/svg" xmlns:xlink="http://www.w3.org/1999/xlink" x="0px" y="0px"
	 viewBox="0 0 30 30" enable-background="new 0 0 30 30" xml:space="preserve">
<path fill="#1FBAA8" d="M17,5.6c-0.2-0.1-0.5-0.1-0.7,0.1L9.7,11H6.6c-0.7,0-1.3,0.6-1.3,1.3v5.4c0,0.7,0.6,1.3,1.3,1.3h3.1l6.5,5.2
	c0.1,0.1,0.3,0.1,0.4,0.1c0.1,0,0.2,0,0.3-0.1c0.2-0.1,0.4-0.3,0.4-0.6V6.3C17.4,6,17.2,5.8,17,5.6z"/>
<path fill="#1FBAA8" d="M20.8,10.2c-0.3-0.3-0.7-0.3-1,0c-0.3,0.3-0.3,0.7,0,1c1,1,1.6,2.4,1.6,3.8s-0.6,2.8-1.6,3.8
	c-0.3,0.3-0.3,0.7,0,1c0.1,0.1,0.3,0.2,0.5,0.2c0.2,0,0.3-0.1,0.5-0.2c1.3-1.3,2-2.9,2-4.8S22,11.5,20.8,10.2z"/>
<path fill="#1FBAA8" d="M22.7,8.3c-0.3-0.3-0.7-0.3-1,0c-0.3,0.3-0.3,0.7,0,1c1.5,1.5,2.4,3.5,2.4,5.7s-0.8,4.2-2.4,5.7
	c-0.3,0.3-0.3,0.7,0,1c0.1,0.1,0.3,0.2,0.5,0.2c0.2,0,0.3-0.1,0.5-0.2c1.8-1.8,2.8-4.1,2.8-6.7S24.4,10.1,22.7,8.3z"/>
</svg>
