<?xml version="1.0" encoding="UTF-8" standalone="no"?>
<!-- Generator: Adobe Illustrator 16.0.0, SVG Export Plug-In . SVG Version: 6.00 Build 0)  -->

<svg
   xmlns:dc="http://purl.org/dc/elements/1.1/"
   xmlns:cc="http://creativecommons.org/ns#"
   xmlns:rdf="http://www.w3.org/1999/02/22-rdf-syntax-ns#"
   xmlns:svg="http://www.w3.org/2000/svg"
   xmlns="http://www.w3.org/2000/svg"
   xmlns:sodipodi="http://sodipodi.sourceforge.net/DTD/sodipodi-0.dtd"
   xmlns:inkscape="http://www.inkscape.org/namespaces/inkscape"
   version="1.1"
   id="Capa_1"
   x="0px"
   y="0px"
   width="493.356px"
   height="493.356px"
   viewBox="0 0 493.356 493.356"
   style="enable-background:new 0 0 493.356 493.356;"
   xml:space="preserve"
   sodipodi:docname="long-arrow-pointing-to-the-right.svg"
   inkscape:version="0.92.4 (5da689c313, 2019-01-14)"><metadata
   id="metadata41"><rdf:RDF><cc:Work
       rdf:about=""><dc:format>image/svg+xml</dc:format><dc:type
         rdf:resource="http://purl.org/dc/dcmitype/StillImage" /></cc:Work></rdf:RDF></metadata><defs
   id="defs39" /><sodipodi:namedview
   pagecolor="#ffffff"
   bordercolor="#666666"
   borderopacity="1"
   objecttolerance="10"
   gridtolerance="10"
   guidetolerance="10"
   inkscape:pageopacity="0"
   inkscape:pageshadow="2"
   inkscape:window-width="1920"
   inkscape:window-height="1043"
   id="namedview37"
   showgrid="false"
   inkscape:zoom="0.95671282"
   inkscape:cx="297.84081"
   inkscape:cy="162.9383"
   inkscape:window-x="0"
   inkscape:window-y="0"
   inkscape:window-maximized="1"
   inkscape:current-layer="Capa_1" />
<g
   id="g4"
   transform="matrix(0.64406781,0,0,0.54233406,67.800634,112.89663)">
	<path
   d="m 490.498,254.0761 -109.632,99.929 c -3.046,2.474 -6.376,2.95 -9.993,1.427 -3.613,-1.525 -5.427,-4.283 -5.427,-8.282 v -63.954 H 71.241262 c -2.666,0 -4.856,-0.855 -6.567,-2.568 -1.71,-1.712 -2.569,-3.902 -2.569,-6.566 v -54.816 c 0,-2.663 0.855,-4.853 2.568,-6.563 1.715,-1.712 3.905,-2.567 6.567,-2.567 H 365.448 v -63.953 c 0,-3.812 1.817,-6.57 5.428,-8.278 3.62,-1.529 6.95,-0.951 9.996,1.708 l 109.632,101.077 c 1.903,1.902 2.852,4.182 2.852,6.849 0,2.468 -0.955,4.654 -2.858,6.557 z"
   id="path2"
   inkscape:connector-curvature="0"
   sodipodi:nodetypes="cccscsssscscscccsc" />
</g>
<g
   id="g6"
   transform="matrix(0.64406781,0,0,0.54233406,87.800642,112.89568)">
</g>
<g
   id="g8"
   transform="matrix(0.64406781,0,0,0.54233406,87.800642,112.89568)">
</g>
<g
   id="g10"
   transform="matrix(0.64406781,0,0,0.54233406,87.800642,112.89568)">
</g>
<g
   id="g12"
   transform="matrix(0.64406781,0,0,0.54233406,87.800642,112.89568)">
</g>
<g
   id="g14"
   transform="matrix(0.64406781,0,0,0.54233406,87.800642,112.89568)">
</g>
<g
   id="g16"
   transform="matrix(0.64406781,0,0,0.54233406,87.800642,112.89568)">
</g>
<g
   id="g18"
   transform="matrix(0.64406781,0,0,0.54233406,87.800642,112.89568)">
</g>
<g
   id="g20"
   transform="matrix(0.64406781,0,0,0.54233406,87.800642,112.89568)">
</g>
<g
   id="g22"
   transform="matrix(0.64406781,0,0,0.54233406,87.800642,112.89568)">
</g>
<g
   id="g24"
   transform="matrix(0.64406781,0,0,0.54233406,87.800642,112.89568)">
</g>
<g
   id="g26"
   transform="matrix(0.64406781,0,0,0.54233406,87.800642,112.89568)">
</g>
<g
   id="g28"
   transform="matrix(0.64406781,0,0,0.54233406,87.800642,112.89568)">
</g>
<g
   id="g30"
   transform="matrix(0.64406781,0,0,0.54233406,87.800642,112.89568)">
</g>
<g
   id="g32"
   transform="matrix(0.64406781,0,0,0.54233406,87.800642,112.89568)">
</g>
<g
   id="g34"
   transform="matrix(0.64406781,0,0,0.54233406,87.800642,112.89568)">
</g>
</svg>