<?xml version="1.0" encoding="UTF-8" standalone="no"?>
<!-- Generator: Adobe Illustrator 19.0.0, SVG Export Plug-In . SVG Version: 6.00 Build 0)  -->

<svg
   xmlns:dc="http://purl.org/dc/elements/1.1/"
   xmlns:cc="http://creativecommons.org/ns#"
   xmlns:rdf="http://www.w3.org/1999/02/22-rdf-syntax-ns#"
   xmlns:svg="http://www.w3.org/2000/svg"
   xmlns="http://www.w3.org/2000/svg"
   xmlns:sodipodi="http://sodipodi.sourceforge.net/DTD/sodipodi-0.dtd"
   xmlns:inkscape="http://www.inkscape.org/namespaces/inkscape"
   version="1.1"
   id="Capa_1"
   x="0px"
   y="0px"
   viewBox="0 0 512 512"
   style="enable-background:new 0 0 512 512;"
   xml:space="preserve"
   sodipodi:docname="merge.svg"
   inkscape:version="0.92.4 (5da689c313, 2019-01-14)"><metadata
   id="metadata52"><rdf:RDF><cc:Work
       rdf:about=""><dc:format>image/svg+xml</dc:format><dc:type
         rdf:resource="http://purl.org/dc/dcmitype/StillImage" /></cc:Work></rdf:RDF></metadata><defs
   id="defs50" /><sodipodi:namedview
   pagecolor="#ffffff"
   bordercolor="#666666"
   borderopacity="1"
   objecttolerance="10"
   gridtolerance="10"
   guidetolerance="10"
   inkscape:pageopacity="0"
   inkscape:pageshadow="2"
   inkscape:window-width="1920"
   inkscape:window-height="1043"
   id="namedview48"
   showgrid="false"
   inkscape:zoom="0.4609375"
   inkscape:cx="260.33898"
   inkscape:cy="256"
   inkscape:window-x="0"
   inkscape:window-y="0"
   inkscape:window-maximized="1"
   inkscape:current-layer="Capa_1" />
<linearGradient
   id="SVGID_1_"
   gradientUnits="userSpaceOnUse"
   x1="0"
   y1="258"
   x2="512"
   y2="258"
   gradientTransform="matrix(0.59322034,0,0,-0.59322034,0,513.18644)">
	<stop
   offset="0"
   style="stop-color:#00F2FE"
   id="stop2" />
	<stop
   offset="0.021"
   style="stop-color:#03EFFE"
   id="stop4" />
	<stop
   offset="0.293"
   style="stop-color:#24D2FE"
   id="stop6" />
	<stop
   offset="0.554"
   style="stop-color:#3CBDFE"
   id="stop8" />
	<stop
   offset="0.796"
   style="stop-color:#4AB0FE"
   id="stop10" />
	<stop
   offset="1"
   style="stop-color:#4FACFE"
   id="stop12" />
</linearGradient>
<path
   style="fill:#000000;stroke-width:0.62288135"
   d="m 252.8856,209.90677 h -18.06355 c -13.73828,0 -24.91527,11.17699 -24.91527,24.91527 v 18.68643 c 0,6.88034 -5.57728,12.45764 -12.45762,12.45764 -6.88035,0 -12.45764,-5.5773 -12.45764,-12.45764 v -18.68643 c 0,-27.47655 22.35397,-49.83052 49.83053,-49.83052 h 18.06356 c 6.88034,0 12.45762,5.57729 12.45762,12.45763 0,6.88035 -5.57728,12.45762 -12.45763,12.45762 z m 162.57203,24.91527 v 130.80507 c 0,27.47655 -22.35396,49.83051 -49.8305,49.83051 H 234.82204 c -27.47655,0 -49.83052,-22.35396 -49.83052,-49.83051 v -38.61864 h -38.61864 c -27.47653,0 -49.83051,-22.35397 -49.83051,-49.83052 V 146.37288 c 0,-27.47654 22.35398,-49.8305 49.83051,-49.8305 h 130.80509 c 27.47653,0 49.83051,22.35396 49.83051,49.8305 v 38.61864 h 38.61865 c 27.47654,0 49.8305,22.35398 49.8305,49.83052 z m -24.91526,0 c 0,-13.73828 -11.17698,-24.91527 -24.91524,-24.91527 h -51.07628 c -6.88034,0 -12.45763,-5.57727 -12.45763,-12.45762 v -51.07627 c 0,-13.73826 -11.17698,-24.91525 -24.91525,-24.91525 H 146.37288 c -13.73827,0 -24.91525,11.17699 -24.91525,24.91525 v 130.80507 c 0,13.73828 11.17698,24.91527 24.91525,24.91527 h 51.07628 c 6.88034,0 12.45762,5.57727 12.45762,12.45763 v 51.07626 c 0,13.73827 11.17698,24.91526 24.91526,24.91526 h 130.80509 c 13.73826,0 24.91524,-11.17699 24.91524,-24.91526 z m -75.99152,10.58897 c -6.88034,0 -12.45763,5.57728 -12.45763,12.45762 v 19.30932 c 0,13.73828 -11.17698,24.91527 -24.91525,24.91527 h -18.06356 c -6.88035,0 -12.45763,5.57727 -12.45763,12.45763 0,6.88034 5.57728,12.45762 12.45763,12.45762 h 18.06356 c 27.47653,0 49.83051,-22.35397 49.83051,-49.83052 v -19.30932 c 0,-6.88034 -5.57729,-12.45762 -12.45763,-12.45762 z"
   id="path15"
   inkscape:connector-curvature="0" />
<g
   id="g17"
   transform="matrix(0.59322034,0,0,0.59322034,0,208.27119)"
   style="fill:#000000">
</g>
<g
   id="g19"
   transform="matrix(0.59322034,0,0,0.59322034,0,208.27119)"
   style="fill:#000000">
</g>
<g
   id="g21"
   transform="matrix(0.59322034,0,0,0.59322034,0,208.27119)"
   style="fill:#000000">
</g>
<g
   id="g23"
   transform="matrix(0.59322034,0,0,0.59322034,0,208.27119)"
   style="fill:#000000">
</g>
<g
   id="g25"
   transform="matrix(0.59322034,0,0,0.59322034,0,208.27119)"
   style="fill:#000000">
</g>
<g
   id="g27"
   transform="matrix(0.59322034,0,0,0.59322034,0,208.27119)"
   style="fill:#000000">
</g>
<g
   id="g29"
   transform="matrix(0.59322034,0,0,0.59322034,0,208.27119)"
   style="fill:#000000">
</g>
<g
   id="g31"
   transform="matrix(0.59322034,0,0,0.59322034,0,208.27119)"
   style="fill:#000000">
</g>
<g
   id="g33"
   transform="matrix(0.59322034,0,0,0.59322034,0,208.27119)"
   style="fill:#000000">
</g>
<g
   id="g35"
   transform="matrix(0.59322034,0,0,0.59322034,0,208.27119)"
   style="fill:#000000">
</g>
<g
   id="g37"
   transform="matrix(0.59322034,0,0,0.59322034,0,208.27119)"
   style="fill:#000000">
</g>
<g
   id="g39"
   transform="matrix(0.59322034,0,0,0.59322034,0,208.27119)"
   style="fill:#000000">
</g>
<g
   id="g41"
   transform="matrix(0.59322034,0,0,0.59322034,0,208.27119)"
   style="fill:#000000">
</g>
<g
   id="g43"
   transform="matrix(0.59322034,0,0,0.59322034,0,208.27119)"
   style="fill:#000000">
</g>
<g
   id="g45"
   transform="matrix(0.59322034,0,0,0.59322034,0,208.27119)"
   style="fill:#000000">
</g>
</svg>