<?xml version="1.0" encoding="utf-8"?>
<!-- Generator: Adobe Illustrator 18.0.0, SVG Export Plug-In . SVG Version: 6.00 Build 0)  -->
<!DOCTYPE svg PUBLIC "-//W3C//DTD SVG 1.1//EN" "http://www.w3.org/Graphics/SVG/1.1/DTD/svg11.dtd">
<svg version="1.1" id="Calque_1" xmlns="http://www.w3.org/2000/svg" xmlns:xlink="http://www.w3.org/1999/xlink" x="0px" y="0px"
	 viewBox="0 0 30 30" enable-background="new 0 0 30 30" xml:space="preserve">
<path display="none" d="M0.9,15l3.3-3.3c0.1-0.1,0.1-0.3,0-0.4c-0.1-0.1-0.3-0.1-0.4,0l-3.5,3.5C0.3,14.9,0.2,15,0.2,15
	c0,0.1,0,0.1,0.1,0.2l3.5,3.5c0.1,0.1,0.1,0.1,0.2,0.1s0.1,0,0.2-0.1c0.1-0.1,0.1-0.3,0-0.4L0.9,15z"/>
<g>
	<g>
		<path d="M17.9,8.6H2.6C1.9,8.6,1.3,8,1.3,7.3v0C1.3,6.6,1.9,6,2.6,6h15.3c0.7,0,1.3,0.6,1.3,1.3v0C19.3,8,18.7,8.6,17.9,8.6z"/>
	</g>
	<g>
		<path d="M17.9,16.3H2.6c-0.7,0-1.3-0.6-1.3-1.3v0c0-0.7,0.6-1.3,1.3-1.3h15.3c0.7,0,1.3,0.6,1.3,1.3v0
			C19.3,15.7,18.7,16.3,17.9,16.3z"/>
	</g>
	<g>
		<path d="M17.9,24H2.6c-0.7,0-1.3-0.6-1.3-1.3v0c0-0.7,0.6-1.3,1.3-1.3h15.3c0.7,0,1.3,0.6,1.3,1.3v0C19.3,23.4,18.7,24,17.9,24z"
			/>
	</g>
	<path d="M27.9,15.8l-4.1,4.1c-0.1,0.1-0.1,0.3,0,0.5c0.1,0.1,0.3,0.1,0.5,0l4.3-4.3c0.1-0.1,0.1-0.2,0.1-0.2c0-0.1,0-0.2-0.1-0.2
		l-4.3-4.3c-0.1-0.1-0.1-0.1-0.2-0.1c-0.1,0-0.2,0-0.2,0.1c-0.1,0.1-0.1,0.3,0,0.5L27.9,15.8z"/>
</g>
</svg>
