<?xml version="1.0" encoding="utf-8"?>
<!-- Generator: Adobe Illustrator 18.0.0, SVG Export Plug-In . SVG Version: 6.00 Build 0)  -->
<!DOCTYPE svg PUBLIC "-//W3C//DTD SVG 1.1//EN" "http://www.w3.org/Graphics/SVG/1.1/DTD/svg11.dtd">
<svg version="1.1" id="Calque_1" xmlns="http://www.w3.org/2000/svg" xmlns:xlink="http://www.w3.org/1999/xlink" x="0px" y="0px"
	 viewBox="0 0 30 30" enable-background="new 0 0 30 30" xml:space="preserve">
<path fill="#91A7D6" d="M7.6,27.8c-0.3,0-0.6-0.1-0.8-0.3c-0.5-0.3-0.7-0.9-0.6-1.5L8,18.5l-5.8-5.1c-0.4-0.4-0.6-1-0.4-1.5
	c0.2-0.5,0.7-0.9,1.2-1l7.7-0.7l3-7.1c0.2-0.5,0.7-0.9,1.3-0.9s1.1,0.3,1.3,0.9l3,7.1l7.7,0.7c0.6,0.1,1,0.4,1.2,1
	c0.2,0.5,0,1.1-0.4,1.5L22,18.5l1.7,7.6c0.1,0.6-0.1,1.1-0.6,1.5c-0.5,0.3-1.1,0.4-1.6,0.1l-6.6-4l-6.6,4
	C8.1,27.7,7.9,27.8,7.6,27.8z M15,21.9c0.3,0,0.5,0.1,0.7,0.2l6.3,3.7l-1.6-7.1c-0.1-0.5,0.1-1,0.4-1.4l5.5-4.8L19,11.9
	c-0.5,0-1-0.4-1.2-0.9L15,4.3L12.1,11c-0.2,0.5-0.7,0.8-1.2,0.9l-7.3,0.7l5.5,4.8c0.4,0.3,0.6,0.9,0.4,1.4L8,25.8l6.3-3.7
	C14.5,22,14.7,21.9,15,21.9z M10.6,10.3C10.6,10.3,10.6,10.3,10.6,10.3L10.6,10.3z M19.4,10.3L19.4,10.3
	C19.4,10.3,19.4,10.3,19.4,10.3z"/>
</svg>
