<?xml version="1.0" encoding="utf-8"?>
<!-- Generator: Adobe Illustrator 18.0.0, SVG Export Plug-In . SVG Version: 6.00 Build 0)  -->
<!DOCTYPE svg PUBLIC "-//W3C//DTD SVG 1.1//EN" "http://www.w3.org/Graphics/SVG/1.1/DTD/svg11.dtd">
<svg version="1.1" id="Calque_1" xmlns="http://www.w3.org/2000/svg" xmlns:xlink="http://www.w3.org/1999/xlink" x="0px" y="0px"
	 viewBox="0 0 40 40" enable-background="new 0 0 40 40" xml:space="preserve">
<path fill="#FFFFFF" d="M15.6,3.3H9.3c-1.1,0-2,0.9-2,2v29.4c0,1.1,0.9,2,2,2h6.3c1.1,0,2-0.9,2-2V5.3C17.6,4.2,16.7,3.3,15.6,3.3
	L15.6,3.3z"/>
<path fill="#FFFFFF" d="M30.5,3.3h-6.3c-1.1,0-2,0.9-2,2v29.4c0,1.1,0.9,2,2,2h6.3c1.1,0,2-0.9,2-2V5.3C32.5,4.2,31.6,3.3,30.5,3.3
	L30.5,3.3z"/>
</svg>
