<?xml version="1.0" encoding="utf-8"?>
<!-- Generator: Adobe Illustrator 18.0.0, SVG Export Plug-In . SVG Version: 6.00 Build 0)  -->
<!DOCTYPE svg PUBLIC "-//W3C//DTD SVG 1.1//EN" "http://www.w3.org/Graphics/SVG/1.1/DTD/svg11.dtd">
<svg version="1.1" id="Calque_1" xmlns="http://www.w3.org/2000/svg" xmlns:xlink="http://www.w3.org/1999/xlink" x="0px" y="0px"
	 viewBox="0 0 30 30" enable-background="new 0 0 30 30" xml:space="preserve">
<path fill="#91A7D6" d="M25.6,15.3c0.2-0.1,0.4-0.3,0.6-0.5c0.7-0.8,1.1-1.8,1.1-2.9c0-2.3-1.8-4.1-4-4.1c-1.7,0-3.2,1.2-3.7,2.8
	c-0.5-1.9-2.2-3.4-4.2-3.4c-2.1,0-3.8,1.5-4.3,3.5c-0.5-1.7-2-3-3.8-3c-2.2,0-3.9,1.9-3.9,4.2c0,1.4,0.7,2.6,1.7,3.3
	c-2.3,0.6-4.1,2.8-4.1,5.3v2.7h7.7V22c0-1.5,0.6-3,1.7-4.1c0.3-0.3,0.6-0.5,0.9-0.7l0.9-0.6L11.2,16c-0.5-0.3-1-0.6-1.6-0.7
	c0.2-0.1,0.4-0.3,0.5-0.5c0.4-0.5,0.7-1.1,0.9-1.7c0.3,1.3,1.2,2.4,2.4,3c0.2,0.1,0.5,0.2,0.7,0.3c-0.9,0-1.8,0.3-2.5,0.7
	c-1.7,1-2.8,2.8-2.8,4.8v2.2h13.1V22c0-2-1.1-3.9-2.9-4.9c-0.8-0.4-1.6-0.6-2.5-0.7c0.2-0.1,0.5-0.1,0.7-0.3c1.1-0.6,2-1.6,2.3-2.9
	c0.3,0.8,0.8,1.5,1.4,2c-0.5,0.1-1.1,0.4-1.5,0.7l-0.9,0.6l0.9,0.6c0.3,0.2,0.6,0.5,0.9,0.7c1.1,1.1,1.7,2.5,1.7,4.1v1.4h7.6v-2.7
	C29.7,18.1,27.9,16,25.6,15.3z M9.3,16.9c-1.3,1.3-2.1,3.1-2.1,5l-4.9,0v-1.3c0-2.3,1.9-4.1,4.1-4.1h1.7c0.5,0,0.9,0.1,1.4,0.2
	C9.4,16.8,9.4,16.9,9.3,16.9z M9.1,13.9c-0.5,0.5-1.1,0.8-1.8,0.8l0,0.4h0v-0.4c-1.4,0-2.5-1.2-2.6-2.7c0-1.5,1.1-2.7,2.6-2.8
	c1.4,0,2.5,1.2,2.6,2.7C9.8,12.7,9.6,13.4,9.1,13.9z M18.3,18.3c1.3,0.7,2.2,2.1,2.2,3.6v0.8H10.2V22c0-1.5,0.8-2.9,2.1-3.6
	c0.6-0.3,1.3-0.5,2-0.5h2C17,17.8,17.7,18,18.3,18.3z M16.6,14.9c-0.8,0.4-1.8,0.4-2.6,0c-1.1-0.5-1.8-1.7-1.8-3
	c0-1.8,1.4-3.3,3.1-3.3c1.7,0,3,1.5,3,3.3C18.4,13.2,17.7,14.4,16.6,14.9z M20.8,12c0-1.5,1.1-2.7,2.6-2.8c1.4,0,2.5,1.2,2.6,2.7
	c0,0.7-0.3,1.4-0.7,1.9c-0.5,0.5-1.1,0.8-1.8,0.8l0,0.4h0v-0.4C21.9,14.7,20.8,13.5,20.8,12z M28.3,22h-4.8v0c0-1.9-0.7-3.7-2.1-5
	c-0.1-0.1-0.1-0.1-0.2-0.2c0.4-0.1,0.9-0.2,1.3-0.2h1.7c2.3,0,4.1,1.9,4.1,4.1V22z"/>
</svg>
