<?xml version="1.0" encoding="utf-8"?>
<!-- Generator: Adobe Illustrator 18.0.0, SVG Export Plug-In . SVG Version: 6.00 Build 0)  -->
<!DOCTYPE svg PUBLIC "-//W3C//DTD SVG 1.1//EN" "http://www.w3.org/Graphics/SVG/1.1/DTD/svg11.dtd">
<svg version="1.1" id="Calque_1" xmlns="http://www.w3.org/2000/svg" xmlns:xlink="http://www.w3.org/1999/xlink" x="0px" y="0px"
	 viewBox="0 0 30 30" enable-background="new 0 0 30 30" xml:space="preserve">
<path fill="#010101" d="M20.3,27.8H9.7c-1.4,0-2.4-1.2-2.4-2.7L6.2,10.2c0-0.3,0.2-0.5,0.5-0.5h16.6c0.3,0,0.5,0.2,0.5,0.5
	l-1.1,14.9C22.7,26.6,21.7,27.8,20.3,27.8z M7.2,10.7l1.1,14.4c0,0.9,0.7,1.6,1.5,1.6h10.6c0.8,0,1.5-0.7,1.5-1.6l1.1-14.4H7.2z"/>
<path fill="#010101" d="M25.3,10.7H4.7c-0.3,0-0.5-0.2-0.5-0.5V8.1c0-1.5,1.1-2.7,2.4-2.7h16.6c1.4,0,2.4,1.2,2.4,2.7v2.1
	C25.8,10.5,25.6,10.7,25.3,10.7z M5.2,9.7h19.6V8.1c0-0.9-0.7-1.6-1.5-1.6H6.7c-0.8,0-1.5,0.7-1.5,1.6V9.7z"/>
<path fill="#010101" d="M18.4,6.5h-6.9c-0.3,0-0.5-0.2-0.5-0.5V3.8c0-0.9,0.7-1.6,1.5-1.6h4.9c0.8,0,1.5,0.7,1.5,1.6V6
	C18.9,6.3,18.7,6.5,18.4,6.5z M12.1,5.4h5.9V3.8c0-0.3-0.2-0.5-0.5-0.5h-4.9c-0.3,0-0.5,0.2-0.5,0.5V5.4z"/>
<path fill="#010101" d="M10.6,23.5c-0.3,0-0.5-0.2-0.5-0.5v-8.5c0-0.3,0.2-0.5,0.5-0.5s0.5,0.2,0.5,0.5V23
	C11.1,23.3,10.9,23.5,10.6,23.5z"/>
<path fill="#010101" d="M15,23.5c-0.3,0-0.5-0.2-0.5-0.5v-8.5c0-0.3,0.2-0.5,0.5-0.5s0.5,0.2,0.5,0.5V23
	C15.5,23.3,15.3,23.5,15,23.5z"/>
<path fill="#010101" d="M19.4,23.5c-0.3,0-0.5-0.2-0.5-0.5v-8.5c0-0.3,0.2-0.5,0.5-0.5c0.3,0,0.5,0.2,0.5,0.5V23
	C19.9,23.3,19.7,23.5,19.4,23.5z"/>
</svg>
