<?xml version="1.0" encoding="UTF-8" standalone="no"?>
<!-- Generator: Adobe Illustrator 19.1.0, SVG Export Plug-In . SVG Version: 6.00 Build 0)  -->

<svg
   xmlns:dc="http://purl.org/dc/elements/1.1/"
   xmlns:cc="http://creativecommons.org/ns#"
   xmlns:rdf="http://www.w3.org/1999/02/22-rdf-syntax-ns#"
   xmlns:svg="http://www.w3.org/2000/svg"
   xmlns="http://www.w3.org/2000/svg"
   xmlns:sodipodi="http://sodipodi.sourceforge.net/DTD/sodipodi-0.dtd"
   xmlns:inkscape="http://www.inkscape.org/namespaces/inkscape"
   version="1.1"
   id="Capa_1"
   x="0px"
   y="0px"
   viewBox="0 0 471.2 471.2"
   style="enable-background:new 0 0 471.2 471.2;"
   xml:space="preserve"
   sodipodi:docname="upload.svg"
   inkscape:version="0.92.4 (5da689c313, 2019-01-14)"><metadata
   id="metadata45"><rdf:RDF><cc:Work
       rdf:about=""><dc:format>image/svg+xml</dc:format><dc:type
         rdf:resource="http://purl.org/dc/dcmitype/StillImage" /></cc:Work></rdf:RDF></metadata><defs
   id="defs43" /><sodipodi:namedview
   pagecolor="#ffffff"
   bordercolor="#666666"
   borderopacity="1"
   objecttolerance="10"
   gridtolerance="10"
   guidetolerance="10"
   inkscape:pageopacity="0"
   inkscape:pageshadow="2"
   inkscape:window-width="1920"
   inkscape:window-height="1043"
   id="namedview41"
   showgrid="false"
   inkscape:zoom="0.50084888"
   inkscape:cx="243.58645"
   inkscape:cy="231.60679"
   inkscape:window-x="0"
   inkscape:window-y="0"
   inkscape:window-maximized="1"
   inkscape:current-layer="Capa_1" />
<g
   id="g8"
   transform="matrix(0.69491524,0,0,0.70685184,71.877976,69.065713)">
	<g
   id="g6">
		<path
   d="m 457.7,230.15 c -7.5,0 -13.5,6 -13.5,13.5 v 122.8 c 0,33.4 -27.2,60.5 -60.5,60.5 H 87.5 c -33.4,0 -60.5,-27.2 -60.5,-60.5 v -124.8 c 0,-7.5 -6,-13.5 -13.5,-13.5 -7.5,0 -13.5,6 -13.5,13.5 v 124.8 c 0,48.3 39.3,87.5 87.5,87.5 h 296.2 c 48.3,0 87.5,-39.3 87.5,-87.5 v -122.8 c 0,-7.4 -6,-13.5 -13.5,-13.5 z"
   id="path2"
   inkscape:connector-curvature="0" />
		<path
   d="m 159.3,126.15 62.8,-62.8 v 273.9 c 0,7.5 6,13.5 13.5,13.5 7.5,0 13.5,-6 13.5,-13.5 V 63.35 l 62.8,62.8 c 2.6,2.6 6.1,4 9.5,4 3.5,0 6.9,-1.3 9.5,-4 5.3,-5.3 5.3,-13.8 0,-19.1 l -85.8,-85.8 c -2.5,-2.5 -6,-4 -9.5,-4 -3.6,0 -7,1.4 -9.5,4 l -85.8,85.8 c -5.3,5.3 -5.3,13.8 0,19.1 5.2,5.2 13.8,5.2 19,0 z"
   id="path4"
   inkscape:connector-curvature="0" />
	</g>
</g>
<g
   id="g10"
   transform="matrix(0.69491524,0,0,0.70685184,-14.538699,148.27415)">
</g>
<g
   id="g12"
   transform="matrix(0.69491524,0,0,0.70685184,-14.538699,148.27415)">
</g>
<g
   id="g14"
   transform="matrix(0.69491524,0,0,0.70685184,-14.538699,148.27415)">
</g>
<g
   id="g16"
   transform="matrix(0.69491524,0,0,0.70685184,-14.538699,148.27415)">
</g>
<g
   id="g18"
   transform="matrix(0.69491524,0,0,0.70685184,-14.538699,148.27415)">
</g>
<g
   id="g20"
   transform="matrix(0.69491524,0,0,0.70685184,-14.538699,148.27415)">
</g>
<g
   id="g22"
   transform="matrix(0.69491524,0,0,0.70685184,-14.538699,148.27415)">
</g>
<g
   id="g24"
   transform="matrix(0.69491524,0,0,0.70685184,-14.538699,148.27415)">
</g>
<g
   id="g26"
   transform="matrix(0.69491524,0,0,0.70685184,-14.538699,148.27415)">
</g>
<g
   id="g28"
   transform="matrix(0.69491524,0,0,0.70685184,-14.538699,148.27415)">
</g>
<g
   id="g30"
   transform="matrix(0.69491524,0,0,0.70685184,-14.538699,148.27415)">
</g>
<g
   id="g32"
   transform="matrix(0.69491524,0,0,0.70685184,-14.538699,148.27415)">
</g>
<g
   id="g34"
   transform="matrix(0.69491524,0,0,0.70685184,-14.538699,148.27415)">
</g>
<g
   id="g36"
   transform="matrix(0.69491524,0,0,0.70685184,-14.538699,148.27415)">
</g>
<g
   id="g38"
   transform="matrix(0.69491524,0,0,0.70685184,-14.538699,148.27415)">
</g>
</svg>