<svg width="48" height="49" viewBox="0 0 48 49" fill="none" xmlns="http://www.w3.org/2000/svg">
<path fill-rule="evenodd" clip-rule="evenodd" d="M9.99948 10.4995C13.5806 6.91836 18.5331 4.7002 24.0002 4.7002C29.4673 4.7002 34.4198 6.91836 38.0009 10.4995C41.582 14.0806 43.8002 19.0331 43.8002 24.5002C43.8002 29.9673 41.582 34.9198 38.0009 38.5009C34.4198 42.082 29.4673 44.3002 24.0002 44.3002C18.5331 44.3002 13.5806 42.082 9.99948 38.5009C6.41836 34.9198 4.2002 29.9673 4.2002 24.5002C4.2002 19.0331 6.41836 14.0806 9.99948 10.4995ZM24.0002 8.3002C19.5262 8.3002 15.4787 10.1115 12.5451 13.0451C9.61147 15.9787 7.8002 20.0262 7.8002 24.5002C7.8002 28.9742 9.61147 33.0217 12.5451 35.9553C15.4787 38.8889 19.5262 40.7002 24.0002 40.7002C28.4742 40.7002 32.5217 38.8889 35.4553 35.9553C38.3889 33.0217 40.2002 28.9742 40.2002 24.5002C40.2002 20.0262 38.3889 15.9787 35.4553 13.0451C32.5217 10.1115 28.4742 8.3002 24.0002 8.3002Z" fill="#00ACC9"/>
<path fill-rule="evenodd" clip-rule="evenodd" d="M15.6563 16.1563C17.7897 14.0229 20.7422 12.7002 24.0002 12.7002C27.2582 12.7002 30.2106 14.0229 32.3441 16.1563C34.4775 18.2897 35.8002 21.2422 35.8002 24.5002C35.8002 27.7582 34.4775 30.7106 32.3441 32.8441C30.2106 34.9775 27.2582 36.3002 24.0002 36.3002C20.7422 36.3002 17.7897 34.9775 15.6563 32.8441C13.5229 30.7106 12.2002 27.7582 12.2002 24.5002C12.2002 21.2422 13.5229 18.2897 15.6563 16.1563ZM24.0002 16.3002C21.7353 16.3002 19.6878 17.216 18.2019 18.7019C16.716 20.1878 15.8002 22.2353 15.8002 24.5002C15.8002 26.7651 16.716 28.8126 18.2019 30.2985C19.6878 31.7844 21.7353 32.7002 24.0002 32.7002C26.2651 32.7002 28.3126 31.7844 29.7985 30.2985C31.2844 28.8126 32.2002 26.7651 32.2002 24.5002C32.2002 22.2353 31.2844 20.1878 29.7985 18.7019C28.3126 17.216 26.2651 16.3002 24.0002 16.3002Z" fill="#00ACC9"/>
<path fill-rule="evenodd" clip-rule="evenodd" d="M26.6872 21.8132C26.0015 21.1275 25.049 20.7002 24.0002 20.7002C22.9514 20.7002 21.9989 21.1275 21.3132 21.8132C20.6275 22.4989 20.2002 23.4514 20.2002 24.5002C20.2002 25.549 20.6275 26.5015 21.3132 27.1872C21.9989 27.8729 22.9514 28.3002 24.0002 28.3002C25.049 28.3002 26.0015 27.8729 26.6872 27.1872C27.3729 26.5015 27.8002 25.549 27.8002 24.5002C27.8002 23.4514 27.3729 22.4989 26.6872 21.8132Z" fill="#00ACC9"/>
</svg>
